<?xml version="1.0" encoding="utf-8"?>
<!-- Generator: Adobe Illustrator 16.0.2, SVG Export Plug-In . SVG Version: 6.00 Build 0)  -->
<!DOCTYPE svg PUBLIC "-//W3C//DTD SVG 1.1//EN" "http://www.w3.org/Graphics/SVG/1.1/DTD/svg11.dtd">
<svg version="1.1" id="Capa_1" xmlns="http://www.w3.org/2000/svg" xmlns:xlink="http://www.w3.org/1999/xlink" x="0px" y="0px"
	 width="40px" height="40px" viewBox="236 0 40 40" enable-background="new 236 0 40 40" xml:space="preserve">
<path fill="#C3302B" d="M253.589,29.588c0,0.049,0,0.111-0.027,0.145c-0.184,0.238-0.404,0.436-0.691,0.542
	c-0.25,0.091-0.45-0.021-0.502-0.28c-0.021-0.103-0.022-0.21-0.022-0.316c0-1.935-0.006-5.903-0.009-5.952h-1.428
	c0,0.054-0.002,5.582,0.001,6.626c0.001,0.283,0.031,0.563,0.148,0.826c0.126,0.285,0.336,0.464,0.649,0.516
	c0.229,0.04,0.453,0.014,0.67-0.061c0.446-0.153,0.795-0.443,1.103-0.791c0.027-0.031,0.056-0.061,0.108-0.116v0.867h1.431V27.8
	c0-1.315,0-4.086,0-4.086l-1.432,0.003V29.588z"/>
<path fill="#C3302B" d="M260.357,24.342c-0.302-0.643-0.937-0.813-1.487-0.676c-0.333,0.084-0.604,0.276-0.825,0.525
	c-0.074,0.083-0.155,0.245-0.155,0.245s0-2.376,0-3.512h-1.434v10.669h1.434v-0.599c0,0,0.103,0.108,0.139,0.147
	c0.329,0.357,0.729,0.553,1.222,0.557c0.605,0.006,1.026-0.287,1.218-0.863c0.089-0.268,0.118-0.543,0.118-0.822
	c0.002-1.491,0.002-2.982,0-4.474C260.586,25.127,260.535,24.722,260.357,24.342z M259.109,29.835c0,0.08-0.01,0.161-0.026,0.239
	c-0.066,0.313-0.304,0.453-0.641,0.384c-0.205-0.042-0.364-0.16-0.501-0.308c-0.007-0.007-0.047-0.062-0.047-0.062v-0.117
	l-0.004-4.737c0,0,0.031-0.087,0.099-0.146c0.169-0.149,0.354-0.243,0.587-0.22c0.198,0.02,0.356,0.111,0.431,0.294
	c0.055,0.14,0.099,0.295,0.1,0.444C259.113,27.016,259.111,28.425,259.109,29.835z"/>
<path fill="#C3302B" d="M255.2,15.043c0.334,0,0.606-0.272,0.606-0.606v-4.279c0-0.334-0.272-0.606-0.606-0.606
	s-0.606,0.272-0.606,0.606v4.279C254.594,14.771,254.866,15.043,255.2,15.043z"/>
<polygon fill="#C3302B" points="250.913,20.925 245.945,20.925 245.945,22.454 247.619,22.454 247.619,31.594 249.236,31.594 
	249.236,22.45 250.913,22.45 "/>
<path fill="#C3302B" d="M264.454,28.796v1.012c0,0.354-0.286,0.64-0.639,0.64c-0.354,0-0.64-0.286-0.64-0.64v-1.969h2.746
	c0,0,0.016-1.374,0.005-1.997c-0.005-0.266-0.025-0.535-0.079-0.795c-0.143-0.674-0.505-1.183-1.184-1.405
	c-0.199-0.066-0.413-0.1-0.623-0.113c-0.698-0.045-1.309,0.154-1.786,0.689c-0.419,0.468-0.564,1.031-0.565,1.642
	c-0.003,1.168-0.008,2.337,0.004,3.505c0.003,0.298,0.037,0.602,0.104,0.891c0.146,0.622,0.485,1.111,1.085,1.381
	c0.438,0.199,0.9,0.208,1.367,0.14c0.753-0.11,1.267-0.514,1.515-1.242c0.188-0.545,0.165-1.74,0.165-1.74H264.454L264.454,28.796z
	 M263.176,25.514c0-0.353,0.286-0.64,0.64-0.64c0.353,0,0.639,0.287,0.639,0.64v1.105h-1.278V25.514z"/>
<path fill="#C3302B" d="M236,0v40h40V0H236z M258.534,8.337h1.456v6.041c0,0.08,0.007,0.161,0.021,0.239
	c0.044,0.249,0.229,0.366,0.468,0.283c0.293-0.101,0.516-0.304,0.705-0.542c0.026-0.034,0.021-0.098,0.021-0.147V8.337h1.467v7.921
	h-1.468l0.002-0.851c-0.162,0.16-0.301,0.309-0.453,0.443c-0.27,0.238-0.575,0.415-0.933,0.485
	c-0.549,0.107-1.017-0.066-1.191-0.635c-0.059-0.189-0.094-0.394-0.095-0.591V8.337z M255.2,8.139L255.2,8.139
	c1.161,0,2.102,0.941,2.102,2.102v4.113c0,1.161-0.941,2.102-2.102,2.102l0,0c-1.161,0-2.102-0.941-2.102-2.102v-4.113
	C253.099,9.08,254.04,8.139,255.2,8.139z M249.547,5.536c0,0,0.667,2.835,0.986,4.178h0c0.318-1.343,0.986-4.178,0.986-4.178h1.67
	c0,0-1.283,4.256-1.857,6.154c-0.021,0.068-0.03,0.143-0.03,0.215l0,4.352h-1.54l0-4.352c0-0.072-0.009-0.146-0.03-0.215
	c-0.574-1.898-1.857-6.154-1.857-6.154H249.547z M267.912,30.796c0,1.947-1.556,3.537-3.502,3.578
	c-5.605,0.121-11.214,0.121-16.821,0c-1.945-0.041-3.5-1.631-3.5-3.578V22.04c0-1.946,1.555-3.537,3.5-3.578
	c5.607-0.121,11.215-0.121,16.821,0c1.946,0.041,3.502,1.631,3.502,3.578V30.796z"/>
</svg>
