<?xml version="1.0" encoding="utf-8"?>
<!-- Generator: Adobe Illustrator 16.0.2, SVG Export Plug-In . SVG Version: 6.00 Build 0)  -->
<!DOCTYPE svg PUBLIC "-//W3C//DTD SVG 1.1//EN" "http://www.w3.org/Graphics/SVG/1.1/DTD/svg11.dtd">
<svg version="1.1" id="Capa_1" xmlns="http://www.w3.org/2000/svg" xmlns:xlink="http://www.w3.org/1999/xlink" x="0px" y="0px"
	 width="40px" height="40px" viewBox="0 0.013 40 40" enable-background="new 0 0.013 40 40" xml:space="preserve">
<path fill="#475993" d="M37.791,0.013H2.208C0.989,0.013,0,1,0,2.22v35.583c0,1.22,0.989,2.209,2.208,2.209h19.157v-15.49h-5.212
	v-6.038h5.212v-4.453c0-5.166,3.154-7.98,7.763-7.98c2.21,0,4.104,0.166,4.657,0.237v5.399l-3.197,0.001
	c-2.506,0-2.99,1.191-2.99,2.938v3.854h5.979l-0.782,6.037h-5.198v15.491h10.192c1.22,0,2.209-0.99,2.209-2.207V2.219
	C40,1,39.011,0.013,37.791,0.013z"/>
</svg>
