<?xml version="1.0" encoding="utf-8"?>
<!-- Generator: Adobe Illustrator 16.0.2, SVG Export Plug-In . SVG Version: 6.00 Build 0)  -->
<!DOCTYPE svg PUBLIC "-//W3C//DTD SVG 1.1//EN" "http://www.w3.org/Graphics/SVG/1.1/DTD/svg11.dtd">
<svg version="1.1" id="Capa_1" xmlns="http://www.w3.org/2000/svg" xmlns:xlink="http://www.w3.org/1999/xlink" x="0px" y="0px"
	 width="40px" height="40px" viewBox="0 0 40 40" enable-background="new 0 0 40 40" xml:space="preserve">
<path fill="#50ABF1" d="M0,0v40h40V0H0z M31.709,14.39c0.009,0.235,0.014,0.471,0.014,0.708c0,9.509-7.709,17.219-17.219,17.219
	c-3.385,0-6.543-0.977-9.205-2.666c0,0-0.001,0-0.002,0h0.002l0,0c5.204,0.776,8.87-2.535,8.87-2.535
	c-4.637-0.361-5.553-4.22-5.553-4.22c1.638,0.277,2.666-0.112,2.666-0.112c-5.22-1.221-4.775-5.998-4.775-5.998
	c1.208,0.722,2.609,0.778,2.609,0.778c-4.608-4.054-1.721-7.997-1.721-7.997c4.832,5.852,11.935,6.25,12.401,6.269
	c-0.102-0.44-0.156-0.898-0.156-1.369c0-3.335,2.705-6.039,6.042-6.039c1.74,0,3.308,0.735,4.411,1.912
	c0.306-0.085,0.602-0.178,0.885-0.272c1.711-0.571,2.933-1.223,2.933-1.223c-0.295,1.767-2.473,3.25-2.629,3.354
	c-0.006,0.004-0.009,0.006-0.009,0.006c0.003,0,0.008-0.001,0.011-0.001c1.691-0.169,3.419-0.887,3.419-0.887
	C34.181,12.414,32.053,14.119,31.709,14.39z"/>
</svg>
