<?xml version="1.0" encoding="utf-8"?>
<!-- Generator: Adobe Illustrator 16.0.2, SVG Export Plug-In . SVG Version: 6.00 Build 0)  -->
<!DOCTYPE svg PUBLIC "-//W3C//DTD SVG 1.1//EN" "http://www.w3.org/Graphics/SVG/1.1/DTD/svg11.dtd">
<svg version="1.1" id="Capa_1" xmlns="http://www.w3.org/2000/svg" xmlns:xlink="http://www.w3.org/1999/xlink" x="0px" y="0px"
	 width="40px" height="40px" viewBox="0 0 40 40" enable-background="new 0 0 40 40" xml:space="preserve">
<g>
	<path fill="#436EAB" d="M21.259,17.86c0.529-0.403,0.807-1.121,0.807-1.783c0-0.719-0.334-1.409-0.946-1.782
		c-0.641-0.374-1.811-0.287-2.563-0.287h-1.036v4.313h1.37C19.671,18.32,20.591,18.378,21.259,17.86z"/>
	<path fill="#436EAB" d="M0,0v40h40V0H0z M21.085,30.223h-8.172V10.5h8.929c2.586,0,4.972,1.646,4.972,4.55
		c0,2.242-1.251,3.778-2.848,4.255v0.058c2.368,0.489,4.058,1.775,4.058,4.877C28.024,27.111,26.069,30.223,21.085,30.223z"/>
	<path fill="#436EAB" d="M22.156,22.045c-0.641-0.373-1.532-0.373-2.256-0.373h-2.378v4.9h2.182c0.808,0,1.838,0.058,2.535-0.431
		c0.64-0.431,1.001-1.275,1.001-2.08C23.24,23.313,22.795,22.419,22.156,22.045z"/>
</g>
</svg>
