<?xml version="1.0" encoding="utf-8"?>
<!-- Generator: Adobe Illustrator 16.0.2, SVG Export Plug-In . SVG Version: 6.00 Build 0)  -->
<!DOCTYPE svg PUBLIC "-//W3C//DTD SVG 1.1//EN" "http://www.w3.org/Graphics/SVG/1.1/DTD/svg11.dtd">
<svg version="1.1" id="Слой_1" xmlns="http://www.w3.org/2000/svg" xmlns:xlink="http://www.w3.org/1999/xlink" x="0px" y="0px"
	 width="53.999px" height="54.001px" viewBox="75.429 1 53.999 54.001" enable-background="new 75.429 1 53.999 54.001"
	 xml:space="preserve">
<path fill="#FFFFFF" d="M129.209,23.859c-0.802-6.281-3.512-11.669-8.238-16.006c-3.873-3.556-8.463-5.722-13.707-6.533
	c-0.771-0.119-1.549-0.214-2.324-0.32c-1.11,0-2.223,0-3.332,0c-0.193,0.034-0.383,0.078-0.575,0.104
	c-0.974,0.134-1.958,0.214-2.921,0.401c-5.795,1.133-10.762,3.79-14.801,8.021c-5.521,5.785-8.17,12.668-7.857,20.613
	c0.156,3.979,1.179,7.754,3.115,11.252c3.951,7.133,9.994,11.533,18.095,13.184c0.853,0.174,1.719,0.283,2.579,0.426
	c1.542,0,3.083,0,4.624,0.001c0.135-0.035,0.27-0.079,0.407-0.104c1.354-0.236,2.735-0.381,4.063-0.722
	C121.966,50.682,130.965,37.628,129.209,23.859z M124.698,30.518c-0.025,0.375-0.22,0.514-0.573,0.627
	c-6.512,2.078-10.784,6.342-12.729,12.785c-0.407,1.352-0.502,2.797-0.703,4.203c-0.041,0.284-0.119,0.434-0.389,0.538
	c-1.617,0.638-3.277,1.115-5,1.394c-0.313,0.051-0.479-0.015-0.652-0.276c-3.055-4.62-7.381-7.325-12.905-8.159
	c-2.269-0.342-4.541-0.219-6.776,0.314c-0.359,0.086-0.57,0.031-0.756-0.271c-0.671-1.102-1.345-2.199-2.037-3.287
	c-0.218-0.343-0.154-0.572,0.104-0.874c2.411-2.8,3.875-6.028,4.333-9.663c0.525-4.153-0.301-8.056-2.49-11.655
	c-0.275-0.454-0.284-0.76,0.057-1.149c0.84-0.96,1.656-1.94,2.479-2.916c0.206-0.245,0.4-0.301,0.738-0.185
	c7.552,2.64,15.725,0.427,20.82-5.638c0.236-0.281,0.438-0.351,0.768-0.227c1.053,0.391,2.107,0.779,3.17,1.148
	c0.525,0.183,0.844,0.456,0.609,1.037c-0.268,5.18,1.254,9.736,4.789,13.596c1.9,2.077,4.203,3.603,6.861,4.592
	c0.43,0.161,0.579,0.375,0.538,0.806C124.854,28.342,124.771,29.43,124.698,30.518z M119.898,29.361
	c-0.291,0.234-0.602,0.451-0.933,0.621c-4.012,2.08-6.587,5.33-8.011,9.509c-0.658,1.925-0.889,3.901-0.736,5.931
	c0.146,1.913-0.761,3.255-2.412,3.692c-1.496,0.394-3.174-0.356-3.996-1.808c-1.367-2.408-3.162-4.43-5.541-5.924
	c-3.043-1.91-6.379-2.71-9.972-2.517c-2,0.108-3.69-1.438-3.685-2.757c-0.008-2.035,0.813-2.938,1.996-3.569
	c5.304-2.845,8.121-7.306,8.84-13.121c0.089-0.729,0.066-1.483-0.008-2.214c-0.185-1.808,0.654-3.295,2.207-3.793
	c1.567-0.504,3.334,0.222,4.201,1.75c1.157,2.042,2.625,3.824,4.529,5.228c3.156,2.329,6.725,3.381,10.661,3.226
	c1.351-0.053,2.524,0.297,3.369,1.391C121.473,26.385,121.25,28.266,119.898,29.361z"/>
</svg>
