<?xml version="1.0" encoding="utf-8"?>
<!-- Generator: Adobe Illustrator 16.0.2, SVG Export Plug-In . SVG Version: 6.00 Build 0)  -->
<!DOCTYPE svg PUBLIC "-//W3C//DTD SVG 1.1//EN" "http://www.w3.org/Graphics/SVG/1.1/DTD/svg11.dtd">
<svg version="1.1" id="Слой_1" xmlns="http://www.w3.org/2000/svg" xmlns:xlink="http://www.w3.org/1999/xlink" x="0px" y="0px"
	 width="54px" height="54px" viewBox="75.428 1 54 54" enable-background="new 75.428 1 54 54" xml:space="preserve">
<path fill="#353A3E" d="M129.209,23.859c-0.802-6.281-3.512-11.669-8.238-16.006c-3.874-3.556-8.463-5.722-13.707-6.533
	c-0.772-0.119-1.549-0.214-2.324-0.32c-1.111,0-2.223,0-3.333,0c-0.193,0.034-0.382,0.078-0.575,0.104
	c-0.974,0.134-1.958,0.214-2.921,0.401c-5.795,1.133-10.762,3.79-14.8,8.021c-5.522,5.785-8.17,12.668-7.858,20.613
	c0.156,3.979,1.179,7.754,3.116,11.252c3.95,7.132,9.994,11.533,18.094,13.183c0.853,0.174,1.719,0.284,2.579,0.426
	c1.542,0,3.083,0,4.624,0.001c0.135-0.035,0.27-0.079,0.408-0.104c1.354-0.237,2.735-0.382,4.062-0.722
	C121.966,50.682,130.965,37.628,129.209,23.859z M124.698,30.518c-0.025,0.375-0.22,0.513-0.573,0.626
	c-6.512,2.078-10.784,6.342-12.728,12.786c-0.408,1.351-0.502,2.796-0.704,4.203c-0.041,0.284-0.119,0.433-0.388,0.538
	c-1.618,0.638-3.278,1.115-5,1.394c-0.314,0.05-0.479-0.015-0.652-0.277c-3.055-4.62-7.382-7.325-12.906-8.159
	c-2.268-0.342-4.541-0.219-6.776,0.314c-0.36,0.086-0.571,0.032-0.756-0.271c-0.671-1.102-1.345-2.199-2.037-3.287
	c-0.218-0.343-0.155-0.572,0.104-0.874c2.412-2.8,3.875-6.029,4.333-9.663c0.525-4.153-0.3-8.056-2.49-11.655
	c-0.275-0.454-0.284-0.76,0.057-1.149c0.84-0.96,1.656-1.94,2.478-2.916c0.206-0.245,0.4-0.301,0.738-0.185
	c7.552,2.64,15.725,0.427,20.821-5.638c0.236-0.281,0.438-0.351,0.767-0.227c1.053,0.391,2.108,0.779,3.17,1.148
	c0.526,0.183,0.844,0.456,0.61,1.037c-0.268,5.18,1.254,9.736,4.788,13.596c1.901,2.077,4.204,3.603,6.862,4.592
	c0.43,0.161,0.579,0.375,0.538,0.806C124.854,28.342,124.771,29.429,124.698,30.518z M119.898,29.362
	c-0.29,0.234-0.601,0.451-0.932,0.621c-4.012,2.08-6.587,5.329-8.011,9.508c-0.658,1.925-0.888,3.901-0.736,5.931
	c0.145,1.913-0.761,3.255-2.413,3.692c-1.496,0.394-3.173-0.356-3.995-1.807c-1.368-2.408-3.163-4.43-5.542-5.924
	c-3.043-1.91-6.378-2.71-9.971-2.517c-2,0.108-3.69-1.438-3.685-2.757c-0.008-2.035,0.814-2.938,1.996-3.569
	c5.304-2.845,8.122-7.306,8.84-13.121c0.089-0.729,0.066-1.483-0.008-2.214c-0.184-1.808,0.655-3.295,2.207-3.793
	c1.568-0.504,3.335,0.222,4.201,1.75c1.158,2.042,2.625,3.824,4.53,5.228c3.156,2.329,6.724,3.381,10.661,3.226
	c1.35-0.053,2.524,0.297,3.369,1.391C121.473,26.385,121.25,28.265,119.898,29.362z"/>
</svg>
