<?xml version="1.0" encoding="utf-8"?>
<!-- Generator: Adobe Illustrator 16.0.2, SVG Export Plug-In . SVG Version: 6.00 Build 0)  -->
<!DOCTYPE svg PUBLIC "-//W3C//DTD SVG 1.1//EN" "http://www.w3.org/Graphics/SVG/1.1/DTD/svg11.dtd">
<svg version="1.1" id="Слой_1" xmlns="http://www.w3.org/2000/svg" xmlns:xlink="http://www.w3.org/1999/xlink" x="0px" y="0px"
	 width="80.258px" height="30px" viewBox="1408.905 -18.247 80.258 30" enable-background="new 1408.905 -18.247 80.258 30"
	 xml:space="preserve">
<g id="Слой_x0020_1">
	<g id="_3147827120608">
		<path fill="#CC1612" d="M1443.831-18.068c0.031,0.176-1.106,6.013-1.235,6.831c-0.032,0.161-0.112,0.898-0.256,0.93
			c-0.161,0.032-0.305-0.401-0.386-0.593c-0.111-0.241-0.882-1.892-0.913-2.068c0-0.032,0.144-0.401,0.176-0.465
			c0.064-0.16,0.129-0.305,0.192-0.481c0.08-0.192,0.353-0.786,0.353-0.946c-0.176,0.048-0.561,0.529-0.689,0.674
			c-0.063,0.064-0.657,0.706-0.657,0.706l-2.213-0.321c-0.305-0.048-0.657-0.016-0.689-0.257c-0.016-0.128,0.208-0.24,0.305-0.305
			c0.866-0.577,1.844-1.267,2.694-1.812l1.555-1.042c0.257-0.176,0.514-0.337,0.771-0.529c0.128-0.096,0.689-0.481,0.801-0.497
			C1443.75-18.261,1443.814-18.165,1443.831-18.068L1443.831-18.068z"/>
		<path fill="#CC1612" d="M1417.18-6.17c2.742,0,5.18,1.331,6.687,3.383l-1.636,1.54c-1.09-1.62-2.934-2.694-5.035-2.694
			c-3.351,0-6.061,2.71-6.061,6.045c0,3.335,2.71,6.045,6.061,6.045c10.022,0,16.404-11.529,22.947-20.493
			c0.032,0.032,0.128,0.081,0.16,0.112c-4.201,7.104-11.609,22.851-22.803,22.578c-0.096,0-0.208,0-0.32,0
			c-4.57,0-8.274-3.704-8.274-8.258S1412.609-6.17,1417.18-6.17z"/>
		<path fill="#CC1612" d="M1427.651-10.612c2.101,0,4.185,0.834,5.756,2.309c0.032,0.016,3.352-1.988,4.009-2.309
			c-1.187,1.716-2.886,3.865-4.265,5.708c-0.962-2.052-3.063-3.479-5.484-3.479c-2.133,0-4.009,1.106-5.1,2.774
			c-0.609-0.417-1.267-0.77-1.988-1.026C1422.022-9.024,1424.652-10.612,1427.651-10.612z"/>
		<path fill="#CC1612" d="M1442.805-2.209c3.479,0.192,5.74,3.03,5.74,6.382c0,8.675-14.849,9.942-20.253,3.608
			c0,0,1.86-1.491,1.893-1.571c4.057,5.035,16.132,4.121,16.147-2.037c0-2.117-1.01-3.688-2.95-4.041
			C1443.365,0.132,1442.805-2.209,1442.805-2.209z"/>
		<path fill="#CC1612" d="M1439.901-8.367c-0.272,1.331-0.545,4.57-0.545,4.57c1.636,0.609,2.807,2.197,2.807,4.057
			c0,1.123-0.594,2.084-0.882,2.838l-2.053-0.93c1.7-3.095-0.385-4.41-3.352-4.426C1436.454-3.188,1439.613-7.998,1439.901-8.367
			L1439.901-8.367z"/>
		<path fill="#CC1612" d="M1420.13-2c-2.453-1.62-5.403-1.026-7.168,1.314C1414.791-2.145,1417.901-2.722,1420.13-2z"/>
		<path fill="#CC1612" d="M1422.953,10.988c1.731,0.85,4.489,1.139,6.847-0.112c-0.786-0.497-1.491-1.09-2.068-1.78
			c-0.321-0.064-0.674-0.048-1.043,0.016C1425.502,9.914,1424.268,10.555,1422.953,10.988z"/>
		<path fill="#CC1612" d="M1444.135,6.578c1.396-1.235,1.524-3.143,0.369-4.618C1445.098,3.339,1444.938,5.328,1444.135,6.578z"/>
		<path fill="#CC1612" d="M1430.954-5.721c-1.764-2.116-4.298-2.181-6.174-0.272C1426.544-7.02,1429.223-6.908,1430.954-5.721
			L1430.954-5.721z"/>
		<path fill="#CC1612" d="M1438.105,2.008c1.476-1.395,0.771-2.854-1.603-3.576C1438.01-0.734,1438.715,0.806,1438.105,2.008z"/>
	</g>
	<path fill="#CC1612" d="M1459.337-11.43h-1.588v3.576h-4.121v-3.576h-1.571v9.012h1.588v-4.041h4.121v4.041h1.587
		C1459.337-2.417,1459.337-11.43,1459.337-11.43z M1462.816-11.43h-1.587v9.012h1.587V-11.43z M1472.63-7.229h-3.864v1.219h2.422
		c0,1.347-0.803,2.55-2.454,2.55c-1.779,0-2.838-1.283-2.838-3.399c0-2.101,1.059-3.399,2.79-3.399c1.219,0,2.101,0.657,2.293,1.731
		h1.523c-0.208-1.956-1.94-3.063-3.801-3.063c-2.773,0-4.394,2.133-4.394,4.762c0,2.774,1.732,4.65,4.266,4.65
		c1.203,0,2.068-0.401,2.807-1.283l0.24,1.074h1.01V-7.229L1472.63-7.229z M1481.578-11.43h-1.588v3.576h-4.121v-3.576h-1.587v9.012
		h1.587v-4.041h4.121v4.041h1.588V-11.43z"/>
	<path fill="#CC1612" d="M1458.23,10.186h-4.57V2.537h-1.604v9.012h6.174V10.186L1458.23,10.186z M1465.815,2.537h-6.494v9.012
		h6.558v-1.347h-5.003V7.541h4.57V6.257h-4.57V3.868h4.923V2.537H1465.815z M1466.296,2.537l3.015,9.012h1.765l3.078-9.012h-1.604
		l-2.325,7.12l-2.276-7.12H1466.296z M1481.498,2.537h-6.495v9.012h6.559v-1.347h-5.003V7.541h4.57V6.257h-4.57V3.868h4.923V2.537
		H1481.498z M1489.146,10.186h-4.57V2.537h-1.587v9.012h6.174v-1.363H1489.146z"/>
</g>
</svg>
