<?xml version="1.0" encoding="utf-8"?>
<!DOCTYPE svg PUBLIC "-//W3C//DTD SVG 1.1//EN" "http://www.w3.org/Graphics/SVG/1.1/DTD/svg11.dtd">
<svg version="1.1" id="Слой_1" xmlns="http://www.w3.org/2000/svg" xmlns:xlink="http://www.w3.org/1999/xlink" x="0px" y="0px"
	 width="54.699px" height="55.676px" viewBox="75.078 0.162 54.699 55.676" enable-background="new 75.078 0.162 54.699 55.676"
	 xml:space="preserve">
<path fill="#ffffff" d="M129.556,23.731c-0.812-6.476-3.557-12.032-8.344-16.503c-3.924-3.666-8.573-5.899-13.885-6.736
	c-0.782-0.123-1.569-0.221-2.354-0.33c-1.126,0-2.252,0-3.377,0c-0.195,0.035-0.387,0.08-0.582,0.107
	c-0.986,0.138-1.983,0.221-2.959,0.414c-5.87,1.168-10.901,3.908-14.992,8.269c-5.594,5.965-8.276,13.062-7.96,21.253
	c0.158,4.104,1.194,7.995,3.156,11.602c4.001,7.353,10.123,11.891,18.328,13.592c0.864,0.179,1.741,0.293,2.612,0.438
	c1.562,0,3.123,0,4.684,0.001c0.137-0.036,0.273-0.082,0.413-0.107c1.371-0.244,2.77-0.394,4.114-0.744
	C122.219,51.386,131.335,37.927,129.556,23.731z M124.987,30.596c-0.026,0.387-0.223,0.528-0.581,0.645
	c-6.596,2.143-10.924,6.539-12.893,13.184c-0.413,1.393-0.508,2.883-0.713,4.334c-0.041,0.293-0.121,0.446-0.393,0.555
	c-1.639,0.658-3.32,1.149-5.064,1.437c-0.318,0.052-0.485-0.015-0.661-0.286c-3.094-4.763-7.478-7.553-13.073-8.412
	c-2.297-0.353-4.6-0.226-6.864,0.324c-0.365,0.089-0.578,0.034-0.766-0.279c-0.68-1.136-1.363-2.268-2.063-3.39
	c-0.221-0.353-0.157-0.591,0.105-0.901c2.443-2.886,3.925-6.216,4.389-9.963c0.532-4.282-0.304-8.306-2.522-12.017
	c-0.279-0.467-0.288-0.783,0.058-1.185c0.851-0.99,1.677-2,2.51-3.006c0.208-0.252,0.405-0.311,0.747-0.19
	c7.65,2.722,15.929,0.44,21.091-5.813c0.239-0.289,0.443-0.361,0.777-0.234c1.066,0.403,2.135,0.803,3.211,1.184
	c0.533,0.189,0.855,0.47,0.618,1.069c-0.271,5.341,1.27,10.038,4.85,14.018c1.926,2.141,4.259,3.715,6.951,4.735
	c0.436,0.166,0.587,0.386,0.545,0.831C125.145,28.352,125.061,29.473,124.987,30.596z M88.114,39.205
	c3.64-0.2,7.018,0.625,10.101,2.595c2.41,1.54,4.228,3.624,5.614,6.107c0.833,1.495,2.532,2.268,4.047,1.862
	c1.673-0.451,2.59-1.834,2.444-3.807c-0.154-2.093,0.079-4.131,0.745-6.115c1.443-4.308,4.051-7.658,8.115-9.803
	c0.335-0.176,0.651-0.398,0.944-0.641c1.37-1.131,1.596-3.069,0.517-4.489c-0.856-1.128-2.045-1.489-3.412-1.434
	c-3.988,0.159-7.602-0.926-10.799-3.326c-1.93-1.448-3.416-3.285-4.588-5.391c-0.877-1.575-2.667-2.323-4.256-1.804
	c-1.572,0.514-2.421,2.047-2.235,3.911c0.075,0.754,0.098,1.532,0.008,2.283c-0.728,5.995-3.582,10.595-8.955,13.528
	c-1.197,0.652-2.03,1.582-2.022,3.68C84.376,37.721,86.089,39.316,88.114,39.205z"/>
</svg>
