<?xml version="1.0" encoding="utf-8"?>
<!-- Generator: Adobe Illustrator 16.0.2, SVG Export Plug-In . SVG Version: 6.00 Build 0)  -->
<!DOCTYPE svg PUBLIC "-//W3C//DTD SVG 1.1//EN" "http://www.w3.org/Graphics/SVG/1.1/DTD/svg11.dtd">
<svg version="1.1" id="Слой_1" xmlns="http://www.w3.org/2000/svg" xmlns:xlink="http://www.w3.org/1999/xlink" x="0px" y="0px"
	 width="300px" height="56px" viewBox="0 0 300 56" enable-background="new 0 0 300 56" xml:space="preserve">
<path fill-rule="evenodd" clip-rule="evenodd" fill="#353a3e" d="M99.199,55.837c-0.871-0.145-1.748-0.26-2.612-0.438
	c-8.205-1.702-14.327-6.24-18.328-13.593c-1.962-3.606-2.998-7.497-3.156-11.601c-0.316-8.191,2.366-15.288,7.96-21.253
	c4.091-4.361,9.122-7.101,14.992-8.269c0.976-0.193,1.973-0.276,2.959-0.414c0.195-0.027,0.387-0.072,0.582-0.107
	c1.125,0,2.251,0,3.377,0c0.785,0.109,1.572,0.207,2.354,0.33c5.312,0.837,9.961,3.07,13.885,6.736
	c4.787,4.471,7.532,10.027,8.344,16.503c1.779,14.196-7.337,27.655-21.146,31.255c-1.344,0.351-2.743,0.5-4.114,0.745
	c-0.14,0.025-0.276,0.071-0.413,0.107C102.322,55.837,100.761,55.837,99.199,55.837z M112.9,7.65
	c0.237-0.599-0.085-0.88-0.618-1.069c-1.076-0.381-2.145-0.781-3.211-1.184c-0.334-0.127-0.538-0.055-0.777,0.234
	c-5.162,6.253-13.441,8.535-21.091,5.813c-0.342-0.121-0.539-0.062-0.747,0.19c-0.833,1.006-1.659,2.016-2.51,3.006
	c-0.346,0.402-0.337,0.718-0.058,1.185c2.218,3.711,3.054,7.735,2.522,12.017c-0.464,3.747-1.946,7.077-4.389,9.963
	c-0.262,0.31-0.326,0.549-0.105,0.901c0.7,1.122,1.383,2.254,2.063,3.389c0.188,0.314,0.401,0.369,0.766,0.28
	c2.264-0.55,4.567-0.677,6.864-0.324c5.595,0.859,9.979,3.649,13.073,8.412c0.176,0.272,0.343,0.338,0.661,0.286
	c1.744-0.287,3.425-0.778,5.064-1.436c0.272-0.109,0.352-0.262,0.393-0.555c0.205-1.451,0.3-2.941,0.713-4.334
	c1.969-6.645,6.297-11.041,12.893-13.184c0.358-0.116,0.555-0.257,0.581-0.645c0.074-1.122,0.158-2.243,0.259-3.361
	c0.042-0.445-0.109-0.665-0.545-0.831c-2.692-1.02-5.025-2.594-6.951-4.735C114.17,17.688,112.629,12.991,112.9,7.65z M300,28.816
	c-0.042-0.134-0.098-0.267-0.121-0.404c-0.207-1.151-0.678-2.177-1.465-3.046c-1.62-1.784-3.693-2.495-6.046-2.501
	c-4.319-0.011-8.639,0.006-12.959-0.014c-0.514-0.002-0.629,0.155-0.627,0.643c0.016,5.973,0.01,11.945,0.012,17.917
	c0,0.19,0.018,0.38,0.028,0.579c1.113,0,2.157,0,3.278,0c0-5.268,0-10.501,0-15.725c0.123-0.032,0.174-0.057,0.225-0.057
	c3.649-0.003,7.298-0.034,10.946,0.01c1.595,0.02,2.923,1.021,3.359,2.342c0.769,2.327-0.854,4.679-3.334,4.728
	c-2.849,0.057-5.699,0.028-8.55,0.035c-0.21,0.001-0.419,0-0.64,0c0,1.149,0,2.21,0,3.324c0.231,0,0.426,0,0.623,0
	c2.051,0,4.103,0.01,6.152-0.005c0.996-0.007,1.999-0.005,2.988-0.11c2.913-0.308,5.31-2.404,5.95-5.132
	c0.057-0.245,0.119-0.487,0.179-0.731C300,30.051,300,29.435,300,28.816z M165.704,41.536c-1.359-5.675-2.709-11.352-4.107-17.017
	c-0.129-0.528-0.487-1.059-0.875-1.455c-0.676-0.687-1.618-0.644-2.271,0.065c-0.387,0.42-0.715,0.918-0.976,1.428
	c-1.525,2.968-3.022,5.948-4.533,8.924c-0.589,1.16-1.181,2.319-1.804,3.542c-0.125-0.225-0.217-0.375-0.294-0.532
	c-1.999-3.947-3.987-7.898-6.001-11.837c-0.285-0.559-0.647-1.098-1.068-1.559c-0.603-0.663-1.501-0.66-2.203-0.091
	c-0.549,0.446-0.8,1.051-0.96,1.722c-1.122,4.688-2.252,9.373-3.379,14.06c-0.258,1.069-0.514,2.14-0.789,3.283
	c1.208,0,2.347,0.013,3.484-0.021c0.12-0.003,0.301-0.27,0.335-0.439c0.737-3.568,1.456-7.139,2.182-10.709
	c0.14-0.689,0.292-1.375,0.465-2.197c0.161,0.284,0.245,0.421,0.318,0.564c2.002,3.884,4.006,7.765,6.001,11.652
	c0.423,0.822,1.022,1.37,1.988,1.363c0.916-0.007,1.431-0.579,1.818-1.338c1.643-3.211,3.299-6.417,4.951-9.625
	c0.426-0.829,0.856-1.656,1.283-2.484c0.045,0.006,0.089,0.013,0.134,0.021c0.902,4.388,1.804,8.776,2.709,13.184
	c1.23,0,2.421,0,3.662,0C165.751,41.848,165.74,41.69,165.704,41.536z M229.069,42.179c1.126,0,2.169,0,3.237,0
	c0.007-0.142,0.018-0.248,0.018-0.353c0.001-5.755,0.002-11.511-0.005-17.267c0-0.268-0.047-0.544-0.118-0.803
	c-0.193-0.687-0.712-0.985-1.417-0.843c-0.769,0.157-1.326,0.653-1.85,1.186c-3.708,3.762-7.408,7.528-11.111,11.296
	c-0.287,0.291-0.557,0.599-0.834,0.898c-0.052-0.029-0.104-0.057-0.155-0.086c0-4.377,0-8.754,0-13.109c-1.114,0-2.159,0-3.21,0
	c-0.009,0.149-0.021,0.256-0.021,0.364c-0.001,5.72-0.001,11.438-0.001,17.157c0,0.073-0.001,0.146,0.004,0.218
	c0.073,1.047,0.928,1.664,1.905,1.28c0.521-0.205,1.021-0.561,1.425-0.956c1.48-1.445,2.918-2.934,4.37-4.408
	c1.669-1.693,3.331-3.394,5.008-5.081c0.868-0.872,1.761-1.719,2.755-2.689C229.069,33.465,229.069,37.824,229.069,42.179z
	 M193.502,41.588c-3.273-5.647-6.536-11.301-9.845-16.927c-0.344-0.586-0.91-1.079-1.464-1.497c-0.646-0.487-1.43-0.515-2.08-0.007
	c-0.589,0.46-1.205,0.974-1.584,1.601c-3.344,5.543-6.635,11.117-9.942,16.681c-0.1,0.166-0.183,0.34-0.313,0.584
	c1.256,0,2.433-0.016,3.606,0.008c0.422,0.008,0.676-0.108,0.906-0.497c2.599-4.362,5.221-8.709,7.838-13.061
	c0.117-0.195,0.243-0.383,0.416-0.655c1.111,1.862,2.174,3.635,3.289,5.503c-0.311,0-0.491,0-0.669,0
	c-1.235,0-2.469,0.021-3.702-0.012c-0.473-0.012-0.76,0.106-0.99,0.544c-0.432,0.816-0.938,1.593-1.408,2.389
	c-0.068,0.113-0.11,0.241-0.181,0.402c2.841,0,5.618,0.01,8.395-0.011c0.423-0.003,0.641,0.132,0.847,0.494
	c0.854,1.495,1.74,2.973,2.628,4.45c0.101,0.167,0.288,0.394,0.44,0.397c1.305,0.032,2.609,0.019,4.004,0.019
	C193.606,41.81,193.563,41.694,193.502,41.588z M256.421,22.871c-3.975,0.024-7.953-0.069-11.92,0.119
	c-2.846,0.134-5.142,1.561-6.727,3.977c-1.45,2.214-1.645,4.681-1.277,7.225c0.616,4.294,4.313,7.68,8.647,7.789
	c3.7,0.094,7.404,0.035,11.107,0.041c0.104,0,0.208-0.023,0.339-0.039c0-1.086,0-2.146,0-3.274c-0.24,0-0.451,0-0.663,0
	c-3.36,0-6.716,0.026-10.075-0.02c-0.8-0.01-1.639-0.145-2.391-0.416c-2.902-1.043-4.399-4.101-3.664-7.327
	c0.644-2.827,3.014-4.735,5.921-4.744c3.412-0.01,6.825-0.002,10.238-0.002c0.21,0,0.418,0,0.639,0c0-1.145,0-2.208,0-3.272
	C256.521,22.903,256.471,22.87,256.421,22.871z M269.401,26.181c2.533,0,4.992,0,7.457,0c0-1.127,0-2.19,0-3.287
	c-6.082,0-12.137,0-18.21,0c0,1.109,0,2.186,0,3.315c2.497,0,4.956,0,7.485,0c0,5.29,0,10.524,0,15.787c1.096,0,2.126,0,3.268,0
	C269.401,36.711,269.401,31.478,269.401,26.181z M194.577,23.101c0,6.387,0,12.731,0,19.081c1.084,0,2.128,0,3.223,0
	c0-2.646,0-5.256,0-7.866c0-2.623,0-5.248,0-7.922c4.397,0,8.709,0,13.047,0c0-1.117,0-2.183,0-3.292
	C205.393,23.101,199.979,23.101,194.577,23.101z M27.645,42.167c0-6.388,0-12.752,0-19.161c0.17-0.012,0.329-0.033,0.486-0.033
	c4.52-0.002,9.04-0.018,13.559,0.008c1.628,0.009,3.215,0.281,4.647,1.135c2.557,1.526,3.51,4.521,2.158,6.933
	c-0.339,0.606-0.847,1.12-1.31,1.718c0.027,0.033,0.095,0.132,0.185,0.209c2.486,2.121,2.245,5.787-0.469,7.792
	c-1.302,0.962-2.814,1.396-4.388,1.414c-4.9,0.056-9.801,0.024-14.701,0.026C27.777,42.208,27.744,42.192,27.645,42.167z
	 M32.988,31.081c0.251,0,0.465,0,0.678,0c2.741,0,5.481,0.005,8.223-0.003c1.047-0.003,2.063-0.177,2.969-0.742
	c1.351-0.843,1.357-2.435,0.015-3.288c-0.904-0.575-1.928-0.73-2.971-0.734c-3.448-0.013-6.898-0.005-10.348-0.004
	c-0.177,0-0.353,0.016-0.548,0.026c0,4.196,0,8.353,0,12.508c0.103,0.014,0.155,0.029,0.21,0.029
	c3.684,0.001,7.369,0.011,11.054-0.004c0.971-0.004,1.913-0.194,2.743-0.749c0.55-0.367,0.88-0.859,0.833-1.547
	c-0.065-0.934-0.69-1.458-1.484-1.68c-0.913-0.257-1.873-0.453-2.817-0.475c-2.63-0.062-5.263-0.021-7.896-0.021
	c-0.211,0-0.423,0-0.662,0C32.988,33.277,32.988,32.231,32.988,31.081z M25.665,41.941c-3.362-5.743-6.713-11.493-10.107-17.217
	c-0.329-0.555-0.874-1.017-1.402-1.409c-0.664-0.493-1.414-0.487-2.147-0.053c-0.738,0.436-1.287,1.043-1.724,1.774
	C6.956,30.589,3.622,36.14,0.291,41.692C0.203,41.841,0.128,41.998,0,42.242c1.307,0,2.517-0.017,3.727,0.009
	c0.393,0.009,0.614-0.117,0.82-0.458c2.245-3.728,4.509-7.445,6.768-11.164c0.526-0.864,1.054-1.727,1.627-2.666
	c1.125,1.866,2.2,3.653,3.339,5.541c-0.331,0-0.526,0-0.72,0c-1.325,0-2.65-0.005-3.975,0.007c-0.164,0.001-0.409,0.041-0.477,0.149
	c-0.644,1.02-1.257,2.057-1.933,3.181c0.308,0,0.502,0,0.698,0c2.65,0,5.3,0.007,7.951-0.008c0.353-0.002,0.555,0.104,0.734,0.411
	c0.896,1.535,1.813,3.058,2.733,4.577c0.094,0.155,0.263,0.371,0.402,0.374c1.339,0.028,2.679,0.018,4.093,0.018
	C25.722,42.066,25.699,42,25.665,41.941z M52.193,26.335c2.069,0,4.139,0,6.208,0c0.679,0,0.68,0.001,0.68,0.688
	c0.001,4.829,0.001,9.656,0.001,14.485c0,0.228,0,0.455,0,0.699c1.136,0,2.18,0,3.29,0c0-2.659,0-5.286,0-7.912
	c0-2.627,0-5.255,0-7.964c2.551,0,5.043,0,7.548,0c0-1.144,0-2.203,0-3.269c-6.164,0-12.289,0-18.438,0c0,1.092,0,2.137,0,3.271
	C51.763,26.335,51.979,26.335,52.193,26.335z M88.114,39.205c3.64-0.2,7.018,0.625,10.101,2.595c2.41,1.54,4.228,3.624,5.614,6.107
	c0.833,1.495,2.532,2.268,4.047,1.862c1.673-0.45,2.59-1.834,2.444-3.806c-0.154-2.093,0.079-4.131,0.745-6.115
	c1.443-4.308,4.051-7.658,8.115-9.803c0.335-0.176,0.651-0.398,0.944-0.64c1.37-1.132,1.596-3.07,0.517-4.49
	c-0.856-1.128-2.045-1.489-3.412-1.434c-3.988,0.159-7.602-0.926-10.799-3.326c-1.93-1.448-3.416-3.285-4.588-5.391
	c-0.877-1.575-2.667-2.323-4.256-1.804c-1.572,0.514-2.421,2.047-2.235,3.911c0.075,0.754,0.098,1.532,0.008,2.283
	c-0.728,5.995-3.582,10.595-8.955,13.527c-1.197,0.653-2.03,1.582-2.022,3.681C84.376,37.721,86.089,39.316,88.114,39.205z"/>
</svg>
