<?xml version="1.0" encoding="utf-8"?>
<!-- Generator: Adobe Illustrator 16.0.2, SVG Export Plug-In . SVG Version: 6.00 Build 0)  -->
<!DOCTYPE svg PUBLIC "-//W3C//DTD SVG 1.1//EN" "http://www.w3.org/Graphics/SVG/1.1/DTD/svg11.dtd">
<svg version="1.1" id="Слой_1" xmlns="http://www.w3.org/2000/svg" xmlns:xlink="http://www.w3.org/1999/xlink" x="0px" y="0px"
	 width="14px" height="14px" viewBox="0 0 14 14" enable-background="new 0 0 14 14" xml:space="preserve">
<path fill="#AEB2B5" d="M7,14c-3.86,0-7-3.141-7-7c0-3.859,3.14-7,7-7c3.86,0,7,3.141,7,7C14,10.86,10.86,14,7,14z M7,1.167
	C3.783,1.167,1.167,3.784,1.167,7c0,3.217,2.617,5.833,5.833,5.833c3.216,0,5.833-2.616,5.833-5.833
	C12.833,3.784,10.216,1.167,7,1.167z"/>
<path fill="#AEB2B5" d="M9.746,8.921L7.583,6.759V2.917c0-0.322-0.261-0.583-0.583-0.583c-0.322,0-0.583,0.261-0.583,0.583v4.082
	c0,0.077,0.015,0.152,0.045,0.224s0.072,0.136,0.126,0.19l2.333,2.333c0.114,0.114,0.263,0.17,0.412,0.17
	c0.149,0,0.298-0.057,0.412-0.17C9.973,9.518,9.973,9.149,9.746,8.921z"/>
</svg>
