<?xml version="1.0" encoding="utf-8"?>
<!-- Generator: Adobe Illustrator 16.0.2, SVG Export Plug-In . SVG Version: 6.00 Build 0)  -->
<!DOCTYPE svg PUBLIC "-//W3C//DTD SVG 1.1//EN" "http://www.w3.org/Graphics/SVG/1.1/DTD/svg11.dtd">
<svg version="1.1" id="Слой_1" xmlns="http://www.w3.org/2000/svg" xmlns:xlink="http://www.w3.org/1999/xlink" x="0px" y="0px"
	 width="14px" height="14.001px" viewBox="0 0 14 14.001" enable-background="new 0 0 14 14.001" xml:space="preserve">
<path fill="#989898" d="M2.737,0C2.506,0,2.261,0.07,2.048,0.218C2.028,0.232-0.027,1.723,0,2.572
	c0.076,2.382,2.389,5.181,4.315,7.109c1.927,1.928,4.724,4.243,7.113,4.32h0.02c0.836,0,2.306-2.03,2.321-2.051
	c0.386-0.551,0.245-1.159-0.106-1.405c-0.214-0.15-2.552-1.707-2.839-1.882c-0.125-0.075-0.277-0.113-0.443-0.113
	c-0.214,0-0.45,0.062-0.681,0.183C9.475,8.851,8.793,9.24,8.459,9.431C8.166,9.225,7.476,8.695,6.388,7.606
	C5.307,6.525,4.774,5.828,4.566,5.532C4.756,5.2,5.144,4.517,5.261,4.293C5.485,3.869,5.51,3.446,5.329,3.162
	C5.159,2.893,3.61,0.543,3.45,0.321C3.3,0.112,3.03,0,2.737,0L2.737,0z"/>
</svg>
