<?xml version="1.0" encoding="utf-8"?>
<!-- Generator: Adobe Illustrator 16.0.2, SVG Export Plug-In . SVG Version: 6.00 Build 0)  -->
<!DOCTYPE svg PUBLIC "-//W3C//DTD SVG 1.1//EN" "http://www.w3.org/Graphics/SVG/1.1/DTD/svg11.dtd">
<svg version="1.1" id="Capa_1" xmlns="http://www.w3.org/2000/svg" xmlns:xlink="http://www.w3.org/1999/xlink" x="0px" y="0px"
	 width="14px" height="14px" viewBox="6.766 0 14 14" enable-background="new 6.766 0 14 14" xml:space="preserve">
<path fill="#989898" d="M13.766,0c-3.761,0-6.81,3.049-6.81,6.81c0,1.603,0.557,3.073,1.485,4.235
	c0.376,0.469,0.57,1.22,0.228,1.664c-0.245,0.317-0.514,0.534-0.805,0.572c-0.948,0.127,0.348,1.262,2.571,0.396
	c0.561-0.219,1.433-0.305,2.022-0.188c0.423,0.085,0.86,0.13,1.309,0.13c3.761,0,6.81-3.049,6.81-6.809
	C20.575,3.049,17.526,0,13.766,0z"/>
</svg>
