<?xml version="1.0" encoding="utf-8"?>
<!-- Generator: Adobe Illustrator 16.0.2, SVG Export Plug-In . SVG Version: 6.00 Build 0)  -->
<!DOCTYPE svg PUBLIC "-//W3C//DTD SVG 1.1//EN" "http://www.w3.org/Graphics/SVG/1.1/DTD/svg11.dtd">
<svg version="1.1" id="Capa_1" xmlns="http://www.w3.org/2000/svg" xmlns:xlink="http://www.w3.org/1999/xlink" x="0px" y="0px"
	 width="30px" height="30px" viewBox="246.5 266.5 30 30" enable-background="new 246.5 266.5 30 30" xml:space="preserve">
<path fill="#FFFFFF" d="M276.168,279.84c-0.795-3.569-2.932-6.615-6.017-8.576c-1.905-1.211-4.073-1.928-6.306-2.097
	c-0.02-0.22-0.064-0.438-0.141-0.653c-0.34-0.96-1.181-1.623-2.193-1.729l-2.48-0.26c-1.364-0.144-2.703,0.33-3.673,1.301
	l-7.532,7.535c-0.97,0.97-1.444,2.309-1.301,3.674l0.26,2.48c0.106,1.014,0.769,1.854,1.728,2.193
	c0.215,0.076,0.435,0.124,0.654,0.143c0.329,4.298,2.652,8.195,6.304,10.516c2.271,1.444,4.808,2.133,7.318,2.133
	c4.529-0.001,8.967-2.244,11.57-6.342C276.32,287.072,276.963,283.408,276.168,279.84z M252.435,281.895l3.059-3.061
	c0.091,0.049,0.19,0.072,0.288,0.072c0.205,0,0.406-0.101,0.525-0.285c-0.001,0-0.001,0-0.001,0
	c0.125-0.196,0.128-0.435,0.028-0.627l1.971-1.971c0.11,0.088,0.248,0.136,0.388,0.136c0.104,0,0.209-0.026,0.306-0.081
	c0.3-0.17,0.406-0.55,0.236-0.85c-0.016-0.029-0.035-0.056-0.055-0.08l2.711-2.713c2.3-0.207,4.547,0.34,6.508,1.586
	c4.848,3.082,6.284,9.535,3.204,14.384c-1.493,2.349-3.811,3.976-6.526,4.581s-5.504,0.116-7.853-1.377
	c-1.673-1.064-3-2.57-3.838-4.356C252.6,285.579,252.273,283.73,252.435,281.895z M248.025,281.386l-0.26-2.481
	c-0.104-0.988,0.24-1.959,0.943-2.661l7.532-7.534c0.703-0.703,1.672-1.047,2.661-0.943l2.479,0.26
	c0.539,0.057,0.968,0.395,1.148,0.904c0.18,0.51,0.061,1.043-0.322,1.426l-11.853,11.855c-0.383,0.383-0.916,0.503-1.425,0.322
	C248.419,282.354,248.082,281.924,248.025,281.386z M273.307,289.488c-2.367,3.727-6.398,5.765-10.516,5.765
	c-2.281-0.001-4.588-0.626-6.651-1.938c-3.348-2.128-5.467-5.713-5.738-9.658c0.271-0.114,0.524-0.276,0.75-0.483
	c0.05,1.589,0.423,3.158,1.104,4.609c0.939,2.001,2.425,3.688,4.298,4.879c1.894,1.204,4.043,1.824,6.234,1.824
	c0.85,0,1.708-0.094,2.559-0.283c3.041-0.678,5.637-2.498,7.308-5.129c3.449-5.43,1.84-12.654-3.587-16.105
	c-1.771-1.125-3.821-1.749-5.902-1.814c0.208-0.226,0.371-0.48,0.486-0.752c2.063,0.139,4.07,0.796,5.83,1.914
	c2.804,1.783,4.746,4.551,5.468,7.794S275.089,286.685,273.307,289.488z M259.453,288.102c1.016,0.646,2.17,0.979,3.346,0.979
	c0.457,0,0.917-0.051,1.374-0.152c1.632-0.363,3.024-1.342,3.922-2.754c0.897-1.41,1.19-3.088,0.827-4.721
	c-0.363-1.632-1.342-3.025-2.752-3.923c-2.914-1.853-6.791-0.988-8.643,1.927C255.676,282.371,256.539,286.249,259.453,288.102z
	 M258.58,280.125c0.954-1.501,2.58-2.322,4.238-2.322c0.92,0,1.85,0.252,2.682,0.781c1.131,0.718,1.913,1.834,2.205,3.141
	c0.291,1.309,0.056,2.65-0.663,3.781c-0.718,1.131-1.833,1.913-3.141,2.205c-1.308,0.291-2.649,0.056-3.78-0.663
	C257.789,285.564,257.098,282.459,258.58,280.125z M270.516,286.128c0.066,0.023,0.135,0.034,0.203,0.034
	c0.258,0,0.5-0.162,0.589-0.42c0.112-0.325-0.06-0.681-0.386-0.793c-0.325-0.113-0.68,0.061-0.793,0.387
	C270.018,285.66,270.189,286.016,270.516,286.128z M269.545,278.477c0.129,0,0.258-0.039,0.369-0.121
	c0.277-0.204,0.337-0.594,0.133-0.873c-0.203-0.276-0.594-0.336-0.871-0.132s-0.338,0.595-0.133,0.872
	C269.164,278.389,269.354,278.477,269.545,278.477z M271.078,282.176c0.031,0,0.063-0.003,0.095-0.008
	c0.341-0.053,0.574-0.371,0.521-0.711c-0.052-0.341-0.37-0.574-0.711-0.521c-0.341,0.052-0.573,0.371-0.521,0.711
	C270.51,281.955,270.775,282.176,271.078,282.176z M261.194,290.389c-0.337-0.073-0.669,0.142-0.741,0.479
	c-0.071,0.336,0.143,0.668,0.479,0.741c0.044,0.009,0.088,0.014,0.132,0.014c0.287,0,0.547-0.2,0.609-0.493
	C261.745,290.791,261.531,290.461,261.194,290.389z M264.896,290.271c-0.332,0.093-0.525,0.437-0.433,0.769
	c0.078,0.275,0.328,0.456,0.6,0.456c0.057,0,0.113-0.007,0.17-0.022c0.331-0.093,0.525-0.438,0.432-0.77
	S265.228,290.178,264.896,290.271z M268.121,288.449c-0.25,0.236-0.262,0.631-0.025,0.883c0.123,0.129,0.289,0.195,0.454,0.195
	c0.153,0,0.307-0.057,0.427-0.17c0.252-0.236,0.264-0.631,0.027-0.882S268.372,288.213,268.121,288.449z M257.861,288.769
	c-0.266-0.22-0.658-0.184-0.879,0.082c-0.219,0.265-0.183,0.658,0.082,0.878c0.116,0.098,0.258,0.145,0.397,0.145
	c0.18,0,0.356-0.077,0.48-0.226C258.162,289.382,258.126,288.989,257.861,288.769z M266.186,275.85c0.004,0,0.007,0.003,0.01,0.004
	c0.001,0,0.001,0,0.001,0c0.087,0.043,0.18,0.063,0.271,0.063c0.231,0,0.454-0.129,0.562-0.352c0.15-0.31,0.021-0.683-0.288-0.833
	c-0.002-0.001-0.004-0.002-0.007-0.003c0-0.001-0.002-0.001-0.002-0.001c-0.311-0.15-0.684-0.021-0.834,0.288
	C265.749,275.326,265.877,275.697,266.186,275.85z M254.849,285.451c-0.318,0.131-0.468,0.496-0.336,0.814
	c0.1,0.24,0.332,0.385,0.576,0.385c0.08,0,0.161-0.016,0.239-0.048c0.317-0.132,0.468-0.497,0.337-0.815
	C255.533,285.469,255.167,285.318,254.849,285.451z M254.424,282.689c0.019,0.002,0.038,0.004,0.056,0.004
	c0.319,0,0.592-0.244,0.621-0.568c0.03-0.344-0.223-0.646-0.566-0.678c-0.343-0.03-0.646,0.224-0.676,0.566
	S254.081,282.659,254.424,282.689z M262.545,275.077c0.007,0,0.014,0,0.021-0.001c0.345-0.011,0.614-0.299,0.603-0.644
	c-0.011-0.345-0.299-0.614-0.643-0.603c-0.344,0.011-0.615,0.299-0.604,0.644C261.934,274.811,262.21,275.077,262.545,275.077z
	 M260.512,286.436c0.695,0.441,1.486,0.67,2.291,0.67c0.313,0,0.628-0.035,0.94-0.104c1.118-0.25,2.071-0.92,2.687-1.886
	c0.613-0.968,0.814-2.114,0.566-3.233c-0.25-1.117-0.919-2.072-1.885-2.687c-0.001,0-0.001,0-0.001,0
	c-1.995-1.269-4.649-0.677-5.917,1.319C257.925,282.511,258.517,285.166,260.512,286.436z M260.246,281.186
	c0.578-0.912,1.563-1.41,2.57-1.41c0.557,0,1.121,0.153,1.625,0.475c0.686,0.436,1.16,1.111,1.337,1.904s0.034,1.607-0.401,2.293
	s-1.112,1.16-1.904,1.336c-0.793,0.177-1.607,0.034-2.292-0.401C259.766,284.482,259.346,282.6,260.246,281.186z M251.164,279.207
	c0.431,0,0.835-0.168,1.14-0.473c0.305-0.305,0.472-0.709,0.472-1.141c0-0.43-0.167-0.835-0.472-1.14
	c-0.304-0.305-0.709-0.472-1.14-0.472c-0.431,0-0.836,0.167-1.14,0.472c-0.305,0.305-0.472,0.71-0.472,1.14
	c0,0.432,0.167,0.836,0.472,1.141C250.328,279.039,250.732,279.207,251.164,279.207z M250.905,277.336
	c0.069-0.068,0.161-0.107,0.258-0.107c0.097,0,0.189,0.039,0.258,0.107c0.069,0.068,0.107,0.16,0.107,0.258
	c0,0.099-0.038,0.19-0.107,0.26c-0.069,0.068-0.161,0.106-0.258,0.106s-0.189-0.038-0.258-0.106
	c-0.069-0.069-0.107-0.161-0.107-0.26C250.798,277.496,250.836,277.404,250.905,277.336z M257.592,272.777
	c0.43,0,0.835-0.168,1.14-0.473s0.472-0.709,0.472-1.14s-0.168-0.837-0.472-1.141c-0.305-0.305-0.71-0.472-1.14-0.472
	c-0.432,0-0.836,0.167-1.141,0.472c-0.305,0.304-0.472,0.71-0.472,1.141s0.167,0.835,0.472,1.14S257.16,272.777,257.592,272.777z
	 M257.333,270.906c0.069-0.068,0.161-0.106,0.259-0.106s0.189,0.038,0.258,0.106c0.068,0.069,0.107,0.161,0.107,0.259
	s-0.039,0.188-0.107,0.259c-0.068,0.068-0.16,0.106-0.258,0.106s-0.189-0.038-0.259-0.106c-0.069-0.07-0.106-0.161-0.106-0.259
	S257.264,270.976,257.333,270.906z"/>
</svg>
