<?xml version="1.0" encoding="utf-8"?>
<!-- Generator: Adobe Illustrator 16.0.2, SVG Export Plug-In . SVG Version: 6.00 Build 0)  -->
<!DOCTYPE svg PUBLIC "-//W3C//DTD SVG 1.1//EN" "http://www.w3.org/Graphics/SVG/1.1/DTD/svg11.dtd">
<svg version="1.1" id="Слой_1" xmlns="http://www.w3.org/2000/svg" xmlns:xlink="http://www.w3.org/1999/xlink" x="0px" y="0px"
	 width="38px" height="36px" viewBox="0 0 38 36" enable-background="new 0 0 38 36" xml:space="preserve">
<path fill-rule="evenodd" clip-rule="evenodd" fill="#858585" d="M18,8H3.447l6.268-6.257c0.399-0.399,0.399-1.045,0-1.444
	C9.316-0.1,8.668-0.1,8.269,0.299L0.317,8.238C0.212,8.343,0.139,8.465,0.089,8.595C0.034,8.72,0,8.855,0,9
	c0,0.144,0.033,0.279,0.088,0.402c0.05,0.131,0.123,0.254,0.229,0.36l7.952,7.939c0.399,0.399,1.046,0.399,1.446,0
	c0.399-0.399,0.399-1.045,0-1.444l-6.27-6.259H18c0.552,0,1-0.447,1-0.998C19,8.448,18.552,8,18,8z"/>
<path fill-rule="evenodd" clip-rule="evenodd" fill="#CC1917" d="M37,8H22.447l6.268-6.257c0.399-0.399,0.399-1.045,0-1.444
	c-0.399-0.399-1.046-0.399-1.446,0l-7.952,7.939c-0.104,0.105-0.178,0.227-0.228,0.357C19.034,8.72,19,8.855,19,9
	c0,0.144,0.033,0.279,0.088,0.402c0.05,0.131,0.123,0.254,0.229,0.36l7.952,7.939c0.399,0.398,1.046,0.398,1.446,0
	c0.399-0.4,0.399-1.045,0-1.445l-6.27-6.259H37c0.552,0,1-0.447,1-0.998C38,8.448,37.552,8,37,8z"/>
<path fill-rule="evenodd" clip-rule="evenodd" fill="#CC1917" d="M1,26h14.553l-6.268-6.257c-0.399-0.399-0.399-1.045,0-1.444
	c0.399-0.399,1.046-0.399,1.446,0l7.952,7.939c0.104,0.105,0.178,0.227,0.228,0.357C18.966,26.72,19,26.855,19,27
	c0,0.144-0.033,0.279-0.088,0.402c-0.05,0.131-0.123,0.254-0.229,0.36l-7.952,7.939c-0.399,0.398-1.046,0.398-1.446,0
	c-0.399-0.4-0.399-1.045,0-1.445l6.27-6.259H1c-0.552,0-1-0.447-1-0.998C0,26.448,0.448,26,1,26z"/>
<path fill-rule="evenodd" clip-rule="evenodd" fill="#858585" d="M20,26h14.553l-6.268-6.257c-0.399-0.399-0.399-1.045,0-1.444
	c0.399-0.399,1.046-0.399,1.446,0l7.952,7.939c0.104,0.105,0.178,0.227,0.228,0.357C37.966,26.72,38,26.855,38,27
	c0,0.144-0.033,0.279-0.088,0.402c-0.05,0.131-0.123,0.254-0.229,0.36l-7.952,7.939c-0.399,0.398-1.046,0.398-1.446,0
	c-0.399-0.4-0.399-1.045,0-1.445l6.27-6.259H20c-0.552,0-1-0.447-1-0.998C19,26.448,19.448,26,20,26z"/>
</svg>
