<?xml version="1.0" encoding="utf-8"?>
<!DOCTYPE svg PUBLIC "-//W3C//DTD SVG 1.1//EN" "http://www.w3.org/Graphics/SVG/1.1/DTD/svg11.dtd">
<svg version="1.1" id="Слой_1" xmlns="http://www.w3.org/2000/svg" xmlns:xlink="http://www.w3.org/1999/xlink" x="0px" y="0px"
	 width="9.992px" height="7.001px" viewBox="0 0 9.992 7.001" enable-background="new 0 0 9.992 7.001" xml:space="preserve">
<path fill-rule="evenodd" clip-rule="evenodd" fill="#7dc855" d="M8.408,0.158L4.671,4.034c-0.203,0.211-0.531,0.211-0.734,0
	L1.64,1.651C1.442,1.446,1.123,1.441,0.918,1.64L0.16,2.375c-0.214,0.21-0.219,0.559-0.012,0.775l3.409,3.536
	c0.404,0.419,1.061,0.421,1.467,0l4.819-4.988c0.198-0.204,0.204-0.536,0.013-0.748L9.153,0.171
	C8.953-0.051,8.615-0.057,8.408,0.158"/>
<path fill-rule="evenodd" clip-rule="evenodd" fill="#7dc855" d="M8.408,0.158L4.671,4.034c-0.203,0.211-0.531,0.211-0.734,0
	L1.64,1.651C1.442,1.446,1.123,1.441,0.918,1.64L0.16,2.375c-0.214,0.21-0.219,0.559-0.012,0.775l3.409,3.536
	c0.404,0.419,1.061,0.421,1.467,0l4.819-4.988c0.198-0.204,0.204-0.536,0.013-0.748L9.153,0.171
	C8.953-0.051,8.615-0.057,8.408,0.158"/>
</svg>
