<?xml version="1.0" encoding="utf-8"?>
<!-- Generator: Adobe Illustrator 16.0.2, SVG Export Plug-In . SVG Version: 6.00 Build 0)  -->
<!DOCTYPE svg PUBLIC "-//W3C//DTD SVG 1.1//EN" "http://www.w3.org/Graphics/SVG/1.1/DTD/svg11.dtd">
<svg version="1.1" id="Capa_1" xmlns="http://www.w3.org/2000/svg" xmlns:xlink="http://www.w3.org/1999/xlink" x="0px" y="0px"
	 width="30px" height="30px" viewBox="0 67.534 30 30" enable-background="new 0 67.534 30 30" xml:space="preserve">
<path fill="#FFFFFF" d="M27.133,80.011l1.532-0.185C29.426,79.734,30,79.086,30,78.32c0-0.836-0.68-1.516-1.517-1.516h-1.067
	c-0.652,0-1.209,0.414-1.423,0.993L24.5,74.529c-0.554-1.213-1.661-2.116-2.96-2.414c-2.201-0.504-10.879-0.504-13.08,0
	c-1.3,0.298-2.407,1.2-2.96,2.414l-1.493,3.267c-0.214-0.579-0.771-0.992-1.423-0.992H1.517C0.68,76.804,0,77.484,0,78.32
	c0,0.767,0.574,1.414,1.334,1.506l1.532,0.185l-1.465,1.465c-0.712,0.712-1.053,1.733-0.912,2.73l0.501,3.534
	c0.128,0.908,0.6,1.7,1.269,2.254v1.605c0,0.955,0.777,1.731,1.731,1.731h2.871c0.955,0,1.731-0.776,1.731-1.731V90.82h12.813v0.779
	c0,0.955,0.776,1.731,1.731,1.731h2.87c0.955,0,1.731-0.777,1.731-1.731v-1.605c0.67-0.553,1.141-1.346,1.27-2.254l0.501-3.534
	c0.141-0.997-0.2-2.018-0.912-2.73L27.133,80.011z M25.462,89.672H4.538c-1.16,0-2.163-0.833-2.388-1.959H27.85
	C27.625,88.839,26.622,89.672,25.462,89.672z M21.759,84.699l0.583,1.867h-0.794l-0.583-1.867H21.759z M19.762,84.699l0.583,1.867
	H9.654l0.583-1.867H19.762z M8.453,86.566H7.658l0.583-1.867h0.794L8.453,86.566z M6.456,86.566H1.983l-0.265-1.867h5.321
	L6.456,86.566z M23.544,86.566l-0.583-1.867h5.32l-0.265,1.867H23.544z M27.047,78.32c0-0.203,0.166-0.369,0.369-0.369h1.067
	c0.204,0,0.369,0.166,0.369,0.369c0,0.187-0.14,0.344-0.325,0.367l-1.481,0.179V78.32L27.047,78.32z M8.716,73.233
	c1.997-0.458,10.57-0.458,12.567,0c0.492,0.113,0.946,0.345,1.327,0.665c-2.733-0.474-12.491-0.474-15.222,0
	C7.77,73.579,8.224,73.347,8.716,73.233z M6.348,75.434c0.354-0.18,0.739-0.31,1.144-0.388c2.456-0.474,12.561-0.474,15.017,0
	c0.405,0.078,0.789,0.208,1.144,0.388l1.773,3.881H4.575L6.348,75.434z M1.147,78.32c0-0.203,0.166-0.369,0.369-0.369h1.067
	c0.203,0,0.369,0.166,0.369,0.369v0.545l-1.481-0.179C1.287,78.664,1.147,78.506,1.147,78.32z M4.038,80.462h21.924l1.825,1.825
	c0.341,0.341,0.549,0.792,0.597,1.265H1.616c0.047-0.473,0.255-0.923,0.597-1.265L4.038,80.462z M7.446,91.599
	c0,0.322-0.262,0.584-0.584,0.584H3.992c-0.322,0-0.584-0.262-0.584-0.584v-0.965c0.357,0.12,0.738,0.186,1.13,0.186h2.908V91.599z
	 M26.592,91.599c0,0.322-0.262,0.584-0.584,0.584h-2.87c-0.322,0-0.584-0.262-0.584-0.584V90.82h2.908
	c0.393,0,0.773-0.065,1.13-0.186V91.599L26.592,91.599z"/>
</svg>
