<?xml version="1.0" encoding="utf-8"?>
<!-- Generator: Adobe Illustrator 16.0.2, SVG Export Plug-In . SVG Version: 6.00 Build 0)  -->
<!DOCTYPE svg PUBLIC "-//W3C//DTD SVG 1.1//EN" "http://www.w3.org/Graphics/SVG/1.1/DTD/svg11.dtd">
<svg version="1.1" id="Слой_1" xmlns="http://www.w3.org/2000/svg" xmlns:xlink="http://www.w3.org/1999/xlink" x="0px" y="0px"
	 width="30px" height="30px" viewBox="241 241 30 30" enable-background="new 241 241 30 30" xml:space="preserve">
<path fill="#FFFFFF" d="M269.36,260.609c-1.494-1.493-3.692-2.013-5.685-1.367l-4.251-4.251l5.034-5.035l3.203-1.791
	c0.089-0.05,0.161-0.125,0.206-0.217l1.439-2.878c0.098-0.196,0.06-0.432-0.096-0.587l-1.799-1.799
	c-0.154-0.155-0.391-0.193-0.587-0.095l-2.878,1.439c-0.091,0.046-0.167,0.118-0.217,0.207l-1.79,3.202l-5.035,5.035l-4.043-4.043
	c0.646-1.992,0.126-4.19-1.367-5.685c-1.574-1.573-3.93-2.065-6.002-1.253c-0.262,0.103-0.391,0.398-0.288,0.66
	c0.026,0.065,0.064,0.125,0.114,0.174l3.236,3.236l-2.158,2.159l-3.237-3.236c-0.199-0.199-0.521-0.199-0.719,0
	c-0.05,0.049-0.088,0.109-0.114,0.174c-0.812,2.072-0.32,4.428,1.254,6.002c1.494,1.494,3.692,2.013,5.684,1.367l4.043,4.043
	l-0.583,0.583l-1.439-1.439c-0.125-0.125-0.305-0.176-0.477-0.135c-0.171,0.041-0.31,0.167-0.366,0.334l-0.66,1.981l-5.212,3.147
	c-0.046,0.027-0.087,0.063-0.123,0.103l-2.681,3.107c-1.085,1.258-1.013,3.237,0.163,4.412l1.802,1.803
	c0.617,0.616,1.454,0.928,2.293,0.928c0.761,0,1.523-0.257,2.122-0.775l3.168-2.746c0.041-0.035,0.075-0.077,0.103-0.123
	l3.084-5.137l1.98-0.66c0.266-0.089,0.411-0.377,0.322-0.644c-0.025-0.074-0.067-0.143-0.123-0.198l-1.439-1.439l0.583-0.583
	l4.251,4.251c-0.646,1.992-0.127,4.19,1.367,5.685c1.07,1.069,2.502,1.64,3.96,1.64c0.699,0,1.392-0.131,2.042-0.386
	c0.262-0.104,0.391-0.398,0.288-0.66c-0.025-0.065-0.064-0.124-0.114-0.174l-3.236-3.236l2.159-2.158l3.236,3.236
	c0.198,0.198,0.521,0.198,0.719,0c0.05-0.05,0.089-0.109,0.114-0.175C271.426,264.539,270.934,262.184,269.36,260.609
	L269.36,260.609z M249.758,251.081c-0.143-0.143-0.357-0.188-0.545-0.114c-1.696,0.665-3.624,0.262-4.912-1.025
	c-1.093-1.094-1.549-2.649-1.254-4.132l2.991,2.991c0.199,0.199,0.521,0.199,0.719,0l2.878-2.878c0.198-0.199,0.199-0.521,0-0.72
	l0,0l-2.991-2.991c1.483-0.295,3.038,0.16,4.132,1.254c1.288,1.288,1.69,3.215,1.026,4.911c-0.074,0.188-0.029,0.402,0.114,0.545
	l4.271,4.271l-2.158,2.159L249.758,251.081L249.758,251.081z M255.381,260.748l-1.378,0.46c-0.115,0.038-0.212,0.116-0.275,0.221
	l-3.139,5.229l-3.107,2.692c-0.864,0.75-2.223,0.703-3.029-0.103l-1.803-1.803c-0.806-0.807-0.856-2.165-0.112-3.027l2.628-3.046
	l5.303-3.202c0.104-0.063,0.182-0.16,0.22-0.275l0.459-1.377l1.217,1.217l1.799,1.799L255.381,260.748z M254.524,258.453l-1.08-1.08
	l9.266-9.265c0.033-0.033,0.062-0.071,0.084-0.112l1.748-3.127l2.41-1.205l1.28,1.28l-1.205,2.41l-3.127,1.748
	c-0.041,0.023-0.078,0.051-0.111,0.084L254.524,258.453z M269.895,265.461l-2.991-2.99c-0.198-0.199-0.521-0.199-0.72,0
	l-2.878,2.878c-0.198,0.198-0.198,0.521,0,0.719l0,0l2.991,2.991c-1.482,0.295-3.038-0.16-4.132-1.254
	c-1.288-1.287-1.69-3.215-1.025-4.911c0.073-0.188,0.028-0.402-0.114-0.545l-4.479-4.479l2.158-2.158l4.479,4.479
	c0.144,0.144,0.357,0.188,0.546,0.114c1.695-0.664,3.623-0.262,4.911,1.025C269.734,262.423,270.189,263.979,269.895,265.461
	L269.895,265.461z"/>
</svg>
