<?xml version="1.0" encoding="utf-8"?>
<!-- Generator: Adobe Illustrator 16.0.2, SVG Export Plug-In . SVG Version: 6.00 Build 0)  -->
<!DOCTYPE svg PUBLIC "-//W3C//DTD SVG 1.1//EN" "http://www.w3.org/Graphics/SVG/1.1/DTD/svg11.dtd">
<svg version="1.1" id="Capa_1" xmlns="http://www.w3.org/2000/svg" xmlns:xlink="http://www.w3.org/1999/xlink" x="0px" y="0px"
	 width="14px" height="14px" viewBox="-0.001 2.332 14 14" enable-background="new -0.001 2.332 14 14" xml:space="preserve">
<path fill="#989898" d="M6.999,9.746c1.733,0,3.139-1.645,3.139-3.674c0-2.813-1.405-3.674-3.139-3.674
	c-1.733,0-3.139,0.86-3.139,3.674C3.86,8.101,5.266,9.746,6.999,9.746z M13.931,15.154l-1.583-3.567
	c-0.073-0.164-0.2-0.299-0.358-0.381L9.531,9.926C9.477,9.897,9.411,9.903,9.363,9.94c-0.695,0.526-1.513,0.804-2.364,0.804
	S5.331,10.466,4.636,9.94C4.587,9.903,4.521,9.897,4.467,9.926l-2.458,1.279c-0.158,0.083-0.286,0.218-0.358,0.381l-1.584,3.567
	c-0.109,0.246-0.086,0.527,0.06,0.753s0.395,0.36,0.664,0.36h12.416c0.269,0,0.517-0.134,0.664-0.36
	C14.018,15.681,14.04,15.399,13.931,15.154z"/>
</svg>
