<?xml version="1.0" encoding="utf-8"?>
<!-- Generator: Adobe Illustrator 16.0.2, SVG Export Plug-In . SVG Version: 6.00 Build 0)  -->
<!DOCTYPE svg PUBLIC "-//W3C//DTD SVG 1.1//EN" "http://www.w3.org/Graphics/SVG/1.1/DTD/svg11.dtd">
<svg version="1.1" id="Слой_1" xmlns="http://www.w3.org/2000/svg" xmlns:xlink="http://www.w3.org/1999/xlink" x="0px" y="0px"
	 width="28.781px" height="30px" viewBox="242.609 247.001 28.781 30" enable-background="new 242.609 247.001 28.781 30"
	 xml:space="preserve">
<g>
	<path fill="#FFFFFF" d="M268.307,251.769c-0.197,0-0.37-0.034-0.532-0.083h-8.468c-0.146,0-0.287,0.059-0.392,0.162l-1.569,1.569
		c-0.17-0.067-0.354-0.106-0.549-0.106c-0.813,0-1.477,0.662-1.477,1.476s0.662,1.476,1.477,1.476s1.477-0.662,1.477-1.476
		c0-0.214-0.047-0.417-0.129-0.601l1.392-1.393h8.368v9.301h-4.398c-0.22-0.541-0.749-0.924-1.367-0.924
		c-0.813,0-1.477,0.662-1.477,1.477c0,0.813,0.662,1.477,1.477,1.477c0.617,0,1.147-0.382,1.367-0.922h4.398v0.009
		c0.131-0.029,0.271-0.048,0.422-0.048c0.26,0,0.484,0.051,0.685,0.133V251.63C268.807,251.717,268.574,251.769,268.307,251.769z
		 M256.797,255.154c-0.203,0-0.369-0.166-0.369-0.368c0-0.203,0.166-0.369,0.369-0.369s0.369,0.166,0.369,0.369
		C257.166,254.99,257,255.154,256.797,255.154z M262.139,263.016c-0.205,0-0.369-0.166-0.369-0.369s0.164-0.369,0.369-0.369
		c0.202,0,0.368,0.164,0.368,0.369C262.507,262.85,262.341,263.016,262.139,263.016z"/>
	<path fill="#FFFFFF" d="M262.674,256.428c-0.617,0-1.148,0.383-1.367,0.922h-13.064c-0.155,0.043-0.32,0.074-0.506,0.074
		c-0.187,0-0.352-0.031-0.507-0.074h-1.134v-0.027c-0.129,0.029-0.268,0.047-0.417,0.047c-0.262,0-0.489-0.052-0.69-0.135v3.51
		c0.201-0.083,0.429-0.135,0.69-0.135c0.149,0,0.288,0.018,0.417,0.047v-0.004h8.489l1.392,1.393
		c-0.082,0.184-0.129,0.387-0.129,0.602c0,0.609,0.373,1.135,0.902,1.36c0.363,0.009,0.729,0.014,1.093,0.018
		c0.558-0.211,0.958-0.747,0.958-1.378c0-0.813-0.662-1.477-1.477-1.477c-0.193,0-0.379,0.039-0.549,0.107l-1.568-1.568
		c-0.104-0.104-0.244-0.162-0.393-0.162h-8.719v-1.089h15.211c0.221,0.54,0.75,0.922,1.367,0.922c0.813,0,1.477-0.661,1.477-1.476
		S263.488,256.428,262.674,256.428z M257.323,262.277c0.204,0,0.368,0.164,0.368,0.367c0,0.205-0.164,0.369-0.368,0.369
		c-0.203,0-0.368-0.164-0.368-0.369C256.955,262.441,257.12,262.277,257.323,262.277z M262.674,258.273
		c-0.203,0-0.369-0.166-0.369-0.369s0.166-0.369,0.369-0.369s0.369,0.166,0.369,0.369S262.877,258.273,262.674,258.273z"/>
	<path fill="#FFFFFF" d="M269.249,270.137h-5.274v-1.328h5.021c1.229,0,2.229-1,2.229-2.229v-17.35c0-1.229-1-2.229-2.229-2.229
		h-23.992c-1.229,0-2.229,1-2.229,2.229v17.35c0,1.229,1,2.229,2.229,2.229h5.021v1.328h-5.274c-1.181,0-2.142,0.961-2.142,2.143
		v2.578c0,1.183,0.961,2.144,2.142,2.144h24.498c1.181,0,2.142-0.961,2.142-2.144v-2.578
		C271.391,271.098,270.43,270.137,269.249,270.137L269.249,270.137z M243.882,266.579v-17.351c0-0.619,0.503-1.121,1.122-1.121
		h23.992c0.618,0,1.122,0.502,1.122,1.121v17.351c0,0.618-0.504,1.122-1.122,1.122h-23.992
		C244.385,267.701,243.882,267.197,243.882,266.579L243.882,266.579z M251.133,268.809h11.734v1.328h-11.734V268.809
		L251.133,268.809z M270.283,274.857c0,0.57-0.465,1.035-1.035,1.035h-24.497c-0.569,0-1.035-0.465-1.035-1.035v-2.58
		c0-0.569,0.466-1.034,1.035-1.034h24.498c0.569,0,1.035,0.465,1.035,1.034L270.283,274.857L270.283,274.857z"/>
	<path fill="#FFFFFF" d="M255.395,273.016h-9.52c-0.307,0-0.555,0.248-0.555,0.553c0,0.307,0.248,0.555,0.555,0.555h9.52
		c0.307,0,0.555-0.248,0.555-0.555C255.949,273.264,255.7,273.016,255.395,273.016z"/>
	<path fill="#FFFFFF" d="M268.234,273.016h-1.659c-0.306,0-0.554,0.248-0.554,0.553c0,0.307,0.248,0.555,0.554,0.555h1.659
		c0.307,0,0.555-0.248,0.555-0.555C268.789,273.264,268.541,273.016,268.234,273.016z"/>
</g>
</svg>
