<?xml version="1.0" encoding="utf-8"?>
<!-- Generator: Adobe Illustrator 16.0.2, SVG Export Plug-In . SVG Version: 6.00 Build 0)  -->
<!DOCTYPE svg PUBLIC "-//W3C//DTD SVG 1.1//EN" "http://www.w3.org/Graphics/SVG/1.1/DTD/svg11.dtd">
<svg version="1.1" id="Capa_1" xmlns="http://www.w3.org/2000/svg" xmlns:xlink="http://www.w3.org/1999/xlink" x="0px" y="0px"
	 width="30px" height="30px" viewBox="246.5 266.5 30 30" enable-background="new 246.5 266.5 30 30" xml:space="preserve">
<path fill="#FFFFFF" d="M268.704,274.988h2.404c0.693,0,1.256-0.552,1.256-1.23v-6.026c0-0.679-0.563-1.231-1.256-1.231h-2.404
	c-0.693,0-1.256,0.553-1.256,1.231v2.435h-3.867c-0.258-0.891-1.092-1.544-2.08-1.544c-0.989,0-1.823,0.654-2.081,1.544h-3.868
	v-2.435c0-0.679-0.563-1.231-1.255-1.231h-2.406c-0.692,0-1.255,0.553-1.255,1.231v6.026c0,0.679,0.563,1.23,1.255,1.23h2.406
	c0.692,0,1.255-0.552,1.255-1.23v-2.434h3.868c0.203,0.705,0.771,1.262,1.489,1.461v9.638c-0.917,0.327-1.573,1.403-1.573,2.717
	c0,1.313,0.656,2.389,1.573,2.716v2.358c-0.718,0.201-1.286,0.758-1.489,1.463h-3.868v-2.435c0-0.679-0.563-1.23-1.255-1.23h-2.406
	c-0.692,0-1.255,0.552-1.255,1.23v6.026c0,0.679,0.563,1.231,1.255,1.231h2.406c0.692,0,1.255-0.553,1.255-1.231v-2.434h3.868
	c0.258,0.89,1.092,1.543,2.079,1.543c0.988,0,1.824-0.653,2.082-1.543h3.867v2.434c0,0.679,0.563,1.231,1.256,1.231h2.404
	c0.693,0,1.256-0.553,1.256-1.231v-6.026c0-0.679-0.563-1.23-1.256-1.23h-2.404c-0.693,0-1.256,0.552-1.256,1.23v2.435h-3.867
	c-0.205-0.705-0.771-1.262-1.49-1.463v-2.358c0.916-0.327,1.572-1.403,1.572-2.716c0-1.313-0.656-2.39-1.572-2.717v-9.638
	c0.719-0.199,1.285-0.756,1.49-1.461h3.867v2.434C267.448,274.437,268.011,274.988,268.704,274.988z M254.372,273.758
	c0,0.04-0.034,0.073-0.076,0.073h-2.406c-0.042,0-0.075-0.033-0.075-0.073v-6.026c0-0.04,0.034-0.073,0.075-0.073h2.406
	c0.042,0,0.076,0.033,0.076,0.073V273.758L254.372,273.758z M254.372,295.269c0,0.041-0.034,0.074-0.076,0.074h-2.406
	c-0.042,0-0.075-0.033-0.075-0.074v-6.026c0-0.04,0.034-0.073,0.075-0.073h2.406c0.042,0,0.076,0.033,0.076,0.073V295.269
	L254.372,295.269z M268.628,289.242c0-0.04,0.033-0.073,0.076-0.073h2.404c0.043,0,0.076,0.033,0.076,0.073v6.026
	c0,0.041-0.033,0.074-0.076,0.074h-2.404c-0.043,0-0.076-0.033-0.076-0.074V289.242z M262.483,292.256
	c0,0.531-0.441,0.964-0.982,0.964c-0.543,0-0.983-0.433-0.983-0.964c0-0.532,0.44-0.965,0.983-0.965
	C262.042,291.291,262.483,291.724,262.483,292.256z M261.501,286.801c-0.467,0-0.983-0.683-0.983-1.662
	c0-0.979,0.517-1.661,0.983-1.661c0.465,0,0.982,0.683,0.982,1.661C262.483,286.118,261.966,286.801,261.501,286.801z
	 M261.501,271.709c-0.543,0-0.983-0.433-0.983-0.965c0-0.531,0.44-0.965,0.983-0.965c0.541,0,0.982,0.434,0.982,0.965
	C262.483,271.276,262.042,271.709,261.501,271.709z M268.628,267.731c0-0.04,0.033-0.073,0.076-0.073h2.404
	c0.043,0,0.076,0.033,0.076,0.073v6.026c0,0.04-0.033,0.073-0.076,0.073h-2.404c-0.043,0-0.076-0.033-0.076-0.073V267.731z"/>
</svg>
