<?xml version="1.0" encoding="utf-8"?>
<!-- Generator: Adobe Illustrator 16.0.2, SVG Export Plug-In . SVG Version: 6.00 Build 0)  -->
<!DOCTYPE svg PUBLIC "-//W3C//DTD SVG 1.1//EN" "http://www.w3.org/Graphics/SVG/1.1/DTD/svg11.dtd">
<svg version="1.1" id="Слой_1" xmlns="http://www.w3.org/2000/svg" xmlns:xlink="http://www.w3.org/1999/xlink" x="0px" y="0px"
	 width="40px" height="12px" viewBox="0 0 40 12" enable-background="new 0 0 40 12" xml:space="preserve">
<path fill="#989898" d="M11.294,1.332H9.176V0.343C9.176,0.154,9.02,0,8.823,0H8.117C7.923,0,7.766,0.154,7.766,0.343v0.989H4.235
	V0.343C4.235,0.154,4.077,0,3.882,0H3.176C2.981,0,2.823,0.154,2.823,0.343v0.989H0.706C0.315,1.332,0,1.639,0,2.017v9.297
	C0,11.693,0.315,12,0.706,12h10.588C11.684,12,12,11.693,12,11.314V2.017C12,1.639,11.684,1.332,11.294,1.332L11.294,1.332z
	 M10.588,10.286c0,0.188-0.158,0.343-0.354,0.343H1.765c-0.195,0-0.353-0.152-0.353-0.343v-7.24c0-0.189,0.158-0.343,0.353-0.343
	h1.059v0.726c0,0.189,0.158,0.343,0.353,0.343h0.706c0.195,0,0.353-0.153,0.353-0.343V2.703h3.53v0.726
	c0,0.189,0.157,0.343,0.353,0.343h0.706c0.195,0,0.353-0.153,0.353-0.343V2.703h1.06c0.193,0,0.353,0.153,0.353,0.343L10.588,10.286
	L10.588,10.286z M4.235,5.143H3.529c-0.195,0-0.353,0.154-0.353,0.343v0.685c0,0.189,0.158,0.343,0.353,0.343h0.706
	c0.194,0,0.353-0.154,0.353-0.343V5.486C4.588,5.297,4.43,5.143,4.235,5.143z M6.353,5.143H5.647c-0.195,0-0.353,0.154-0.353,0.343
	v0.685c0,0.189,0.158,0.343,0.353,0.343h0.706c0.195,0,0.354-0.154,0.354-0.343V5.486C6.706,5.297,6.548,5.143,6.353,5.143z
	 M8.471,5.143H7.766c-0.195,0-0.354,0.154-0.354,0.343v0.685c0,0.189,0.158,0.343,0.354,0.343h0.705
	c0.194,0,0.354-0.154,0.354-0.343V5.486C8.823,5.297,8.665,5.143,8.471,5.143z M4.235,7.2H3.529c-0.195,0-0.353,0.153-0.353,0.343
	v0.686c0,0.189,0.158,0.344,0.353,0.344h0.706c0.194,0,0.353-0.154,0.353-0.344V7.543C4.588,7.354,4.43,7.2,4.235,7.2z M6.353,7.2
	H5.647c-0.195,0-0.353,0.153-0.353,0.343v0.686c0,0.189,0.158,0.344,0.353,0.344h0.706c0.195,0,0.354-0.154,0.354-0.344V7.543
	C6.706,7.354,6.548,7.2,6.353,7.2z M8.471,7.2H7.766c-0.195,0-0.354,0.153-0.354,0.343v0.686c0,0.189,0.158,0.344,0.354,0.344h0.705
	c0.194,0,0.354-0.154,0.354-0.344V7.543C8.823,7.354,8.665,7.2,8.471,7.2z"/>
</svg>
