<?xml version="1.0" encoding="utf-8"?>
<!-- Generator: Adobe Illustrator 16.0.2, SVG Export Plug-In . SVG Version: 6.00 Build 0)  -->
<!DOCTYPE svg PUBLIC "-//W3C//DTD SVG 1.1//EN" "http://www.w3.org/Graphics/SVG/1.1/DTD/svg11.dtd">
<svg version="1.1" id="Capa_1" xmlns="http://www.w3.org/2000/svg" xmlns:xlink="http://www.w3.org/1999/xlink" x="0px" y="0px"
	 width="30.001px" height="30px" viewBox="246.5 266.5 30.001 30" enable-background="new 246.5 266.5 30.001 30"
	 xml:space="preserve">
<path fill="#FCFCFC" d="M248.824,280.063l3.04,3.04c0.885,0.885,2.048,1.327,3.211,1.327c1.163,0,2.326-0.442,3.211-1.327
	l0.039-0.039l13.249,13.247c0.121,0.122,0.286,0.189,0.457,0.189c0.009,0,0.018,0,0.026,0l3.675-0.147
	c0.337-0.014,0.606-0.284,0.62-0.621l0.148-3.674c0.01-0.237-0.112-0.461-0.317-0.583l-1.393-0.825l-1.04-1.615
	c-0.051-0.078-0.116-0.144-0.194-0.194l-1.626-1.047l-1.048-1.627c-0.05-0.077-0.116-0.144-0.193-0.192l-1.627-1.048l-1.047-1.626
	c-0.05-0.078-0.116-0.144-0.194-0.194l-1.626-1.047l-1.048-1.627c-0.024-0.038-0.054-0.074-0.086-0.107l-1.999-1.998l0.038-0.038
	c1.771-1.771,1.771-4.651,0-6.421l-3.039-3.04c-1.501-1.501-3.496-2.327-5.619-2.327s-4.118,0.826-5.618,2.327
	C245.726,271.925,245.726,276.965,248.824,280.063z M275.19,292.393l-0.107,2.69l-0.132,0.005l-14.326-14.324l1.521-1.521
	l1.949,1.949l1.086,1.686c0.05,0.078,0.116,0.144,0.194,0.194l1.626,1.047l1.048,1.627c0.05,0.076,0.116,0.143,0.193,0.193
	l1.627,1.047l1.047,1.626c0.05,0.078,0.116,0.144,0.193,0.193l1.627,1.048l1.047,1.627c0.055,0.084,0.128,0.154,0.215,0.206
	L275.19,292.393z M259.239,282.148l0.47-0.471l13.482,13.481l-0.903,0.036L259.239,282.148z M249.739,269.742l-0.458-0.457
	L249.739,269.742c1.256-1.256,2.927-1.947,4.703-1.947s3.447,0.691,4.703,1.947l3.04,3.04c0.613,0.612,0.951,1.429,0.951,2.295
	c0,0.867-0.338,1.683-0.951,2.296l-4.814,4.813c-1.266,1.267-3.326,1.267-4.591,0l-3.04-3.039
	C247.146,276.555,247.146,272.336,249.739,269.742z"/>
<path fill="#FCFCFC" d="M250.019,276.389c0.086,0.197,0.264,0.338,0.475,0.378c0.04,0.007,0.079,0.011,0.119,0.011
	c0.172,0,0.338-0.068,0.461-0.192l5.47-5.552c0.15-0.152,0.216-0.369,0.174-0.58c-0.042-0.21-0.185-0.386-0.383-0.469
	c-1.831-0.775-3.99-0.338-5.373,1.087C249.599,272.477,249.229,274.564,250.019,276.389z M251.891,271.973
	c0.772-0.796,1.874-1.171,2.949-1.055l-3.907,3.966C250.796,273.826,251.133,272.754,251.891,271.973z"/>
</svg>
