<?xml version="1.0" encoding="utf-8"?>
<!-- Generator: Adobe Illustrator 16.0.2, SVG Export Plug-In . SVG Version: 6.00 Build 0)  -->
<!DOCTYPE svg PUBLIC "-//W3C//DTD SVG 1.1//EN" "http://www.w3.org/Graphics/SVG/1.1/DTD/svg11.dtd">
<svg version="1.1" id="Слой_1" xmlns="http://www.w3.org/2000/svg" xmlns:xlink="http://www.w3.org/1999/xlink" x="0px" y="0px"
	 width="14px" height="14px" viewBox="0 0 14 14" enable-background="new 0 0 14 14" xml:space="preserve">
<path fill="#989898" d="M3.056,3.34C2.607,6.09,4.94,8.436,7.678,7.984c1.657-0.272,2.995-1.616,3.267-3.282
	C11.393,1.95,9.06-0.396,6.323,0.056C4.665,0.329,3.328,1.673,3.056,3.34z M0.028,13l0.021-0.075
	c0.504-1.837,1.472-3.492,2.782-4.835C2.99,7.926,3.26,7.932,3.417,8.097c1.063,1.122,2.669,1.746,4.411,1.466
	c1.079-0.173,2.044-0.708,2.762-1.467c0.155-0.164,0.424-0.166,0.582-0.003c1.309,1.342,2.276,2.996,2.78,4.832L13.972,13
	c0.139,0.505-0.251,1-0.786,1H0.814C0.28,14-0.11,13.505,0.028,13z"/>
</svg>
