<?xml version="1.0" encoding="utf-8"?>
<!-- Generator: Adobe Illustrator 16.0.2, SVG Export Plug-In . SVG Version: 6.00 Build 0)  -->
<!DOCTYPE svg PUBLIC "-//W3C//DTD SVG 1.1//EN" "http://www.w3.org/Graphics/SVG/1.1/DTD/svg11.dtd">
<svg version="1.1" id="Capa_1" xmlns="http://www.w3.org/2000/svg" xmlns:xlink="http://www.w3.org/1999/xlink" x="0px" y="0px"
	 width="60px" height="50.77px" viewBox="226 230.615 60 50.77" enable-background="new 226 230.615 60 50.77" xml:space="preserve"
	>
<path fill="#FFFFFF" d="M272.153,276.77c0,1.275,0.452,2.362,1.353,3.263c0.9,0.902,1.989,1.353,3.265,1.353
	c1.272,0,2.361-0.45,3.262-1.353c0.901-0.9,1.353-1.987,1.353-3.263c0-1.274-0.45-2.361-1.353-3.264
	c-0.9-0.9-1.989-1.352-3.262-1.352c-1.275,0-2.364,0.451-3.265,1.352C272.605,274.408,272.153,275.495,272.153,276.77z
	 M285.314,235.916c-0.457-0.457-0.997-0.686-1.622-0.686h-43.306c-0.024-0.168-0.078-0.474-0.163-0.919
	c-0.084-0.445-0.15-0.799-0.198-1.064c-0.049-0.264-0.138-0.583-0.271-0.955s-0.289-0.667-0.469-0.883
	c-0.18-0.217-0.42-0.403-0.721-0.56c-0.3-0.156-0.643-0.234-1.027-0.234h-9.23c-0.625,0-1.167,0.229-1.623,0.685
	c-0.457,0.457-0.685,0.998-0.685,1.623c0,0.625,0.228,1.166,0.685,1.623c0.457,0.457,0.998,0.685,1.623,0.685h7.354l6.382,29.676
	c-0.048,0.097-0.294,0.553-0.739,1.37c-0.445,0.818-0.799,1.532-1.063,2.146s-0.396,1.088-0.396,1.425
	c0,0.625,0.229,1.166,0.685,1.623c0.457,0.456,0.998,0.685,1.623,0.685h2.308h32.308h2.306c0.625,0,1.166-0.229,1.623-0.685
	c0.457-0.457,0.685-0.998,0.685-1.623s-0.228-1.166-0.685-1.623c-0.457-0.456-0.998-0.686-1.623-0.686h-33.172
	c0.577-1.153,0.865-1.922,0.865-2.307c0-0.241-0.03-0.506-0.09-0.794c-0.06-0.287-0.132-0.606-0.216-0.955
	c-0.084-0.348-0.138-0.606-0.162-0.775l37.645-4.398c0.601-0.073,1.094-0.33,1.478-0.775c0.385-0.444,0.577-0.955,0.577-1.533
	v-18.462C286,236.914,285.771,236.373,285.314,235.916z M239.846,276.77c0,1.275,0.45,2.362,1.352,3.263
	c0.902,0.902,1.989,1.353,3.264,1.353c1.273,0,2.361-0.45,3.263-1.353c0.901-0.9,1.353-1.987,1.353-3.263
	c0-1.274-0.451-2.361-1.353-3.264c-0.901-0.9-1.989-1.352-3.263-1.352c-1.274,0-2.362,0.451-3.264,1.352
	C240.296,274.408,239.846,275.495,239.846,276.77z"/>
</svg>
