<?xml version="1.0" encoding="iso-8859-1"?>
<svg xmlns="http://www.w3.org/2000/svg" xmlns:xlink="http://www.w3.org/1999/xlink" version="1.1" id="Capa_1" x="0px" y="0px" viewBox="0 0 512.001 512.001" style="enable-background:new 0 0 512.001 512.001;" xml:space="preserve" width="512px" height="512px">
<path d="M105.117,243.2c-8.276,0-15,6.724-15,15s6.724,15,15,15s15-6.724,15-15C120.117,249.923,113.393,243.2,105.117,243.2z" fill="#FFFFFF"/>
<path d="M500.706,323.459L382.859,45.276c-18.616-43.269-72.39-58.83-111.255-32.109L45.761,171.584    C17.182,191.198,0.117,223.571,0.117,258.2c0,37.69,20.376,72.686,53.174,91.333l256.736,144.844    c52.41,29.774,118.941,21.391,162.217-21.885C511.604,433.146,522.766,374.64,500.706,323.459z M303.411,64.409    c5.858-5.859,15.355-5.859,21.213,0c5.858,5.858,5.858,15.355,0,21.213c-5.858,5.858-15.355,5.858-21.213,0    C297.553,79.764,297.554,70.266,303.411,64.409z M60.117,258.2c0-24.814,20.186-45,45-45s45,20.186,45,45    c0,24.814-20.186,45-45,45C80.303,303.2,60.117,283.014,60.117,258.2z M251.948,426.849L131.42,359.453    c45.126-11.759,78.697-52.5,78.697-101.254c0-51.797-37.798-94.686-87.202-103.2l116.554-83.408    c-0.877,20.499,6.288,41.221,21.515,56.448c28.669,28.669,76.741,29.486,106.069,0c4.808-4.808,8.719-10.197,11.982-15.877    l61.013,146.328c-51.05-27.178-115.759-19.885-158.732,23.088C241.745,321.265,232.92,378.467,251.948,426.849z M429.822,430.055    c-29.239,29.239-76.83,29.239-106.069,0c-29.238-29.238-29.238-76.816,0-106.055c29.224-29.224,76.816-29.253,106.069,0    C459.09,353.238,459.194,400.683,429.822,430.055z" fill="#FFFFFF"/>
<path d="M408.61,345.212c-17.548-17.55-46.097-17.55-63.647,0c-17.581,17.581-17.581,46.051,0,63.633    c17.549,17.563,46.099,17.534,63.647,0C426.156,391.299,426.227,362.83,408.61,345.212z M387.396,387.633    c-5.858,5.858-15.355,5.858-21.213,0c-5.859-5.858-5.859-15.355,0-21.213c5.858-5.858,15.355-5.858,21.213,0    C393.254,372.278,393.254,381.776,387.396,387.633z" fill="#FFFFFF"/>
</svg>
