<?xml version="1.0" encoding="iso-8859-1"?>
<!DOCTYPE svg PUBLIC "-//W3C//DTD SVG 1.1//EN" "http://www.w3.org/Graphics/SVG/1.1/DTD/svg11.dtd">
<svg xmlns="http://www.w3.org/2000/svg" xmlns:xlink="http://www.w3.org/1999/xlink" version="1.1" id="Capa_1" x="0px" y="0px" viewBox="0 0 490 490" style="enable-background:new 0 0 490 490;" xml:space="preserve" width="512px" height="512px">
<path d="M485.574,155.527L249.263,22.489c-2.647-1.49-5.878-1.49-8.525,0L4.426,155.527c-2.734,1.54-4.427,4.435-4.426,7.573   v302.912c0,1.445,1.171,2.616,2.615,2.616h52.142c1.444,0,2.615-1.171,2.615-2.616V208.937h375.255v257.076   c0,1.445,1.171,2.616,2.615,2.616h52.142c1.444,0,2.616-1.171,2.616-2.616V163.098C490,159.961,488.309,157.067,485.574,155.527z" fill="#828282"/>
<path d="M391.952,387.449H328.15c-4.799,0-8.688,3.89-8.688,8.688v63.804c0,4.799,3.89,8.688,8.688,8.688h63.802      c4.799,0,8.689-3.889,8.689-8.688v-63.804C400.641,391.338,396.751,387.449,391.952,387.449z" fill="#828282"/>
<path d="M276.9,387.449h-63.802c-4.799,0-8.689,3.89-8.689,8.688v63.804c0,4.799,3.89,8.688,8.689,8.688H276.9      c4.799,0,8.688-3.889,8.688-8.688v-63.804C285.589,391.338,281.699,387.449,276.9,387.449z" fill="#828282"/>
<path d="M161.849,387.449H98.047c-4.798,0-8.688,3.89-8.688,8.688v63.804c0,4.799,3.891,8.688,8.688,8.688h63.802     c4.798,0,8.688-3.889,8.688-8.688v-63.804C170.537,391.338,166.646,387.449,161.849,387.449z" fill="#828282"/>
<path d="M391.952,270.065H328.15c-4.799,0-8.688,3.89-8.688,8.688v63.804c0,4.798,3.89,8.688,8.688,8.688h63.802      c4.799,0,8.689-3.89,8.689-8.688v-63.804C400.641,273.954,396.751,270.065,391.952,270.065z" fill="#828282"/>
<path d="M276.9,270.065h-63.802c-4.799,0-8.689,3.89-8.689,8.688v63.804c0,4.798,3.89,8.688,8.689,8.688H276.9      c4.799,0,8.688-3.89,8.688-8.688v-63.804C285.589,273.954,281.699,270.065,276.9,270.065z" fill="#828282"/>
<path d="M161.849,270.065H98.047c-4.798,0-8.688,3.89-8.688,8.688v63.804c0,4.798,3.891,8.688,8.688,8.688h63.802     c4.798,0,8.688-3.89,8.688-8.688v-63.804C170.537,273.954,166.646,270.065,161.849,270.065z" fill="#828282"/>
</svg>
