<?xml version="1.0" encoding="utf-8"?>
<!-- Generator: Adobe Illustrator 16.0.2, SVG Export Plug-In . SVG Version: 6.00 Build 0)  -->
<!DOCTYPE svg PUBLIC "-//W3C//DTD SVG 1.1//EN" "http://www.w3.org/Graphics/SVG/1.1/DTD/svg11.dtd">
<svg version="1.1" id="Capa_1" xmlns="http://www.w3.org/2000/svg" xmlns:xlink="http://www.w3.org/1999/xlink" x="0px" y="0px"
	 width="30px" height="30px" viewBox="248.5 266.5 30 30" enable-background="new 248.5 266.5 30 30" xml:space="preserve">
<path fill="#FFFFFF" d="M275.366,277.215c-0.33,0-0.597,0.268-0.597,0.598v3.542h-1.214v-2.993c0-0.329-0.268-0.596-0.597-0.596
	h-2.771l-0.516-1.721c-0.076-0.252-0.309-0.426-0.572-0.426h-4.217v-1.51h2.655c0.33,0,0.597-0.268,0.597-0.598v-1.992
	c0-0.33-0.267-0.598-0.597-0.598h-8.555c-0.329,0-0.597,0.268-0.597,0.598v1.992c0,0.33,0.268,0.598,0.597,0.598h2.656v1.51h-6.15
	c-0.219,0-0.42,0.12-0.524,0.313l-0.998,1.834h-2.335c-0.33,0-0.597,0.267-0.597,0.597v2.992h-1.342v-4.269
	c0-0.329-0.267-0.596-0.597-0.596c-0.33,0-0.597,0.267-0.597,0.596v12.339c0,0.33,0.267,0.598,0.597,0.598
	c0.33,0,0.597-0.268,0.597-0.598v-4.268h1.342v3.16c0,0.33,0.267,0.597,0.597,0.597h4.971l2.272,2.933
	c0.113,0.146,0.287,0.231,0.472,0.231h13.611c0.329,0,0.597-0.268,0.597-0.598v-6.323h1.214v3.543c0,0.329,0.267,0.597,0.597,0.597
	c1.728,0,3.134-1.406,3.134-3.134v-5.813C278.5,278.621,277.094,277.215,275.366,277.215z M249.694,283.963v-1.414h1.342v1.414
	H249.694z M259.582,272.116h7.36v0.799h-7.36V272.116z M262.834,274.109h0.855v1.51h-0.855V274.109z M252.229,278.959h0.424v8.761
	h-0.424V278.959z M257.368,287.951c-0.113-0.146-0.288-0.231-0.472-0.231h-3.048v-8.761h0.475c0.219,0,0.42-0.119,0.524-0.312
	l0.998-1.834h12.811l0.517,1.72c0.075,0.253,0.308,0.426,0.571,0.426h1.071v11.925h-11.175L257.368,287.951z M272.361,290.884
	h-0.352v-11.925h0.352V290.884z M273.556,283.963v-1.414h1.214v1.414H273.556z M277.306,286.163c0,0.861-0.564,1.594-1.343,1.846
	v-9.506c0.778,0.253,1.343,0.984,1.343,1.846V286.163z"/>
</svg>
