<?xml version="1.0" encoding="utf-8"?>
<!-- Generator: Adobe Illustrator 16.0.2, SVG Export Plug-In . SVG Version: 6.00 Build 0)  -->
<!DOCTYPE svg PUBLIC "-//W3C//DTD SVG 1.1//EN" "http://www.w3.org/Graphics/SVG/1.1/DTD/svg11.dtd">
<svg version="1.1" id="Слой_1" xmlns="http://www.w3.org/2000/svg" xmlns:xlink="http://www.w3.org/1999/xlink" x="0px" y="0px"
	 width="14px" height="14px" viewBox="0 0 14 14" enable-background="new 0 0 14 14" xml:space="preserve">
<path fill="#353A3E" d="M5.562,9.52c-1.016,0-2.03-0.387-2.803-1.16c-1.545-1.547-1.545-4.063,0-5.61
	c0.773-0.774,1.788-1.16,2.803-1.16c1.015,0,2.03,0.387,2.803,1.16c1.546,1.547,1.546,4.063,0,5.61
	C7.592,9.133,6.577,9.52,5.562,9.52 M5.567,0C4.209,0,2.854,0.485,1.805,1.448C-0.541,3.6-0.6,7.264,1.627,9.493
	c1.083,1.084,2.504,1.625,3.926,1.625c1.071,0,2.144-0.308,3.071-0.921c0.071-0.048,0.152-0.071,0.232-0.071
	c0.102,0,0.202,0.039,0.279,0.115l3.614,3.641C12.829,13.961,12.932,14,13.034,14s0.205-0.039,0.283-0.118l0.566-0.566
	c0.156-0.156,0.157-0.409,0-0.566l-3.622-3.649c-0.136-0.137-0.15-0.348-0.044-0.51c1.485-2.278,1.139-5.411-1.052-7.281
	C8.139,0.435,6.853,0,5.567,0"/>
</svg>
