<?xml version="1.0" encoding="utf-8"?>
<!-- Generator: Adobe Illustrator 16.0.2, SVG Export Plug-In . SVG Version: 6.00 Build 0)  -->
<!DOCTYPE svg PUBLIC "-//W3C//DTD SVG 1.1//EN" "http://www.w3.org/Graphics/SVG/1.1/DTD/svg11.dtd">
<svg version="1.1" id="Слой_1" xmlns="http://www.w3.org/2000/svg" xmlns:xlink="http://www.w3.org/1999/xlink" x="0px" y="0px"
	 width="14px" height="14.001px" viewBox="0 0 14 14.001" enable-background="new 0 0 14 14.001" xml:space="preserve">
<path fill="#989898" d="M13.177,1.554h-2.471V0.4c0-0.221-0.185-0.4-0.412-0.4H9.47C9.243,0,9.059,0.179,9.059,0.4v1.153H4.941V0.4
	C4.941,0.179,4.757,0,4.53,0H3.706C3.479,0,3.294,0.179,3.294,0.4v1.153H0.823C0.368,1.554,0,1.912,0,2.354v10.848
	c0,0.442,0.368,0.799,0.823,0.799h12.353c0.455,0,0.824-0.357,0.824-0.799V2.354C14,1.912,13.632,1.554,13.177,1.554L13.177,1.554z
	 M12.353,12.001c0,0.222-0.184,0.4-0.412,0.4H2.059c-0.227,0-0.412-0.179-0.412-0.4V3.554c0-0.221,0.184-0.399,0.412-0.399h1.235
	v0.847c0,0.221,0.184,0.399,0.412,0.399H4.53c0.227,0,0.412-0.178,0.412-0.399V3.154h4.118v0.847C9.059,4.222,9.243,4.4,9.47,4.4
	h0.824c0.227,0,0.412-0.178,0.412-0.399V3.154h1.235c0.228,0,0.412,0.178,0.412,0.399V12.001z M4.941,6.001H4.118
	c-0.227,0-0.412,0.179-0.412,0.4V7.2c0,0.221,0.185,0.401,0.412,0.401h0.823c0.227,0,0.412-0.18,0.412-0.401V6.401
	C5.353,6.18,5.168,6.001,4.941,6.001z M7.412,6.001H6.588c-0.227,0-0.412,0.179-0.412,0.4V7.2c0,0.221,0.184,0.401,0.412,0.401
	h0.824c0.227,0,0.412-0.18,0.412-0.401V6.401C7.823,6.18,7.639,6.001,7.412,6.001z M9.882,6.001H9.059
	c-0.228,0-0.412,0.179-0.412,0.4V7.2c0,0.221,0.184,0.401,0.412,0.401h0.823c0.228,0,0.412-0.18,0.412-0.401V6.401
	C10.294,6.18,10.11,6.001,9.882,6.001z M4.941,8.401H4.118c-0.227,0-0.412,0.179-0.412,0.4v0.8c0,0.221,0.185,0.4,0.412,0.4h0.823
	c0.227,0,0.412-0.179,0.412-0.4v-0.8C5.353,8.581,5.168,8.401,4.941,8.401z M7.412,8.401H6.588c-0.227,0-0.412,0.179-0.412,0.4v0.8
	c0,0.221,0.184,0.4,0.412,0.4h0.824c0.227,0,0.412-0.179,0.412-0.4v-0.8C7.823,8.581,7.639,8.401,7.412,8.401z M9.882,8.401H9.059
	c-0.228,0-0.412,0.179-0.412,0.4v0.8c0,0.221,0.184,0.4,0.412,0.4h0.823c0.228,0,0.412-0.179,0.412-0.4v-0.8
	C10.294,8.581,10.11,8.401,9.882,8.401z"/>
</svg>
