<?xml version="1.0" encoding="utf-8"?>
<!-- Generator: Adobe Illustrator 16.0.2, SVG Export Plug-In . SVG Version: 6.00 Build 0)  -->
<!DOCTYPE svg PUBLIC "-//W3C//DTD SVG 1.1//EN" "http://www.w3.org/Graphics/SVG/1.1/DTD/svg11.dtd">
<svg version="1.1" id="Capa_1" xmlns="http://www.w3.org/2000/svg" xmlns:xlink="http://www.w3.org/1999/xlink" x="0px" y="0px"
	 width="30px" height="30px" viewBox="241 241 30 30" enable-background="new 241 241 30 30" xml:space="preserve">
<path fill="#FFFFFF" d="M266.607,245.394C263.773,242.561,260.007,241,256,241c-4.007,0-7.773,1.561-10.606,4.394
	S241,251.994,241,256c0,4.006,1.56,7.774,4.394,10.607c2.833,2.833,6.6,4.393,10.606,4.393c4.006,0,7.774-1.56,10.607-4.393
	S271,260.007,271,256C271,251.994,269.44,248.227,266.607,245.394z M256,269.803c-7.611,0-13.803-6.191-13.803-13.802
	s6.192-13.803,13.803-13.803s13.802,6.192,13.802,13.803S263.611,269.803,256,269.803z"/>
<path fill="#FFFFFF" d="M256,243.537c-6.873,0-12.464,5.591-12.464,12.464s5.591,12.464,12.464,12.464s12.464-5.592,12.464-12.464
	S262.873,243.537,256,243.537z M257.484,264.898h-2.969c-1.122-3.747-3.963-6.773-7.637-8.124l1.026-4.356
	c2.635-0.641,5.357-0.967,8.096-0.967c2.741,0,5.462,0.326,8.096,0.968l1.026,4.354
	C261.448,258.124,258.606,261.151,257.484,264.898z M244.734,256c0-0.953,0.119-1.879,0.343-2.764
	c0.501-0.169,1.007-0.327,1.516-0.472l-0.86,3.651c-0.327-0.085-0.659-0.158-0.996-0.217
	C244.735,256.133,244.734,256.067,244.734,256z M266.269,256.416l-0.86-3.65c0.509,0.146,1.016,0.303,1.516,0.472
	c0.224,0.884,0.344,1.81,0.344,2.763c0,0.066-0.002,0.132-0.003,0.198C266.928,256.257,266.596,256.33,266.269,256.416z
	 M256,244.734c4.741,0,8.806,2.943,10.466,7.097c-0.571-0.177-1.148-0.34-1.724-0.486c-2.839-0.724-5.78-1.091-8.743-1.091
	c-2.961,0-5.902,0.367-8.743,1.091c-0.575,0.146-1.152,0.309-1.724,0.486C247.195,247.677,251.26,244.734,256,244.734z
	 M244.824,257.434c4.713,0.953,8.319,4.835,8.926,9.607C249.07,266.089,245.436,262.227,244.824,257.434z M254.975,267.22
	c-0.038-0.38-0.093-0.755-0.165-1.124h2.379c-0.071,0.369-0.126,0.744-0.164,1.124c-0.338,0.031-0.68,0.048-1.025,0.048
	C255.655,267.268,255.313,267.251,254.975,267.22z M258.25,267.041c0.606-4.772,4.213-8.655,8.927-9.608
	C266.565,262.227,262.93,266.089,258.25,267.041z"/>
<path fill="#FFFFFF" d="M256,252.597c-1.877,0-3.404,1.527-3.404,3.404c0,1.877,1.527,3.404,3.404,3.404
	c1.877,0,3.404-1.526,3.404-3.404C259.404,254.124,257.878,252.597,256,252.597z M256,258.207c-1.217,0-2.207-0.989-2.207-2.207
	c0-1.217,0.99-2.207,2.207-2.207c1.217,0,2.207,0.99,2.207,2.207C258.207,257.218,257.218,258.207,256,258.207z"/>
</svg>
