<?xml version="1.0" encoding="utf-8"?>
<!-- Generator: Adobe Illustrator 16.0.2, SVG Export Plug-In . SVG Version: 6.00 Build 0)  -->
<!DOCTYPE svg PUBLIC "-//W3C//DTD SVG 1.1//EN" "http://www.w3.org/Graphics/SVG/1.1/DTD/svg11.dtd">
<svg version="1.1" id="Layer_1" xmlns="http://www.w3.org/2000/svg" xmlns:xlink="http://www.w3.org/1999/xlink" x="0px" y="0px"
	 width="30px" height="30px" viewBox="241 245 30 30" enable-background="new 241 245 30 30" xml:space="preserve">
<g>
	<g>
		<path fill="#FFFFFF" d="M261.164,250.652c-3.325,0-6.269,1.789-8.05,4.519c-1.267-0.877-2.727-1.34-4.246-1.34
			c-4.339,0-7.869,3.805-7.869,8.479c0,3.021,1.51,5.835,3.94,7.348c0.075,0.047,0.159,0.071,0.246,0.071h7.366
			c0.086,0,0.171-0.024,0.246-0.071c0.468-0.291,0.907-0.633,1.311-1.021c0.315,0.348,0.655,0.676,1.018,0.981
			c0.086,0.071,0.192,0.111,0.302,0.111H266.9c0.109,0,0.216-0.04,0.302-0.111c2.413-2.026,3.798-5.075,3.798-8.368
			C271,255.407,266.588,250.652,261.164,250.652z M252.417,268.67h-3.057v-1.59c0-0.292-0.22-0.531-0.492-0.531
			c-0.272,0-0.492,0.239-0.492,0.531v1.59h-3.057c-0.533-0.347-1.012-0.766-1.431-1.239l1.195-1.288
			c0.192-0.207,0.192-0.543,0-0.751c-0.192-0.206-0.503-0.206-0.695,0l-1.128,1.217c-0.816-1.237-1.277-2.737-1.277-4.298h1.475
			c0.271,0,0.492-0.237,0.492-0.529c0-0.293-0.22-0.531-0.492-0.531h-1.404c0.209-1.568,0.875-2.978,1.848-4.071l0.978,1.054
			c0.096,0.104,0.222,0.155,0.348,0.155s0.252-0.051,0.348-0.155c0.192-0.207,0.192-0.542,0-0.748l-0.943-1.016
			c1.048-0.885,2.338-1.448,3.744-1.556v1.568c0,0.293,0.22,0.53,0.492,0.53c0.272,0,0.492-0.236,0.492-0.53v-1.57
			c1.154,0.087,2.257,0.482,3.229,1.157c-0.801,1.534-1.261,3.299-1.261,5.182c0,2.437,0.758,4.738,2.129,6.592
			C253.135,268.152,252.787,268.43,252.417,268.67z M267.763,267.611l-1.383-1.489c-0.191-0.207-0.503-0.207-0.695,0
			s-0.192,0.543,0,0.749l1.382,1.489c-0.11,0.106-0.223,0.208-0.338,0.31h-5.072v-1.59c0-0.292-0.221-0.531-0.492-0.531
			s-0.492,0.239-0.492,0.531v1.59h-5.073c-0.115-0.102-0.228-0.203-0.337-0.31l1.382-1.489c0.191-0.206,0.191-0.542,0-0.749
			c-0.192-0.207-0.504-0.207-0.696,0l-1.382,1.489c-0.008-0.01-0.017-0.02-0.025-0.029c-0.018-0.028-0.039-0.057-0.063-0.082
			c-0.003-0.003-0.007-0.005-0.01-0.008c-1.279-1.588-2.035-3.58-2.142-5.711h1.954c0.271,0,0.492-0.237,0.492-0.531
			c0-0.292-0.22-0.528-0.492-0.528h-1.953c0.114-2.232,0.943-4.261,2.245-5.827l1.377,1.484c0.096,0.104,0.222,0.156,0.348,0.156
			c0.125,0,0.251-0.052,0.347-0.156c0.192-0.207,0.192-0.542,0-0.749l-1.377-1.484c1.453-1.401,3.336-2.295,5.406-2.418v2.104
			c0,0.293,0.221,0.53,0.492,0.53s0.491-0.237,0.491-0.53v-2.104c2.071,0.123,3.954,1.017,5.407,2.418l-1.378,1.484
			c-0.192,0.207-0.192,0.542,0,0.749c0.096,0.104,0.222,0.156,0.348,0.156s0.252-0.052,0.348-0.156l1.378-1.484
			c1.301,1.566,2.13,3.594,2.244,5.827h-1.953c-0.271,0-0.491,0.236-0.491,0.528c0,0.294,0.22,0.531,0.491,0.531h1.954
			C269.893,263.966,269.102,266.006,267.763,267.611z"/>
	</g>
</g>
<g>
	<g>
		<path fill="#FFFFFF" d="M263.916,258.021c-0.135-0.145-0.334-0.193-0.514-0.125c-0.56,0.216-3.384,1.327-4.007,1.999
			c-0.372,0.399-0.576,0.932-0.576,1.498s0.204,1.099,0.576,1.498l0,0c0.371,0.401,0.865,0.62,1.391,0.62s1.02-0.219,1.392-0.619
			c0.622-0.671,1.653-3.715,1.854-4.318C264.096,258.381,264.051,258.166,263.916,258.021z M261.481,262.142
			c-0.186,0.2-0.433,0.31-0.695,0.31s-0.51-0.109-0.695-0.31l0,0c-0.186-0.2-0.288-0.466-0.288-0.749s0.103-0.549,0.288-0.749
			c0.263-0.283,1.49-0.862,2.638-1.344C262.281,260.536,261.744,261.859,261.481,262.142z"/>
	</g>
</g>
<g>
	<g>
		<path fill="#FFFFFF" d="M249.836,260.955c-0.465-0.502-2.404-1.273-2.987-1.499c-0.179-0.069-0.379-0.021-0.513,0.125
			c-0.135,0.145-0.18,0.359-0.115,0.553c0.208,0.628,0.926,2.719,1.39,3.218c0.297,0.321,0.692,0.496,1.113,0.496
			c0.42,0,0.815-0.175,1.113-0.495c0.297-0.32,0.461-0.746,0.461-1.199C250.296,261.701,250.133,261.274,249.836,260.955z
			 M249.14,262.604L249.14,262.604c-0.111,0.119-0.26,0.185-0.417,0.185c-0.158,0-0.306-0.065-0.417-0.185
			c-0.144-0.155-0.461-0.896-0.773-1.732c0.776,0.337,1.464,0.678,1.608,0.833c0.111,0.12,0.173,0.279,0.173,0.449
			S249.251,262.482,249.14,262.604z"/>
	</g>
</g>
</svg>
