<?xml version="1.0" encoding="utf-8"?>
<!-- Generator: Adobe Illustrator 16.0.2, SVG Export Plug-In . SVG Version: 6.00 Build 0)  -->
<!DOCTYPE svg PUBLIC "-//W3C//DTD SVG 1.1//EN" "http://www.w3.org/Graphics/SVG/1.1/DTD/svg11.dtd">
<svg version="1.1" id="Capa_1" xmlns="http://www.w3.org/2000/svg" xmlns:xlink="http://www.w3.org/1999/xlink" x="0px" y="0px"
	 width="30px" height="30px" viewBox="246.5 266.5 30 30" enable-background="new 246.5 266.5 30 30" xml:space="preserve">
<path fill="#FFFFFF" d="M273.633,281.864l1.532-0.184c0.761-0.094,1.335-0.742,1.335-1.51c0-0.838-0.681-1.52-1.517-1.52h-1.067
	c-0.652,0-1.21,0.416-1.423,0.996L271,276.372c-0.554-1.215-1.66-2.119-2.961-2.418c-0.06-0.014-0.125-0.027-0.195-0.041
	c-0.053-1.502-0.629-2.922-1.651-4.047c-1.142-1.256-2.704-1.99-4.397-2.07c-1.695-0.078-3.318,0.51-4.571,1.654
	c-1.253,1.143-1.987,2.709-2.066,4.406c-0.001,0.02-0.001,0.037-0.002,0.057c-0.07,0.014-0.136,0.027-0.196,0.041
	c-1.3,0.299-2.407,1.203-2.961,2.42l-1.493,3.271c-0.214-0.58-0.771-0.994-1.423-0.994h-1.067c-0.836,0-1.516,0.682-1.516,1.52
	c0,0.768,0.574,1.416,1.334,1.51l1.532,0.184l-1.465,1.469c-0.712,0.715-1.053,1.738-0.911,2.736l0.501,3.541
	c0.126,0.889,0.583,1.697,1.269,2.264v1.604c0,0.955,0.777,1.734,1.731,1.734h2.871c0.955,0,1.731-0.779,1.731-1.734v-0.781h12.813
	v0.781c0,0.955,0.776,1.734,1.731,1.734h2.87c0.955,0,1.731-0.779,1.731-1.734v-1.604c0.686-0.566,1.144-1.375,1.27-2.264
	l0.501-3.541c0.142-1-0.199-2.023-0.912-2.736L273.633,281.864z M273.34,291.116c-0.406,0.281-0.883,0.43-1.378,0.43h-20.924
	c-0.495,0-0.972-0.148-1.379-0.43c-0.522-0.359-0.885-0.914-1.009-1.533h25.7C274.226,290.202,273.863,290.757,273.34,291.116z
	 M268.259,286.563l0.583,1.869h-0.795l-0.583-1.869H268.259z M266.262,286.563l0.583,1.869h-10.69l0.583-1.869H266.262z
	 M254.952,288.433h-0.794l0.583-1.869h0.794L254.952,288.433z M252.956,288.433h-4.473l-0.264-1.869h5.32L252.956,288.433z
	 M270.044,288.433l-0.583-1.869h5.32l-0.265,1.869H270.044z M273.547,280.171c0-0.203,0.166-0.369,0.369-0.369h1.067
	c0.203,0,0.369,0.166,0.369,0.369c0,0.188-0.14,0.346-0.325,0.367l-1.48,0.18V280.171L273.547,280.171z M271.926,281.167h-1.847
	l-3.243-3.566c0.186-0.285,0.348-0.586,0.483-0.898c0.744,0.053,1.324,0.117,1.689,0.188c0.405,0.078,0.789,0.209,1.144,0.391
	L271.926,281.167z M265.775,278.853c0.119-0.107,0.232-0.219,0.342-0.334l4.404,4.842c0.178,0.195,0.164,0.5-0.031,0.678
	c-0.194,0.178-0.498,0.164-0.675-0.031l-4.406-4.846C265.534,279.063,265.657,278.962,265.775,278.853z M269.11,275.741
	c-0.354-0.063-0.83-0.117-1.422-0.164c0.037-0.166,0.069-0.334,0.094-0.502c0,0,0,0,0.001,0
	C268.275,275.188,268.729,275.421,269.11,275.741z M256.305,273.909c0.064-1.391,0.665-2.672,1.691-3.609
	c0.967-0.883,2.2-1.361,3.498-1.361c0.082,0,0.164,0.002,0.247,0.006c1.388,0.064,2.667,0.668,3.604,1.697
	c1.932,2.123,1.778,5.426-0.342,7.361c-1.026,0.938-2.356,1.418-3.745,1.354c-1.387-0.064-2.667-0.666-3.603-1.695
	C256.719,276.632,256.239,275.3,256.305,273.909z M255.216,275.075C255.216,275.075,255.216,275.075,255.216,275.075
	c0.025,0.168,0.056,0.336,0.094,0.502c-0.593,0.047-1.068,0.102-1.421,0.164C254.27,275.421,254.724,275.188,255.216,275.075z
	 M252.848,277.278c0.354-0.18,0.738-0.311,1.144-0.389c0.363-0.07,0.943-0.135,1.689-0.188c0.274,0.627,0.652,1.213,1.126,1.734
	c1.143,1.256,2.705,1.99,4.398,2.068c0.102,0.006,0.201,0.008,0.302,0.008c1.031,0,2.029-0.248,2.926-0.719l1.249,1.373h-14.607
	L252.848,277.278z M247.647,280.171c0-0.203,0.166-0.369,0.369-0.369h1.067c0.204,0,0.369,0.166,0.369,0.369v0.547l-1.48-0.18
	C247.787,280.517,247.647,280.358,247.647,280.171z M250.538,282.317h16.189l2.24,2.463c0.32,0.352,0.761,0.531,1.202,0.531
	c0.392,0,0.783-0.141,1.095-0.424c0.662-0.605,0.71-1.637,0.106-2.301l-0.245-0.27h1.337l1.825,1.828
	c0.341,0.342,0.55,0.795,0.597,1.268h-26.768c0.047-0.473,0.256-0.926,0.597-1.268L250.538,282.317z M253.946,293.478
	c0,0.322-0.262,0.584-0.584,0.584h-2.871c-0.322,0-0.584-0.262-0.584-0.584v-0.965c0.362,0.119,0.742,0.184,1.13,0.184h2.909
	V293.478z M272.508,294.062h-2.87c-0.322,0-0.584-0.262-0.584-0.584v-0.781h2.908c0.388,0,0.769-0.064,1.13-0.184v0.965
	C273.092,293.8,272.83,294.062,272.508,294.062z M261.283,278.835c0.074,0.004,0.148,0.006,0.222,0.006
	c1.168,0,2.278-0.43,3.147-1.223c1.907-1.742,2.045-4.715,0.307-6.625c-0.842-0.926-1.993-1.469-3.242-1.527
	c-1.25-0.059-2.445,0.375-3.369,1.219c-1.908,1.742-2.046,4.715-0.308,6.625C258.883,278.235,260.033,278.778,261.283,278.835z
	 M259.12,271.534c0.656-0.598,1.494-0.924,2.376-0.924c0.056,0,0.111,0.002,0.168,0.004c0.942,0.045,1.812,0.453,2.447,1.152
	c1.312,1.443,1.208,3.688-0.232,5.002c-0.697,0.637-1.601,0.963-2.543,0.92c-0.943-0.045-1.813-0.453-2.447-1.152
	C257.576,275.093,257.68,272.849,259.12,271.534z M262.766,275.544c-0.234,0.213-0.251,0.576-0.037,0.813
	c0.113,0.123,0.269,0.188,0.424,0.188c0.138,0,0.276-0.051,0.387-0.15c0.598-0.547,0.947-1.293,0.984-2.102
	c0.038-0.809-0.241-1.584-0.786-2.184c-0.214-0.234-0.576-0.252-0.811-0.037c-0.234,0.213-0.251,0.576-0.037,0.811
	c0.338,0.373,0.511,0.854,0.488,1.357C263.354,274.741,263.137,275.204,262.766,275.544z"/>
</svg>
