<?xml version="1.0" encoding="utf-8"?>
<!-- Generator: Adobe Illustrator 16.0.2, SVG Export Plug-In . SVG Version: 6.00 Build 0)  -->
<!DOCTYPE svg PUBLIC "-//W3C//DTD SVG 1.1//EN" "http://www.w3.org/Graphics/SVG/1.1/DTD/svg11.dtd">
<svg version="1.1" id="Capa_1" xmlns="http://www.w3.org/2000/svg" xmlns:xlink="http://www.w3.org/1999/xlink" x="0px" y="0px"
	 width="43.758px" height="80.002px" viewBox="239.621 261.5 43.758 80.002" enable-background="new 239.621 261.5 43.758 80.002"
	 xml:space="preserve">
<path fill="#353A3E" d="M279.196,282.031l2.235-0.27c1.109-0.138,1.947-1.084,1.947-2.203c0-1.222-0.994-2.217-2.215-2.217h-1.556
	c-0.95,0-1.765,0.607-2.075,1.453l-2.178-4.775c-0.811-1.771-2.422-3.092-4.318-3.526c-0.089-0.021-0.183-0.04-0.285-0.06
	c-0.076-2.19-0.918-4.263-2.406-5.902c-1.668-1.834-3.946-2.903-6.414-3.021c-2.473-0.113-4.84,0.745-6.668,2.413
	c-1.826,1.667-2.896,3.951-3.014,6.427c0,0.028,0,0.053-0.002,0.084c-0.104,0.021-0.197,0.037-0.287,0.06
	c-1.896,0.437-3.51,1.755-4.317,3.528l-2.179,4.771c-0.313-0.846-1.123-1.45-2.075-1.45h-1.556c-1.22,0-2.213,0.996-2.213,2.218
	c0,1.121,0.838,2.065,1.946,2.205l2.233,0.268l-2.135,2.143c-1.041,1.042-1.537,2.535-1.33,3.991l0.73,5.165
	c0.184,1.296,0.852,2.477,1.852,3.302v2.339c0,1.394,1.133,2.529,2.524,2.529h4.188c1.393,0,2.523-1.137,2.523-2.529v-1.139h18.689
	v1.139c0,1.394,1.132,2.529,2.525,2.529h4.184c1.394,0,2.525-1.137,2.525-2.529v-2.339c1-0.825,1.668-2.006,1.853-3.302l0.729-5.165
	c0.209-1.459-0.289-2.951-1.33-3.991L279.196,282.031z M278.77,295.525c-0.593,0.408-1.288,0.627-2.011,0.627h-30.52
	c-0.722,0-1.417-0.215-2.012-0.627c-0.762-0.524-1.291-1.334-1.471-2.236h37.484C280.063,294.191,279.533,295.001,278.77,295.525z
	 M271.358,288.884l0.851,2.728h-1.16l-0.85-2.728H271.358z M268.445,288.884l0.852,2.728h-15.594l0.853-2.728H268.445z
	 M251.949,291.613h-1.158l0.852-2.727h1.158L251.949,291.613z M249.039,291.613h-6.525l-0.385-2.727h7.76L249.039,291.613z
	 M273.962,291.613l-0.852-2.727h7.76l-0.387,2.727H273.962z M279.071,279.561c0-0.295,0.242-0.537,0.538-0.537h1.557
	c0.295,0,0.537,0.242,0.537,0.537c0,0.275-0.203,0.506-0.473,0.537l-2.159,0.262V279.561L279.071,279.561z M276.707,281.014h-2.693
	l-4.73-5.199c0.271-0.416,0.508-0.854,0.704-1.312c1.085,0.077,1.933,0.171,2.464,0.272c0.592,0.115,1.151,0.306,1.67,0.57
	L276.707,281.014z M267.735,277.641c0.175-0.158,0.339-0.32,0.499-0.488l6.424,7.063c0.26,0.284,0.239,0.729-0.046,0.988
	c-0.282,0.259-0.726,0.239-0.985-0.046l-6.426-7.067C267.384,277.943,267.563,277.798,267.735,277.641z M272.599,273.1
	c-0.516-0.092-1.211-0.17-2.074-0.238c0.055-0.242,0.102-0.487,0.139-0.731c0,0,0,0,0.002,0
	C271.382,272.292,272.042,272.633,272.599,273.1z M253.921,270.428c0.095-2.029,0.973-3.898,2.468-5.265
	c1.409-1.287,3.208-1.983,5.103-1.983c0.12,0,0.239,0.002,0.36,0.008c2.024,0.094,3.89,0.976,5.258,2.477
	c2.817,3.097,2.593,7.914-0.5,10.734c-1.497,1.369-3.438,2.068-5.463,1.977c-2.022-0.094-3.89-0.971-5.256-2.473
	C254.526,274.398,253.826,272.456,253.921,270.428z M252.333,272.129L252.333,272.129c0.037,0.244,0.082,0.489,0.139,0.73
	c-0.866,0.068-1.559,0.149-2.073,0.24C250.953,272.633,251.617,272.292,252.333,272.129z M248.88,275.341
	c0.517-0.263,1.076-0.452,1.668-0.567c0.531-0.103,1.377-0.195,2.466-0.272c0.397,0.914,0.948,1.771,1.641,2.53
	c1.669,1.83,3.945,2.9,6.415,3.015c0.148,0.009,0.295,0.015,0.439,0.015c1.505,0,2.961-0.362,4.27-1.052l1.82,2.003h-21.305
	L248.88,275.341z M241.292,279.561c0-0.295,0.242-0.537,0.539-0.537h1.558c0.298,0,0.538,0.242,0.538,0.537v0.799l-2.157-0.262
	C241.498,280.066,241.292,279.833,241.292,279.561z M245.511,282.689h23.611l3.269,3.593c0.467,0.515,1.11,0.774,1.754,0.774
	c0.569,0,1.142-0.205,1.597-0.617c0.967-0.883,1.037-2.389,0.155-3.355l-0.356-0.395h1.948l2.662,2.666
	c0.497,0.5,0.804,1.16,0.871,1.851h-39.043c0.067-0.688,0.373-1.351,0.87-1.851L245.511,282.689z M250.48,298.971
	c0,0.469-0.382,0.854-0.852,0.854h-4.188c-0.47,0-0.852-0.385-0.852-0.854v-1.406c0.527,0.172,1.08,0.269,1.647,0.269h4.241v1.138
	H250.48z M277.556,299.823h-4.186c-0.471,0-0.853-0.384-0.853-0.853v-1.14h4.241c0.564,0,1.119-0.095,1.646-0.269v1.406
	C278.408,299.439,278.025,299.823,277.556,299.823z M261.184,277.611c0.108,0.007,0.217,0.01,0.323,0.01
	c1.703,0,3.322-0.627,4.591-1.783c2.78-2.541,2.981-6.879,0.446-9.663c-1.228-1.353-2.906-2.144-4.729-2.228
	c-1.822-0.086-3.566,0.547-4.914,1.777c-2.783,2.541-2.984,6.877-0.449,9.664C257.683,276.736,259.36,277.527,261.184,277.611z
	 M258.028,266.964c0.956-0.873,2.179-1.351,3.466-1.351c0.082,0,0.162,0.004,0.246,0.007c1.372,0.067,2.643,0.661,3.568,1.681
	c1.913,2.105,1.761,5.381-0.339,7.297c-1.019,0.928-2.337,1.403-3.71,1.342c-1.375-0.065-2.643-0.662-3.568-1.68
	C255.776,272.154,255.928,268.882,258.028,266.964z M263.346,272.813c-0.341,0.312-0.364,0.84-0.054,1.188
	c0.164,0.18,0.393,0.273,0.617,0.273c0.202,0,0.404-0.074,0.565-0.221c0.873-0.798,1.38-1.886,1.435-3.064
	c0.057-1.18-0.351-2.312-1.146-3.186c-0.313-0.342-0.841-0.367-1.185-0.055c-0.34,0.311-0.365,0.841-0.053,1.184
	c0.492,0.543,0.743,1.244,0.711,1.979C264.203,271.643,263.887,272.316,263.346,272.813z"/>
<path fill="#D23835" d="M279.196,322.031l2.235-0.27c1.109-0.138,1.947-1.084,1.947-2.203c0-1.222-0.994-2.217-2.215-2.217h-1.556
	c-0.95,0-1.765,0.607-2.075,1.453l-2.178-4.775c-0.811-1.771-2.422-3.092-4.318-3.526c-0.089-0.021-0.183-0.04-0.285-0.06
	c-0.076-2.19-0.918-4.263-2.406-5.902c-1.668-1.834-3.946-2.903-6.414-3.021c-2.473-0.113-4.84,0.745-6.668,2.413
	c-1.826,1.667-2.896,3.951-3.014,6.427c0,0.028,0,0.053-0.002,0.084c-0.104,0.021-0.197,0.037-0.287,0.06
	c-1.896,0.437-3.51,1.755-4.317,3.528l-2.179,4.771c-0.313-0.846-1.123-1.45-2.075-1.45h-1.556c-1.22,0-2.213,0.996-2.213,2.218
	c0,1.121,0.838,2.065,1.946,2.205l2.233,0.268l-2.135,2.143c-1.041,1.042-1.537,2.535-1.33,3.991l0.73,5.165
	c0.184,1.296,0.852,2.477,1.852,3.302v2.339c0,1.394,1.133,2.529,2.524,2.529h4.188c1.393,0,2.523-1.137,2.523-2.529v-1.139h18.689
	v1.139c0,1.394,1.132,2.529,2.525,2.529h4.184c1.394,0,2.525-1.137,2.525-2.529v-2.339c1-0.825,1.668-2.006,1.853-3.302l0.729-5.165
	c0.209-1.459-0.289-2.951-1.33-3.991L279.196,322.031z M278.77,335.525c-0.593,0.408-1.288,0.627-2.011,0.627h-30.52
	c-0.722,0-1.417-0.215-2.012-0.627c-0.762-0.524-1.291-1.334-1.471-2.236h37.484C280.063,334.191,279.533,335.001,278.77,335.525z
	 M271.358,328.884l0.851,2.728h-1.16l-0.85-2.728H271.358z M268.445,328.884l0.852,2.728h-15.594l0.853-2.728H268.445z
	 M251.949,331.613h-1.158l0.852-2.727h1.158L251.949,331.613z M249.039,331.613h-6.525l-0.385-2.727h7.76L249.039,331.613z
	 M273.962,331.613l-0.852-2.727h7.76l-0.387,2.727H273.962z M279.071,319.561c0-0.295,0.242-0.537,0.538-0.537h1.557
	c0.295,0,0.537,0.242,0.537,0.537c0,0.275-0.203,0.506-0.473,0.537l-2.159,0.262V319.561L279.071,319.561z M276.707,321.014h-2.693
	l-4.73-5.199c0.271-0.416,0.508-0.854,0.704-1.312c1.085,0.077,1.933,0.171,2.464,0.272c0.592,0.115,1.151,0.306,1.67,0.57
	L276.707,321.014z M267.735,317.641c0.175-0.158,0.339-0.32,0.499-0.488l6.424,7.063c0.26,0.284,0.239,0.729-0.046,0.988
	c-0.282,0.259-0.726,0.239-0.985-0.046l-6.426-7.067C267.384,317.943,267.563,317.798,267.735,317.641z M272.599,313.1
	c-0.516-0.092-1.211-0.17-2.074-0.238c0.055-0.242,0.102-0.487,0.139-0.731c0,0,0,0,0.002,0
	C271.382,312.292,272.042,312.633,272.599,313.1z M253.921,310.428c0.095-2.029,0.973-3.898,2.468-5.265
	c1.409-1.287,3.208-1.983,5.103-1.983c0.12,0,0.239,0.002,0.36,0.008c2.024,0.094,3.89,0.976,5.258,2.477
	c2.817,3.097,2.593,7.914-0.5,10.734c-1.497,1.369-3.438,2.068-5.463,1.977c-2.022-0.094-3.89-0.971-5.256-2.473
	C254.526,314.398,253.826,312.456,253.921,310.428z M252.333,312.129L252.333,312.129c0.037,0.244,0.082,0.489,0.139,0.73
	c-0.866,0.068-1.559,0.149-2.073,0.24C250.953,312.633,251.617,312.292,252.333,312.129z M248.88,315.341
	c0.517-0.263,1.076-0.452,1.668-0.567c0.531-0.103,1.377-0.195,2.466-0.272c0.397,0.914,0.948,1.771,1.641,2.53
	c1.669,1.83,3.945,2.9,6.415,3.015c0.148,0.009,0.295,0.015,0.439,0.015c1.505,0,2.961-0.362,4.27-1.052l1.82,2.003h-21.305
	L248.88,315.341z M241.292,319.561c0-0.295,0.242-0.537,0.539-0.537h1.558c0.298,0,0.538,0.242,0.538,0.537v0.799l-2.157-0.262
	C241.498,320.066,241.292,319.833,241.292,319.561z M245.511,322.689h23.611l3.269,3.593c0.467,0.515,1.11,0.774,1.754,0.774
	c0.569,0,1.142-0.205,1.597-0.617c0.967-0.883,1.037-2.389,0.155-3.355l-0.356-0.395h1.948l2.662,2.666
	c0.497,0.5,0.804,1.16,0.871,1.851h-39.043c0.067-0.688,0.373-1.351,0.87-1.851L245.511,322.689z M250.48,338.971
	c0,0.469-0.382,0.854-0.852,0.854h-4.188c-0.47,0-0.852-0.385-0.852-0.854v-1.406c0.527,0.172,1.08,0.269,1.647,0.269h4.241v1.138
	H250.48z M277.556,339.823h-4.186c-0.471,0-0.853-0.384-0.853-0.853v-1.14h4.241c0.564,0,1.119-0.095,1.646-0.269v1.406
	C278.408,339.439,278.025,339.823,277.556,339.823z M261.184,317.611c0.108,0.007,0.217,0.01,0.323,0.01
	c1.703,0,3.322-0.627,4.591-1.783c2.78-2.541,2.981-6.879,0.446-9.663c-1.228-1.353-2.906-2.144-4.729-2.228
	c-1.822-0.086-3.566,0.547-4.914,1.777c-2.783,2.541-2.984,6.877-0.449,9.664C257.683,316.736,259.36,317.527,261.184,317.611z
	 M258.028,306.964c0.956-0.873,2.179-1.351,3.466-1.351c0.082,0,0.162,0.004,0.246,0.007c1.372,0.067,2.643,0.661,3.568,1.681
	c1.913,2.105,1.761,5.381-0.339,7.297c-1.019,0.928-2.337,1.403-3.71,1.342c-1.375-0.065-2.643-0.662-3.568-1.68
	C255.776,312.154,255.928,308.882,258.028,306.964z M263.346,312.813c-0.341,0.312-0.364,0.84-0.054,1.188
	c0.164,0.18,0.393,0.273,0.617,0.273c0.202,0,0.404-0.074,0.565-0.221c0.873-0.798,1.38-1.886,1.435-3.064
	c0.057-1.18-0.351-2.312-1.146-3.186c-0.313-0.342-0.841-0.367-1.185-0.055c-0.34,0.311-0.365,0.841-0.053,1.184
	c0.492,0.543,0.743,1.244,0.711,1.979C264.203,311.643,263.887,312.316,263.346,312.813z"/>
</svg>
