<?xml version="1.0" encoding="utf-8"?>
<!-- Generator: Adobe Illustrator 16.0.2, SVG Export Plug-In . SVG Version: 6.00 Build 0)  -->
<!DOCTYPE svg PUBLIC "-//W3C//DTD SVG 1.1//EN" "http://www.w3.org/Graphics/SVG/1.1/DTD/svg11.dtd">
<svg version="1.1" id="Capa_1" xmlns="http://www.w3.org/2000/svg" xmlns:xlink="http://www.w3.org/1999/xlink" x="0px" y="0px"
	 width="20px" height="20px" viewBox="0.5 20.5 20 20" enable-background="new 0.5 20.5 20 20" xml:space="preserve">
<path fill="#CC1612" d="M10.5,20.5c-5.523,0-10,4.477-10,10s4.477,10,10,10c5.523,0,10-4.477,10-10S16.023,20.5,10.5,20.5z
	 M15.005,31.064l-6.806,4.254c-0.139,0.086-0.292,0.127-0.453,0.127c-0.144,0-0.282-0.037-0.416-0.106
	c-0.27-0.148-0.436-0.437-0.436-0.743v-8.508c0-0.309,0.17-0.597,0.436-0.744c0.271-0.15,0.602-0.145,0.862,0.021l6.807,4.253
	c0.25,0.155,0.398,0.43,0.398,0.725C15.397,30.633,15.254,30.911,15.005,31.064z"/>
</svg>
