<?xml version="1.0" encoding="utf-8"?>
<!DOCTYPE svg PUBLIC "-//W3C//DTD SVG 1.1//EN" "http://www.w3.org/Graphics/SVG/1.1/DTD/svg11.dtd">
<svg version="1.1" id="Слой_1" xmlns="http://www.w3.org/2000/svg" xmlns:xlink="http://www.w3.org/1999/xlink" x="0px" y="0px"
	 width="18px" height="18px" viewBox="0 0 18 18" enable-background="new 0 0 18 18" xml:space="preserve">
<path fill="#989898" d="M7.15,12.24c-1.305,0-2.61-0.498-3.603-1.492c-1.988-1.989-1.988-5.225,0-7.213
	C4.54,2.541,5.845,2.044,7.15,2.043c1.306,0,2.61,0.498,3.604,1.492c1.987,1.988,1.987,5.224,0,7.213
	C9.761,11.743,8.456,12.24,7.15,12.24 M7.157,0C5.412,0,3.668,0.623,2.319,1.861c-3.015,2.768-3.09,7.478-0.227,10.344
	c1.392,1.394,3.219,2.089,5.047,2.089c1.378,0,2.756-0.395,3.949-1.184c0.091-0.061,0.196-0.092,0.299-0.092
	c0.131,0,0.26,0.05,0.358,0.148l4.647,4.683C16.494,17.95,16.626,18,16.758,18c0.131,0,0.263-0.05,0.364-0.151l0.727-0.728
	c0.201-0.201,0.202-0.526,0.001-0.727l-4.657-4.692c-0.175-0.176-0.192-0.447-0.057-0.655c1.91-2.929,1.464-6.957-1.353-9.363
	C10.464,0.559,8.81,0,7.157,0"/>
</svg>
