<?xml version="1.0" encoding="utf-8"?>
<!-- Generator: Adobe Illustrator 16.0.2, SVG Export Plug-In . SVG Version: 6.00 Build 0)  -->
<!DOCTYPE svg PUBLIC "-//W3C//DTD SVG 1.1//EN" "http://www.w3.org/Graphics/SVG/1.1/DTD/svg11.dtd">
<svg version="1.1" id="Слой_1" xmlns="http://www.w3.org/2000/svg" xmlns:xlink="http://www.w3.org/1999/xlink" x="0px" y="0px"
	 width="50px" height="32px" viewBox="0 0 50 32" enable-background="new 0 0 50 32" xml:space="preserve">
<path fill-rule="evenodd" clip-rule="evenodd" fill="#FFFFFF" d="M42.058,0.808L23.377,18.425c-1.017,0.958-2.659,0.958-3.672,0
	L8.221,7.595c-0.99-0.932-2.588-0.962-3.609-0.058L0.821,10.88c-1.071,0.95-1.097,2.542-0.061,3.525l17.045,16.073
	c2.024,1.908,5.307,1.914,7.334,0.006L49.237,7.804C50.229,6.875,50.258,5.368,49.3,4.4l-3.513-3.541
	C44.784-0.148,43.094-0.175,42.058,0.808"/>
<path fill-rule="evenodd" clip-rule="evenodd" fill="#FFFFFF" d="M42.058,0.808L23.377,18.425c-1.017,0.958-2.659,0.958-3.672,0
	L8.221,7.595c-0.99-0.932-2.588-0.962-3.609-0.058L0.821,10.88c-1.071,0.95-1.097,2.542-0.061,3.525l17.045,16.073
	c2.024,1.908,5.307,1.914,7.334,0.006L49.237,7.804C50.229,6.875,50.258,5.368,49.3,4.4l-3.513-3.541
	C44.784-0.148,43.094-0.175,42.058,0.808"/>
</svg>
