<?xml version="1.0" encoding="utf-8"?>
<!-- Generator: Adobe Illustrator 16.0.2, SVG Export Plug-In . SVG Version: 6.00 Build 0)  -->
<!DOCTYPE svg PUBLIC "-//W3C//DTD SVG 1.1//EN" "http://www.w3.org/Graphics/SVG/1.1/DTD/svg11.dtd">
<svg version="1.1" id="Слой_1" xmlns="http://www.w3.org/2000/svg" xmlns:xlink="http://www.w3.org/1999/xlink" x="0px" y="0px"
	 width="14px" height="14.002px" viewBox="0 0 14 14.002" enable-background="new 0 0 14 14.002" xml:space="preserve">
<path fill="#989898" d="M2.743,0C2.512,0,2.268,0.071,2.055,0.218C2.035,0.233-0.017,1.724,0.01,2.572
	c0.076,2.381,2.385,5.181,4.309,7.109c1.924,1.928,4.717,4.243,7.103,4.321h0.02c0.835,0,2.304-2.031,2.317-2.051
	c0.386-0.551,0.245-1.159-0.105-1.406c-0.213-0.149-2.549-1.706-2.835-1.882c-0.125-0.076-0.277-0.113-0.442-0.113
	c-0.213,0-0.45,0.062-0.68,0.183C9.472,8.853,8.791,9.241,8.458,9.431C8.165,9.225,7.475,8.696,6.389,7.606
	C5.31,6.525,4.777,5.829,4.57,5.534C4.76,5.2,5.146,4.518,5.264,4.293C5.487,3.87,5.513,3.446,5.332,3.162
	c-0.17-0.269-1.716-2.619-1.876-2.84C3.306,0.113,3.036,0,2.743,0L2.743,0z"/>
</svg>
