<?xml version="1.0" encoding="utf-8"?>
<!-- Generator: Adobe Illustrator 16.0.2, SVG Export Plug-In . SVG Version: 6.00 Build 0)  -->
<!DOCTYPE svg PUBLIC "-//W3C//DTD SVG 1.1//EN" "http://www.w3.org/Graphics/SVG/1.1/DTD/svg11.dtd">
<svg version="1.1" id="Capa_1" xmlns="http://www.w3.org/2000/svg" xmlns:xlink="http://www.w3.org/1999/xlink" x="0px" y="0px"
	 width="53.884px" height="80px" viewBox="236.557 261.5 53.884 80" enable-background="new 236.557 261.5 53.884 80"
	 xml:space="preserve">
<path fill="#353A3E" d="M284.813,273.804c-0.593,0-1.071,0.48-1.071,1.074v6.363h-2.182v-5.378c0-0.589-0.481-1.07-1.072-1.07
	h-4.976l-0.928-3.09c-0.136-0.453-0.555-0.766-1.026-0.766h-7.575v-2.712h4.769c0.593,0,1.071-0.482,1.071-1.075v-3.576
	c0-0.593-0.479-1.074-1.071-1.074h-15.365c-0.593,0-1.073,0.481-1.073,1.074v3.576c0,0.593,0.482,1.075,1.073,1.075h4.771v2.712
	h-11.047c-0.393,0-0.754,0.215-0.941,0.562l-1.793,3.294h-4.193c-0.593,0-1.071,0.481-1.071,1.074v5.374H238.7v-7.669
	c0-0.591-0.478-1.069-1.07-1.069s-1.073,0.479-1.073,1.069v22.162c0,0.593,0.48,1.075,1.073,1.075s1.07-0.482,1.07-1.075v-7.667
	h2.412v5.676c0,0.593,0.479,1.073,1.071,1.073h8.928l4.082,5.267c0.203,0.264,0.515,0.417,0.847,0.417h24.446
	c0.592,0,1.074-0.481,1.074-1.074v-11.358h2.178v6.363c0,0.593,0.48,1.073,1.073,1.073c3.104,0,5.629-2.525,5.629-5.628v-10.442
	C290.442,276.33,287.917,273.804,284.813,273.804z M238.703,285.925v-2.541h2.412v2.541H238.703z M256.464,264.646h13.219v1.435
	h-13.219V264.646z M262.305,268.226h1.537v2.712h-1.537V268.226z M243.257,276.937h0.761v15.737h-0.761V276.937z M252.487,293.088
	c-0.203-0.264-0.518-0.414-0.847-0.414h-5.476v-15.737h0.854c0.394,0,0.755-0.214,0.942-0.562l1.793-3.293h23.009l0.928,3.09
	c0.134,0.454,0.552,0.765,1.025,0.765h1.923v21.418h-20.069L252.487,293.088z M279.417,298.354h-0.634v-21.418h0.634V298.354z
	 M281.563,285.925v-2.541h2.179v2.541H281.563z M288.299,289.876c0,1.545-1.014,2.862-2.414,3.314v-17.073
	c1.398,0.455,2.414,1.767,2.414,3.316V289.876z"/>
<path fill="#D23835" d="M284.813,313.804c-0.593,0-1.071,0.48-1.071,1.074v6.363h-2.182v-5.378c0-0.589-0.481-1.07-1.072-1.07
	h-4.976l-0.928-3.09c-0.136-0.453-0.555-0.766-1.026-0.766h-7.575v-2.712h4.769c0.593,0,1.071-0.482,1.071-1.075v-3.576
	c0-0.593-0.479-1.074-1.071-1.074h-15.365c-0.593,0-1.073,0.481-1.073,1.074v3.576c0,0.593,0.482,1.075,1.073,1.075h4.771v2.712
	h-11.047c-0.393,0-0.754,0.215-0.941,0.562l-1.793,3.294h-4.193c-0.593,0-1.071,0.481-1.071,1.074v5.374H238.7v-7.669
	c0-0.591-0.478-1.069-1.07-1.069s-1.073,0.479-1.073,1.069v22.162c0,0.593,0.48,1.075,1.073,1.075s1.07-0.482,1.07-1.075v-7.667
	h2.412v5.676c0,0.593,0.479,1.073,1.071,1.073h8.928l4.082,5.267c0.203,0.264,0.515,0.417,0.847,0.417h24.446
	c0.592,0,1.074-0.481,1.074-1.074v-11.358h2.178v6.363c0,0.593,0.48,1.073,1.073,1.073c3.104,0,5.629-2.525,5.629-5.628v-10.442
	C290.442,316.33,287.917,313.804,284.813,313.804z M238.703,325.925v-2.541h2.412v2.541H238.703z M256.464,304.646h13.219v1.435
	h-13.219V304.646z M262.305,308.226h1.537v2.712h-1.537V308.226z M243.257,316.937h0.761v15.737h-0.761V316.937z M252.487,333.088
	c-0.203-0.264-0.518-0.414-0.847-0.414h-5.476v-15.737h0.854c0.394,0,0.755-0.214,0.942-0.562l1.793-3.293h23.009l0.928,3.09
	c0.134,0.454,0.552,0.765,1.025,0.765h1.923v21.418h-20.069L252.487,333.088z M279.417,338.354h-0.634v-21.418h0.634V338.354z
	 M281.563,325.925v-2.541h2.179v2.541H281.563z M288.299,329.876c0,1.545-1.014,2.862-2.414,3.314v-17.073
	c1.398,0.455,2.414,1.767,2.414,3.316V329.876z"/>
</svg>
