<?xml version="1.0" encoding="utf-8"?>
<!-- Generator: Adobe Illustrator 16.0.2, SVG Export Plug-In . SVG Version: 6.00 Build 0)  -->
<!DOCTYPE svg PUBLIC "-//W3C//DTD SVG 1.1//EN" "http://www.w3.org/Graphics/SVG/1.1/DTD/svg11.dtd">
<svg version="1.1" id="Слой_1" xmlns="http://www.w3.org/2000/svg" xmlns:xlink="http://www.w3.org/1999/xlink" x="0px" y="0px"
	 width="24px" height="24px" viewBox="0 0 24 24" enable-background="new 0 0 24 24" xml:space="preserve">
<path fill-rule="evenodd" clip-rule="evenodd" fill="#FFFFFF" d="M19.326,11.556l-5.404-5.368c-0.237-0.239-0.62-0.239-0.855,0
	l-0.854,0.859c-0.237,0.236-0.237,0.62,0,0.856l2.926,2.898H5.124c-0.345,0-0.625,0.269-0.625,0.6V12.6
	c0,0.331,0.279,0.599,0.625,0.599h9.982l-2.928,2.899c-0.237,0.238-0.237,0.621,0,0.857l0.855,0.86c0.234,0.235,0.617,0.235,0.854,0
	l5.438-5.401C19.56,12.175,19.56,11.792,19.326,11.556"/>
</svg>
