<?xml version="1.0" encoding="utf-8"?>
<!-- Generator: Adobe Illustrator 16.0.2, SVG Export Plug-In . SVG Version: 6.00 Build 0)  -->
<!DOCTYPE svg PUBLIC "-//W3C//DTD SVG 1.1//EN" "http://www.w3.org/Graphics/SVG/1.1/DTD/svg11.dtd">
<svg version="1.1" id="Capa_1" xmlns="http://www.w3.org/2000/svg" xmlns:xlink="http://www.w3.org/1999/xlink" x="0px" y="0px"
	 width="40px" height="80px" viewBox="238.045 238.043 40 80" enable-background="new 238.045 238.043 40 80" xml:space="preserve">
<path fill="#353A3E" d="M274.525,274.523c1.048-1.048,1.048-2.753,0-3.801s-2.753-1.048-3.801,0s-1.048,2.753,0,3.801
	S273.478,275.571,274.525,274.523z M272.133,272.132c0.271-0.271,0.713-0.271,0.983,0c0.271,0.271,0.271,0.712,0,0.982
	c-0.271,0.271-0.712,0.271-0.983,0C271.862,272.844,271.862,272.402,272.133,272.132z"/>
<path fill="#353A3E" d="M260.967,253.365c0.125-0.052,0.233-0.125,0.322-0.215c0.277-0.276,0.375-0.703,0.216-1.086
	c-0.211-0.508-0.794-0.749-1.302-0.538l-1.572,0.653l-2.44-2.44l0.812-0.337c0.124-0.052,0.232-0.125,0.322-0.215
	c0.276-0.276,0.375-0.703,0.216-1.086c-0.211-0.508-0.794-0.749-1.302-0.538l-1.572,0.653l-3.936-3.936l0.767-0.767
	c0.389-0.389,0.389-1.02,0-1.409l-2.661-2.662c-0.389-0.389-1.02-0.389-1.409,0l-1.555,1.555c-0.174-0.655-0.517-1.274-1.029-1.788
	c-1.553-1.553-4.081-1.553-5.634,0s-1.553,4.081,0,5.634c0.513,0.513,1.132,0.855,1.787,1.029l-1.554,1.554
	c-0.389,0.389-0.389,1.02,0,1.409l2.662,2.662c0.389,0.389,1.02,0.389,1.409,0l0.767-0.767L245.55,252l-0.812,0.337
	c-0.508,0.211-0.749,0.794-0.538,1.302c0.21,0.508,0.793,0.749,1.302,0.538l1.572-0.653l2.44,2.44l-0.812,0.337
	c-0.508,0.211-0.749,0.794-0.538,1.302s0.794,0.749,1.302,0.538l1.572-0.653l2.44,2.44l-0.812,0.337
	c-0.509,0.211-0.749,0.794-0.538,1.302c0.211,0.509,0.794,0.749,1.302,0.538l1.572-0.652l2.44,2.439l-0.813,0.338
	c-0.508,0.211-0.749,0.794-0.538,1.302s0.793,0.749,1.302,0.537l1.571-0.652l3.936,3.936l-0.767,0.767
	c-0.389,0.389-0.389,1.02,0,1.408l2.662,2.662c0.389,0.389,1.02,0.389,1.408,0l1.025-1.025c0.12,1.203,0.639,2.374,1.559,3.293
	c2.114,2.115,5.555,2.115,7.669,0c2.114-2.114,2.114-5.555,0-7.669c-0.919-0.92-2.09-1.438-3.293-1.559l1.025-1.025
	c0.389-0.389,0.389-1.02,0-1.408l-2.662-2.661c-0.389-0.39-1.02-0.39-1.408,0l-0.767,0.767l-1.271-1.271l0.812-0.337
	c0.124-0.052,0.232-0.125,0.322-0.215c0.276-0.277,0.375-0.703,0.216-1.087c-0.211-0.508-0.794-0.749-1.302-0.538l-1.572,0.653
	l-2.44-2.44l0.813-0.337c0.124-0.052,0.232-0.126,0.322-0.216c0.276-0.276,0.375-0.703,0.216-1.086
	c-0.211-0.508-0.794-0.749-1.303-0.538l-1.571,0.653l-2.44-2.44L260.967,253.365z M240.619,243.434c-0.777-0.777-0.777-2.04,0-2.817
	c0.776-0.776,2.04-0.776,2.816,0c0.777,0.777,0.777,2.041,0,2.817C242.659,244.21,241.395,244.21,240.619,243.434z M241.556,248.13
	l6.576-6.576l1.253,1.253l-6.576,6.576L241.556,248.13z M245.688,249.321l3.635-3.634l3.354,3.354l-5.136,2.133L245.688,249.321
	L245.688,249.321z M249.065,252.697l5.136-2.133l2.44,2.44l-5.136,2.133L249.065,252.697L249.065,252.697z M275.051,270.197
	c1.338,1.338,1.338,3.514,0,4.852s-3.515,1.338-4.852,0c-1.338-1.338-1.338-3.514,0-4.852
	C271.536,268.859,273.713,268.859,275.051,270.197z M272.078,265.5l-6.576,6.576l-1.253-1.253l0.767-0.766l5.043-5.044l0.767-0.767
	L272.078,265.5L272.078,265.5z M267.946,264.31l-3.635,3.635l-3.354-3.354l5.136-2.134L267.946,264.31z M264.569,260.934
	l-5.136,2.133l-2.44-2.44l5.136-2.133L264.569,260.934z M260.604,256.969l-5.135,2.133l-2.44-2.439l5.136-2.133L260.604,256.969z"/>
<path fill="#D23835" d="M274.525,314.523c1.048-1.048,1.048-2.753,0-3.801s-2.753-1.048-3.801,0s-1.048,2.753,0,3.801
	S273.478,315.571,274.525,314.523z M272.133,312.132c0.271-0.271,0.713-0.271,0.983,0c0.271,0.271,0.271,0.712,0,0.982
	c-0.271,0.271-0.712,0.271-0.983,0C271.862,312.844,271.862,312.402,272.133,312.132z"/>
<path fill="#D23835" d="M260.967,293.365c0.125-0.053,0.233-0.126,0.322-0.216c0.277-0.276,0.375-0.703,0.216-1.087
	c-0.211-0.508-0.794-0.748-1.302-0.537l-1.572,0.652l-2.44-2.439l0.812-0.338c0.124-0.052,0.232-0.125,0.322-0.215
	c0.276-0.277,0.375-0.703,0.216-1.087c-0.211-0.509-0.794-0.749-1.302-0.538l-1.572,0.652l-3.936-3.936l0.767-0.766
	c0.389-0.39,0.389-1.02,0-1.409l-2.661-2.661c-0.389-0.389-1.02-0.389-1.409,0l-1.555,1.555c-0.174-0.656-0.517-1.275-1.029-1.788
	c-1.553-1.554-4.081-1.554-5.634,0s-1.553,4.081,0,5.634c0.513,0.514,1.132,0.855,1.787,1.029l-1.554,1.555
	c-0.389,0.389-0.389,1.02,0,1.408l2.662,2.662c0.389,0.389,1.02,0.389,1.409,0l0.767-0.767L245.55,292l-0.812,0.338
	c-0.508,0.211-0.749,0.793-0.538,1.301c0.21,0.509,0.793,0.75,1.302,0.539l1.572-0.653l2.44,2.44l-0.812,0.337
	c-0.508,0.211-0.749,0.794-0.538,1.302s0.794,0.749,1.302,0.538l1.572-0.653l2.44,2.44l-0.812,0.337
	c-0.509,0.211-0.749,0.794-0.538,1.302c0.211,0.509,0.794,0.749,1.302,0.538l1.572-0.652l2.44,2.439l-0.813,0.338
	c-0.508,0.211-0.749,0.794-0.538,1.302s0.793,0.749,1.302,0.537l1.571-0.652l3.936,3.936l-0.767,0.767
	c-0.389,0.389-0.389,1.02,0,1.408l2.662,2.662c0.389,0.389,1.02,0.389,1.408,0l1.025-1.025c0.12,1.203,0.639,2.374,1.559,3.293
	c2.114,2.115,5.555,2.115,7.669,0c2.114-2.114,2.114-5.555,0-7.669c-0.919-0.92-2.09-1.438-3.293-1.559l1.025-1.025
	c0.389-0.389,0.389-1.02,0-1.408l-2.662-2.661c-0.389-0.39-1.02-0.39-1.408,0l-0.767,0.767l-1.271-1.271l0.812-0.337
	c0.124-0.052,0.232-0.125,0.322-0.215c0.276-0.277,0.375-0.703,0.216-1.087c-0.211-0.508-0.794-0.749-1.302-0.538l-1.572,0.653
	l-2.44-2.44l0.813-0.337c0.124-0.052,0.232-0.126,0.322-0.216c0.276-0.276,0.375-0.703,0.216-1.086
	c-0.211-0.508-0.794-0.749-1.303-0.538l-1.571,0.653l-2.44-2.44L260.967,293.365z M240.619,283.434c-0.777-0.777-0.777-2.04,0-2.816
	c0.776-0.777,2.04-0.777,2.816,0c0.777,0.776,0.777,2.04,0,2.816C242.659,284.21,241.395,284.21,240.619,283.434z M241.556,288.131
	l6.576-6.576l1.253,1.252l-6.576,6.576L241.556,288.131z M245.688,289.32l3.635-3.634l3.354,3.354l-5.136,2.133L245.688,289.32
	L245.688,289.32z M249.065,292.697l5.136-2.133l2.44,2.44l-5.136,2.133L249.065,292.697L249.065,292.697z M275.051,310.197
	c1.338,1.338,1.338,3.514,0,4.852s-3.515,1.338-4.852,0c-1.338-1.338-1.338-3.514,0-4.852
	C271.536,308.859,273.713,308.859,275.051,310.197z M272.078,305.5l-6.576,6.576l-1.253-1.253l0.767-0.766l5.043-5.044l0.767-0.767
	L272.078,305.5L272.078,305.5z M267.946,304.31l-3.635,3.635l-3.354-3.354l5.136-2.134L267.946,304.31z M264.569,300.934
	l-5.136,2.133l-2.44-2.44l5.136-2.133L264.569,300.934z M260.604,296.969l-5.135,2.133l-2.44-2.439l5.136-2.133L260.604,296.969z"/>
</svg>
