<?xml version="1.0" encoding="utf-8"?>
<!DOCTYPE svg PUBLIC "-//W3C//DTD SVG 1.1//EN" "http://www.w3.org/Graphics/SVG/1.1/DTD/svg11.dtd">
<svg xmlns="http://www.w3.org/2000/svg" x="0px" y="0px" width="40px" height="80px" viewBox="236 236 40 80">
<path fill="#353A3E" d="M270.144,241.859C266.364,238.081,261.343,236,256,236s-10.364,2.081-14.141,5.859
	c-3.778,3.776-5.859,8.8-5.859,14.141s2.081,10.364,5.859,14.144c3.776,3.775,8.8,5.856,14.141,5.856s10.364-2.081,14.144-5.856
	C273.919,266.364,276,261.343,276,256C276,250.659,273.919,245.636,270.144,241.859z M256,274.403
	c-10.148,0-18.403-8.255-18.403-18.402c0-10.146,8.255-18.403,18.403-18.403s18.402,8.257,18.402,18.403
	C274.402,266.148,266.148,274.403,256,274.403z M256,239.383c-9.164,0-16.618,7.454-16.618,16.618S246.836,272.62,256,272.62
	s16.618-7.456,16.618-16.619C272.618,246.839,265.164,239.383,256,239.383z M257.979,267.864h-3.959
	c-1.497-4.997-5.283-9.031-10.184-10.833l1.369-5.808c3.513-0.854,7.143-1.289,10.794-1.289c3.655,0,7.282,0.436,10.794,1.291
	l1.369,5.806C263.265,258.832,259.474,262.867,257.979,267.864z M240.979,256c0-1.271,0.158-2.505,0.457-3.685
	c0.668-0.227,1.342-0.437,2.021-0.631l-1.147,4.869c-0.435-0.113-0.877-0.211-1.328-0.291
	C240.979,256.177,240.979,256.089,240.979,256z M269.692,256.555l-1.146-4.867c0.678,0.195,1.354,0.403,2.021,0.63
	c0.298,1.179,0.46,2.413,0.46,3.684c0,0.088-0.003,0.176-0.006,0.265C270.57,256.343,270.128,256.44,269.692,256.555z M256,240.979
	c6.321,0,11.742,3.923,13.954,9.462c-0.762-0.235-1.529-0.453-2.298-0.647c-3.786-0.966-7.707-1.455-11.657-1.455
	c-3.948,0-7.869,0.489-11.658,1.455c-0.766,0.194-1.536,0.412-2.298,0.647C244.261,244.902,249.68,240.979,256,240.979z
	 M241.099,257.911c6.284,1.271,11.092,6.448,11.901,12.811C246.761,269.452,241.914,264.302,241.099,257.911z M254.633,270.961
	c-0.05-0.508-0.124-1.008-0.219-1.5h3.172c-0.095,0.492-0.169,0.992-0.219,1.5c-0.45,0.04-0.906,0.063-1.367,0.063
	S255.083,271.001,254.633,270.961z M259,270.722c0.808-6.362,5.617-11.541,11.902-12.811
	C270.086,264.302,265.239,269.452,259,270.722z M256,251.464c-2.503,0-4.539,2.035-4.539,4.537c0,2.503,2.036,4.538,4.539,4.538
	s4.539-2.034,4.539-4.538C260.539,253.499,258.504,251.464,256,251.464z M256,258.942c-1.622,0-2.942-1.318-2.942-2.942
	c0-1.622,1.32-2.942,2.942-2.942s2.942,1.32,2.942,2.942C258.942,257.624,257.624,258.942,256,258.942z"/>
<path fill="#D23835" d="M270.144,281.859C266.364,278.081,261.343,276,256,276s-10.364,2.081-14.141,5.859
	c-3.778,3.776-5.859,8.8-5.859,14.141s2.081,10.364,5.859,14.144c3.776,3.775,8.8,5.856,14.141,5.856s10.364-2.081,14.144-5.856
	C273.919,306.364,276,301.343,276,296C276,290.659,273.919,285.636,270.144,281.859z M256,314.403
	c-10.148,0-18.403-8.255-18.403-18.402c0-10.146,8.255-18.403,18.403-18.403s18.402,8.257,18.402,18.403
	C274.402,306.148,266.148,314.403,256,314.403z M256,279.383c-9.164,0-16.618,7.454-16.618,16.618S246.836,312.62,256,312.62
	s16.618-7.456,16.618-16.619C272.618,286.839,265.164,279.383,256,279.383z M257.979,307.864h-3.959
	c-1.497-4.997-5.283-9.031-10.184-10.833l1.369-5.808c3.513-0.854,7.143-1.289,10.794-1.289c3.655,0,7.282,0.436,10.794,1.291
	l1.369,5.806C263.265,298.832,259.474,302.867,257.979,307.864z M240.979,296c0-1.271,0.158-2.505,0.457-3.685
	c0.668-0.227,1.342-0.437,2.021-0.631l-1.147,4.869c-0.435-0.113-0.877-0.211-1.328-0.291
	C240.979,296.177,240.979,296.089,240.979,296z M269.692,296.555l-1.146-4.867c0.678,0.195,1.354,0.403,2.021,0.63
	c0.298,1.179,0.46,2.413,0.46,3.684c0,0.088-0.003,0.176-0.006,0.265C270.57,296.343,270.128,296.44,269.692,296.555z M256,280.979
	c6.321,0,11.742,3.923,13.954,9.462c-0.762-0.235-1.529-0.453-2.298-0.647c-3.786-0.966-7.707-1.455-11.657-1.455
	c-3.948,0-7.869,0.489-11.658,1.455c-0.766,0.194-1.536,0.412-2.298,0.647C244.261,284.902,249.68,280.979,256,280.979z
	 M241.099,297.911c6.284,1.271,11.092,6.448,11.901,12.811C246.761,309.452,241.914,304.302,241.099,297.911z M254.633,310.961
	c-0.05-0.508-0.124-1.008-0.219-1.5h3.172c-0.095,0.492-0.169,0.992-0.219,1.5c-0.45,0.04-0.906,0.063-1.367,0.063
	S255.083,311.001,254.633,310.961z M259,310.722c0.808-6.362,5.617-11.541,11.902-12.811
	C270.086,304.302,265.239,309.452,259,310.722z M256,291.464c-2.503,0-4.539,2.035-4.539,4.537c0,2.503,2.036,4.538,4.539,4.538
	s4.539-2.034,4.539-4.538C260.539,293.499,258.504,291.464,256,291.464z M256,298.942c-1.622,0-2.942-1.318-2.942-2.942
	c0-1.622,1.32-2.942,2.942-2.942s2.942,1.32,2.942,2.942C258.942,297.624,257.624,298.942,256,298.942z"/>
</svg>
