<?xml version="1.0" encoding="utf-8"?>
<!-- Generator: Adobe Illustrator 16.0.2, SVG Export Plug-In . SVG Version: 6.00 Build 0)  -->
<!DOCTYPE svg PUBLIC "-//W3C//DTD SVG 1.1//EN" "http://www.w3.org/Graphics/SVG/1.1/DTD/svg11.dtd">
<svg version="1.1" id="Capa_1" xmlns="http://www.w3.org/2000/svg" xmlns:xlink="http://www.w3.org/1999/xlink" x="0px" y="0px"
	 width="40px" height="40px" viewBox="236 236 40 40" enable-background="new 236 236 40 40" xml:space="preserve">
<path fill="#353A3E" d="M256,238.5c9.648,0,17.5,7.852,17.5,17.5s-7.852,17.5-17.5,17.5s-17.5-7.852-17.5-17.5
	S246.352,238.5,256,238.5 M256,236c-11.044,0-20,8.956-20,20c0,11.045,8.956,20,20,20c11.045,0,20-8.955,20-20
	C276,244.956,267.045,236,256,236L256,236z M267.149,262.687l-0.111-0.342c-0.264-0.785-1.133-1.605-1.935-1.826l-2.956-0.808
	c-0.802-0.218-1.943,0.076-2.531,0.664l-1.07,1.069c-3.886-1.053-6.936-4.102-7.985-7.988l1.069-1.069
	c0.586-0.586,0.879-1.728,0.662-2.532l-0.806-2.957c-0.217-0.801-1.042-1.669-1.828-1.934l-0.337-0.112
	c-0.789-0.264-1.914,0.002-2.5,0.591l-1.602,1.601c-0.286,0.284-0.469,1.097-0.469,1.099c-0.054,5.083,1.938,9.979,5.532,13.574
	c3.584,3.584,8.462,5.574,13.528,5.53c0.026,0,0.863-0.179,1.149-0.465l1.602-1.602
	C267.147,264.599,267.411,263.474,267.149,262.687z"/>
</svg>
