<?xml version="1.0" encoding="utf-8"?>
<!-- Generator: Adobe Illustrator 16.0.2, SVG Export Plug-In . SVG Version: 6.00 Build 0)  -->
<!DOCTYPE svg PUBLIC "-//W3C//DTD SVG 1.1//EN" "http://www.w3.org/Graphics/SVG/1.1/DTD/svg11.dtd">
<svg version="1.1" id="Layer_1" xmlns="http://www.w3.org/2000/svg" xmlns:xlink="http://www.w3.org/1999/xlink" x="0px" y="0px"
	 width="60px" height="120px" viewBox="226 225.999 60 120" enable-background="new 226 225.999 60 120" xml:space="preserve">
<path fill="#D32F2F" d="M253.097,253.096c-3.202,0-5.806,2.604-5.806,5.807s2.604,5.807,5.806,5.807s5.807-2.604,5.807-5.807
	S256.299,253.096,253.097,253.096z M253.097,262.773c-2.135,0-3.871-1.736-3.871-3.871s1.736-3.871,3.871-3.871
	c2.135,0,3.871,1.736,3.871,3.871S255.232,262.773,253.097,262.773z M278.258,231.806h1.936v3.871h-1.936V231.806z M281.161,232.773
	h1.936c0-2.135-1.736-3.871-3.871-3.871s-3.871,1.736-3.871,3.871h1.936c0-1.067,0.868-1.936,1.936-1.936
	S281.161,231.706,281.161,232.773z M281.173,244.386c-0.447-0.011-0.979-0.188-0.979-0.968v-0.968h1.936v-3.566
	c2.285-1.09,3.871-3.417,3.871-6.111c0-3.736-3.04-6.774-6.774-6.774s-6.774,3.039-6.774,6.774c0,2.695,1.587,5.021,3.871,6.111
	v3.566h1.936v0.968c0,2.13,1.736,2.903,2.903,2.903c2.732,0,2.897,2.422,2.903,2.903v30.967c0,0.158-0.065,3.871-5.807,3.871
	c-3.342,0-5.578-1.995-7.651-4.505c5.858-4.974,9.587-12.386,9.587-20.656c0-14.941-12.155-27.097-27.096-27.097
	S226,243.961,226,258.902c0,14.94,12.156,27.097,27.097,27.097c5.977,0,11.505-1.949,15.99-5.239c2.328,2.826,5,5.239,9.171,5.239
	c7.653,0,7.742-5.748,7.742-5.807v-30.967C286,247.552,284.988,244.386,281.173,244.386z M274.387,232.773
	c0-2.668,2.171-4.839,4.839-4.839s4.839,2.171,4.839,4.839s-2.171,4.839-4.839,4.839S274.387,235.441,274.387,232.773z
	 M278.258,240.516v-1.045c0.317,0.045,0.639,0.078,0.968,0.078s0.65-0.032,0.968-0.078v1.045H278.258z M269.402,278.042
	c-0.153-0.198-0.306-0.397-0.46-0.598c-0.998-1.304-2.046-2.665-3.24-3.887c4.124-3.552,6.749-8.799,6.749-14.655
	c0-10.672-8.682-19.355-19.354-19.355c-10.672,0-19.354,8.683-19.354,19.355c0,10.672,8.683,19.354,19.354,19.354
	c4.122,0,7.938-1.306,11.081-3.509c1.141,1.147,2.174,2.496,3.229,3.873c0.158,0.207,0.317,0.414,0.477,0.621
	c-1.202,0.877-2.482,1.653-3.831,2.309l-1.38-2.759l-1.73,0.866l1.332,2.665c-2.561,1.007-5.322,1.605-8.209,1.716v-2.879h-1.936
	v2.879c-2.536-0.097-4.974-0.569-7.265-1.365l1.296-1.944l-1.61-1.073l-1.53,2.295c-2.592-1.139-4.957-2.698-7.006-4.597
	l2.283-2.283l-1.369-1.368l-2.283,2.282c-1.683-1.816-3.104-3.877-4.196-6.128l2.758-1.379l-0.866-1.731l-2.665,1.332
	c-1.006-2.561-1.605-5.322-1.716-8.209h2.878v-1.936h-2.879c0.097-2.536,0.57-4.974,1.366-7.265l1.944,1.295l1.073-1.61l-2.294-1.53
	c1.138-2.592,2.698-4.957,4.597-7.005l2.283,2.283l1.369-1.368l-2.283-2.283c1.816-1.683,3.877-3.104,6.128-4.196l1.379,2.758
	l1.731-0.866l-1.333-2.665c2.561-1.006,5.323-1.605,8.209-1.716v2.878h1.936v-2.879c2.535,0.097,4.974,0.57,7.265,1.366
	l-1.296,1.944l1.61,1.073l1.53-2.294c2.592,1.138,4.957,2.698,7.006,4.597l-2.283,2.283l1.368,1.368l2.283-2.283
	c1.683,1.816,3.104,3.878,4.196,6.128l-2.758,1.379l0.865,1.731l2.666-1.333c1.006,2.561,1.605,5.323,1.715,8.209h-2.878v1.936h2.88
	c-0.098,2.535-0.57,4.975-1.366,7.265l-1.944-1.296l-1.073,1.61l2.295,1.53c-1.138,2.592-2.698,4.957-4.597,7.006l-2.283-2.283
	l-1.368,1.368l2.283,2.283C269.926,277.589,269.666,277.818,269.402,278.042z M258.483,269.654l0.258-1.812l4.737,1.185
	c-0.554,0.567-1.158,1.084-1.798,1.555C260.717,270.127,259.655,269.808,258.483,269.654z M259.616,271.854
	c-0.498,0.252-1.013,0.474-1.542,0.667l0.135-0.952C258.7,271.63,259.17,271.723,259.616,271.854z M258.116,265.704l-1.166,0.803
	l-0.424,3.063c-1.552,0.143-3.851,1.075-4.313,3.804c-0.699-0.041-1.383-0.115-2.052-0.254l-0.945-6.612l-1.192-0.803l-6.688,1.673
	c-0.86-1.19-1.332-2.512-1.802-3.933l5.821-3.737v-1.61l-5.821-3.736c0.47-1.422,1.049-2.743,1.909-3.933l6.634,1.672l1.166-0.802
	l0.931-6.613c0.948-0.195,1.924-0.299,2.929-0.299s1.984,0.104,2.933,0.299l0.943,6.613l1.191,0.802l6.688-1.672
	c0.86,1.19,1.332,2.511,1.801,3.933l-5.819,3.736v1.61l5.82,3.737c-0.47,1.421-1.049,2.742-1.909,3.933L258.116,265.704z
	 M256.254,271.568l-0.222,1.551c-0.595,0.123-1.207,0.196-1.825,0.243C254.566,272.157,255.543,271.722,256.254,271.568z
	 M248.12,272.521c-2.059-0.755-3.902-1.953-5.405-3.493l4.737-1.185L248.12,272.521z M238.819,261.451
	c-0.147-0.829-0.238-1.678-0.238-2.549s0.091-1.72,0.238-2.549l3.823,2.549L238.819,261.451z M242.715,248.777
	c1.503-1.541,3.347-2.739,5.405-3.494l-0.668,4.677L242.715,248.777z M258.074,245.283c2.058,0.755,3.901,1.953,5.404,3.494
	l-4.737,1.185L258.074,245.283z M267.375,256.354c0.146,0.829,0.238,1.678,0.238,2.549s-0.092,1.72-0.238,2.549l-3.823-2.549
	L267.375,256.354z M269.548,258.902c0-9.072-7.38-16.452-16.451-16.452s-16.451,7.38-16.451,16.452
	c0,9.071,7.38,16.451,16.451,16.451c3.201,0,6.181-0.933,8.71-2.52c0.3,0.184,0.589,0.387,0.872,0.601
	c-2.752,1.819-6.043,2.887-9.582,2.887c-9.605,0-17.419-7.814-17.419-17.419c0-9.605,7.814-17.419,17.419-17.419
	c9.604,0,17.419,7.814,17.419,17.419c0,5.352-2.43,10.143-6.241,13.341c-0.255-0.209-0.517-0.41-0.785-0.602
	C267.184,268.622,269.548,264.034,269.548,258.902z M253.097,227.935V226c-10.691,0-20.754,5.218-26.92,13.958l1.583,1.115
	C233.561,232.846,243.034,227.935,253.097,227.935z M252.129,245.354h1.936v1.936h-1.936V245.354z M252.129,249.225h1.936v1.936
	h-1.936V249.225z M241.484,252.128h1.936v1.936h-1.936V252.128z"/>
<path fill="#FFFFFF" d="M253.097,313.096c-3.202,0-5.806,2.604-5.806,5.807s2.604,5.807,5.806,5.807s5.807-2.604,5.807-5.807
	S256.299,313.096,253.097,313.096z M253.097,322.773c-2.135,0-3.871-1.736-3.871-3.871s1.736-3.871,3.871-3.871
	c2.135,0,3.871,1.736,3.871,3.871S255.232,322.773,253.097,322.773z M278.258,291.806h1.936v3.87h-1.936V291.806z M281.161,292.773
	h1.936c0-2.135-1.736-3.871-3.871-3.871s-3.871,1.736-3.871,3.871h1.936c0-1.067,0.868-1.936,1.936-1.936
	S281.161,291.706,281.161,292.773z M281.173,304.387c-0.447-0.012-0.979-0.189-0.979-0.969v-0.967h1.936v-3.566
	c2.285-1.09,3.871-3.416,3.871-6.111c0-3.736-3.04-6.774-6.774-6.774s-6.774,3.038-6.774,6.774c0,2.695,1.587,5.021,3.871,6.111
	v3.566h1.936v0.967c0,2.131,1.736,2.904,2.903,2.904c2.732,0,2.897,2.422,2.903,2.902v30.968c0,0.158-0.065,3.871-5.807,3.871
	c-3.342,0-5.578-1.995-7.651-4.505c5.858-4.974,9.587-12.386,9.587-20.656c0-14.941-12.155-27.097-27.096-27.097
	S226,303.961,226,318.902c0,14.94,12.156,27.097,27.097,27.097c5.977,0,11.505-1.949,15.99-5.239c2.328,2.826,5,5.239,9.171,5.239
	c7.653,0,7.742-5.748,7.742-5.807v-30.968C286,307.552,284.988,304.387,281.173,304.387z M274.387,292.773
	c0-2.668,2.171-4.839,4.839-4.839s4.839,2.171,4.839,4.839s-2.171,4.839-4.839,4.839S274.387,295.441,274.387,292.773z
	 M278.258,300.516v-1.045c0.317,0.045,0.639,0.077,0.968,0.077s0.65-0.032,0.968-0.077v1.045H278.258z M269.402,338.042
	c-0.153-0.198-0.306-0.397-0.46-0.598c-0.998-1.304-2.046-2.665-3.24-3.887c4.124-3.552,6.749-8.799,6.749-14.655
	c0-10.672-8.682-19.355-19.354-19.355c-10.672,0-19.354,8.684-19.354,19.355s8.683,19.354,19.354,19.354
	c4.122,0,7.938-1.306,11.081-3.509c1.141,1.147,2.174,2.496,3.229,3.873c0.158,0.207,0.317,0.414,0.477,0.621
	c-1.202,0.877-2.482,1.653-3.831,2.309l-1.38-2.759l-1.73,0.866l1.332,2.665c-2.561,1.007-5.322,1.605-8.209,1.716v-2.879h-1.936
	v2.879c-2.536-0.097-4.974-0.569-7.265-1.365l1.296-1.944l-1.61-1.073l-1.53,2.295c-2.592-1.139-4.957-2.698-7.006-4.597
	l2.283-2.283l-1.369-1.368l-2.283,2.282c-1.683-1.816-3.104-3.877-4.196-6.128l2.758-1.379l-0.866-1.731l-2.665,1.332
	c-1.006-2.561-1.605-5.322-1.716-8.209h2.878v-1.936h-2.879c0.097-2.536,0.57-4.974,1.366-7.265l1.944,1.295l1.073-1.609
	l-2.294-1.53c1.138-2.592,2.698-4.957,4.597-7.005l2.283,2.282l1.369-1.368l-2.283-2.283c1.816-1.683,3.877-3.104,6.128-4.195
	l1.379,2.758l1.731-0.867l-1.333-2.664c2.561-1.007,5.323-1.605,8.209-1.717v2.879h1.936v-2.879c2.535,0.096,4.974,0.57,7.265,1.365
	l-1.296,1.943l1.61,1.074l1.53-2.295c2.592,1.139,4.957,2.698,7.006,4.598l-2.283,2.282l1.368,1.368l2.283-2.283
	c1.683,1.816,3.104,3.879,4.196,6.129l-2.758,1.379l0.865,1.731l2.666-1.333c1.006,2.562,1.605,5.323,1.715,8.21h-2.878v1.936h2.88
	c-0.098,2.535-0.57,4.975-1.366,7.265l-1.944-1.296l-1.073,1.61l2.295,1.53c-1.138,2.592-2.698,4.957-4.597,7.006l-2.283-2.283
	l-1.368,1.368l2.283,2.283C269.926,337.589,269.666,337.818,269.402,338.042z M258.483,329.654l0.258-1.812l4.737,1.185
	c-0.554,0.567-1.158,1.084-1.798,1.555C260.717,330.127,259.655,329.808,258.483,329.654z M259.616,331.854
	c-0.498,0.252-1.013,0.474-1.542,0.667l0.135-0.952C258.7,331.63,259.17,331.723,259.616,331.854z M258.116,325.704l-1.166,0.803
	l-0.424,3.063c-1.552,0.143-3.851,1.075-4.313,3.804c-0.699-0.041-1.383-0.115-2.052-0.254l-0.945-6.612l-1.192-0.803l-6.688,1.673
	c-0.86-1.19-1.332-2.512-1.802-3.933l5.821-3.737v-1.61l-5.821-3.735c0.47-1.422,1.049-2.743,1.909-3.934l6.634,1.672l1.166-0.802
	l0.931-6.612c0.948-0.195,1.924-0.299,2.929-0.299s1.984,0.104,2.933,0.299l0.943,6.612l1.191,0.802l6.688-1.672
	c0.86,1.19,1.332,2.512,1.801,3.934l-5.819,3.735v1.61l5.82,3.737c-0.47,1.421-1.049,2.742-1.909,3.933L258.116,325.704z
	 M256.254,331.568l-0.222,1.551c-0.595,0.123-1.207,0.196-1.825,0.243C254.566,332.157,255.543,331.722,256.254,331.568z
	 M248.12,332.521c-2.059-0.755-3.902-1.953-5.405-3.493l4.737-1.185L248.12,332.521z M238.819,321.451
	c-0.147-0.829-0.238-1.678-0.238-2.549s0.091-1.72,0.238-2.549l3.823,2.549L238.819,321.451z M242.715,308.777
	c1.503-1.541,3.347-2.739,5.405-3.494l-0.668,4.678L242.715,308.777z M258.074,305.283c2.058,0.755,3.901,1.953,5.404,3.494
	l-4.737,1.184L258.074,305.283z M267.375,316.354c0.146,0.829,0.238,1.678,0.238,2.549s-0.092,1.72-0.238,2.549l-3.823-2.549
	L267.375,316.354z M269.548,318.902c0-9.072-7.38-16.451-16.451-16.451s-16.451,7.379-16.451,16.451
	c0,9.071,7.38,16.451,16.451,16.451c3.201,0,6.181-0.933,8.71-2.52c0.3,0.184,0.589,0.387,0.872,0.601
	c-2.752,1.819-6.043,2.887-9.582,2.887c-9.605,0-17.419-7.814-17.419-17.419c0-9.605,7.814-17.42,17.419-17.42
	c9.604,0,17.419,7.814,17.419,17.42c0,5.352-2.43,10.143-6.241,13.341c-0.255-0.209-0.517-0.41-0.785-0.602
	C267.184,328.622,269.548,324.034,269.548,318.902z M253.097,287.935V286c-10.691,0-20.754,5.217-26.92,13.958l1.583,1.114
	C233.561,292.846,243.034,287.935,253.097,287.935z M252.129,305.354h1.936v1.936h-1.936V305.354z M252.129,309.225h1.936v1.936
	h-1.936V309.225z M241.484,312.128h1.936v1.936h-1.936V312.128z"/>
</svg>
