<?xml version="1.0" encoding="utf-8"?>
<!-- Generator: Adobe Illustrator 16.0.2, SVG Export Plug-In . SVG Version: 6.00 Build 0)  -->
<!DOCTYPE svg PUBLIC "-//W3C//DTD SVG 1.1//EN" "http://www.w3.org/Graphics/SVG/1.1/DTD/svg11.dtd">
<svg version="1.1" id="Capa_1" xmlns="http://www.w3.org/2000/svg" xmlns:xlink="http://www.w3.org/1999/xlink" x="0px" y="0px"
	 width="60px" height="120px" viewBox="231.499 251.501 60 120" enable-background="new 231.499 251.501 60 120"
	 xml:space="preserve">
<path fill="#D33131" d="M285.764,282.228l3.066-0.37c1.521-0.189,2.669-1.486,2.669-3.021c0-1.675-1.363-3.039-3.037-3.039h-2.133
	c-1.303,0-2.421,0.832-2.846,1.992l-2.987-6.548c-1.111-2.428-3.321-4.239-5.92-4.834c-0.122-0.029-0.25-0.055-0.391-0.083
	c-0.104-3.002-1.259-5.845-3.3-8.092c-2.287-2.517-5.411-3.981-8.794-4.144c-3.392-0.153-6.637,1.022-9.143,3.309
	c-2.504,2.286-3.972,5.418-4.134,8.814c0,0.037,0,0.072-0.003,0.115c-0.143,0.027-0.271,0.051-0.394,0.081
	c-2.599,0.599-4.813,2.406-5.92,4.838l-2.987,6.542c-0.43-1.16-1.54-1.989-2.846-1.989h-2.133c-1.672,0-3.034,1.366-3.034,3.043
	c0,1.537,1.149,2.83,2.669,3.023l3.061,0.366l-2.927,2.938c-1.428,1.429-2.107,3.476-1.824,5.473l1.002,7.082
	c0.252,1.777,1.168,3.396,2.539,4.527v3.207c0,1.912,1.553,3.468,3.46,3.468h5.743c1.911,0,3.459-1.559,3.459-3.468v-1.562h25.626
	v1.562c0,1.912,1.554,3.468,3.463,3.468h5.736c1.912,0,3.463-1.559,3.463-3.468v-3.207c1.371-1.132,2.287-2.75,2.54-4.527
	l1.001-7.082c0.286-2.001-0.396-4.047-1.824-5.473L285.764,282.228z M285.18,300.729c-0.813,0.56-1.765,0.859-2.757,0.859h-41.849
	c-0.988,0-1.942-0.294-2.759-0.859c-1.045-0.718-1.771-1.829-2.017-3.065h51.397C286.953,298.9,286.228,300.012,285.18,300.729z
	 M275.017,291.624l1.168,3.741h-1.591l-1.165-3.741H275.017z M271.023,291.624l1.168,3.741H250.81l1.17-3.741H271.023z
	 M248.404,295.365h-1.588l1.168-3.738h1.588L248.404,295.365z M244.414,295.365h-8.947l-0.527-3.738h10.64L244.414,295.365z
	 M278.588,295.365l-1.169-3.738h10.642l-0.532,3.738H278.588z M285.593,278.842c0-0.404,0.332-0.737,0.739-0.737h2.134
	c0.404,0,0.736,0.333,0.736,0.737c0,0.376-0.278,0.693-0.647,0.736l-2.962,0.358V278.842L285.593,278.842z M282.352,280.834h-3.692
	l-6.485-7.129c0.371-0.57,0.696-1.172,0.966-1.8c1.487,0.105,2.649,0.234,3.378,0.372c0.812,0.158,1.579,0.421,2.29,0.782
	L282.352,280.834z M270.049,276.209c0.241-0.217,0.466-0.439,0.686-0.67l8.809,9.685c0.355,0.39,0.326,0.999-0.064,1.354
	c-0.386,0.355-0.995,0.327-1.35-0.063l-8.812-9.69C269.568,276.621,269.813,276.423,270.049,276.209z M276.72,269.982
	c-0.708-0.127-1.66-0.233-2.844-0.327c0.075-0.332,0.139-0.668,0.19-1.003c0,0,0,0,0.002,0
	C275.05,268.874,275.955,269.341,276.72,269.982z M251.108,266.318c0.13-2.782,1.335-5.345,3.384-7.22
	c1.932-1.765,4.399-2.719,6.997-2.719c0.164,0,0.327,0.003,0.493,0.011c2.775,0.129,5.335,1.338,7.209,3.396
	c3.863,4.246,3.557,10.852-0.686,14.719c-2.051,1.877-4.713,2.835-7.49,2.71c-2.771-0.129-5.333-1.331-7.207-3.391
	C251.937,271.761,250.979,269.099,251.108,266.318z M248.931,268.65L248.931,268.65c0.051,0.334,0.112,0.671,0.191,1
	c-1.188,0.094-2.139,0.205-2.844,0.329C247.039,269.341,247.949,268.874,248.931,268.65z M244.196,273.054
	c0.708-0.359,1.476-0.618,2.287-0.776c0.728-0.142,1.888-0.268,3.381-0.373c0.545,1.253,1.3,2.427,2.249,3.469
	c2.29,2.51,5.41,3.978,8.798,4.134c0.202,0.012,0.404,0.021,0.602,0.021c2.063,0,4.062-0.496,5.855-1.441l2.496,2.745H240.65
	L244.196,273.054z M233.791,278.842c0-0.404,0.333-0.737,0.739-0.737h2.136c0.41,0,0.738,0.333,0.738,0.737v1.095l-2.958-0.358
	C234.074,279.532,233.791,279.214,233.791,278.842z M239.577,283.129h32.374l4.482,4.928c0.64,0.706,1.522,1.061,2.404,1.061
	c0.781,0,1.567-0.281,2.191-0.846c1.325-1.211,1.422-3.275,0.211-4.601l-0.487-0.542h2.672l3.648,3.655
	c0.684,0.687,1.104,1.591,1.194,2.539h-53.535c0.093-0.942,0.512-1.853,1.195-2.539L239.577,283.129z M246.391,305.456
	c0,0.643-0.525,1.171-1.169,1.171h-5.743c-0.643,0-1.168-0.528-1.168-1.171v-1.928c0.724,0.235,1.481,0.368,2.258,0.368h5.816v1.56
	H246.391L246.391,305.456z M283.517,306.624h-5.74c-0.646,0-1.169-0.527-1.169-1.17v-1.563h5.814c0.773,0,1.534-0.13,2.258-0.368
	v1.927C284.685,306.097,284.16,306.624,283.517,306.624z M261.066,276.166c0.148,0.011,0.298,0.015,0.443,0.015
	c2.335,0,4.556-0.859,6.295-2.445c3.813-3.484,4.088-9.432,0.612-13.25c-1.684-1.854-3.984-2.938-6.485-3.054
	c-2.497-0.119-4.889,0.75-6.738,2.436c-3.814,3.484-4.091,9.43-0.614,13.251C256.268,274.966,258.565,276.051,261.066,276.166z
	 M256.738,261.567c1.313-1.196,2.989-1.853,4.754-1.853c0.112,0,0.223,0.007,0.338,0.011c1.88,0.091,3.623,0.905,4.893,2.304
	c2.622,2.886,2.413,7.38-0.466,10.007c-1.396,1.272-3.204,1.923-5.087,1.84c-1.886-0.09-3.624-0.907-4.892-2.305
	C253.65,268.684,253.859,264.197,256.738,261.567z M264.031,269.589c-0.468,0.427-0.498,1.151-0.074,1.628
	c0.226,0.246,0.54,0.375,0.847,0.375c0.277,0,0.553-0.102,0.775-0.304c1.197-1.094,1.891-2.586,1.967-4.201
	c0.078-1.617-0.48-3.171-1.57-4.369c-0.43-0.469-1.154-0.502-1.626-0.075c-0.466,0.428-0.501,1.153-0.072,1.625
	c0.675,0.744,1.018,1.704,0.975,2.713C265.207,267.984,264.773,268.905,264.031,269.589z"/>
<path fill="#FFFFFF" d="M285.764,342.228l3.066-0.37c1.521-0.189,2.669-1.486,2.669-3.021c0-1.675-1.363-3.039-3.037-3.039h-2.133
	c-1.303,0-2.421,0.832-2.846,1.992l-2.987-6.548c-1.111-2.428-3.321-4.239-5.92-4.834c-0.122-0.029-0.25-0.055-0.391-0.083
	c-0.104-3.002-1.259-5.845-3.3-8.092c-2.287-2.517-5.411-3.981-8.794-4.144c-3.392-0.153-6.637,1.022-9.143,3.309
	c-2.504,2.286-3.972,5.418-4.134,8.814c0,0.037,0,0.072-0.003,0.115c-0.143,0.027-0.271,0.051-0.394,0.081
	c-2.599,0.599-4.813,2.406-5.92,4.838l-2.987,6.542c-0.43-1.16-1.54-1.989-2.846-1.989h-2.133c-1.672,0-3.034,1.366-3.034,3.043
	c0,1.537,1.149,2.83,2.669,3.023l3.061,0.366l-2.927,2.938c-1.428,1.429-2.107,3.476-1.824,5.473l1.002,7.082
	c0.252,1.777,1.168,3.396,2.539,4.527v3.207c0,1.912,1.553,3.468,3.46,3.468h5.743c1.911,0,3.459-1.559,3.459-3.468v-1.562h25.626
	v1.562c0,1.912,1.554,3.468,3.463,3.468h5.736c1.912,0,3.463-1.559,3.463-3.468v-3.207c1.371-1.132,2.287-2.75,2.54-4.527
	l1.001-7.082c0.286-2.001-0.396-4.047-1.824-5.473L285.764,342.228z M285.18,360.729c-0.813,0.56-1.765,0.859-2.757,0.859h-41.849
	c-0.988,0-1.942-0.294-2.759-0.859c-1.045-0.718-1.771-1.829-2.017-3.065h51.397C286.953,358.9,286.228,360.012,285.18,360.729z
	 M275.017,351.624l1.168,3.741h-1.591l-1.165-3.741H275.017z M271.023,351.624l1.168,3.741H250.81l1.17-3.741H271.023z
	 M248.404,355.365h-1.588l1.168-3.738h1.588L248.404,355.365z M244.414,355.365h-8.947l-0.527-3.738h10.64L244.414,355.365z
	 M278.588,355.365l-1.169-3.738h10.642l-0.532,3.738H278.588z M285.593,338.842c0-0.404,0.332-0.737,0.739-0.737h2.134
	c0.404,0,0.736,0.333,0.736,0.737c0,0.376-0.278,0.693-0.647,0.736l-2.962,0.358V338.842L285.593,338.842z M282.352,340.834h-3.692
	l-6.485-7.129c0.371-0.57,0.696-1.172,0.966-1.8c1.487,0.105,2.649,0.234,3.378,0.372c0.812,0.158,1.579,0.421,2.29,0.782
	L282.352,340.834z M270.049,336.209c0.241-0.217,0.466-0.439,0.686-0.67l8.809,9.685c0.355,0.39,0.326,0.999-0.064,1.354
	c-0.386,0.355-0.995,0.327-1.35-0.063l-8.812-9.69C269.568,336.621,269.813,336.423,270.049,336.209z M276.72,329.982
	c-0.708-0.127-1.66-0.233-2.844-0.327c0.075-0.332,0.139-0.668,0.19-1.003c0,0,0,0,0.002,0
	C275.05,328.874,275.955,329.341,276.72,329.982z M251.108,326.318c0.13-2.782,1.335-5.345,3.384-7.22
	c1.932-1.765,4.399-2.719,6.997-2.719c0.164,0,0.327,0.003,0.493,0.011c2.775,0.129,5.335,1.338,7.209,3.396
	c3.863,4.246,3.557,10.852-0.686,14.719c-2.051,1.877-4.713,2.835-7.49,2.71c-2.771-0.129-5.333-1.331-7.207-3.391
	C251.937,331.761,250.979,329.099,251.108,326.318z M248.931,328.65L248.931,328.65c0.051,0.334,0.112,0.671,0.191,1
	c-1.188,0.094-2.139,0.205-2.844,0.329C247.039,329.341,247.949,328.874,248.931,328.65z M244.196,333.054
	c0.708-0.359,1.476-0.618,2.287-0.776c0.728-0.142,1.888-0.268,3.381-0.373c0.545,1.253,1.3,2.427,2.249,3.469
	c2.29,2.51,5.41,3.978,8.798,4.134c0.202,0.012,0.404,0.021,0.602,0.021c2.063,0,4.062-0.496,5.855-1.441l2.496,2.745H240.65
	L244.196,333.054z M233.791,338.842c0-0.404,0.333-0.737,0.739-0.737h2.136c0.41,0,0.738,0.333,0.738,0.737v1.095l-2.958-0.358
	C234.074,339.532,233.791,339.214,233.791,338.842z M239.577,343.129h32.374l4.482,4.928c0.64,0.706,1.522,1.061,2.404,1.061
	c0.781,0,1.567-0.281,2.191-0.846c1.325-1.211,1.422-3.275,0.211-4.601l-0.487-0.542h2.672l3.648,3.655
	c0.684,0.687,1.104,1.591,1.194,2.539h-53.535c0.093-0.942,0.512-1.853,1.195-2.539L239.577,343.129z M246.391,365.456
	c0,0.643-0.525,1.171-1.169,1.171h-5.743c-0.643,0-1.168-0.528-1.168-1.171v-1.928c0.724,0.235,1.481,0.368,2.258,0.368h5.816v1.56
	H246.391L246.391,365.456z M283.517,366.624h-5.74c-0.646,0-1.169-0.527-1.169-1.17v-1.563h5.814c0.773,0,1.534-0.13,2.258-0.368
	v1.927C284.685,366.097,284.16,366.624,283.517,366.624z M261.066,336.166c0.148,0.011,0.298,0.015,0.443,0.015
	c2.335,0,4.556-0.859,6.295-2.445c3.813-3.484,4.088-9.432,0.612-13.25c-1.684-1.854-3.984-2.938-6.485-3.054
	c-2.497-0.119-4.889,0.75-6.738,2.436c-3.814,3.484-4.091,9.43-0.614,13.251C256.268,334.966,258.565,336.051,261.066,336.166z
	 M256.738,321.567c1.313-1.196,2.989-1.853,4.754-1.853c0.112,0,0.223,0.007,0.338,0.011c1.88,0.091,3.623,0.905,4.893,2.304
	c2.622,2.886,2.413,7.38-0.466,10.007c-1.396,1.272-3.204,1.923-5.087,1.84c-1.886-0.09-3.624-0.907-4.892-2.305
	C253.65,328.684,253.859,324.197,256.738,321.567z M264.031,329.589c-0.468,0.427-0.498,1.151-0.074,1.628
	c0.226,0.246,0.54,0.375,0.847,0.375c0.277,0,0.553-0.102,0.775-0.304c1.197-1.094,1.891-2.586,1.967-4.201
	c0.078-1.617-0.48-3.171-1.57-4.369c-0.43-0.469-1.154-0.502-1.626-0.075c-0.466,0.428-0.501,1.153-0.072,1.625
	c0.675,0.744,1.018,1.704,0.975,2.713C265.207,327.984,264.773,328.905,264.031,329.589z"/>
</svg>
