<?xml version="1.0" encoding="utf-8"?>
<!-- Generator: Adobe Illustrator 16.0.2, SVG Export Plug-In . SVG Version: 6.00 Build 0)  -->
<!DOCTYPE svg PUBLIC "-//W3C//DTD SVG 1.1//EN" "http://www.w3.org/Graphics/SVG/1.1/DTD/svg11.dtd">
<svg version="1.1" id="Layer_1" xmlns="http://www.w3.org/2000/svg" xmlns:xlink="http://www.w3.org/1999/xlink" x="0px" y="0px"
	 width="60px" height="120px" viewBox="0.666 0 60 120" enable-background="new 0.666 0 60 120" xml:space="preserve">
<path fill="#D32F2F" d="M42.493,41.941l-5.925-1.364v-2.468c1.438-1.288,2.451-3.032,2.805-5.007
	c2.556-2.035,4.082-5.154,4.082-8.425v-3.718c0-1.526-1.093-2.8-2.54-3.088c-2.421-4.236-7.223-6.56-12.12-5.803
	c-0.71,0.108-1.398,0.292-2.064,0.529V4.501l3.935-2.243l3.935,2.243v6.44h1.967V5.623l0.496,0.283l0.976-1.703L30.666,0
	l-7.374,4.203l0.976,1.703l0.496-0.283v7.895c-3.146,1.843-5.411,5.113-5.827,8.827c-0.373,3.322,0.682,6.609,2.875,9.101v0.1
	c0,2.607,1.145,4.946,2.951,6.563v2.468l-5.925,1.364c-4.041,0.929-6.863,4.467-6.863,8.604V60h37.382v-9.455
	C49.357,46.409,46.534,42.871,42.493,41.941z M37.955,42.911l-2.669,3.994l-2.901-1.737l3.442-2.746L37.955,42.911z M30.666,44.024
	l-3.935-3.14v-1.44c1.188,0.591,2.521,0.932,3.935,0.932s2.748-0.341,3.935-0.932v1.44L30.666,44.024z M21.812,24.171v3.765
	c-0.796-1.649-1.129-3.503-0.92-5.373c0.481-4.302,3.93-7.899,8.202-8.557c4.243-0.653,8.386,1.451,10.325,5.23l0.275,0.535h0.601
	c0.657,0,1.191,0.533,1.191,1.187v3.718c0,2.026-0.716,3.98-1.968,5.536l-0.005-6.02l-1.359,0.561
	c-0.021,0.01-2.256,0.904-7.488,0.904s-7.466-0.895-7.482-0.901L21.812,24.171z M23.779,31.546v-4.578
	c1.286,0.299,3.519,0.654,6.886,0.654s5.601-0.354,6.886-0.654v4.578c0,3.787-3.09,6.868-6.886,6.868S23.779,35.333,23.779,31.546z
	 M25.504,42.421l3.442,2.746l-2.901,1.737l-2.669-3.994L25.504,42.421z M26.834,58.038h-6.99v-4.906h-1.967v4.906h-3.935v-7.492
	c0-3.217,2.195-5.97,5.338-6.691l2.047-0.471l4.122,6.166l1.171-0.701l1.062,1.588L26.834,58.038z M32.518,58.038h-3.704
	l0.902-8.096l-1.407-2.105l2.356-1.41l2.357,1.41l-1.407,2.105L32.518,58.038z M47.389,58.038h-3.935v-4.906h-1.968v4.906h-6.989
	l-0.847-7.602l1.062-1.588l1.17,0.701l4.122-6.166l2.047,0.471c3.143,0.722,5.338,3.475,5.338,6.691V58.038L47.389,58.038z
	 M11.975,42.339h1.967v1.962h-1.967V42.339z M11.975,4.501v35.875h1.967V5.623l0.496,0.283l0.976-1.703L8.04,0L0.666,4.203
	l0.976,1.703l0.496-0.283V60h1.967V4.501L8.04,2.259L11.975,4.501z M7.056,5.054h1.968v47.097H7.056V5.054z M57.227,58.038h1.967V60
	h-1.967V58.038z M47.389,40.377h1.968v1.962h-1.968V40.377z M53.292,10.793l-7.374,4.203l0.976,1.703l0.496-0.283v21.998h1.968
	v-23.12l3.935-2.243l3.935,2.243v40.781h1.967v-39.66l0.496,0.283l0.976-1.703L53.292,10.793z M52.308,15.847h1.967v36.304h-1.967
	V15.847z M29.682,5.054h1.968V9.96h-1.968V5.054z M7.056,54.113h1.968v1.963H7.056V54.113z M7.056,58.038h1.968V60H7.056V58.038z
	 M52.308,54.113h1.967V60h-1.967V54.113z"/>
<path fill="#FFFFFF" d="M42.493,101.941l-5.925-1.364v-2.468c1.438-1.288,2.451-3.032,2.805-5.007
	c2.556-2.035,4.082-5.154,4.082-8.425v-3.718c0-1.526-1.093-2.8-2.54-3.088c-2.421-4.236-7.223-6.56-12.12-5.803
	c-0.71,0.108-1.398,0.292-2.064,0.529v-8.095l3.935-2.243l3.935,2.243v6.44h1.967v-5.318l0.496,0.283l0.976-1.703L30.666,60
	l-7.374,4.203l0.976,1.703l0.496-0.283v7.895c-3.146,1.843-5.411,5.113-5.827,8.827c-0.373,3.322,0.682,6.609,2.875,9.101v0.1
	c0,2.607,1.145,4.946,2.951,6.563v2.468l-5.925,1.364c-4.041,0.929-6.863,4.467-6.863,8.604V120h37.382v-9.455
	C49.357,106.409,46.534,102.871,42.493,101.941z M37.955,102.911l-2.669,3.994l-2.901-1.737l3.442-2.746L37.955,102.911z
	 M30.666,104.024l-3.935-3.14v-1.44c1.188,0.591,2.521,0.932,3.935,0.932s2.748-0.341,3.935-0.932v1.44L30.666,104.024z
	 M21.812,84.171v3.765c-0.796-1.649-1.129-3.503-0.92-5.373c0.481-4.302,3.93-7.899,8.202-8.557
	c4.243-0.653,8.386,1.451,10.325,5.23l0.275,0.535h0.601c0.657,0,1.191,0.533,1.191,1.187v3.718c0,2.026-0.716,3.98-1.968,5.536
	l-0.005-6.02l-1.359,0.561c-0.021,0.01-2.256,0.904-7.488,0.904s-7.466-0.895-7.482-0.901L21.812,84.171z M23.779,91.546v-4.578
	c1.286,0.299,3.519,0.654,6.886,0.654s5.601-0.354,6.886-0.654v4.578c0,3.787-3.09,6.868-6.886,6.868S23.779,95.333,23.779,91.546z
	 M25.504,102.421l3.442,2.746l-2.901,1.737l-2.669-3.994L25.504,102.421z M26.834,118.038h-6.99v-4.906h-1.967v4.906h-3.935v-7.492
	c0-3.217,2.195-5.97,5.338-6.691l2.047-0.471l4.122,6.166l1.171-0.701l1.062,1.588L26.834,118.038z M32.518,118.038h-3.704
	l0.902-8.096l-1.407-2.105l2.356-1.41l2.357,1.41l-1.407,2.105L32.518,118.038z M47.389,118.038h-3.935v-4.906h-1.968v4.906h-6.989
	l-0.847-7.602l1.062-1.588l1.17,0.701l4.122-6.166l2.047,0.471c3.143,0.722,5.338,3.475,5.338,6.691V118.038L47.389,118.038z
	 M11.975,102.339h1.967v1.962h-1.967V102.339z M11.975,64.501v35.875h1.967V65.623l0.496,0.283l0.976-1.703L8.04,60l-7.374,4.203
	l0.976,1.703l0.496-0.283V120h1.967V64.501l3.935-2.243L11.975,64.501z M7.056,65.054h1.968v47.097H7.056V65.054z M57.227,118.038
	h1.967V120h-1.967V118.038z M47.389,100.377h1.968v1.962h-1.968V100.377z M53.292,70.793l-7.374,4.203l0.976,1.703l0.496-0.283
	v21.998h1.968v-23.12l3.935-2.243l3.935,2.243v40.781h1.967v-39.66l0.496,0.283l0.976-1.703L53.292,70.793z M52.308,75.847h1.967
	v36.304h-1.967V75.847z M29.682,65.054h1.968v4.906h-1.968V65.054z M7.056,114.113h1.968v1.963H7.056V114.113z M7.056,118.038h1.968
	V120H7.056V118.038z M52.308,114.113h1.967V120h-1.967V114.113z"/>
</svg>
