<?xml version="1.0" encoding="utf-8"?>
<!-- Generator: Adobe Illustrator 16.0.2, SVG Export Plug-In . SVG Version: 6.00 Build 0)  -->
<!DOCTYPE svg PUBLIC "-//W3C//DTD SVG 1.1//EN" "http://www.w3.org/Graphics/SVG/1.1/DTD/svg11.dtd">
<svg version="1.1" id="Слой_1" xmlns="http://www.w3.org/2000/svg" xmlns:xlink="http://www.w3.org/1999/xlink" x="0px" y="0px"
	 width="60px" height="120px" viewBox="2.25 0.25 60 120" enable-background="new 2.25 0.25 60 120" xml:space="preserve">
<path fill="#D32F2F" d="M59.268,51.541h0.08v-5.807c0-0.125-0.012-3.091-1.049-6.189l-3.156-7.359h-2.571h-2.569l-3.188,7.436
	c-1.004,3.022-1.015,5.988-1.015,6.113v1.936h-2.905c-1.602,0-2.902-1.301-2.902-2.904v-4.029c4.619-2.683,7.742-7.674,7.742-13.389
	v-0.139c1.662-0.434,2.901-1.934,2.901-3.732c0-1.74-0.657-2.838-1.019-3.319c0.029-0.179,0.053-0.362,0.053-0.552V17.67
	c0-9.606-7.814-17.42-17.42-17.42S14.83,8.063,14.83,17.67v1.936c0,0.189,0.021,0.373,0.055,0.552
	c-0.365,0.481-1.021,1.579-1.021,3.319c0,1.799,1.237,3.299,2.901,3.732v0.139c0,5.715,3.123,10.706,7.742,13.389v4.029
	c0,1.604-1.303,2.904-2.902,2.904h-4.84v-1.361c1.905-1.156,2.904-3.018,2.904-5.414c0-2.353-1.589-5.098-4.625-5.783l-1.181-0.264
	v5.081h-1.936v-5.085l-1.185,0.268c-3.035,0.69-4.623,3.432-4.623,5.783c0,2.396,1,4.258,2.904,5.414v2.43
	C5.032,50.58,2.25,54.605,2.25,59.284v0.966h1.936v-0.966c0-5.011,3.825-9.141,8.709-9.629V60.25h1.936V49.605h2.904V60.25h1.936
	V49.605h1.936c0.395,0,0.772-0.061,1.138-0.152c0.843,4.484,4.782,7.895,9.507,7.895s8.664-3.41,9.505-7.895
	c0.367,0.092,0.747,0.152,1.14,0.152h1.936V60.25h1.936V49.605h2.904V60.25h1.936V49.655c4.883,0.488,8.709,4.618,8.709,9.629v0.966
	h1.936v-0.966C62.25,56.307,61.115,53.598,59.268,51.541z M10.422,44.865c-1.591-0.787-2.365-2.089-2.365-3.971
	c0-1.242,0.66-2.647,1.935-3.42v4.39H15.8v-4.392c1.272,0.771,1.935,2.178,1.935,3.422c0,1.882-0.775,3.184-2.367,3.971
	l-0.537,0.271v2.533h-0.966c-1.005,0-1.977,0.143-2.905,0.38v-2.913L10.422,44.865z M47.734,25.142v-2.494
	c0.267-0.176,0.514-0.364,0.735-0.563c0.126,0.352,0.23,0.812,0.23,1.393C48.7,24.188,48.309,24.807,47.734,25.142z M32.25,23.477
	c-9.688,0-15.479-1.968-15.484-3.867c0.191-0.989,5.82-2.909,15.484-2.909c9.67,0,15.304,1.921,15.484,2.905
	C47.734,21.507,41.943,23.477,32.25,23.477z M31.284,2.234V8.96h1.934V2.234c7.915,0.493,14.229,6.948,14.488,14.926
	c-3.442-1.836-10.671-2.395-15.456-2.395c-4.783,0-12.014,0.559-15.456,2.393C17.053,9.183,23.365,2.728,31.284,2.234z M15.8,23.477
	c0-0.581,0.103-1.041,0.23-1.393c0.22,0.199,0.469,0.388,0.735,0.562v2.494C16.189,24.807,15.8,24.188,15.8,23.477z M18.7,27.348
	v-3.742c4.267,1.627,10.882,1.807,13.55,1.807s9.285-0.18,13.55-1.807v3.742c0,7.471-6.078,13.547-13.55,13.547
	C24.78,40.895,18.7,34.818,18.7,27.348z M32.25,55.412c-3.965,0-7.238-2.998-7.687-6.848c1.137-0.882,1.88-2.247,1.88-3.799V41.69
	c1.795,0.731,3.754,1.14,5.807,1.14s4.012-0.408,5.807-1.14v3.075c0,1.552,0.743,2.917,1.88,3.799
	C39.488,52.414,36.215,55.412,32.25,55.412z M56.492,40.234c0.905,2.709,0.92,5.472,0.92,5.5v4.134
	c-0.998-0.723-2.113-1.3-3.321-1.673c0.829-0.512,1.386-1.418,1.386-2.461c0-1.264-0.815-2.326-1.936-2.727v-8.887h0.332
	L56.492,40.234z M52.571,44.766c0.534,0,0.97,0.432,0.97,0.969s-0.436,0.966-0.97,0.966c-0.532,0-0.966-0.429-0.966-0.966
	S52.039,44.766,52.571,44.766z M47.734,45.734c0-0.028,0.012-2.775,0.889-5.426l2.648-6.188h0.334v8.887
	c-1.122,0.4-1.936,1.463-1.936,2.727c0,0.748,0.291,1.419,0.757,1.936h-2.692V45.734z M33.218,28.314h8.711v-1.936H31.284v9.678
	h1.934V28.314z M19.67,12.83h1.936v1.936H19.67V12.83z M23.541,11.864h1.936V13.8h-1.936V11.864z"/>
<path fill="#FFFFFF" d="M59.268,111.541h0.08v-5.807c0-0.125-0.012-3.091-1.049-6.189l-3.156-7.359h-2.571h-2.569l-3.188,7.436
	c-1.004,3.022-1.015,5.988-1.015,6.113v1.936h-2.905c-1.602,0-2.902-1.301-2.902-2.904v-4.029c4.619-2.683,7.742-7.674,7.742-13.389
	v-0.139c1.662-0.434,2.901-1.934,2.901-3.732c0-1.74-0.657-2.838-1.019-3.319c0.029-0.179,0.053-0.362,0.053-0.552V77.67
	c0-9.606-7.814-17.42-17.42-17.42s-17.42,7.813-17.42,17.42v1.936c0,0.189,0.021,0.373,0.055,0.552
	c-0.365,0.481-1.021,1.579-1.021,3.319c0,1.799,1.237,3.299,2.901,3.732v0.139c0,5.715,3.123,10.706,7.742,13.389v4.029
	c0,1.604-1.303,2.904-2.902,2.904h-4.84v-1.361c1.905-1.156,2.904-3.018,2.904-5.414c0-2.353-1.589-5.098-4.625-5.783l-1.181-0.264
	v5.081h-1.936v-5.085l-1.185,0.268c-3.035,0.69-4.623,3.432-4.623,5.783c0,2.396,1,4.258,2.904,5.414v2.43
	c-3.993,1.842-6.775,5.867-6.775,10.546v0.966h1.936v-0.966c0-5.011,3.825-9.141,8.709-9.629v10.595h1.936v-10.645h2.904v10.645
	h1.936v-10.645h1.936c0.395,0,0.772-0.061,1.138-0.152c0.843,4.484,4.782,7.895,9.507,7.895s8.664-3.41,9.505-7.895
	c0.367,0.092,0.747,0.152,1.14,0.152h1.936v10.645h1.936v-10.645h2.904v10.645h1.936v-10.595c4.883,0.488,8.709,4.618,8.709,9.629
	v0.966h1.936v-0.966C62.25,116.307,61.115,113.598,59.268,111.541z M10.422,104.865c-1.591-0.787-2.365-2.089-2.365-3.971
	c0-1.242,0.66-2.647,1.935-3.42v4.39H15.8v-4.392c1.272,0.771,1.935,2.178,1.935,3.422c0,1.882-0.775,3.184-2.367,3.971
	l-0.537,0.271v2.533h-0.966c-1.005,0-1.977,0.143-2.905,0.38v-2.913L10.422,104.865z M47.734,85.142v-2.494
	c0.267-0.176,0.514-0.364,0.735-0.563c0.126,0.352,0.23,0.812,0.23,1.393C48.7,84.188,48.309,84.807,47.734,85.142z M32.25,83.477
	c-9.688,0-15.479-1.968-15.484-3.867c0.191-0.989,5.82-2.909,15.484-2.909c9.67,0,15.304,1.921,15.484,2.905
	C47.734,81.507,41.943,83.477,32.25,83.477z M31.284,62.234v6.726h1.934v-6.726c7.915,0.493,14.229,6.948,14.488,14.926
	c-3.442-1.836-10.671-2.395-15.456-2.395c-4.783,0-12.014,0.559-15.456,2.393C17.053,69.183,23.365,62.728,31.284,62.234z
	 M15.8,83.477c0-0.581,0.103-1.041,0.23-1.393c0.22,0.199,0.469,0.388,0.735,0.562v2.494C16.189,84.807,15.8,84.188,15.8,83.477z
	 M18.7,87.348v-3.742c4.267,1.627,10.882,1.807,13.55,1.807s9.285-0.18,13.55-1.807v3.742c0,7.471-6.078,13.547-13.55,13.547
	C24.78,100.895,18.7,94.818,18.7,87.348z M32.25,115.412c-3.965,0-7.238-2.998-7.687-6.848c1.137-0.882,1.88-2.247,1.88-3.799
	v-3.075c1.795,0.731,3.754,1.14,5.807,1.14s4.012-0.408,5.807-1.14v3.075c0,1.552,0.743,2.917,1.88,3.799
	C39.488,112.414,36.215,115.412,32.25,115.412z M56.492,100.234c0.905,2.709,0.92,5.472,0.92,5.5v4.134
	c-0.998-0.723-2.113-1.3-3.321-1.673c0.829-0.512,1.386-1.418,1.386-2.461c0-1.264-0.815-2.326-1.936-2.727v-8.887h0.332
	L56.492,100.234z M52.571,104.766c0.534,0,0.97,0.432,0.97,0.969s-0.436,0.966-0.97,0.966c-0.532,0-0.966-0.429-0.966-0.966
	S52.039,104.766,52.571,104.766z M47.734,105.734c0-0.028,0.012-2.775,0.889-5.426l2.648-6.188h0.334v8.887
	c-1.122,0.4-1.936,1.463-1.936,2.727c0,0.748,0.291,1.419,0.757,1.936h-2.692V105.734z M33.218,88.314h8.711v-1.936H31.284v9.678
	h1.934V88.314z M19.67,72.83h1.936v1.936H19.67V72.83z M23.541,71.864h1.936V73.8h-1.936V71.864z"/>
</svg>
