<?xml version="1.0" encoding="utf-8"?>
<!-- Generator: Adobe Illustrator 16.0.2, SVG Export Plug-In . SVG Version: 6.00 Build 0)  -->
<!DOCTYPE svg PUBLIC "-//W3C//DTD SVG 1.1//EN" "http://www.w3.org/Graphics/SVG/1.1/DTD/svg11.dtd">
<svg version="1.1" id="Слой_1" xmlns="http://www.w3.org/2000/svg" xmlns:xlink="http://www.w3.org/1999/xlink" x="0px" y="0px"
	 width="60px" height="120px" viewBox="38.313 0 60 120" enable-background="new 38.313 0 60 120" xml:space="preserve">
<path fill="#D32F2F" d="M93.154,53.41L85.21,34.233c-0.202-0.489-0.762-0.721-1.251-0.519c-0.488,0.203-0.72,0.763-0.518,1.251
	l7.181,17.336l-6.55-1.898c-0.43-0.125-0.889,0.065-1.105,0.458l-3.29,5.974l-7.705-18.603c8.893-1.715,15.631-9.556,15.631-18.941
	C87.604,8.654,78.95,0,68.313,0C57.675,0,49.021,8.654,49.021,19.292c0,4.309,1.42,8.292,3.816,11.506L43.471,53.41
	c-0.141,0.34-0.074,0.73,0.171,1.005c0.245,0.274,0.626,0.383,0.98,0.281l7.728-2.239l3.881,7.048C56.4,59.812,56.722,60,57.069,60
	c0.018,0,0.035,0,0.053-0.001c0.367-0.021,0.69-0.25,0.832-0.59l7.421-17.918c0.203-0.488-0.029-1.048-0.518-1.25
	c-0.489-0.202-1.049,0.029-1.251,0.518l-6.659,16.077l-3.29-5.974c-0.216-0.393-0.676-0.583-1.105-0.458l-6.55,1.898l8.221-19.847
	c3.523,3.769,8.535,6.128,14.089,6.128c0.573,0,1.141-0.027,1.701-0.076l8.658,20.901c0.141,0.34,0.464,0.569,0.832,0.59
	C79.521,60,79.539,60,79.556,60c0.348,0,0.669-0.188,0.839-0.496l3.88-7.048l7.728,2.239c0.354,0.103,0.734-0.007,0.98-0.281
	C93.229,54.141,93.295,53.75,93.154,53.41L93.154,53.41z M50.936,19.292c0-9.582,7.795-17.377,17.377-17.377
	c9.582,0,17.376,7.795,17.376,17.377s-7.795,17.376-17.376,17.376C58.73,36.668,50.936,28.874,50.936,19.292z M79.375,15.697
	c-0.11-0.339-0.4-0.589-0.752-0.648l-6.442-1.081l-3.019-5.793c-0.165-0.317-0.492-0.515-0.849-0.515s-0.684,0.198-0.849,0.515
	l-3.019,5.793l-6.442,1.081c-0.352,0.059-0.642,0.309-0.752,0.648s-0.022,0.712,0.227,0.967l4.577,4.661l-0.963,6.461
	c-0.052,0.353,0.096,0.706,0.384,0.916c0.289,0.209,0.67,0.241,0.99,0.082l5.848-2.912l5.848,2.912
	c0.135,0.067,0.281,0.101,0.427,0.101c0.199,0,0.396-0.062,0.563-0.183c0.289-0.21,0.438-0.563,0.385-0.916l-0.963-6.461
	l4.577-4.662C79.398,16.409,79.486,16.037,79.375,15.697L79.375,15.697z M72.871,20.324c-0.21,0.214-0.308,0.515-0.264,0.812
	l0.763,5.116l-4.63-2.306c-0.135-0.067-0.281-0.101-0.427-0.101s-0.292,0.034-0.427,0.101l-4.63,2.306l0.762-5.116
	c0.044-0.297-0.054-0.598-0.264-0.812l-3.624-3.691l5.101-0.856c0.296-0.049,0.552-0.235,0.69-0.501l2.391-4.586l2.39,4.586
	c0.139,0.267,0.395,0.452,0.691,0.501l5.101,0.856L72.871,20.324z M82.816,20.257c-0.524-0.07-1.005,0.299-1.075,0.824
	c-0.888,6.703-6.662,11.758-13.429,11.758c-7.47,0-13.547-6.077-13.547-13.547c0-7.47,6.077-13.547,13.547-13.547
	c6.768,0,12.541,5.055,13.429,11.758c0.069,0.524,0.551,0.894,1.075,0.824c0.524-0.069,0.893-0.551,0.823-1.075
	C82.626,9.6,76.037,3.83,68.313,3.83c-8.526,0-15.462,6.936-15.462,15.462c0,8.526,6.936,15.461,15.462,15.461
	c7.724,0,14.313-5.77,15.327-13.421C83.709,20.808,83.34,20.327,82.816,20.257z"/>
<path fill="#FFFFFF" d="M93.154,113.41L85.21,94.233c-0.202-0.489-0.762-0.721-1.251-0.519c-0.488,0.203-0.72,0.763-0.518,1.251
	l7.181,17.336l-6.55-1.898c-0.43-0.125-0.889,0.065-1.105,0.458l-3.29,5.974l-7.705-18.603c8.893-1.715,15.631-9.556,15.631-18.941
	C87.604,68.654,78.95,60,68.313,60c-10.637,0-19.292,8.654-19.292,19.292c0,4.309,1.42,8.292,3.816,11.506l-9.366,22.612
	c-0.141,0.34-0.074,0.73,0.171,1.005c0.245,0.274,0.626,0.383,0.98,0.281l7.728-2.239l3.881,7.048
	C56.4,119.812,56.722,120,57.069,120c0.018,0,0.035,0,0.053-0.001c0.367-0.021,0.69-0.25,0.832-0.59l7.421-17.918
	c0.203-0.488-0.029-1.048-0.518-1.25c-0.489-0.202-1.049,0.029-1.251,0.518l-6.659,16.077l-3.29-5.974
	c-0.216-0.393-0.676-0.583-1.105-0.458l-6.55,1.898l8.221-19.847c3.523,3.769,8.535,6.128,14.089,6.128
	c0.573,0,1.141-0.027,1.701-0.076l8.658,20.901c0.141,0.34,0.464,0.569,0.832,0.59c0.018,0,0.036,0.001,0.053,0.001
	c0.348,0,0.669-0.188,0.839-0.496l3.88-7.048l7.728,2.239c0.354,0.103,0.734-0.007,0.98-0.281
	C93.229,114.141,93.295,113.75,93.154,113.41L93.154,113.41z M50.936,79.292c0-9.582,7.795-17.377,17.377-17.377
	c9.582,0,17.376,7.795,17.376,17.377s-7.795,17.376-17.376,17.376C58.73,96.668,50.936,88.874,50.936,79.292z M79.375,75.697
	c-0.11-0.339-0.4-0.589-0.752-0.648l-6.442-1.081l-3.019-5.793c-0.165-0.317-0.492-0.515-0.849-0.515s-0.684,0.198-0.849,0.515
	l-3.019,5.793l-6.442,1.081c-0.352,0.059-0.642,0.309-0.752,0.648s-0.022,0.712,0.227,0.967l4.577,4.661l-0.963,6.461
	c-0.052,0.353,0.096,0.706,0.384,0.916c0.289,0.209,0.67,0.241,0.99,0.082l5.848-2.912l5.848,2.912
	c0.135,0.067,0.281,0.101,0.427,0.101c0.199,0,0.396-0.062,0.563-0.183c0.289-0.21,0.438-0.563,0.385-0.916l-0.963-6.461
	l4.577-4.662C79.398,76.409,79.486,76.037,79.375,75.697L79.375,75.697z M72.871,80.324c-0.21,0.214-0.308,0.515-0.264,0.812
	l0.763,5.116l-4.63-2.306c-0.135-0.067-0.281-0.101-0.427-0.101s-0.292,0.034-0.427,0.101l-4.63,2.306l0.762-5.116
	c0.044-0.297-0.054-0.598-0.264-0.812l-3.624-3.691l5.101-0.856c0.296-0.049,0.552-0.235,0.69-0.501l2.391-4.586l2.39,4.586
	c0.139,0.267,0.395,0.452,0.691,0.501l5.101,0.856L72.871,80.324z M82.816,80.257c-0.524-0.07-1.005,0.299-1.075,0.824
	c-0.888,6.703-6.662,11.758-13.429,11.758c-7.47,0-13.547-6.077-13.547-13.547c0-7.47,6.077-13.547,13.547-13.547
	c6.768,0,12.541,5.055,13.429,11.758c0.069,0.524,0.551,0.894,1.075,0.824c0.524-0.069,0.893-0.551,0.823-1.075
	C82.626,69.6,76.037,63.83,68.313,63.83c-8.526,0-15.462,6.936-15.462,15.462c0,8.526,6.936,15.461,15.462,15.461
	c7.724,0,14.313-5.77,15.327-13.421C83.709,80.808,83.34,80.327,82.816,80.257z"/>
</svg>
