<?xml version="1.0" encoding="utf-8"?>
<!-- Generator: Adobe Illustrator 16.0.2, SVG Export Plug-In . SVG Version: 6.00 Build 0)  -->
<!DOCTYPE svg PUBLIC "-//W3C//DTD SVG 1.1//EN" "http://www.w3.org/Graphics/SVG/1.1/DTD/svg11.dtd">
<svg version="1.1" id="Capa_1" xmlns="http://www.w3.org/2000/svg" xmlns:xlink="http://www.w3.org/1999/xlink" x="0px" y="0px"
	 width="60px" height="120px" viewBox="0 0.356 60 120" enable-background="new 0 0.356 60 120" xml:space="preserve">
<path fill="#D33131" d="M30,18.151c3.102,0,5.625-2.526,5.625-5.632c0-1.121-0.332-2.162-0.896-3.039l0.887-6.216
	c0.052-0.367-0.115-0.729-0.429-0.927c-0.312-0.196-0.71-0.192-1.02,0.013l-1.929,1.288l-1.4-2.804
	c-0.317-0.636-1.359-0.636-1.677,0l-1.401,2.804L25.832,2.35c-0.309-0.207-0.708-0.21-1.02-0.013
	c-0.313,0.197-0.481,0.56-0.429,0.927l0.887,6.216c-0.563,0.877-0.896,1.918-0.896,3.039C24.375,15.625,26.898,18.151,30,18.151z
	 M30,16.274c-2.068,0-3.75-1.685-3.75-3.755c0-2.071,1.682-3.755,3.75-3.755s3.75,1.684,3.75,3.755
	C33.75,14.589,32.068,16.274,30,16.274z M27.604,5.789c0.224,0.15,0.501,0.195,0.761,0.126c0.26-0.068,0.478-0.247,0.598-0.487
	L30,3.353l1.036,2.075c0.12,0.24,0.338,0.419,0.598,0.487c0.262,0.07,0.538,0.022,0.761-0.126l1.068-0.712l-0.389,2.73
	c-0.885-0.581-1.94-0.92-3.074-0.92s-2.189,0.34-3.073,0.92l-0.389-2.73L27.604,5.789z M42.188,54.765c0-0.518-0.42-0.98-0.938-0.98
	h-2.894l-0.803-8.811c0.258-0.058,0.608-0.084,0.942-0.045c0.383,0.045,0.788,0.198,1.217,0.354l0.282,0.105
	c1.246,0.443,2.542,0.742,3.857,0.888c0.129,0.014,0.326,0.037,0.559,0.037c0.503,0,1.17-0.101,1.675-0.599
	c0.315-0.311,0.472-0.686,0.575-0.977c0.261-0.745,0.375-1.558,0.329-2.348c-0.226-3.85-1.542-7.369-3.91-10.459
	c-0.655-0.855-1.385-1.658-2.09-2.433c-1.172-1.291-2.267-2.531-3.037-3.948l5.594-2.801c0.09-0.045,0.173-0.104,0.244-0.176
	L50.351,16c0.367-0.367,0.367-0.96,0-1.327l-3.75-3.755c-0.366-0.367-0.959-0.367-1.326,0l-6.419,6.406l-7.15,2.665h-3.411
	l-7.15-2.665l-6.419-6.417c-0.366-0.367-0.959-0.361-1.326,0.005L9.65,14.67c-0.366,0.367-0.366,0.962,0,1.328l6.563,6.573
	c0.071,0.071,0.154,0.131,0.244,0.177l5.091,2.549c-0.073,2.929-1.816,6.098-3.383,8.917l-0.389,0.7
	c-1.867,3.38-3.309,6.988-4.291,10.723c-0.114,0.436,0.097,0.892,0.502,1.086c0.13,0.062,0.269,0.092,0.404,0.092
	c0.291,0,0.574-0.136,0.755-0.382c0.725-0.984,1.607-1.823,2.626-2.495c0.285-0.188,0.603-0.398,0.934-0.395
	c0.361,0.009,0.767,0.364,1.197,0.739c0.187,0.162,0.374,0.325,0.564,0.47c0.753,0.577,1.347,0.683,1.938,0.679l-0.76,8.354h-1.958
	c-0.518,0-0.938,0.462-0.938,0.98v3.714H0v1.877h19.688c0.518,0,0.938-0.378,0.938-0.897v-3.797H22.5h5.625h3.75H37.5h2.813v3.797
	c0,0.518,0.42,0.897,0.938,0.897H60v-1.877H42.188V54.765z M41.588,33.073c2.137,2.787,3.323,5.958,3.527,9.426
	c0.032,0.544-0.046,1.103-0.227,1.616c-0.069,0.198-0.109,0.249-0.12,0.259c-0.005,0.004-0.113,0.101-0.712,0.036
	c-1.17-0.129-2.325-0.395-3.436-0.79l-0.268-0.097c-0.511-0.187-1.04-0.379-1.642-0.449c-0.336-0.04-0.829-0.045-1.33,0.038
	l-0.818-9v-7.188c0.854,1.416,1.956,2.644,3.038,3.834C40.279,31.507,40.981,32.28,41.588,33.073z M31.459,21.865L30,25.762
	l-1.459-3.898L31.459,21.865L31.459,21.865z M21.604,43.261c-0.159-0.123-0.315-0.259-0.471-0.396
	c-0.599-0.522-1.345-1.172-2.377-1.199c-0.81-0.039-1.502,0.365-2.016,0.704c-0.126,0.083-0.25,0.168-0.372,0.255
	c0.825-2.347,1.846-4.625,3.048-6.803l0.386-0.696c1.457-2.619,3.216-5.788,3.575-8.915l0.061,0.03l0.003,7.785l-0.865,9.542
	C22.136,43.597,21.982,43.55,21.604,43.261z M29.167,53.785L30,45.854l0.833,7.93L29.167,53.785L29.167,53.785z M32.719,53.785
	l-1.787-16.976c-0.051-0.478-0.453-0.83-0.933-0.83s-0.882,0.348-0.933,0.825l-1.785,16.98h-3.755l1.786-19.673v-8.449
	c0-0.356-0.201-0.681-0.519-0.841l-7.364-3.687l-5.792-5.799l2.424-2.428l5.899,5.908c0.095,0.095,0.208,0.168,0.334,0.215
	l6.025,2.262l-0.011,0.005l2.813,7.511c0.137,0.366,0.486,0.609,0.877,0.609s0.741-0.243,0.878-0.609l2.813-7.511l-0.011-0.005
	l6.025-2.262c0.125-0.047,0.239-0.12,0.333-0.215l5.899-5.908l2.424,2.428l-5.792,5.799l-7.364,3.687
	c-0.318,0.16-0.519,0.485-0.519,0.841l0.004,8.514l1.782,19.609H32.719z M55.313,23.784v-1.877c-4.652,0-8.438,3.714-8.438,8.408
	h1.875C48.75,26.559,51.694,23.784,55.313,23.784z M10.313,56.601h1.875C12.188,41.58,6.834,30.356,0,30.356v1.877
	C5.589,32.233,10.313,43.458,10.313,56.601z M7.5,21.907v1.877c3.619,0,6.563,3.714,6.563,7.469h1.875
	C15.938,26.559,12.152,21.907,7.5,21.907z M48.75,52.846h1.875c0-8.449,4.206-15.918,9.375-15.918V35.05
	C53.691,35.05,48.75,42.519,48.75,52.846z M59.063,27.54v-1.877c-4.652,0-8.438,3.713-8.438,7.469H52.5
	C52.5,30.314,55.444,27.54,59.063,27.54z M3.75,54.723h1.875c0-2.816-2.523-5.591-5.625-5.591v1.878
	C2.068,51.01,3.75,52.846,3.75,54.723z M53.438,3.131h1.875v1.877h-1.875V3.131z M42.188,25.662h1.875v1.877h-1.875V25.662z
	 M51.563,8.764h1.875v1.877h-1.875V8.764z M57.188,8.764h1.875v1.877h-1.875V8.764z M55.313,17.213h1.875v1.877h-1.875V17.213z
	 M57.188,21.907h1.875v1.877h-1.875V21.907z M55.313,49.132h1.875v1.878h-1.875V49.132z M48.75,35.989h1.875v1.877H48.75V35.989z
	 M48.75,54.765h1.875v1.878H48.75V54.765z M44.063,5.008h1.875v1.878h-1.875V5.008z M11.25,5.008h1.875v1.878H11.25V5.008z
	 M5.625,10.641H7.5v1.878H5.625V10.641z M3.75,5.008h1.875v1.878H3.75V5.008z M14.063,33.172h1.875v1.877h-1.875V33.172z
	 M6.563,27.54h1.875v1.877H6.563V27.54z M0.938,17.213h1.875v1.877H0.938V17.213z M0.938,39.744h1.875v1.877H0.938V39.744z"/>
<path fill="#FFFFFF" d="M30,78.152c3.102,0,5.625-2.526,5.625-5.632c0-1.121-0.332-2.162-0.896-3.039l0.887-6.216
	c0.052-0.367-0.115-0.729-0.429-0.927c-0.312-0.196-0.71-0.192-1.02,0.013l-1.929,1.288l-1.4-2.804
	c-0.317-0.636-1.359-0.636-1.677,0l-1.401,2.804l-1.929-1.288c-0.309-0.207-0.708-0.21-1.02-0.013
	c-0.313,0.197-0.481,0.56-0.429,0.927l0.887,6.216c-0.563,0.877-0.896,1.918-0.896,3.039C24.375,75.625,26.898,78.152,30,78.152z
	 M30,76.274c-2.068,0-3.75-1.685-3.75-3.755c0-2.071,1.682-3.755,3.75-3.755s3.75,1.684,3.75,3.755
	C33.75,74.59,32.068,76.274,30,76.274z M27.604,65.79c0.224,0.15,0.501,0.195,0.761,0.126c0.26-0.068,0.478-0.247,0.598-0.487
	L30,63.353l1.036,2.075c0.12,0.24,0.338,0.419,0.598,0.487c0.262,0.07,0.538,0.022,0.761-0.126l1.068-0.712l-0.389,2.73
	c-0.885-0.581-1.94-0.92-3.074-0.92s-2.189,0.34-3.073,0.92l-0.389-2.73L27.604,65.79z M42.188,114.765
	c0-0.518-0.42-0.98-0.938-0.98h-2.894l-0.803-8.811c0.258-0.058,0.608-0.084,0.942-0.045c0.383,0.045,0.788,0.198,1.217,0.354
	l0.282,0.105c1.246,0.443,2.542,0.742,3.857,0.888c0.129,0.014,0.326,0.037,0.559,0.037c0.503,0,1.17-0.101,1.675-0.599
	c0.315-0.311,0.472-0.686,0.575-0.977c0.261-0.745,0.375-1.558,0.329-2.348c-0.226-3.85-1.542-7.369-3.91-10.459
	c-0.655-0.855-1.385-1.658-2.09-2.433c-1.172-1.291-2.267-2.531-3.037-3.948l5.594-2.801c0.09-0.045,0.173-0.104,0.244-0.176
	l6.563-6.572c0.367-0.367,0.367-0.96,0-1.327l-3.75-3.755c-0.366-0.367-0.959-0.367-1.326,0l-6.419,6.406l-7.15,2.665h-3.411
	l-7.15-2.665l-6.419-6.417c-0.366-0.367-0.959-0.361-1.326,0.005l-3.75,3.758c-0.366,0.367-0.366,0.962,0,1.328l6.563,6.573
	c0.071,0.071,0.154,0.131,0.244,0.177l5.091,2.549c-0.073,2.929-1.816,6.098-3.383,8.917l-0.389,0.7
	c-1.867,3.38-3.309,6.988-4.291,10.723c-0.114,0.436,0.097,0.892,0.502,1.086c0.13,0.062,0.269,0.092,0.404,0.092
	c0.291,0,0.574-0.136,0.755-0.382c0.725-0.984,1.607-1.823,2.626-2.495c0.285-0.188,0.603-0.398,0.934-0.395
	c0.361,0.009,0.767,0.364,1.197,0.739c0.187,0.162,0.374,0.325,0.564,0.47c0.753,0.577,1.347,0.683,1.938,0.679l-0.76,8.354h-1.958
	c-0.518,0-0.938,0.462-0.938,0.98v3.714H0v1.877h19.688c0.518,0,0.938-0.378,0.938-0.897v-3.797H22.5h5.625h3.75H37.5h2.813v3.797
	c0,0.518,0.42,0.897,0.938,0.897H60v-1.877H42.188V114.765z M41.588,93.073c2.137,2.787,3.323,5.958,3.527,9.426
	c0.032,0.544-0.046,1.103-0.227,1.616c-0.069,0.198-0.109,0.249-0.12,0.259c-0.005,0.004-0.113,0.101-0.712,0.036
	c-1.17-0.129-2.325-0.395-3.436-0.79l-0.268-0.097c-0.511-0.187-1.04-0.379-1.642-0.449c-0.336-0.04-0.829-0.045-1.33,0.038
	l-0.818-9v-7.188c0.854,1.416,1.956,2.644,3.038,3.834C40.279,91.507,40.981,92.28,41.588,93.073z M31.459,81.866L30,85.763
	l-1.459-3.898L31.459,81.866L31.459,81.866z M21.604,103.261c-0.159-0.123-0.315-0.259-0.471-0.396
	c-0.599-0.522-1.345-1.172-2.377-1.199c-0.81-0.039-1.502,0.365-2.016,0.704c-0.126,0.083-0.25,0.168-0.372,0.255
	c0.825-2.347,1.846-4.625,3.048-6.803l0.386-0.696c1.457-2.619,3.216-5.788,3.575-8.915l0.061,0.03l0.003,7.785l-0.865,9.542
	C22.136,103.597,21.982,103.55,21.604,103.261z M29.167,113.785L30,105.854l0.833,7.93L29.167,113.785L29.167,113.785z
	 M32.719,113.785L30.932,96.81c-0.051-0.478-0.453-0.83-0.933-0.83s-0.882,0.348-0.933,0.825l-1.785,16.98h-3.755l1.786-19.673
	v-8.449c0-0.356-0.201-0.681-0.519-0.841l-7.364-3.687l-5.792-5.799l2.424-2.428l5.899,5.908c0.095,0.095,0.208,0.168,0.334,0.215
	l6.025,2.262l-0.011,0.005l2.813,7.511c0.137,0.366,0.486,0.609,0.877,0.609s0.741-0.243,0.878-0.609l2.813-7.511l-0.011-0.005
	l6.025-2.262c0.125-0.047,0.239-0.12,0.333-0.215l5.899-5.908l2.424,2.428l-5.792,5.799l-7.364,3.687
	c-0.318,0.16-0.519,0.485-0.519,0.841l0.004,8.514l1.782,19.609H32.719z M55.313,83.785v-1.877c-4.652,0-8.438,3.714-8.438,8.408
	h1.875C48.75,86.56,51.694,83.785,55.313,83.785z M10.313,116.602h1.875c0-15.021-5.353-26.245-12.188-26.245v1.877
	C5.589,92.234,10.313,103.458,10.313,116.602z M7.5,81.907v1.877c3.619,0,6.563,3.714,6.563,7.469h1.875
	C15.938,86.56,12.152,81.907,7.5,81.907z M48.75,112.846h1.875c0-8.449,4.206-15.918,9.375-15.918V95.05
	C53.691,95.05,48.75,102.52,48.75,112.846z M59.063,87.54v-1.877c-4.652,0-8.438,3.713-8.438,7.469H52.5
	C52.5,90.315,55.444,87.54,59.063,87.54z M3.75,114.724h1.875c0-2.816-2.523-5.591-5.625-5.591v1.878
	C2.068,111.01,3.75,112.846,3.75,114.724z M53.438,63.131h1.875v1.877h-1.875V63.131z M42.188,85.663h1.875v1.877h-1.875V85.663z
	 M51.563,68.764h1.875v1.877h-1.875V68.764z M57.188,68.764h1.875v1.877h-1.875V68.764z M55.313,77.213h1.875v1.877h-1.875V77.213z
	 M57.188,81.907h1.875v1.877h-1.875V81.907z M55.313,109.132h1.875v1.878h-1.875V109.132z M48.75,95.989h1.875v1.877H48.75V95.989z
	 M48.75,114.765h1.875v1.878H48.75V114.765z M44.063,65.009h1.875v1.878h-1.875V65.009z M11.25,65.009h1.875v1.878H11.25V65.009z
	 M5.625,70.642H7.5v1.878H5.625V70.642z M3.75,65.009h1.875v1.878H3.75V65.009z M14.063,93.173h1.875v1.877h-1.875V93.173z
	 M6.563,87.54h1.875v1.877H6.563V87.54z M0.938,77.213h1.875v1.877H0.938V77.213z M0.938,99.745h1.875v1.877H0.938V99.745z"/>
</svg>
