<?xml version="1.0" encoding="utf-8"?>
<!-- Generator: Adobe Illustrator 16.0.2, SVG Export Plug-In . SVG Version: 6.00 Build 0)  -->
<!DOCTYPE svg PUBLIC "-//W3C//DTD SVG 1.1//EN" "http://www.w3.org/Graphics/SVG/1.1/DTD/svg11.dtd">
<svg version="1.1" id="Capa_1" xmlns="http://www.w3.org/2000/svg" xmlns:xlink="http://www.w3.org/1999/xlink" x="0px" y="0px"
	 width="62px" height="120px" viewBox="225.001 226.001 62 120" enable-background="new 225.001 226.001 62 120"
	 xml:space="preserve">
<path fill="#D33131" d="M284.556,247.193c-0.437-0.252-1.004-0.119-1.269,0.298c-0.613,0.968-1.336,1.748-2.129,2.313
	c0.063-0.967-0.188-1.95-0.747-2.793c-0.874-1.313-2.331-1.995-3.902-1.821c-1.286,0.142-2.414,1.067-2.873,2.358
	c-0.501,1.406-0.107,2.885,1.052,3.957c0.671,0.621,1.687,1.006,2.814,1.099c-0.896,0.743-1.829,1.084-2.617,1.229
	c-0.316-0.603-0.664-1.194-1.046-1.77c-2.078-3.134-5.045-5.749-8.58-7.562c-0.449-0.23-1.01-0.07-1.251,0.358
	s-0.073,0.962,0.376,1.193c6.717,3.444,10.89,9.86,10.89,16.743c0,10.651-9.751,19.316-21.735,19.316
	c-9.044,0-17.235-5.063-20.382-12.597c-0.112-0.271-0.357-0.47-0.655-0.533l-3.653-0.785v-4.99h2.039
	c0.501,0,0.911-0.382,0.923-0.859c0.103-4.031,1.591-7.868,4.304-11.097c0.172-0.205,0.239-0.473,0.184-0.729l-1.221-5.611
	l5.532,1.932c0.268,0.093,0.567,0.063,0.809-0.081c3.588-2.147,7.779-3.282,12.121-3.282c2.265,0,4.496,0.308,6.633,0.916
	c0.489,0.139,1.003-0.126,1.148-0.592c0.146-0.466-0.132-0.957-0.62-1.096c-2.309-0.656-4.717-0.989-7.161-0.989
	c-4.533,0-8.919,1.148-12.714,3.324l-6.671-2.331c-0.667-0.233-1.367,0.342-1.222,1.006l1.471,6.761
	c-2.609,3.23-4.118,6.998-4.398,10.967h-2.08c-0.51,0-0.923,0.395-0.923,0.881v6.576c0,0.411,0.299,0.769,0.721,0.859l3.905,0.838
	c1.098,2.465,2.693,4.696,4.703,6.609l-2.219,2.539c-0.327,0.374-0.274,0.929,0.118,1.24l6.054,4.812
	c0.387,0.307,0.979,0.255,1.301-0.113l2.968-3.396c2.826,1.043,5.865,1.584,8.985,1.584c3.178,0,6.21-0.566,8.98-1.59l2.974,3.402
	c0.322,0.369,0.914,0.42,1.301,0.113l6.055-4.812c0.392-0.312,0.444-0.866,0.118-1.24l-2.228-2.549
	c3.956-3.771,6.382-8.838,6.382-14.403c0-2.512-0.503-4.99-1.467-7.321c1.455-0.35,3.191-1.215,4.598-3.224
	c1.378-0.468,3.138-1.518,4.617-3.85C285.132,247.986,284.992,247.444,284.556,247.193z M240.757,283.883l-4.636-3.683l1.569-1.796
	c0.716,0.579,1.472,1.125,2.271,1.629c0.907,0.571,1.85,1.081,2.824,1.528L240.757,283.883z M270.955,280.2l-4.635,3.683
	l-2.035-2.327c1.854-0.853,3.565-1.917,5.095-3.158L270.955,280.2z M279.031,250.76c-0.137,0.028-0.274,0.051-0.414,0.068
	c-1.224,0.151-2.21-0.187-2.645-0.588c-0.913-0.844-0.716-1.768-0.588-2.125c0.228-0.64,0.765-1.112,1.337-1.175
	c0.089-0.01,0.177-0.015,0.265-0.015c0.754,0,1.424,0.366,1.864,1.03C279.316,248.654,279.525,249.758,279.031,250.76z
	 M236.791,256.75c-1.596,0-2.894,1.237-2.894,2.759c0,0.486,0.414,0.881,0.923,0.881c0.51,0,0.924-0.395,0.924-0.881
	c0-0.55,0.469-0.998,1.046-0.998s1.047,0.448,1.047,0.998c0,0.486,0.414,0.881,0.923,0.881c0.51,0,0.924-0.395,0.924-0.881
	C239.685,257.987,238.387,256.75,236.791,256.75z M254.523,226.001c-3.769,0-6.834,2.924-6.834,6.517
	c0,3.594,3.066,6.517,6.834,6.517c3.769,0,6.835-2.923,6.835-6.517C261.358,228.925,258.292,226.001,254.523,226.001z
	 M254.523,237.274c-2.75,0-4.987-2.134-4.987-4.756s2.237-4.755,4.987-4.755c2.75,0,4.987,2.133,4.987,4.755
	C259.511,235.141,257.273,237.274,254.523,237.274z M257.147,230.017c-0.361-0.344-0.946-0.344-1.307,0l-1.566,1.494l-2.414-0.768
	c-0.484-0.154-1.007,0.096-1.168,0.558c-0.161,0.461,0.1,0.96,0.584,1.114l2.955,0.939c0.329,0.104,0.7,0.021,0.945-0.213
	l1.971-1.879C257.508,230.918,257.508,230.36,257.147,230.017z M264.375,236.334c-0.51,0-0.924,0.394-0.924,0.88v1.879
	c0,0.486,0.414,0.881,0.924,0.881s0.924-0.395,0.924-0.881v-1.879C265.299,236.729,264.885,236.334,264.375,236.334z
	 M264.375,232.577c-0.51,0-0.924,0.394-0.924,0.88v0.939c0,0.486,0.414,0.881,0.924,0.881s0.924-0.395,0.924-0.881v-0.939
	C265.299,232.971,264.885,232.577,264.375,232.577z M270.286,241.971c-0.511,0-0.924,0.395-0.924,0.881v1.878
	c0,0.486,0.413,0.881,0.924,0.881c0.51,0,0.923-0.395,0.923-0.881v-1.878C271.209,242.365,270.796,241.971,270.286,241.971z
	 M270.286,238.213c-0.511,0-0.924,0.394-0.924,0.88v0.939c0,0.486,0.413,0.881,0.924,0.881c0.51,0,0.923-0.395,0.923-0.881v-0.939
	C271.209,238.607,270.796,238.213,270.286,238.213z M239.747,239.152c-0.51,0-0.923,0.395-0.923,0.881v1.879
	c0,0.486,0.413,0.88,0.923,0.88s0.923-0.394,0.923-0.88v-1.879C240.67,239.547,240.257,239.152,239.747,239.152z M239.747,235.395
	c-0.51,0-0.923,0.395-0.923,0.881v0.939c0,0.486,0.413,0.881,0.923,0.881s0.923-0.395,0.923-0.881v-0.939
	C240.67,235.79,240.257,235.395,239.747,235.395z M244.672,233.516c-0.51,0-0.924,0.395-0.924,0.881v1.879
	c0,0.486,0.414,0.88,0.924,0.88s0.923-0.394,0.923-0.88v-1.879C245.596,233.911,245.183,233.516,244.672,233.516z M244.672,229.759
	c-0.51,0-0.924,0.394-0.924,0.88v0.939c0,0.486,0.414,0.881,0.924,0.881s0.923-0.395,0.923-0.881v-0.939
	C245.596,230.153,245.183,229.759,244.672,229.759z M260.804,247.607h-12.561c-0.51,0-0.923,0.395-0.923,0.881v3.757
	c0,0.486,0.414,0.881,0.923,0.881h12.561c0.511,0,0.924-0.395,0.924-0.881v-3.757C261.728,248.001,261.314,247.607,260.804,247.607z
	 M259.88,251.365h-10.713v-1.997h10.713V251.365z"/>
<path fill="#FFFFFF" d="M284.556,307.193c-0.437-0.252-1.004-0.119-1.269,0.297c-0.613,0.969-1.336,1.748-2.129,2.314
	c0.063-0.968-0.188-1.95-0.747-2.793c-0.874-1.314-2.331-1.995-3.902-1.821c-1.286,0.142-2.414,1.067-2.873,2.358
	c-0.501,1.406-0.107,2.885,1.052,3.957c0.671,0.62,1.687,1.006,2.814,1.099c-0.896,0.743-1.829,1.084-2.617,1.229
	c-0.316-0.604-0.664-1.193-1.046-1.77c-2.078-3.134-5.045-5.749-8.58-7.562c-0.449-0.23-1.01-0.069-1.251,0.358
	s-0.073,0.963,0.376,1.193c6.717,3.443,10.89,9.859,10.89,16.742c0,10.651-9.751,19.316-21.735,19.316
	c-9.044,0-17.235-5.063-20.382-12.597c-0.112-0.271-0.357-0.47-0.655-0.533l-3.653-0.785v-4.99h2.039
	c0.501,0,0.911-0.382,0.923-0.859c0.103-4.031,1.591-7.868,4.304-11.097c0.172-0.205,0.239-0.473,0.184-0.729l-1.221-5.61
	l5.532,1.932c0.268,0.094,0.567,0.063,0.809-0.081c3.588-2.147,7.779-3.282,12.121-3.282c2.265,0,4.496,0.309,6.633,0.916
	c0.489,0.14,1.003-0.125,1.148-0.592c0.146-0.466-0.132-0.957-0.62-1.096c-2.309-0.656-4.717-0.989-7.161-0.989
	c-4.533,0-8.919,1.147-12.714,3.323l-6.671-2.33c-0.667-0.232-1.367,0.342-1.222,1.006l1.471,6.761
	c-2.609,3.23-4.118,6.998-4.398,10.967h-2.08c-0.51,0-0.923,0.395-0.923,0.881v6.576c0,0.411,0.299,0.769,0.721,0.859l3.905,0.838
	c1.098,2.465,2.693,4.696,4.703,6.609l-2.219,2.539c-0.327,0.374-0.274,0.929,0.118,1.24l6.054,4.812
	c0.387,0.307,0.979,0.255,1.301-0.113l2.968-3.396c2.826,1.043,5.865,1.584,8.985,1.584c3.178,0,6.21-0.566,8.98-1.59l2.974,3.402
	c0.322,0.369,0.914,0.42,1.301,0.113l6.055-4.812c0.392-0.312,0.444-0.866,0.118-1.24l-2.228-2.549
	c3.956-3.771,6.382-8.838,6.382-14.403c0-2.512-0.503-4.99-1.467-7.32c1.455-0.351,3.191-1.215,4.598-3.225
	c1.378-0.467,3.138-1.518,4.617-3.85C285.132,307.986,284.992,307.444,284.556,307.193z M240.757,343.883l-4.636-3.683l1.569-1.796
	c0.716,0.579,1.472,1.125,2.271,1.629c0.907,0.571,1.85,1.081,2.824,1.528L240.757,343.883z M270.955,340.2l-4.635,3.683
	l-2.035-2.327c1.854-0.853,3.565-1.917,5.095-3.158L270.955,340.2z M279.031,310.76c-0.137,0.028-0.274,0.051-0.414,0.068
	c-1.224,0.151-2.21-0.187-2.645-0.588c-0.913-0.844-0.716-1.768-0.588-2.125c0.228-0.641,0.765-1.112,1.337-1.176
	c0.089-0.01,0.177-0.015,0.265-0.015c0.754,0,1.424,0.366,1.864,1.03C279.316,308.654,279.525,309.758,279.031,310.76z
	 M236.791,316.75c-1.596,0-2.894,1.237-2.894,2.759c0,0.486,0.414,0.881,0.923,0.881c0.51,0,0.924-0.395,0.924-0.881
	c0-0.55,0.469-0.998,1.046-0.998s1.047,0.448,1.047,0.998c0,0.486,0.414,0.881,0.923,0.881c0.51,0,0.924-0.395,0.924-0.881
	C239.685,317.987,238.387,316.75,236.791,316.75z M254.523,286.001c-3.769,0-6.834,2.924-6.834,6.517
	c0,3.594,3.066,6.518,6.834,6.518c3.769,0,6.835-2.924,6.835-6.518C261.358,288.925,258.292,286.001,254.523,286.001z
	 M254.523,297.273c-2.75,0-4.987-2.133-4.987-4.756c0-2.621,2.237-4.755,4.987-4.755c2.75,0,4.987,2.134,4.987,4.755
	C259.511,295.141,257.273,297.273,254.523,297.273z M257.147,290.017c-0.361-0.344-0.946-0.344-1.307,0l-1.566,1.494l-2.414-0.768
	c-0.484-0.153-1.007,0.096-1.168,0.558c-0.161,0.461,0.1,0.96,0.584,1.113l2.955,0.939c0.329,0.104,0.7,0.021,0.945-0.213
	l1.971-1.879C257.508,290.918,257.508,290.36,257.147,290.017z M264.375,296.334c-0.51,0-0.924,0.395-0.924,0.881v1.879
	c0,0.486,0.414,0.881,0.924,0.881s0.924-0.395,0.924-0.881v-1.879C265.299,296.729,264.885,296.334,264.375,296.334z
	 M264.375,292.577c-0.51,0-0.924,0.394-0.924,0.88v0.939c0,0.486,0.414,0.881,0.924,0.881s0.924-0.395,0.924-0.881v-0.939
	C265.299,292.971,264.885,292.577,264.375,292.577z M270.286,301.971c-0.511,0-0.924,0.395-0.924,0.881v1.879
	c0,0.486,0.413,0.881,0.924,0.881c0.51,0,0.923-0.395,0.923-0.881v-1.879C271.209,302.365,270.796,301.971,270.286,301.971z
	 M270.286,298.213c-0.511,0-0.924,0.395-0.924,0.881v0.939c0,0.486,0.413,0.881,0.924,0.881c0.51,0,0.923-0.395,0.923-0.881v-0.939
	C271.209,298.607,270.796,298.213,270.286,298.213z M239.747,299.152c-0.51,0-0.923,0.395-0.923,0.881v1.879
	c0,0.486,0.413,0.881,0.923,0.881s0.923-0.395,0.923-0.881v-1.879C240.67,299.547,240.257,299.152,239.747,299.152z
	 M239.747,295.395c-0.51,0-0.923,0.395-0.923,0.881v0.939c0,0.486,0.413,0.881,0.923,0.881s0.923-0.395,0.923-0.881v-0.939
	C240.67,295.789,240.257,295.395,239.747,295.395z M244.672,293.516c-0.51,0-0.924,0.395-0.924,0.881v1.879
	c0,0.486,0.414,0.881,0.924,0.881s0.923-0.395,0.923-0.881v-1.879C245.596,293.91,245.183,293.516,244.672,293.516z
	 M244.672,289.759c-0.51,0-0.924,0.394-0.924,0.88v0.939c0,0.486,0.414,0.881,0.924,0.881s0.923-0.395,0.923-0.881v-0.939
	C245.596,290.152,245.183,289.759,244.672,289.759z M260.804,307.607h-12.561c-0.51,0-0.923,0.395-0.923,0.881v3.757
	c0,0.486,0.414,0.881,0.923,0.881h12.561c0.511,0,0.924-0.395,0.924-0.881v-3.757C261.728,308.002,261.314,307.607,260.804,307.607z
	 M259.88,311.365h-10.713v-1.997h10.713V311.365z"/>
</svg>
