<?xml version="1.0" encoding="utf-8"?>
<!-- Generator: Adobe Illustrator 16.0.2, SVG Export Plug-In . SVG Version: 6.00 Build 0)  -->
<!DOCTYPE svg PUBLIC "-//W3C//DTD SVG 1.1//EN" "http://www.w3.org/Graphics/SVG/1.1/DTD/svg11.dtd">
<svg version="1.1" id="Слой_1" xmlns="http://www.w3.org/2000/svg" xmlns:xlink="http://www.w3.org/1999/xlink" x="0px" y="0px"
	 width="60px" height="120px" viewBox="-20 -8.123 60 120" enable-background="new -20 -8.123 60 120" xml:space="preserve">
<title>Ресурс 11</title>
<path fill="#D33131" d="M28.954,19.363h0.401c0.735,0.054,1.374-0.495,1.436-1.23c-0.038-0.734-0.659-1.301-1.395-1.271h-1.796
	l-0.586-1.169c-0.604-1.134-1.681-1.939-2.94-2.194c-3.539-0.428-7.113-0.482-10.664-0.164c-1.26,0.202-2.364,0.953-3.015,2.051
	L9.78,16.533H7.985c-0.734-0.053-1.375,0.496-1.436,1.23c0.04,0.733,0.661,1.301,1.395,1.271h0.42l-1.025,0.882
	c-0.765,0.631-1.153,1.611-1.025,2.596l0.359,2.448c0.11,0.694,0.445,1.333,0.954,1.816v1.025c0.04,0.732,0.661,1.301,1.396,1.271
	l4.101,0.062c0.715,0.05,1.345-0.478,1.424-1.189l8.104,0.123c0.059,0.718,0.674,1.26,1.395,1.23l4.101,0.062
	c0.732,0.053,1.377-0.498,1.436-1.23v-1.025c0.53-0.463,0.891-1.093,1.025-1.784l0.316-2.42c0.158-0.979-0.199-1.971-0.943-2.626
	L28.954,19.363z M9.83,26.027c-0.535,0.003-0.981-0.41-1.025-0.943l-0.154-1.321h3.241c0.855,0.026,1.57-0.642,1.6-1.495
	c0-0.001,0-0.001,0-0.001c0.041-0.864-0.624-1.597-1.488-1.643H9.42l0.524-0.554l17.431,0.328l0.513,0.564h-2.563
	c-0.844-0.017-1.544,0.645-1.579,1.488c-0.041,0.862,0.624,1.596,1.488,1.64h3.216l-0.193,1.313
	c-0.062,0.519-0.504,0.905-1.025,0.902L9.83,26.027z M13.492,15.62c3.478-0.271,6.973-0.215,10.438,0.164
	c0.489,0.1,0.905,0.412,1.14,0.852l1.025,1.979l-14.787-0.226l1.023-1.948C12.578,16.009,13.003,15.707,13.492,15.62z
	 M20.834,24.193l-4.594-0.082c-0.756,0.111-1.277,0.82-1.163,1.576c0.091,0.598,0.563,1.072,1.163,1.16l4.594,0.082
	c0.756-0.111,1.277-0.817,1.163-1.573C21.906,24.756,21.435,24.281,20.834,24.193z M32.903,4.598L-2.535,4.055
	c-2.918-0.035-5.446,2.017-6.009,4.88l-7.179-0.113c-2.265-0.063-4.15,1.723-4.213,3.987c-0.001,0.038-0.001,0.076-0.001,0.114
	l-0.062,3.188c-0.062,2.265,1.723,4.151,3.987,4.213c0.038,0.002,0.076,0.002,0.114,0.002l5.803,0.092l-0.768,5.805
	c-0.833,6.299,3.598,12.082,9.896,12.914c0.445,0.062,0.894,0.091,1.342,0.097l31.982,0.463c3.964,0.082,7.242-3.07,7.321-7.031
	c0.003-0.023,0.003-0.044,0.003-0.064l0.316-20.714c0.064-3.963-3.1-7.227-7.063-7.29C32.924,4.598,32.915,4.598,32.903,4.598z
	 M-15.876,17.928c-0.945-0.009-1.705-0.784-1.695-1.73c0-0.027,0.001-0.056,0.003-0.085v-3.261c0.012-0.946,0.787-1.703,1.733-1.691
	c0.003,0,0.007,0,0.01,0l6.892,0.103l-0.882,6.675L-15.876,17.928z M37.251,32.59c-0.047,2.637-2.215,4.74-4.852,4.699L0.417,36.797
	c-5.011-0.082-9.007-4.213-8.925-9.223c0.006-0.346,0.031-0.691,0.076-1.031l2.225-16.911c0.239-1.821,1.803-3.174,3.64-3.148
	l35.428,0.543c2.637,0.045,4.734,2.215,4.696,4.85L37.251,32.59z M31.734,9.468L6.58,9.079c-2.21-0.013-4.084,1.624-4.368,3.814
	l-2.225,16.551c-0.312,2.396,1.38,4.594,3.778,4.907c0.166,0.021,0.331,0.032,0.498,0.035l27.082,0.419
	c2.423,0.035,4.415-1.901,4.45-4.324c0-0.006,0-0.009,0-0.012l0.255-16.551C36.085,11.498,34.154,9.508,31.734,9.468z
	 M33.612,30.662c-0.006,1.031-0.85,1.863-1.878,1.857c-0.009,0-0.015,0-0.021,0L3.955,32.08c-1.03-0.021-1.85-0.873-1.831-1.904
	c0.001-0.07,0.007-0.141,0.016-0.211l2.235-16.929c0.125-0.938,0.932-1.633,1.876-1.62l25.778,0.4
	c1.031,0.018,1.852,0.865,1.837,1.896l0,0L33.612,30.662z M-2.586,17.497c1.788,0.029,3.262-1.399,3.291-3.189
	c0.028-1.788-1.4-3.262-3.19-3.291c-1.789-0.027-3.262,1.4-3.29,3.188C-5.799,15.992-4.374,17.463-2.586,17.497z M-2.515,13.129
	c0.616,0.012,1.108,0.521,1.097,1.138c-0.012,0.617-0.521,1.109-1.138,1.098c-0.614-0.012-1.103-0.515-1.097-1.128
	c0.006-0.617,0.51-1.113,1.128-1.107C-2.522,13.129-2.518,13.129-2.515,13.129z M-3.479,19.302c-1.79-0.028-3.264,1.4-3.292,3.19
	c-0.028,1.789,1.4,3.26,3.189,3.289c1.79,0.029,3.263-1.4,3.291-3.187C-0.267,20.806-1.692,19.335-3.479,19.302z M-3.54,23.64
	c-0.606-0.009-1.091-0.504-1.085-1.109c0.007-0.606,0.504-1.092,1.11-1.084c0.606,0.006,1.091,0.504,1.084,1.108
	c0,0.021,0,0.04-0.001,0.061C-2.471,23.196-2.957,23.646-3.54,23.64z"/>
<path fill="#FFFFFF" d="M28.954,79.363h0.401c0.735,0.054,1.374-0.495,1.436-1.23c-0.038-0.734-0.659-1.301-1.395-1.271h-1.796
	l-0.586-1.169c-0.604-1.134-1.681-1.939-2.94-2.194c-3.539-0.428-7.113-0.482-10.664-0.164c-1.26,0.202-2.364,0.953-3.015,2.051
	L9.78,76.533H7.985c-0.734-0.053-1.375,0.496-1.436,1.23c0.04,0.733,0.661,1.301,1.395,1.271h0.42l-1.025,0.882
	c-0.765,0.631-1.153,1.611-1.025,2.596l0.359,2.448c0.11,0.694,0.445,1.333,0.954,1.816v1.025c0.04,0.732,0.661,1.301,1.396,1.271
	l4.101,0.062c0.715,0.05,1.345-0.478,1.424-1.189l8.104,0.123c0.059,0.718,0.674,1.26,1.395,1.23l4.101,0.062
	c0.732,0.053,1.377-0.498,1.436-1.23v-1.025c0.53-0.463,0.891-1.093,1.025-1.784l0.316-2.42c0.158-0.979-0.199-1.971-0.943-2.626
	L28.954,79.363z M9.83,86.027c-0.535,0.003-0.981-0.41-1.025-0.943l-0.154-1.321h3.241c0.855,0.026,1.57-0.642,1.6-1.495
	c0-0.001,0-0.001,0-0.001c0.041-0.864-0.624-1.597-1.488-1.643H9.42l0.524-0.554l17.431,0.328l0.513,0.564h-2.563
	c-0.844-0.017-1.544,0.645-1.579,1.488c-0.041,0.862,0.624,1.596,1.488,1.64h3.216l-0.193,1.313
	c-0.062,0.519-0.504,0.905-1.025,0.902L9.83,86.027z M13.492,75.62c3.478-0.271,6.973-0.215,10.438,0.164
	c0.489,0.1,0.905,0.412,1.14,0.852l1.025,1.979l-14.787-0.226l1.023-1.948C12.578,76.009,13.003,75.707,13.492,75.62z
	 M20.834,84.193l-4.594-0.082c-0.756,0.111-1.277,0.82-1.163,1.576c0.091,0.598,0.563,1.072,1.163,1.16l4.594,0.082
	c0.756-0.111,1.277-0.817,1.163-1.573C21.906,84.756,21.435,84.281,20.834,84.193z M32.903,64.598l-35.438-0.543
	c-2.918-0.035-5.446,2.017-6.009,4.881l-7.179-0.113c-2.265-0.063-4.15,1.723-4.213,3.987c-0.001,0.038-0.001,0.076-0.001,0.114
	l-0.062,3.188c-0.062,2.265,1.723,4.151,3.987,4.213c0.038,0.002,0.076,0.002,0.114,0.002l5.803,0.092l-0.768,5.805
	c-0.833,6.299,3.598,12.082,9.896,12.914c0.445,0.062,0.894,0.091,1.342,0.097l31.982,0.463c3.964,0.082,7.242-3.07,7.321-7.031
	c0.003-0.023,0.003-0.044,0.003-0.064l0.316-20.714c0.064-3.964-3.1-7.227-7.063-7.29C32.924,64.598,32.915,64.598,32.903,64.598z
	 M-15.876,77.928c-0.945-0.009-1.705-0.784-1.695-1.73c0-0.027,0.001-0.056,0.003-0.085v-3.261c0.012-0.946,0.787-1.703,1.733-1.691
	c0.003,0,0.007,0,0.01,0l6.892,0.103l-0.882,6.675L-15.876,77.928z M37.251,92.59c-0.047,2.637-2.215,4.74-4.852,4.699L0.417,96.797
	c-5.011-0.082-9.007-4.213-8.925-9.223c0.006-0.346,0.031-0.691,0.076-1.031l2.225-16.91c0.239-1.821,1.803-3.175,3.64-3.148
	l35.428,0.543c2.637,0.046,4.734,2.215,4.696,4.851L37.251,92.59z M31.734,69.469L6.58,69.078c-2.21-0.013-4.084,1.624-4.368,3.814
	l-2.225,16.551c-0.312,2.396,1.38,4.594,3.778,4.907c0.166,0.021,0.331,0.032,0.498,0.035l27.082,0.419
	c2.423,0.035,4.415-1.901,4.45-4.324c0-0.006,0-0.009,0-0.012l0.255-16.551C36.085,71.498,34.154,69.508,31.734,69.469z
	 M33.612,90.662c-0.006,1.031-0.85,1.863-1.878,1.857c-0.009,0-0.015,0-0.021,0L3.955,92.08c-1.03-0.021-1.85-0.873-1.831-1.904
	c0.001-0.07,0.007-0.141,0.016-0.211l2.235-16.929c0.125-0.938,0.932-1.633,1.876-1.62l25.778,0.4
	c1.031,0.018,1.852,0.865,1.837,1.896l0,0L33.612,90.662z M-2.586,77.497c1.788,0.029,3.262-1.399,3.291-3.189
	c0.028-1.788-1.4-3.262-3.19-3.291c-1.789-0.027-3.262,1.4-3.29,3.188C-5.799,75.992-4.374,77.463-2.586,77.497z M-2.515,73.129
	c0.616,0.012,1.108,0.521,1.097,1.138c-0.012,0.617-0.521,1.109-1.138,1.098c-0.614-0.012-1.103-0.515-1.097-1.128
	c0.006-0.617,0.51-1.113,1.128-1.107C-2.522,73.129-2.518,73.129-2.515,73.129z M-3.479,79.302c-1.79-0.028-3.264,1.4-3.292,3.19
	c-0.028,1.789,1.4,3.26,3.189,3.289c1.79,0.029,3.263-1.4,3.291-3.187C-0.267,80.806-1.692,79.335-3.479,79.302z M-3.54,83.64
	c-0.606-0.009-1.091-0.504-1.085-1.109c0.007-0.606,0.504-1.092,1.11-1.084c0.606,0.006,1.091,0.504,1.084,1.108
	c0,0.021,0,0.04-0.001,0.061C-2.471,83.196-2.957,83.646-3.54,83.64z"/>
</svg>
