<?xml version="1.0" encoding="utf-8"?>
<!-- Generator: Adobe Illustrator 16.0.2, SVG Export Plug-In . SVG Version: 6.00 Build 0)  -->
<!DOCTYPE svg PUBLIC "-//W3C//DTD SVG 1.1//EN" "http://www.w3.org/Graphics/SVG/1.1/DTD/svg11.dtd">
<svg version="1.1" id="Capa_1" xmlns="http://www.w3.org/2000/svg" xmlns:xlink="http://www.w3.org/1999/xlink" x="0px" y="0px"
	 width="59.999px" height="120px" viewBox="226 41.219 59.999 120" enable-background="new 226 41.219 59.999 120"
	 xml:space="preserve">
<path fill="#D33131" d="M285.993,52.771l-0.499-4.99c-0.032-0.319-0.189-0.613-0.438-0.816c-0.248-0.204-0.567-0.3-0.887-0.268
	l-8.39,0.839c-3.794,0.38-7.367,2.073-10.063,4.77l-6.445,6.446l-0.11-0.11c-0.35-0.35-0.877-0.452-1.332-0.257l-16.873,7.213
	c-0.142,0.061-0.271,0.148-0.38,0.257l-6.955,6.955c-0.363,0.363-0.458,0.915-0.237,1.378c0.203,0.424,0.63,0.689,1.093,0.689
	c0.042,0,0.084-0.002,0.127-0.007l0.485-0.051l-8.734,8.734c-0.473,0.473-0.473,1.24,0,1.712l8.886,8.886
	c0.227,0.227,0.535,0.354,0.856,0.354c0.321,0,0.629-0.127,0.856-0.354l8.204-8.204l4.47,4.47l-3.262,3.262
	c-0.473,0.473-0.473,1.239,0,1.712c0.236,0.236,0.546,0.354,0.856,0.354c0.31,0,0.62-0.118,0.856-0.354l10.872-10.872
	c3.565-3.565,5.705-8.257,6.066-13.269c0.015-0.203,0.327-5.857,0.327-5.857c0.02-0.344-0.109-0.68-0.353-0.923l-0.462-0.461
	l6.721-6.722c1.309-1.308,3.042-2.129,4.883-2.313l8.777-0.878C285.574,54.029,286.061,53.436,285.993,52.771z M242.122,67.732
	l15.905-6.799l4.867,4.868l-0.205,3.678l-24.938,2.625L242.122,67.732z M236.097,91.583l-7.174-7.173l9.994-9.994l16.035-1.688
	L236.097,91.583z M257.236,82.809l-5.897,5.897l-4.47-4.47l11.911-11.911l3.738-0.394C262.03,76.04,260.186,79.86,257.236,82.809z
	 M265.348,56.099l0.946,2.72l-1.28,1.28l-0.946-2.72L265.348,56.099z M262.165,59.281l0.946,2.72l-0.295,0.295l-1.834-1.833
	L262.165,59.281z M275.891,52.564c-2.395,0.24-4.651,1.309-6.354,3.011l-1.341,1.341l-0.946-2.72l0.179-0.179
	c2.301-2.302,5.353-3.748,8.592-4.072l7.185-0.719l0.258,2.58L275.891,52.564z"/>
<path fill="#FFFFFF" d="M285.993,112.771l-0.499-4.99c-0.032-0.319-0.189-0.613-0.438-0.816c-0.248-0.204-0.567-0.3-0.887-0.268
	l-8.39,0.839c-3.794,0.38-7.367,2.073-10.063,4.77l-6.445,6.446l-0.11-0.11c-0.35-0.35-0.877-0.452-1.332-0.257l-16.873,7.213
	c-0.142,0.061-0.271,0.148-0.38,0.257l-6.955,6.955c-0.363,0.363-0.458,0.915-0.237,1.378c0.203,0.424,0.63,0.689,1.093,0.689
	c0.042,0,0.084-0.002,0.127-0.007l0.485-0.051l-8.734,8.734c-0.473,0.473-0.473,1.24,0,1.712l8.886,8.886
	c0.227,0.227,0.535,0.354,0.856,0.354c0.321,0,0.629-0.127,0.856-0.354l8.204-8.204l4.47,4.47l-3.262,3.262
	c-0.473,0.473-0.473,1.239,0,1.712c0.236,0.236,0.546,0.354,0.856,0.354c0.31,0,0.62-0.118,0.856-0.354l10.872-10.872
	c3.565-3.565,5.705-8.257,6.066-13.269c0.015-0.203,0.327-5.857,0.327-5.857c0.02-0.344-0.109-0.68-0.353-0.923l-0.462-0.461
	l6.721-6.722c1.309-1.308,3.042-2.129,4.883-2.313l8.777-0.878C285.574,114.029,286.061,113.436,285.993,112.771z M242.122,127.732
	l15.905-6.799l4.867,4.868l-0.205,3.678l-24.938,2.625L242.122,127.732z M236.097,151.583l-7.174-7.173l9.994-9.994l16.035-1.688
	L236.097,151.583z M257.236,142.809l-5.897,5.897l-4.47-4.47l11.911-11.911l3.738-0.394
	C262.03,136.04,260.186,139.86,257.236,142.809z M265.348,116.099l0.946,2.72l-1.28,1.28l-0.946-2.72L265.348,116.099z
	 M262.165,119.281l0.946,2.72l-0.295,0.295l-1.834-1.833L262.165,119.281z M275.891,112.564c-2.395,0.24-4.651,1.309-6.354,3.011
	l-1.341,1.341l-0.946-2.72l0.179-0.179c2.301-2.302,5.353-3.748,8.592-4.072l7.185-0.719l0.258,2.58L275.891,112.564z"/>
</svg>
