<?xml version="1.0" encoding="utf-8"?>
<!-- Generator: Adobe Illustrator 16.0.2, SVG Export Plug-In . SVG Version: 6.00 Build 0)  -->
<!DOCTYPE svg PUBLIC "-//W3C//DTD SVG 1.1//EN" "http://www.w3.org/Graphics/SVG/1.1/DTD/svg11.dtd">
<svg version="1.1" id="Capa_1" xmlns="http://www.w3.org/2000/svg" xmlns:xlink="http://www.w3.org/1999/xlink" x="0px" y="0px"
	 width="60px" height="120px" viewBox="226 66.627 60 120" enable-background="new 226 66.627 60 120" xml:space="preserve">
<path fill="#D33131" d="M279.732,88.057c-0.659,0-1.194,0.535-1.194,1.194v7.085h-2.427v-5.985c0-0.66-0.535-1.194-1.194-1.194
	h-5.54l-1.031-3.44c-0.151-0.505-0.616-0.851-1.144-0.851h-8.435v-3.021h5.311c0.66,0,1.194-0.535,1.194-1.194v-3.986
	c0-0.659-0.534-1.194-1.194-1.194H246.97c-0.66,0-1.194,0.535-1.194,1.194v3.986c0,0.66,0.534,1.194,1.194,1.194h5.311v3.021h-12.3
	c-0.438,0-0.84,0.239-1.049,0.623l-1.996,3.668h-4.67c-0.66,0-1.194,0.535-1.194,1.194v5.985h-2.683v-8.536
	c0-0.66-0.535-1.194-1.194-1.194c-0.659,0-1.194,0.534-1.194,1.194v24.677c0,0.66,0.535,1.194,1.194,1.194
	c0.66,0,1.194-0.535,1.194-1.194v-8.536h2.683v6.32c0,0.66,0.535,1.194,1.194,1.194h9.941l4.545,5.865
	c0.226,0.292,0.575,0.462,0.944,0.462h27.221c0.659,0,1.194-0.534,1.194-1.194v-12.647h2.427v7.085c0,0.659,0.535,1.194,1.194,1.194
	c3.456,0,6.268-2.812,6.268-6.268V94.325C286,90.869,283.188,88.057,279.732,88.057z M228.388,101.554v-2.829h2.683v2.829H228.388z
	 M248.164,77.86h14.72v1.598h-14.72V77.86z M254.668,81.846h1.711v3.021h-1.711V81.846z M233.459,91.545h0.848v17.522h-0.848V91.545
	z M243.736,109.53c-0.226-0.292-0.575-0.462-0.944-0.462h-6.096V91.545h0.95c0.438,0,0.84-0.239,1.049-0.623l1.996-3.668h25.624
	l1.031,3.44c0.152,0.505,0.617,0.851,1.145,0.851h2.143v23.85h-22.351L243.736,109.53z M273.723,115.395h-0.703v-23.85h0.703
	V115.395z M276.111,101.554v-2.829h2.427v2.829H276.111z M283.612,105.953c0,1.723-1.129,3.187-2.686,3.692V90.633
	c1.557,0.505,2.686,1.969,2.686,3.692V105.953z"/>
<path fill="#FFFFFF" d="M279.732,148.057c-0.659,0-1.194,0.535-1.194,1.194v7.085h-2.427v-5.985c0-0.66-0.535-1.194-1.194-1.194
	h-5.54l-1.031-3.44c-0.151-0.505-0.616-0.851-1.144-0.851h-8.435v-3.021h5.311c0.66,0,1.194-0.535,1.194-1.194v-3.986
	c0-0.659-0.534-1.194-1.194-1.194H246.97c-0.66,0-1.194,0.535-1.194,1.194v3.986c0,0.66,0.534,1.194,1.194,1.194h5.311v3.021h-12.3
	c-0.438,0-0.84,0.239-1.049,0.623l-1.996,3.668h-4.67c-0.66,0-1.194,0.535-1.194,1.194v5.985h-2.683v-8.536
	c0-0.66-0.535-1.194-1.194-1.194c-0.659,0-1.194,0.534-1.194,1.194v24.677c0,0.659,0.535,1.194,1.194,1.194
	c0.66,0,1.194-0.535,1.194-1.194v-8.536h2.683v6.32c0,0.66,0.535,1.194,1.194,1.194h9.941l4.545,5.864
	c0.226,0.292,0.575,0.463,0.944,0.463h27.221c0.659,0,1.194-0.534,1.194-1.193v-12.648h2.427v7.086c0,0.659,0.535,1.193,1.194,1.193
	c3.456,0,6.268-2.811,6.268-6.268v-11.628C286,150.869,283.188,148.057,279.732,148.057z M228.388,161.554v-2.829h2.683v2.829
	H228.388z M248.164,137.86h14.72v1.598h-14.72V137.86z M254.668,141.846h1.711v3.021h-1.711V141.846z M233.459,151.545h0.848v17.523
	h-0.848V151.545z M243.736,169.53c-0.226-0.292-0.575-0.462-0.944-0.462h-6.096v-17.523h0.95c0.438,0,0.84-0.239,1.049-0.623
	l1.996-3.668h25.624l1.031,3.44c0.152,0.505,0.617,0.851,1.145,0.851h2.143v23.849h-22.351L243.736,169.53z M273.723,175.395h-0.703
	v-23.849h0.703V175.395z M276.111,161.554v-2.829h2.427v2.829H276.111z M283.612,165.953c0,1.723-1.129,3.188-2.686,3.691v-19.011
	c1.557,0.505,2.686,1.969,2.686,3.692V165.953z"/>
</svg>
