<?xml version="1.0" encoding="utf-8"?>
<!-- Generator: Adobe Illustrator 16.0.2, SVG Export Plug-In . SVG Version: 6.00 Build 0)  -->
<!DOCTYPE svg PUBLIC "-//W3C//DTD SVG 1.1//EN" "http://www.w3.org/Graphics/SVG/1.1/DTD/svg11.dtd">
<svg version="1.1" id="Capa_1" xmlns="http://www.w3.org/2000/svg" xmlns:xlink="http://www.w3.org/1999/xlink" x="0px" y="0px"
	 width="60px" height="120px" viewBox="226.002 60.618 60 120" enable-background="new 226.002 60.618 60 120" xml:space="preserve"
	>
<g>
	<path fill="#D33131" d="M280.931,112.571c-2.797,0-5.072-2.275-5.072-5.072v-11.81h-6.476v11.81c0,2.796-2.275,5.072-5.071,5.072
		c-2.797,0-5.072-2.275-5.072-5.072v-11.81h-6.476v11.81c0,2.796-2.275,5.072-5.071,5.072c-2.797,0-5.072-2.275-5.072-5.072v-11.81
		h-11.547c-2.796,0-5.071-2.275-5.071-5.072V73.736c0-2.796,2.275-5.071,5.071-5.071c2.797,0,5.072,2.275,5.072,5.071v11.811h6.476
		V73.736c0-2.796,2.275-5.071,5.071-5.071s5.072,2.275,5.072,5.071v11.811h6.476V73.736c0-2.796,2.274-5.071,5.071-5.071
		s5.071,2.275,5.071,5.071v11.811h6.477V73.736c0-2.796,2.274-5.071,5.071-5.071c2.796,0,5.071,2.275,5.071,5.071V107.5
		C286.002,110.296,283.727,112.571,280.931,112.571z M268.09,93.104h9.062c0.714,0,1.293,0.579,1.293,1.292V107.5
		c0,1.371,1.115,2.486,2.486,2.486c1.37,0,2.485-1.115,2.485-2.486V73.736c0-1.37-1.115-2.485-2.485-2.485
		c-1.371,0-2.486,1.115-2.486,2.485v13.104c0,0.714-0.579,1.293-1.293,1.293h-9.062c-0.714,0-1.293-0.579-1.293-1.293V73.736
		c0-1.37-1.115-2.485-2.485-2.485c-1.371,0-2.486,1.115-2.486,2.485v13.104c0,0.714-0.578,1.293-1.293,1.293h-9.062
		c-0.714,0-1.293-0.579-1.293-1.293V73.736c0-1.37-1.115-2.485-2.485-2.485c-1.371,0-2.486,1.115-2.486,2.485v13.104
		c0,0.714-0.579,1.293-1.293,1.293h-9.062c-0.714,0-1.293-0.579-1.293-1.293V73.736c0-1.37-1.115-2.485-2.486-2.485
		c-1.37,0-2.485,1.115-2.485,2.485v16.882c0,1.371,1.115,2.486,2.485,2.486h12.841c0.714,0,1.292,0.579,1.292,1.293V107.5
		c0,1.371,1.115,2.486,2.486,2.486s2.485-1.115,2.485-2.486V94.396c0-0.714,0.579-1.293,1.293-1.293h9.063
		c0.714,0,1.293,0.579,1.293,1.293V107.5c0,1.371,1.115,2.486,2.485,2.486s2.485-1.115,2.485-2.486V94.396
		C266.797,93.682,267.376,93.104,268.09,93.104z"/>
</g>
<g>
	<path fill="#FFFFFF" d="M280.931,172.571c-2.797,0-5.072-2.275-5.072-5.072v-11.81h-6.476v11.81c0,2.796-2.275,5.072-5.071,5.072
		c-2.797,0-5.072-2.275-5.072-5.072v-11.81h-6.476v11.81c0,2.796-2.275,5.072-5.071,5.072c-2.797,0-5.072-2.275-5.072-5.072v-11.81
		h-11.547c-2.796,0-5.071-2.275-5.071-5.072v-16.882c0-2.796,2.275-5.071,5.071-5.071c2.797,0,5.072,2.275,5.072,5.071v11.811h6.476
		v-11.811c0-2.796,2.275-5.071,5.071-5.071s5.072,2.275,5.072,5.071v11.811h6.476v-11.811c0-2.796,2.274-5.071,5.071-5.071
		s5.071,2.275,5.071,5.071v11.811h6.477v-11.811c0-2.796,2.274-5.071,5.071-5.071c2.796,0,5.071,2.275,5.071,5.071v33.764
		C286.002,170.295,283.727,172.571,280.931,172.571z M268.09,153.103h9.062c0.714,0,1.293,0.579,1.293,1.292v13.104
		c0,1.371,1.115,2.486,2.486,2.486c1.37,0,2.485-1.115,2.485-2.486v-33.764c0-1.37-1.115-2.485-2.485-2.485
		c-1.371,0-2.486,1.115-2.486,2.485v13.104c0,0.714-0.579,1.293-1.293,1.293h-9.062c-0.714,0-1.293-0.579-1.293-1.293v-13.104
		c0-1.37-1.115-2.485-2.485-2.485c-1.371,0-2.486,1.115-2.486,2.485v13.104c0,0.714-0.578,1.293-1.293,1.293h-9.062
		c-0.714,0-1.293-0.579-1.293-1.293v-13.104c0-1.37-1.115-2.485-2.485-2.485c-1.371,0-2.486,1.115-2.486,2.485v13.104
		c0,0.714-0.579,1.293-1.293,1.293h-9.062c-0.714,0-1.293-0.579-1.293-1.293v-13.104c0-1.37-1.115-2.485-2.486-2.485
		c-1.37,0-2.485,1.115-2.485,2.485v16.882c0,1.371,1.115,2.486,2.485,2.486h12.841c0.714,0,1.292,0.579,1.292,1.293v13.103
		c0,1.371,1.115,2.486,2.486,2.486s2.485-1.115,2.485-2.486v-13.103c0-0.714,0.579-1.293,1.293-1.293h9.063
		c0.714,0,1.293,0.579,1.293,1.293v13.103c0,1.371,1.115,2.486,2.485,2.486s2.485-1.115,2.485-2.486v-13.103
		C266.797,153.682,267.376,153.103,268.09,153.103z"/>
</g>
</svg>
