<?xml version="1.0" encoding="utf-8"?>
<!-- Generator: Adobe Illustrator 16.0.2, SVG Export Plug-In . SVG Version: 6.00 Build 0)  -->
<!DOCTYPE svg PUBLIC "-//W3C//DTD SVG 1.1//EN" "http://www.w3.org/Graphics/SVG/1.1/DTD/svg11.dtd">
<svg version="1.1" id="Layer_1" xmlns="http://www.w3.org/2000/svg" xmlns:xlink="http://www.w3.org/1999/xlink" x="0px" y="0px"
	 width="60px" height="120px" viewBox="0 60.128 60 120" enable-background="new 0 60.128 60 120" xml:space="preserve">
<path fill="#D32F2F" d="M30,68.11c-12.11,0-22.019,9.908-22.019,22.019c0,12.11,9.908,22.018,22.019,22.018
	c12.11,0,22.018-9.908,22.018-22.018C52.018,78.018,42.11,68.11,30,68.11z M30,110.145c-11.009,0-20.017-9.007-20.017-20.017
	S18.991,70.111,30,70.111s20.017,9.008,20.017,20.017S41.009,110.145,30,110.145z M10.183,70.312c0.4-0.4,0.4-1,0-1.401
	c-0.4-0.4-1-0.4-1.401,0c-11.71,11.709-11.71,30.726,0,42.435c0.2,0.2,0.4,0.3,0.7,0.3c0.3,0,0.5-0.1,0.701-0.3
	c0.4-0.4,0.4-1,0-1.401C-0.726,99.036-0.726,81.221,10.183,70.312z M51.217,68.911c-0.4-0.4-1-0.4-1.401,0s-0.4,1,0,1.401
	c10.909,10.909,10.909,28.724,0,39.633c-0.4,0.4-0.4,1.001,0,1.401c0.2,0.2,0.4,0.3,0.7,0.3c0.3,0,0.5-0.1,0.701-0.3
	C62.927,99.636,62.927,80.62,51.217,68.911z M38.006,98.135h-3.002V84.124c0-0.601-0.4-1.001-1.001-1.001h-9.007
	c-0.601,0-1.001,0.4-1.001,1.001v4.003c0,0.601,0.4,1.001,1.001,1.001h2.002v9.007h-3.003c-0.6,0-1,0.4-1,1.001v4.003
	c0,0.6,0.4,1,1,1h14.012c0.601,0,1.001-0.4,1.001-1v-4.003C39.007,98.535,38.607,98.135,38.006,98.135z M37.006,102.138h-12.01
	v-2.001h3.002c0.601,0,1.001-0.4,1.001-1.001V88.126c0-0.601-0.4-1-1.001-1h-2.001v-2.002h7.006v14.012c0,0.601,0.4,1.001,1,1.001
	h3.002L37.006,102.138L37.006,102.138z M30,81.121c2.202,0,4.003-1.801,4.003-4.003c0-2.202-1.801-4.003-4.003-4.003
	c-2.202,0-4.003,1.801-4.003,4.003C25.997,79.319,27.798,81.121,30,81.121z M30,75.116c1.101,0,2.001,0.901,2.001,2.002
	c0,1.101-0.901,2.001-2.001,2.001c-1.101,0-2.002-0.901-2.002-2.001C27.998,76.017,28.899,75.116,30,75.116z"/>
<path fill="#FFFFFF" d="M30,128.11c-12.11,0-22.019,9.908-22.019,22.019c0,12.11,9.908,22.018,22.019,22.018
	c12.11,0,22.018-9.908,22.018-22.018C52.018,138.018,42.11,128.11,30,128.11z M30,170.145c-11.009,0-20.017-9.007-20.017-20.017
	S18.991,130.111,30,130.111s20.017,9.008,20.017,20.017S41.009,170.145,30,170.145z M10.183,130.312c0.4-0.4,0.4-1,0-1.401
	c-0.4-0.4-1-0.4-1.401,0c-11.71,11.709-11.71,30.726,0,42.435c0.2,0.2,0.4,0.3,0.7,0.3c0.3,0,0.5-0.1,0.701-0.3
	c0.4-0.4,0.4-1,0-1.401C-0.726,159.036-0.726,141.221,10.183,130.312z M51.217,128.911c-0.4-0.4-1-0.4-1.401,0s-0.4,1,0,1.401
	c10.909,10.909,10.909,28.724,0,39.633c-0.4,0.4-0.4,1.001,0,1.401c0.2,0.2,0.4,0.3,0.7,0.3c0.3,0,0.5-0.1,0.701-0.3
	C62.927,159.636,62.927,140.62,51.217,128.911z M38.006,158.135h-3.002v-14.011c0-0.601-0.4-1.001-1.001-1.001h-9.007
	c-0.601,0-1.001,0.4-1.001,1.001v4.003c0,0.601,0.4,1.001,1.001,1.001h2.002v9.007h-3.003c-0.6,0-1,0.4-1,1.001v4.003
	c0,0.6,0.4,1,1,1h14.012c0.601,0,1.001-0.4,1.001-1v-4.003C39.007,158.535,38.607,158.135,38.006,158.135z M37.006,162.138h-12.01
	v-2.001h3.002c0.601,0,1.001-0.4,1.001-1.001v-11.009c0-0.601-0.4-1-1.001-1h-2.001v-2.002h7.006v14.012c0,0.601,0.4,1.001,1,1.001
	h3.002L37.006,162.138L37.006,162.138z M30,141.121c2.202,0,4.003-1.801,4.003-4.003c0-2.202-1.801-4.003-4.003-4.003
	c-2.202,0-4.003,1.801-4.003,4.003C25.997,139.319,27.798,141.121,30,141.121z M30,135.116c1.101,0,2.001,0.901,2.001,2.002
	c0,1.101-0.901,2.001-2.001,2.001c-1.101,0-2.002-0.901-2.002-2.001C27.998,136.017,28.899,135.116,30,135.116z"/>
</svg>
