<?xml version="1.0" encoding="utf-8"?>
<!-- Generator: Adobe Illustrator 16.0.2, SVG Export Plug-In . SVG Version: 6.00 Build 0)  -->
<!DOCTYPE svg PUBLIC "-//W3C//DTD SVG 1.1//EN" "http://www.w3.org/Graphics/SVG/1.1/DTD/svg11.dtd">
<svg version="1.1" id="Layer_1" xmlns="http://www.w3.org/2000/svg" xmlns:xlink="http://www.w3.org/1999/xlink" x="0px" y="0px"
	 width="60px" height="120px" viewBox="0 0 60 120" enable-background="new 0 0 60 120" xml:space="preserve">
<path fill="#D32F2F" d="M30,29.31c2.135,0,3.871-1.752,3.871-3.908c0-2.156-1.736-3.908-3.871-3.908s-3.871,1.752-3.871,3.908
	C26.129,27.558,27.865,29.31,30,29.31z M30,23.448c1.066,0,1.936,0.876,1.936,1.954c0,1.077-0.867,1.954-1.936,1.954
	c-1.068,0-1.936-0.876-1.936-1.954C28.064,24.324,28.933,23.448,30,23.448z M54.193,0h1.936v3.908h-1.936V0z M56.129,3.909H60v1.954
	h-3.871V3.909z M56.129,5.862h-1.936v3.522c-3.08-2.788-7.133-4.499-11.584-4.499c-4.646,0-9.014,1.826-12.297,5.143L30,10.343
	l-0.312-0.314c-3.286-3.317-7.652-5.143-12.297-5.143C7.802,4.886,0,12.762,0,22.442c0,4.689,1.809,9.099,5.094,12.415l3.215,3.246
	H0v12.701h9.698v-1.743l3.681,0.744l6.529,0.01L30,60l24.906-25.144C58.191,31.54,60,27.132,60,22.442
	c0-4.98-2.075-9.474-5.387-12.672h1.516V5.862z M7.762,48.849H1.936v-8.793h1.936v6.839h1.936v-6.839h1.956v8.793H7.762z
	 M13.665,47.868l-3.967-0.801v-5.061h7.067l3.045-2.05l7.824-2.771c0.274-0.096,0.568-0.078,0.827,0.056
	c0.259,0.132,0.448,0.36,0.532,0.64c0.146,0.486-0.07,1.011-0.515,1.249l-5.408,2.902l3.818,1.928h9.186l3.324-1.834
	c0.207-0.114,0.445-0.14,0.668-0.061c0.226,0.075,0.404,0.238,0.502,0.456c0.188,0.421,0.016,0.91-0.395,1.114l-4.662,2.322
	l-9.458,1.91L13.665,47.868L13.665,47.868z M9.698,40.052v-0.548l0.543,0.548H9.698z M24.17,28.869
	c-0.32-0.547-0.563-1.138-0.722-1.757l-0.188-0.733h-1.97v-1.954h1.97l0.187-0.733c0.159-0.62,0.402-1.21,0.722-1.758l0.381-0.652
	l-1.394-1.407l1.368-1.382l1.394,1.407l0.646-0.385c0.542-0.324,1.127-0.568,1.741-0.729l0.726-0.189v-1.989h1.936v1.989
	l0.727,0.189c0.613,0.16,1.199,0.405,1.74,0.729L34.08,19.9l1.395-1.407l1.367,1.382l-1.394,1.407l0.381,0.652
	c0.319,0.547,0.563,1.138,0.722,1.758l0.188,0.733h1.97v1.954h-1.97l-0.188,0.733c-0.158,0.619-0.402,1.21-0.722,1.757l-0.381,0.652
	l1.394,1.407l-1.367,1.381l-1.395-1.406l-0.646,0.385c-0.541,0.323-1.127,0.568-1.74,0.729l-0.727,0.188v1.989h-1.936v-1.989
	l-0.726-0.188c-0.614-0.161-1.199-0.406-1.741-0.729l-0.646-0.385l-1.394,1.406l-1.368-1.381l1.394-1.407L24.17,28.869z
	 M32.418,42.006l0.971-2.451c0.207-0.523,0.988-0.621,1.314-0.162c0.145,0.202,0.182,0.453,0.104,0.689l-0.642,1.924H32.418
	L32.418,42.006z M58.064,22.442c0,4.168-1.607,8.085-4.527,11.033L30,57.238l-7.35-7.42l3.595,0.005l9.772-1.974l5.015-2.462
	c1.351-0.672,1.922-2.286,1.302-3.672c-0.318-0.708-0.919-1.255-1.65-1.502c-0.729-0.247-1.537-0.174-2.211,0.198l-2.125,1.17
	l0.293-0.876c0.275-0.827,0.139-1.744-0.365-2.453s-1.321-1.131-2.186-1.131c-1.107,0-2.088,0.67-2.499,1.708l-1.258,3.177h-2.986
	l-0.053-0.026l2.092-1.122c1.261-0.674,1.875-2.164,1.46-3.542c-0.133-0.446-0.369-0.836-0.671-1.167h2.728v-2.464
	c0.289-0.103,0.57-0.221,0.846-0.353l1.727,1.742l4.105-4.145l-1.727-1.743c0.133-0.277,0.248-0.562,0.351-0.853h2.44v-5.861h-2.439
	c-0.102-0.292-0.219-0.576-0.35-0.854l1.726-1.742l-4.104-4.145l-1.728,1.742c-0.274-0.133-0.558-0.25-0.845-0.353v-2.465h-5.807
	v2.463c-0.288,0.103-0.57,0.221-0.845,0.353l-1.727-1.742l-4.105,4.145l1.726,1.742c-0.132,0.278-0.248,0.562-0.35,0.854h-2.442
	v5.861h2.44c0.102,0.292,0.219,0.576,0.35,0.853l-1.726,1.743l4.105,4.145l1.727-1.742c0.275,0.132,0.557,0.25,0.845,0.353v1.633
	c-0.034,0.011-0.068,0.013-0.102,0.025l-7.939,2.812l-2.876,1.898h-3.201l-6.515-6.577c-2.919-2.947-4.527-6.865-4.527-11.032
	c0-8.604,6.933-15.603,15.456-15.603c4.128,0,8.009,1.623,10.929,4.57L30,13.106l1.68-1.696c2.92-2.947,6.801-4.57,10.93-4.57
	C51.132,6.839,58.064,13.838,58.064,22.442z M50.323,3.909h3.87v1.954h-3.87V3.909z M11.613,10.747h1.936v3.908h-1.936V10.747z
	 M13.548,14.655h3.871v1.954h-3.871V14.655z M11.613,16.609h1.936v3.908h-1.936V16.609z M7.742,14.655h3.871v1.954H7.742V14.655z
	 M44.516,24.425h1.937v1.954h-1.937V24.425z M46.452,26.378h1.937v1.954h-1.937V26.378z M44.516,28.332h1.937v1.954h-1.937V28.332z
	 M42.581,26.378h1.937v1.954h-1.937V26.378z"/>
<path fill="#FFFFFF" d="M30,89.31c2.135,0,3.871-1.752,3.871-3.908c0-2.155-1.736-3.907-3.871-3.907s-3.871,1.752-3.871,3.907
	C26.129,87.558,27.865,89.31,30,89.31z M30,83.448c1.066,0,1.936,0.876,1.936,1.953c0,1.078-0.867,1.955-1.936,1.955
	c-1.068,0-1.936-0.877-1.936-1.955C28.064,84.324,28.933,83.448,30,83.448z M54.193,60h1.936v3.908h-1.936V60z M56.129,63.909H60
	v1.954h-3.871V63.909z M56.129,65.862h-1.936v3.521c-3.08-2.787-7.133-4.498-11.584-4.498c-4.646,0-9.014,1.825-12.297,5.143
	L30,70.343l-0.312-0.313c-3.286-3.317-7.652-5.144-12.297-5.144C7.802,64.886,0,72.763,0,82.442c0,4.688,1.809,9.099,5.094,12.414
	l3.215,3.246H0v12.701h9.698v-1.742l3.681,0.744l6.529,0.01L30,120l24.906-25.144C58.191,91.54,60,87.132,60,82.442
	c0-4.98-2.075-9.475-5.387-12.672h1.516V65.862z M7.762,108.849H1.936v-8.793h1.936v6.84h1.936v-6.84h1.956v8.793H7.762z
	 M13.665,107.868l-3.967-0.801v-5.062h7.067l3.045-2.05l7.824-2.771c0.274-0.096,0.568-0.078,0.827,0.057
	c0.259,0.132,0.448,0.359,0.532,0.64c0.146,0.486-0.07,1.011-0.515,1.249l-5.408,2.902l3.818,1.928h9.186l3.324-1.834
	c0.207-0.113,0.445-0.141,0.668-0.061c0.226,0.074,0.404,0.238,0.502,0.455c0.188,0.422,0.016,0.91-0.395,1.115l-4.662,2.321
	l-9.458,1.91L13.665,107.868L13.665,107.868z M9.698,100.052v-0.548l0.543,0.548H9.698z M24.17,88.869
	c-0.32-0.547-0.563-1.138-0.722-1.757l-0.188-0.733h-1.97v-1.954h1.97l0.187-0.732c0.159-0.62,0.402-1.211,0.722-1.758l0.381-0.652
	l-1.394-1.407l1.368-1.382l1.394,1.406l0.646-0.385c0.542-0.324,1.127-0.567,1.741-0.729l0.726-0.189v-1.988h1.936v1.988
	l0.727,0.189c0.613,0.16,1.199,0.404,1.74,0.729l0.646,0.385l1.395-1.406l1.367,1.382l-1.394,1.407l0.381,0.652
	c0.319,0.547,0.563,1.138,0.722,1.758l0.188,0.732h1.97v1.954h-1.97l-0.188,0.733c-0.158,0.619-0.402,1.21-0.722,1.757l-0.381,0.651
	l1.394,1.408l-1.367,1.381l-1.395-1.406l-0.646,0.385c-0.541,0.322-1.127,0.568-1.74,0.729l-0.727,0.188v1.989h-1.936v-1.989
	l-0.726-0.188c-0.614-0.16-1.199-0.406-1.741-0.729l-0.646-0.385l-1.394,1.406l-1.368-1.381l1.394-1.408L24.17,88.869z
	 M32.418,102.006l0.971-2.45c0.207-0.523,0.988-0.621,1.314-0.162c0.145,0.201,0.182,0.453,0.104,0.688l-0.642,1.924H32.418
	L32.418,102.006z M58.064,82.442c0,4.168-1.607,8.084-4.527,11.033L30,117.238l-7.35-7.421l3.595,0.006l9.772-1.975l5.015-2.461
	c1.351-0.673,1.922-2.287,1.302-3.673c-0.318-0.708-0.919-1.255-1.65-1.502c-0.729-0.247-1.537-0.174-2.211,0.198l-2.125,1.17
	l0.293-0.876c0.275-0.827,0.139-1.744-0.365-2.453s-1.321-1.131-2.186-1.131c-1.107,0-2.088,0.67-2.499,1.708l-1.258,3.177h-2.986
	l-0.053-0.026l2.092-1.121c1.261-0.674,1.875-2.164,1.46-3.543c-0.133-0.445-0.369-0.836-0.671-1.166h2.728v-2.465
	c0.289-0.103,0.57-0.221,0.846-0.353l1.727,1.742l4.105-4.146l-1.727-1.742c0.133-0.277,0.248-0.563,0.351-0.854h2.44v-5.861h-2.439
	c-0.102-0.291-0.219-0.576-0.35-0.854l1.726-1.742l-4.104-4.145l-1.728,1.742c-0.274-0.134-0.558-0.25-0.845-0.354v-2.465h-5.807
	v2.463c-0.288,0.104-0.57,0.221-0.845,0.354l-1.727-1.742l-4.105,4.145l1.726,1.742c-0.132,0.277-0.248,0.563-0.35,0.854h-2.442
	v5.861h2.44c0.102,0.292,0.219,0.576,0.35,0.854l-1.726,1.742l4.105,4.146l1.727-1.742c0.275,0.132,0.557,0.25,0.845,0.353v1.633
	c-0.034,0.012-0.068,0.014-0.102,0.025l-7.939,2.813l-2.876,1.898h-3.201l-6.515-6.578c-2.919-2.947-4.527-6.865-4.527-11.031
	c0-8.604,6.933-15.604,15.456-15.604c4.128,0,8.009,1.623,10.929,4.57L30,73.106l1.68-1.696c2.92-2.947,6.801-4.57,10.93-4.57
	C51.132,66.839,58.064,73.838,58.064,82.442z M50.323,63.909h3.87v1.954h-3.87V63.909z M11.613,70.747h1.936v3.908h-1.936V70.747z
	 M13.548,74.655h3.871v1.953h-3.871V74.655z M11.613,76.608h1.936v3.908h-1.936V76.608z M7.742,74.655h3.871v1.953H7.742V74.655z
	 M44.516,84.425h1.937v1.954h-1.937V84.425z M46.452,86.378h1.937v1.954h-1.937V86.378z M44.516,88.332h1.937v1.954h-1.937V88.332z
	 M42.581,86.378h1.937v1.954h-1.937V86.378z"/>
</svg>
