<?xml version="1.0" encoding="utf-8"?>
<!-- Generator: Adobe Illustrator 16.0.2, SVG Export Plug-In . SVG Version: 6.00 Build 0)  -->
<!DOCTYPE svg PUBLIC "-//W3C//DTD SVG 1.1//EN" "http://www.w3.org/Graphics/SVG/1.1/DTD/svg11.dtd">
<svg version="1.1" id="Capa_1" xmlns="http://www.w3.org/2000/svg" xmlns:xlink="http://www.w3.org/1999/xlink" x="0px" y="0px"
	 width="60px" height="120px" viewBox="0 10.839 60 120" enable-background="new 0 10.839 60 120" xml:space="preserve">
<path fill="#D32F2F" d="M59.918,50.745c-1.646-9.329-4.529-18.403-8.569-26.971c-0.904-1.917-2.848-3.105-4.96-3.026
	c-4.026,0.152-7.867,1.007-11.477,2.546c-0.012-0.215-0.028-0.429-0.052-0.644c-0.713-6.393-6.495-11.015-12.887-10.3
	c-5.154,0.575-9.246,4.455-10.174,9.446l-2.954-0.754c-1.872-0.478-3.786,0.529-4.453,2.342L0.314,34.479
	c-0.366,0.996-0.292,2.104,0.201,3.043s1.366,1.627,2.394,1.89l3.322,0.849l-0.312,4.396l-1.75,3.082
	c-0.087,0.154-0.137,0.326-0.146,0.502l-0.23,4.653l-1.324,1.712c-0.135,0.175-0.216,0.385-0.232,0.605l-0.414,5.472L0.16,63.467
	c-0.235,0.393-0.209,0.889,0.064,1.256l3.16,4.225C3.602,69.238,3.94,69.4,4.289,69.4c0.117,0,0.234-0.018,0.35-0.055l5.882-1.916
	c0.368-0.12,0.648-0.419,0.744-0.794l6.016-23.553l3.142,0.803c0.306,0.078,0.617,0.116,0.927,0.116c0.733,0,1.458-0.214,2.08-0.627
	c0.883-0.587,1.479-1.525,1.635-2.574l0.817-5.488c0.792-0.18,1.556-0.44,2.28-0.773c1.708,8.203,4.375,16.185,7.952,23.77
	c0.875,1.857,2.729,3.029,4.76,3.029c0.066,0,0.133-0.001,0.199-0.003c5.971-0.226,11.536-1.994,16.542-5.256
	C59.383,54.926,60.287,52.833,59.918,50.745z M12.383,28.199c0.007,0,0.015,0.001,0.022,0.001c0.285,0.728,0.642,1.427,1.068,2.084
	c0.216,0.333,0.578,0.515,0.948,0.515c0.21,0,0.423-0.059,0.613-0.182c0.523-0.339,0.672-1.038,0.333-1.562
	c-0.034-0.053-0.067-0.106-0.1-0.16l1.937,0.495c0.644,0.165,1.033,0.821,0.869,1.465c-0.164,0.643-0.821,1.033-1.464,0.869
	l-4.521-1.155c-0.312-0.08-0.574-0.275-0.738-0.552s-0.211-0.601-0.131-0.913c0.08-0.312,0.276-0.573,0.552-0.737
	C11.959,28.256,12.169,28.199,12.383,28.199z M3.899,61.613c0.09-0.15,0.144-0.32,0.157-0.495l0.408-5.399l1.333-1.725
	c0.142-0.183,0.223-0.404,0.235-0.635l0.234-4.74l1.743-3.071c0.083-0.146,0.133-0.31,0.145-0.478l0.301-4.243l1.576,0.403
	L3.779,65.705l-1.293-1.729L3.899,61.613z M15.093,42.523L9.231,65.475l-3.34,1.088l6.327-24.773l1.929,0.493L15.093,42.523z
	 M22.832,40.468c-0.063,0.424-0.295,0.789-0.652,1.026c-0.357,0.237-0.783,0.31-1.198,0.203L3.467,37.224
	c-0.416-0.106-0.754-0.374-0.954-0.753c-0.2-0.38-0.229-0.811-0.081-1.213l4.08-11.095c0.266-0.723,1.028-1.124,1.774-0.933
	l3.317,0.847c0.005,0.388,0.027,0.775,0.07,1.161c0.028,0.253,0.068,0.506,0.113,0.757c-0.407,0.071-0.802,0.213-1.168,0.43
	c-0.795,0.472-1.359,1.225-1.588,2.121c-0.229,0.896-0.095,1.828,0.376,2.623c0.472,0.795,1.225,1.359,2.121,1.588l4.521,1.155
	c0.286,0.073,0.575,0.109,0.863,0.109c0.613,0,1.218-0.165,1.76-0.486c0.795-0.472,1.359-1.225,1.588-2.121s0.095-1.828-0.376-2.623
	s-1.225-1.359-2.121-1.588l-3.606-0.921c-0.108-0.425-0.19-0.858-0.239-1.295c-0.012-0.109-0.021-0.218-0.029-0.327l9.574,2.445
	c0.746,0.19,1.223,0.909,1.11,1.67L22.832,40.468z M26.245,32.87l0.56-3.761c0.285-1.911-0.913-3.712-2.784-4.19l-10.029-2.562
	c0.694-4.094,4.024-7.292,8.232-7.762c5.156-0.575,9.818,3.151,10.393,8.307c0.054,0.484,0.068,0.972,0.048,1.456
	c-0.957,0.499-1.896,1.047-2.816,1.646c-1.768,1.152-2.672,3.246-2.304,5.333c0.053,0.302,0.111,0.603,0.167,0.904
	C27.244,32.491,26.754,32.701,26.245,32.87z M56.382,54.187c-4.658,3.036-9.837,4.681-15.394,4.891
	c-1.202,0.044-2.315-0.635-2.833-1.732c-3.611-7.658-6.274-15.729-7.937-24.025c1.296-0.963,2.395-2.2,3.217-3.659
	c0.306-0.543,0.114-1.231-0.43-1.538c-0.543-0.306-1.231-0.114-1.538,0.43c-0.47,0.834-1.053,1.576-1.725,2.216
	c-0.133-1.136,0.378-2.249,1.337-2.874c4.658-3.036,9.837-4.681,15.394-4.891c0.038-0.001,0.075-0.002,0.113-0.002
	c1.159,0,2.217,0.671,2.719,1.734c3.955,8.387,6.777,17.269,8.388,26.4C57.906,52.333,57.391,53.529,56.382,54.187z M53.911,46.432
	c-0.387-1.217-1.691-1.892-2.908-1.505l-10.966,3.484c-1.217,0.386-1.892,1.691-1.505,2.907l1.045,3.29
	c0.313,0.984,1.226,1.615,2.208,1.615c0.232,0,0.467-0.035,0.7-0.109l10.967-3.484l0,0c1.216-0.387,1.892-1.691,1.505-2.907
	L53.911,46.432z M41.8,53.962c-0.03,0.01-0.063-0.007-0.072-0.037l-1.045-3.29c-0.009-0.03,0.007-0.062,0.038-0.072l4.407-1.4
	l1.08,3.399L41.8,53.962z M52.767,50.478L52.767,50.478l-4.407,1.4l-1.08-3.399l4.407-1.4c0.006-0.002,0.012-0.003,0.018-0.003
	c0.024,0,0.047,0.016,0.055,0.04l1.045,3.29C52.813,50.436,52.797,50.468,52.767,50.478z M35.385,35.152l11.763-3.737
	c0.594-0.188,0.923-0.823,0.734-1.417c-0.189-0.594-0.824-0.923-1.418-0.734L34.702,33c-0.594,0.189-0.923,0.824-0.734,1.418
	c0.152,0.48,0.597,0.788,1.075,0.788C35.157,35.206,35.272,35.188,35.385,35.152z M48.977,33.44
	c-0.188-0.594-0.824-0.923-1.417-0.734l-11.764,3.738c-0.594,0.188-0.922,0.823-0.734,1.417c0.153,0.48,0.597,0.788,1.076,0.788
	c0.113,0,0.229-0.017,0.342-0.053l11.763-3.738C48.837,34.669,49.166,34.035,48.977,33.44z"/>
<path fill="#FFFFFF" d="M59.918,110.745c-1.646-9.329-4.529-18.403-8.569-26.971c-0.904-1.917-2.848-3.105-4.96-3.026
	c-4.026,0.152-7.867,1.007-11.477,2.546c-0.012-0.215-0.028-0.429-0.052-0.644c-0.713-6.393-6.495-11.015-12.887-10.3
	c-5.154,0.575-9.246,4.455-10.174,9.446l-2.954-0.754c-1.872-0.478-3.786,0.529-4.453,2.342L0.313,94.479
	c-0.366,0.996-0.292,2.104,0.201,3.043s1.366,1.627,2.394,1.89l3.322,0.849l-0.312,4.396l-1.75,3.082
	c-0.087,0.154-0.137,0.326-0.146,0.502l-0.23,4.653l-1.324,1.712c-0.135,0.175-0.216,0.385-0.232,0.605l-0.414,5.472l-1.665,2.784
	c-0.235,0.393-0.209,0.889,0.064,1.256l3.16,4.225c0.217,0.291,0.555,0.453,0.904,0.453c0.117,0,0.234-0.018,0.35-0.055l5.882-1.916
	c0.368-0.12,0.648-0.419,0.744-0.794l6.016-23.553l3.142,0.803c0.306,0.078,0.617,0.116,0.927,0.116c0.733,0,1.458-0.214,2.08-0.627
	c0.883-0.587,1.479-1.525,1.635-2.574l0.817-5.488c0.792-0.18,1.556-0.44,2.28-0.773c1.708,8.203,4.375,16.185,7.952,23.77
	c0.875,1.857,2.729,3.029,4.76,3.029c0.066,0,0.133-0.001,0.199-0.003c5.971-0.226,11.536-1.994,16.542-5.256
	C59.382,114.926,60.287,112.833,59.918,110.745z M12.382,88.199c0.007,0,0.015,0.001,0.022,0.001
	c0.285,0.728,0.642,1.427,1.068,2.084c0.216,0.333,0.578,0.515,0.948,0.515c0.21,0,0.423-0.059,0.613-0.182
	c0.523-0.339,0.672-1.038,0.333-1.562c-0.034-0.053-0.067-0.106-0.1-0.16l1.937,0.495c0.644,0.165,1.033,0.821,0.869,1.465
	c-0.164,0.643-0.821,1.033-1.464,0.869l-4.521-1.155c-0.312-0.08-0.574-0.275-0.738-0.552s-0.211-0.601-0.131-0.913
	c0.08-0.312,0.276-0.573,0.552-0.737C11.958,88.256,12.169,88.199,12.382,88.199z M3.899,121.613c0.09-0.15,0.144-0.32,0.157-0.495
	l0.408-5.399l1.333-1.725c0.142-0.183,0.223-0.404,0.235-0.635l0.234-4.74l1.743-3.071c0.083-0.146,0.133-0.31,0.145-0.478
	l0.301-4.243l1.576,0.403l-6.251,24.475l-1.293-1.729L3.899,121.613z M15.092,102.523L9.23,125.475l-3.34,1.088l6.327-24.773
	l1.929,0.493L15.092,102.523z M22.831,100.468c-0.063,0.424-0.295,0.789-0.652,1.026c-0.357,0.237-0.783,0.31-1.198,0.203
	L3.467,97.224c-0.416-0.106-0.754-0.374-0.954-0.753c-0.2-0.38-0.229-0.811-0.081-1.213l4.08-11.095
	c0.266-0.723,1.028-1.124,1.774-0.933l3.317,0.847c0.005,0.388,0.027,0.775,0.07,1.161c0.028,0.253,0.068,0.506,0.113,0.757
	c-0.407,0.071-0.802,0.213-1.168,0.43c-0.795,0.472-1.359,1.225-1.588,2.121c-0.229,0.896-0.095,1.828,0.376,2.623
	c0.472,0.795,1.225,1.359,2.121,1.588l4.521,1.155c0.286,0.073,0.575,0.109,0.863,0.109c0.613,0,1.218-0.165,1.76-0.486
	c0.795-0.472,1.359-1.225,1.588-2.121s0.095-1.828-0.376-2.623s-1.225-1.359-2.121-1.588l-3.606-0.921
	c-0.108-0.425-0.19-0.858-0.239-1.295c-0.012-0.109-0.021-0.218-0.029-0.327l9.574,2.445c0.746,0.19,1.223,0.909,1.11,1.67
	L22.831,100.468z M26.245,92.87l0.56-3.761c0.285-1.911-0.913-3.712-2.784-4.19l-10.029-2.562c0.694-4.094,4.024-7.292,8.232-7.762
	c5.156-0.575,9.818,3.151,10.393,8.307c0.054,0.484,0.068,0.972,0.048,1.456c-0.957,0.499-1.896,1.047-2.816,1.646
	c-1.768,1.152-2.672,3.246-2.304,5.333c0.053,0.302,0.111,0.603,0.167,0.904C27.244,92.491,26.753,92.701,26.245,92.87z
	 M56.381,114.187c-4.658,3.036-9.837,4.681-15.394,4.891c-1.202,0.044-2.315-0.635-2.833-1.732
	c-3.611-7.658-6.274-15.729-7.937-24.025c1.296-0.963,2.395-2.2,3.217-3.659c0.306-0.543,0.114-1.231-0.43-1.538
	c-0.543-0.306-1.231-0.114-1.538,0.43c-0.47,0.834-1.053,1.576-1.725,2.216c-0.133-1.136,0.378-2.249,1.337-2.874
	c4.658-3.036,9.837-4.681,15.394-4.891c0.038-0.001,0.075-0.002,0.113-0.002c1.159,0,2.217,0.671,2.719,1.734
	c3.955,8.387,6.777,17.269,8.388,26.4C57.906,112.333,57.39,113.529,56.381,114.187z M53.91,106.432
	c-0.387-1.217-1.691-1.892-2.908-1.505l-10.966,3.484c-1.217,0.386-1.892,1.691-1.505,2.907l1.045,3.29
	c0.313,0.984,1.226,1.615,2.208,1.615c0.232,0,0.467-0.035,0.7-0.109l10.967-3.484l0,0c1.216-0.387,1.892-1.691,1.505-2.907
	L53.91,106.432z M41.8,113.962c-0.03,0.01-0.063-0.007-0.072-0.037l-1.045-3.29c-0.009-0.03,0.007-0.062,0.038-0.072l4.407-1.4
	l1.08,3.399L41.8,113.962z M52.766,110.478L52.766,110.478l-4.407,1.4l-1.08-3.399l4.407-1.4c0.006-0.002,0.012-0.003,0.018-0.003
	c0.024,0,0.047,0.016,0.055,0.04l1.045,3.29C52.813,110.436,52.796,110.468,52.766,110.478z M35.385,95.152l11.763-3.737
	c0.594-0.188,0.923-0.823,0.734-1.417c-0.189-0.594-0.824-0.923-1.418-0.734L34.701,93c-0.594,0.189-0.923,0.824-0.734,1.418
	c0.152,0.48,0.597,0.788,1.075,0.788C35.156,95.206,35.271,95.188,35.385,95.152z M48.976,93.44
	c-0.188-0.594-0.824-0.923-1.417-0.734l-11.764,3.738c-0.594,0.188-0.922,0.823-0.734,1.417c0.153,0.48,0.597,0.788,1.076,0.788
	c0.113,0,0.229-0.017,0.342-0.053l11.763-3.738C48.836,94.669,49.165,94.035,48.976,93.44z"/>
</svg>
