<?xml version="1.0" encoding="utf-8"?>
<!-- Generator: Adobe Illustrator 16.0.2, SVG Export Plug-In . SVG Version: 6.00 Build 0)  -->
<!DOCTYPE svg PUBLIC "-//W3C//DTD SVG 1.1//EN" "http://www.w3.org/Graphics/SVG/1.1/DTD/svg11.dtd">
<svg version="1.1" id="Layer_1" xmlns="http://www.w3.org/2000/svg" xmlns:xlink="http://www.w3.org/1999/xlink" x="0px" y="0px"
	 width="60px" height="120px" viewBox="19.73 0 60 120" enable-background="new 19.73 0 60 120" xml:space="preserve">
<g>
	<g>
		<path fill="#d32f2f" d="M73.661,31.92c0.445-0.181,0.847-0.466,1.167-0.841c0.577-0.676,0.829-1.567,0.69-2.445l-2.921-14.785
			c-0.236-1.195-1.292-2.063-2.511-2.063h-5.119V8.333h0.833v-6.25C65.801,0.935,64.867,0,63.718,0H58.48
			c-1.148,0-2.083,0.935-2.083,2.083v6.25h0.833v3.452h-1.31v4.091h-3.571v-0.638h1.012v-1.786h-1.012h-5.357h-0.774v1.786h0.774
			v0.638H43.6v-4.091h-1.31V8.333h0.833v-6.25C43.124,0.935,42.188,0,41.04,0h-5.238c-1.148,0-2.083,0.935-2.083,2.083v6.25h0.833
			v3.452h-5.178c-1.219,0-2.275,0.868-2.511,2.063L23.948,28.6l-0.006,0.034c-0.139,0.878,0.113,1.77,0.691,2.445
			c0.32,0.375,0.722,0.661,1.167,0.841l-3.45,21.162v3.644c0,1.805,1.469,3.274,3.274,3.274h16.131c1.805,0,3.274-1.469,3.274-3.274
			v-3.625l-2.535-21.203c0.658-0.351,1.106-1.043,1.106-1.839v-2.008h3.393v0.877h-0.774v1.786h0.774h5.357h1.012v-1.786h-1.012
			v-0.877h3.571v2.008c0,0.796,0.449,1.488,1.107,1.839l-2.529,21.15l-0.006,0.053v3.625c0,1.805,1.469,3.274,3.274,3.274h16.071
			c1.805,0,3.274-1.469,3.274-3.274v-3.644L73.661,31.92z M35.504,2.083c0-0.164,0.134-0.298,0.297-0.298h5.238
			c0.164,0,0.298,0.134,0.298,0.298v4.464h-5.833V2.083L35.504,2.083z M40.504,8.333v3.452h-4.167V8.333H40.504z M25.703,28.927
			l2.911-14.731c0.071-0.361,0.391-0.624,0.759-0.624h5.178h7.262v2.305v12.175v2.008c0,0.164-0.133,0.297-0.297,0.297H26.94
			c-0.366,0-0.712-0.159-0.95-0.438C25.755,29.645,25.651,29.284,25.703,28.927z M43.243,56.726c0,0.821-0.667,1.488-1.488,1.488
			H25.623c-0.821,0-1.488-0.667-1.488-1.488v-2.678h19.108V56.726L43.243,56.726z M43.129,52.262H24.292l3.28-20.119h13.151
			L43.129,52.262z M46.992,26.266H43.6v-8.604h3.393V26.266z M50.563,15.876v12.175v0.877h-1.786v-0.877V15.876v-0.638h1.786V15.876
			z M55.92,26.266h-3.571v-8.604h3.571V26.266z M58.183,2.083c0-0.164,0.133-0.298,0.297-0.298h5.238
			c0.164,0,0.297,0.134,0.297,0.298v4.464h-5.833V2.083z M63.183,8.333v3.452h-4.167V8.333H63.183z M57.707,28.052V15.876v-2.305
			h7.262h5.119c0.369,0,0.688,0.263,0.759,0.624l2.911,14.731c0.052,0.357-0.052,0.718-0.287,0.992
			c-0.238,0.279-0.584,0.438-0.95,0.438H58.004c-0.164,0-0.297-0.133-0.297-0.297V28.052L57.707,28.052z M58.796,32.143h13.091
			l3.28,20.119H56.391L58.796,32.143z M75.325,56.726c0,0.821-0.667,1.488-1.488,1.488H57.766c-0.82,0-1.488-0.667-1.488-1.488
			v-2.678h19.047V56.726L75.325,56.726z"/>
	</g>
</g>
<g>
	<g>
		<path fill="#FFFFFF" d="M73.661,91.92c0.445-0.181,0.847-0.466,1.167-0.841c0.577-0.676,0.829-1.567,0.69-2.445l-2.921-14.785
			c-0.236-1.195-1.292-2.063-2.511-2.063h-5.119v-3.452h0.833v-6.25c0-1.149-0.935-2.083-2.083-2.083H58.48
			c-1.148,0-2.083,0.935-2.083,2.083v6.25h0.833v3.452h-1.31v4.091h-3.571v-0.638h1.012v-1.786h-1.012h-5.357h-0.774v1.786h0.774
			v0.638H43.6v-4.091h-1.31v-3.452h0.833v-6.25c0-1.149-0.935-2.083-2.083-2.083h-5.238c-1.148,0-2.083,0.935-2.083,2.083v6.25
			h0.833v3.452h-5.178c-1.219,0-2.275,0.868-2.511,2.063L23.948,88.6l-0.006,0.034c-0.139,0.878,0.113,1.77,0.691,2.445
			c0.32,0.375,0.722,0.661,1.167,0.841l-3.45,21.162v3.644c0,1.805,1.469,3.274,3.274,3.274h16.131c1.805,0,3.274-1.469,3.274-3.274
			v-3.625l-2.535-21.203c0.658-0.351,1.106-1.043,1.106-1.839v-2.008h3.393v0.877h-0.774v1.786h0.774h5.357h1.012v-1.786h-1.012
			v-0.877h3.571v2.008c0,0.796,0.449,1.488,1.107,1.839l-2.529,21.15l-0.006,0.053v3.625c0,1.805,1.469,3.274,3.274,3.274h16.071
			c1.805,0,3.274-1.469,3.274-3.274v-3.644L73.661,91.92z M35.504,62.083c0-0.164,0.134-0.298,0.297-0.298h5.238
			c0.164,0,0.298,0.134,0.298,0.298v4.464h-5.833V62.083L35.504,62.083z M40.504,68.333v3.452h-4.167v-3.452H40.504z M25.703,88.927
			l2.911-14.731c0.071-0.361,0.391-0.624,0.759-0.624h5.178h7.262v2.305v12.175v2.008c0,0.164-0.133,0.297-0.297,0.297H26.94
			c-0.366,0-0.712-0.159-0.95-0.438C25.755,89.645,25.651,89.284,25.703,88.927z M43.243,116.726c0,0.821-0.667,1.488-1.488,1.488
			H25.623c-0.821,0-1.488-0.667-1.488-1.488v-2.678h19.108V116.726L43.243,116.726z M43.129,112.262H24.292l3.28-20.119h13.151
			L43.129,112.262z M46.992,86.266H43.6v-8.604h3.393V86.266z M50.563,75.876v12.175v0.877h-1.786v-0.877V75.876v-0.638h1.786
			V75.876z M55.92,86.266h-3.571v-8.604h3.571V86.266z M58.183,62.083c0-0.164,0.133-0.298,0.297-0.298h5.238
			c0.164,0,0.297,0.134,0.297,0.298v4.464h-5.833V62.083z M63.183,68.333v3.452h-4.167v-3.452H63.183z M57.707,88.052V75.876v-2.305
			h7.262h5.119c0.369,0,0.688,0.263,0.759,0.624l2.911,14.731c0.052,0.357-0.052,0.718-0.287,0.992
			c-0.238,0.279-0.584,0.438-0.95,0.438H58.004c-0.164,0-0.297-0.133-0.297-0.297V88.052L57.707,88.052z M58.796,92.143h13.091
			l3.28,20.119H56.391L58.796,92.143z M75.325,116.726c0,0.821-0.667,1.488-1.488,1.488H57.766c-0.82,0-1.488-0.667-1.488-1.488
			v-2.678h19.047V116.726L75.325,116.726z"/>
	</g>
</g>
</svg>
