<?xml version="1.0" encoding="utf-8"?>
<!-- Generator: Adobe Illustrator 16.0.2, SVG Export Plug-In . SVG Version: 6.00 Build 0)  -->
<!DOCTYPE svg PUBLIC "-//W3C//DTD SVG 1.1//EN" "http://www.w3.org/Graphics/SVG/1.1/DTD/svg11.dtd">
<svg version="1.1" id="Слой_1" xmlns="http://www.w3.org/2000/svg" xmlns:xlink="http://www.w3.org/1999/xlink" x="0px" y="0px"
	 width="60px" height="120px" viewBox="0.5 20.5 60 120" enable-background="new 0.5 20.5 60 120" xml:space="preserve">
<path fill="#D32F2F" d="M15.017,78.564h1.935V80.5h-1.935V78.564z M36.307,28.242h1.936v1.936h-1.936V28.242z M30.5,61.146
	c-4.268,0-7.742,3.474-7.742,7.741c0,4.269,3.475,7.742,7.742,7.742s7.742-3.474,7.742-7.742
	C38.242,64.619,34.768,61.146,30.5,61.146z M30.5,74.693c-3.202,0-5.807-2.604-5.807-5.807c0-3.201,2.604-5.806,5.807-5.806
	s5.807,2.604,5.807,5.806C36.307,72.089,33.702,74.693,30.5,74.693z M36.307,51.468v-5.807h4.181l1.936,4.839h6.464V23.7
	l-0.627-0.236C47.935,23.343,40.238,20.5,30.5,20.5c-9.74,0-17.437,2.843-17.76,2.964L12.113,23.7v26.8h6.462l1.936-4.839h4.183
	v5.807c0,2.762,0,4.455-3.423,9.678h-6.254v15.483h7.286c2.17,2.533,4.993,3.871,8.197,3.871c3.206,0,6.025-1.338,8.195-3.871h7.288
	V61.146h-6.252C36.307,55.923,36.307,54.229,36.307,51.468z M30.5,22.436c7.829,0,14.44,1.962,16.451,2.625v3.182h-6.773v1.936
	h6.773v1.936H14.049v-1.936h20.322v-1.936H14.049v-3.182C16.062,24.397,22.671,22.436,30.5,22.436z M19.199,43.726l-1.936,4.839
	h-3.215V34.049h32.902v14.516h-3.213l-1.936-4.839H19.199z M44.049,67.919h-3.871v1.936h3.871v4.839h-6.271l-0.291,0.363
	c-1.853,2.328-4.204,3.508-6.986,3.508s-5.132-1.18-6.986-3.508l-0.291-0.363h-6.271v-4.839h3.871v-1.936h-3.871v-4.838h5.357
	l0.287-0.432c4.033-6.05,4.033-8.203,4.033-11.182v-5.807h7.742v5.807c0,2.979,0,5.132,4.033,11.182l0.287,0.432h5.357V67.919z
	 M8.926,72.074c-2.253-2.253-3.595-5.251-3.587-8.025c0.007-2.741,1.381-5.818,3.587-8.026l-1.369-1.368
	c-2.595,2.596-4.147,6.105-4.154,9.395c-0.008,3.273,1.546,6.785,4.154,9.394L8.926,72.074z M2.436,67.919H0.5
	C0.5,74.856,6.144,80.5,13.081,80.5v-1.936C7.212,78.564,2.436,73.786,2.436,67.919z M53.442,73.442
	c2.608-2.608,4.162-6.12,4.154-9.394c-0.008-3.289-1.558-6.799-4.154-9.395l-1.368,1.368c2.203,2.208,3.579,5.285,3.587,8.026
	c0.008,2.774-1.334,5.772-3.587,8.025L53.442,73.442z M58.564,67.919c0,5.867-4.778,10.646-10.646,10.646V80.5
	c6.938,0,12.581-5.644,12.581-12.581H58.564z M28.564,47.597H30.5v1.936h-1.936V47.597z M28.564,51.468H30.5v1.936h-1.936V51.468z"
	/>
<path fill="#FFFFFF" d="M15.017,138.564h1.935v1.936h-1.935V138.564z M36.307,88.242h1.936v1.936h-1.936V88.242z M30.5,121.145
	c-4.268,0-7.742,3.475-7.742,7.742s3.475,7.742,7.742,7.742s7.742-3.475,7.742-7.742S34.768,121.145,30.5,121.145z M30.5,134.693
	c-3.202,0-5.807-2.605-5.807-5.807s2.604-5.807,5.807-5.807s5.807,2.605,5.807,5.807S33.702,134.693,30.5,134.693z M36.307,111.467
	v-5.807h4.181l1.936,4.84h6.464V83.699l-0.627-0.236C47.935,83.342,40.238,80.5,30.5,80.5c-9.74,0-17.437,2.842-17.76,2.963
	l-0.627,0.236V110.5h6.462l1.936-4.84h4.183v5.807c0,2.762,0,4.455-3.423,9.678h-6.254v15.484h7.286
	c2.17,2.533,4.993,3.871,8.197,3.871c3.206,0,6.025-1.338,8.195-3.871h7.288v-15.484h-6.252
	C36.307,115.922,36.307,114.229,36.307,111.467z M30.5,82.436c7.829,0,14.44,1.961,16.451,2.625v3.182h-6.773v1.936h6.773v1.936
	H14.049v-1.936h20.322v-1.936H14.049v-3.182C16.062,84.396,22.671,82.436,30.5,82.436z M19.199,103.725l-1.936,4.84h-3.215V94.049
	h32.902v14.516h-3.213l-1.936-4.84H19.199z M44.049,127.918h-3.871v1.936h3.871v4.84h-6.271l-0.291,0.363
	c-1.853,2.328-4.204,3.508-6.986,3.508s-5.132-1.18-6.986-3.508l-0.291-0.363h-6.271v-4.84h3.871v-1.936h-3.871v-4.838h5.357
	l0.287-0.432c4.033-6.049,4.033-8.203,4.033-11.182v-5.807h7.742v5.807c0,2.979,0,5.133,4.033,11.182l0.287,0.432h5.357V127.918z
	 M8.926,132.074c-2.252-2.254-3.595-5.252-3.587-8.025c0.007-2.742,1.382-5.818,3.587-8.027l-1.368-1.367
	c-2.595,2.596-4.147,6.105-4.154,9.395c-0.008,3.273,1.546,6.785,4.154,9.393L8.926,132.074z M2.436,127.918H0.5
	c0,6.938,5.645,12.582,12.581,12.582v-1.936C7.212,138.564,2.436,133.785,2.436,127.918z M53.442,133.441
	c2.608-2.607,4.162-6.119,4.154-9.393c-0.008-3.289-1.558-6.799-4.154-9.395l-1.368,1.367c2.203,2.209,3.579,5.285,3.587,8.027
	c0.008,2.773-1.334,5.771-3.587,8.025L53.442,133.441z M58.564,127.918c0,5.867-4.778,10.646-10.646,10.646v1.936
	c6.938,0,12.581-5.645,12.581-12.582H58.564z M28.564,107.596H30.5v1.936h-1.936V107.596z M28.564,111.467H30.5v1.936h-1.936
	V111.467z"/>
</svg>
