<?xml version="1.0" encoding="utf-8"?>
<!-- Generator: Adobe Illustrator 16.0.2, SVG Export Plug-In . SVG Version: 6.00 Build 0)  -->
<!DOCTYPE svg PUBLIC "-//W3C//DTD SVG 1.1//EN" "http://www.w3.org/Graphics/SVG/1.1/DTD/svg11.dtd">
<svg version="1.1" id="Capa_1" xmlns="http://www.w3.org/2000/svg" xmlns:xlink="http://www.w3.org/1999/xlink" x="0px" y="0px"
	 width="60px" height="120px" viewBox="225.999 2.5 60 120" enable-background="new 225.999 2.5 60 120" xml:space="preserve">
<path fill="#D33131" d="M270.135,19.478h4.72c1.358,0,2.463-1.105,2.463-2.463V4.963c0-1.358-1.104-2.463-2.463-2.463h-4.72
	c-1.358,0-2.463,1.105-2.463,2.463v4.869h-7.589c-0.506-1.779-2.145-3.087-4.083-3.087s-3.578,1.308-4.083,3.087h-7.589V4.963
	c0-1.358-1.105-2.463-2.463-2.463h-4.721c-1.358,0-2.463,1.105-2.463,2.463v12.052c0,1.358,1.105,2.463,2.463,2.463h4.721
	c1.358,0,2.463-1.105,2.463-2.463v-4.868h7.589c0.401,1.411,1.514,2.524,2.925,2.924v19.274c-1.8,0.654-3.087,2.806-3.087,5.433
	s1.287,4.779,3.087,5.433v4.718c-1.411,0.4-2.524,1.514-2.925,2.925h-7.589v-4.869c0-1.358-1.105-2.463-2.463-2.463h-4.721
	c-1.358,0-2.463,1.105-2.463,2.463v12.052c0,1.358,1.105,2.463,2.463,2.463h4.721c1.358,0,2.463-1.105,2.463-2.463v-4.868h7.589
	c0.505,1.779,2.144,3.087,4.083,3.087s3.578-1.308,4.083-3.087h7.59v4.868c0,1.358,1.104,2.463,2.462,2.463h4.721
	c1.358,0,2.463-1.105,2.463-2.463V47.985c0-1.358-1.104-2.463-2.463-2.463h-4.721c-1.357,0-2.462,1.105-2.462,2.463v4.869h-7.59
	c-0.4-1.411-1.514-2.524-2.925-2.925v-4.718c1.8-0.654,3.087-2.806,3.087-5.433s-1.287-4.778-3.087-5.433V15.071
	c1.41-0.4,2.523-1.514,2.925-2.924h7.59v4.868C267.672,18.373,268.776,19.478,270.135,19.478z M242.012,17.015
	c0,0.082-0.066,0.147-0.147,0.147h-4.721c-0.082,0-0.147-0.066-0.147-0.147V4.963c0-0.082,0.066-0.147,0.147-0.147h4.721
	c0.082,0,0.147,0.066,0.147,0.147V17.015L242.012,17.015z M242.012,60.037c0,0.082-0.066,0.147-0.147,0.147h-4.721
	c-0.082,0-0.147-0.066-0.147-0.147V47.985c0-0.082,0.066-0.147,0.147-0.147h4.721c0.082,0,0.147,0.066,0.147,0.147V60.037
	L242.012,60.037z M269.986,47.985c0-0.082,0.066-0.148,0.148-0.148h4.72c0.082,0,0.148,0.066,0.148,0.148v12.052
	c0,0.082-0.066,0.147-0.148,0.147h-4.72c-0.082,0-0.148-0.066-0.148-0.147V47.985z M257.929,54.011c0,1.064-0.865,1.929-1.929,1.929
	c-1.063,0-1.929-0.866-1.929-1.929c0-1.064,0.866-1.929,1.929-1.929C257.063,52.082,257.929,52.947,257.929,54.011z M256,43.102
	c-0.913,0-1.929-1.365-1.929-3.323c0-1.958,1.017-3.323,1.929-3.323s1.929,1.365,1.929,3.323
	C257.929,41.736,256.912,43.102,256,43.102z M256,12.918c-1.064,0-1.929-0.865-1.929-1.929c0-1.063,0.866-1.929,1.929-1.929
	c1.064,0,1.929,0.866,1.929,1.929C257.929,12.053,257.063,12.918,256,12.918z M269.986,4.963c0-0.082,0.066-0.147,0.148-0.147h4.72
	c0.082,0,0.148,0.066,0.148,0.147v12.052c0,0.082-0.066,0.147-0.148,0.147h-4.72c-0.082,0-0.148-0.066-0.148-0.147V4.963z"/>
<path fill="#FFFFFF" d="M270.135,79.478h4.72c1.358,0,2.463-1.105,2.463-2.463V64.963c0-1.358-1.104-2.463-2.463-2.463h-4.72
	c-1.358,0-2.463,1.105-2.463,2.463v4.869h-7.589c-0.506-1.779-2.145-3.087-4.083-3.087s-3.578,1.308-4.083,3.087h-7.589v-4.869
	c0-1.358-1.105-2.463-2.463-2.463h-4.721c-1.358,0-2.463,1.105-2.463,2.463v12.052c0,1.358,1.105,2.463,2.463,2.463h4.721
	c1.358,0,2.463-1.105,2.463-2.463v-4.868h7.589c0.401,1.411,1.514,2.524,2.925,2.924v19.274c-1.8,0.654-3.087,2.806-3.087,5.433
	s1.287,4.779,3.087,5.433v4.718c-1.411,0.4-2.524,1.514-2.925,2.925h-7.589v-4.869c0-1.358-1.105-2.463-2.463-2.463h-4.721
	c-1.358,0-2.463,1.105-2.463,2.463v12.052c0,1.358,1.105,2.463,2.463,2.463h4.721c1.358,0,2.463-1.105,2.463-2.463v-4.868h7.589
	c0.505,1.779,2.144,3.087,4.083,3.087s3.578-1.308,4.083-3.087h7.59v4.868c0,1.358,1.104,2.463,2.462,2.463h4.721
	c1.358,0,2.463-1.105,2.463-2.463v-12.052c0-1.358-1.104-2.463-2.463-2.463h-4.721c-1.357,0-2.462,1.105-2.462,2.463v4.869h-7.59
	c-0.4-1.411-1.514-2.524-2.925-2.925v-4.718c1.8-0.654,3.087-2.806,3.087-5.433s-1.287-4.778-3.087-5.433V75.071
	c1.41-0.4,2.523-1.514,2.925-2.924h7.59v4.868C267.672,78.373,268.776,79.478,270.135,79.478z M242.012,77.015
	c0,0.082-0.066,0.147-0.147,0.147h-4.721c-0.082,0-0.147-0.066-0.147-0.147V64.963c0-0.082,0.066-0.147,0.147-0.147h4.721
	c0.082,0,0.147,0.066,0.147,0.147V77.015L242.012,77.015z M242.012,120.037c0,0.082-0.066,0.147-0.147,0.147h-4.721
	c-0.082,0-0.147-0.066-0.147-0.147v-12.052c0-0.082,0.066-0.147,0.147-0.147h4.721c0.082,0,0.147,0.066,0.147,0.147V120.037
	L242.012,120.037z M269.986,107.985c0-0.082,0.066-0.148,0.148-0.148h4.72c0.082,0,0.148,0.066,0.148,0.148v12.052
	c0,0.082-0.066,0.147-0.148,0.147h-4.72c-0.082,0-0.148-0.066-0.148-0.147V107.985z M257.929,114.011
	c0,1.064-0.865,1.929-1.929,1.929c-1.063,0-1.929-0.866-1.929-1.929c0-1.064,0.866-1.929,1.929-1.929
	C257.063,112.082,257.929,112.947,257.929,114.011z M256,103.102c-0.913,0-1.929-1.365-1.929-3.323c0-1.958,1.017-3.323,1.929-3.323
	s1.929,1.365,1.929,3.323C257.929,101.736,256.912,103.102,256,103.102z M256,72.918c-1.064,0-1.929-0.865-1.929-1.929
	c0-1.063,0.866-1.929,1.929-1.929c1.064,0,1.929,0.866,1.929,1.929C257.929,72.053,257.063,72.918,256,72.918z M269.986,64.963
	c0-0.082,0.066-0.147,0.148-0.147h4.72c0.082,0,0.148,0.066,0.148,0.147v12.052c0,0.082-0.066,0.147-0.148,0.147h-4.72
	c-0.082,0-0.148-0.066-0.148-0.147V64.963z"/>
</svg>
