<?xml version="1.0" encoding="utf-8"?>
<!-- Generator: Adobe Illustrator 16.0.2, SVG Export Plug-In . SVG Version: 6.00 Build 0)  -->
<!DOCTYPE svg PUBLIC "-//W3C//DTD SVG 1.1//EN" "http://www.w3.org/Graphics/SVG/1.1/DTD/svg11.dtd">
<svg version="1.1" id="Capa_1" xmlns="http://www.w3.org/2000/svg" xmlns:xlink="http://www.w3.org/1999/xlink" x="0px" y="0px"
	 width="60px" height="120px" viewBox="226.005 0 60 120" enable-background="new 226.005 0 60 120" xml:space="preserve">
<g>
	<path fill="#D33131" d="M281.542,43.325l-4.43-2.556l2.422-1.402c0.593-0.343,0.796-1.101,0.453-1.693
		c-0.345-0.593-1.103-0.793-1.695-0.45l-3.66,2.112l-3.011-1.741l7.203-4.158c0.591-0.343,0.794-1.097,0.453-1.693
		c-0.345-0.589-1.104-0.795-1.693-0.449l-8.445,4.871l-1.966-1.139c0.69-1.531,1.086-3.227,1.086-5.014
		c0-1.792-0.396-3.484-1.088-5.02l1.966-1.137l8.445,4.875c0.195,0.113,0.408,0.168,0.621,0.168c0.431,0,0.847-0.224,1.075-0.621
		c0.342-0.592,0.139-1.351-0.452-1.693l-7.207-4.164l3.015-1.739l3.663,2.117c0.195,0.113,0.41,0.168,0.621,0.168
		c0.429,0,0.845-0.224,1.075-0.621c0.343-0.592,0.14-1.353-0.452-1.694l-2.424-1.401l4.428-2.558
		c0.592-0.343,0.796-1.102,0.452-1.693c-0.343-0.591-1.104-0.794-1.692-0.451l-4.426,2.557v-2.795c0-0.685-0.558-1.24-1.241-1.24
		c-0.686,0-1.24,0.556-1.24,1.24l0.002,4.229l-3.011,1.739l0.001-8.314c0-0.686-0.554-1.24-1.24-1.24c-0.685,0-1.24,0.556-1.24,1.24
		l-0.001,9.75l-1.98,1.135c-2-2.762-5.112-4.667-8.683-5.029v-2.265l8.442-4.875c0.593-0.341,0.796-1.101,0.453-1.693
		c-0.344-0.594-1.103-0.796-1.693-0.453l-7.202,4.163V9.224l3.662-2.114c0.594-0.343,0.794-1.102,0.453-1.693
		c-0.345-0.591-1.104-0.797-1.693-0.453l-2.422,1.396V1.24C257.243,0.556,256.688,0,256.003,0c-0.685,0-1.24,0.556-1.24,1.24v5.115
		l-2.42-1.399c-0.594-0.343-1.352-0.14-1.694,0.451c-0.343,0.59-0.14,1.35,0.453,1.693l3.662,2.117v3.475l-7.204-4.159
		c-0.591-0.341-1.352-0.14-1.693,0.455c-0.343,0.592-0.138,1.351,0.453,1.693l8.444,4.874v2.267c-3.57,0.36-6.683,2.268-8.682,5.029
		l-1.979-1.14v-9.752c0-0.685-0.556-1.241-1.24-1.241s-1.24,0.556-1.24,1.241v8.317l-3.008-1.739l-0.001-4.232
		c0-0.684-0.556-1.24-1.241-1.24c-0.684,0-1.24,0.556-1.24,1.24v2.795l-4.429-2.554c-0.592-0.343-1.352-0.14-1.694,0.451
		c-0.343,0.591-0.138,1.352,0.453,1.691l4.429,2.56l-2.422,1.397c-0.594,0.343-0.796,1.103-0.454,1.695
		c0.23,0.397,0.648,0.621,1.075,0.621c0.209,0,0.424-0.052,0.621-0.168l3.661-2.112l3.011,1.739l-7.206,4.159
		c-0.594,0.343-0.795,1.103-0.452,1.695c0.23,0.397,0.646,0.621,1.075,0.621c0.21,0,0.423-0.054,0.621-0.168l8.442-4.875
		l1.974,1.139c-0.692,1.534-1.085,3.23-1.085,5.018c0,1.792,0.394,3.478,1.085,5.014l-1.971,1.139l-8.449-4.868
		c-0.593-0.343-1.352-0.139-1.693,0.451c-0.343,0.594-0.137,1.353,0.456,1.695l7.204,4.156l-3.013,1.742l-3.659-2.117
		c-0.592-0.338-1.351-0.138-1.694,0.453c-0.343,0.592-0.14,1.353,0.453,1.694l2.422,1.4l-4.426,2.554
		c-0.594,0.343-0.796,1.1-0.453,1.691c0.23,0.397,0.646,0.621,1.075,0.621c0.209,0,0.422-0.051,0.621-0.17l4.429-2.555l0.002,2.798
		c0,0.686,0.556,1.24,1.24,1.24l0,0c0.684,0,1.24-0.556,1.24-1.24l-0.003-4.232l3.014-1.739l-0.001,8.32
		c0,0.685,0.554,1.24,1.24,1.24s1.24-0.557,1.24-1.24l0.003-9.756l1.974-1.139c1.998,2.764,5.112,4.672,8.684,5.031v2.265
		l-8.441,4.874c-0.594,0.343-0.795,1.101-0.454,1.693c0.343,0.594,1.102,0.797,1.694,0.454l7.201-4.161v3.476l-3.662,2.112
		c-0.594,0.343-0.796,1.102-0.453,1.696c0.345,0.589,1.102,0.795,1.693,0.451l2.422-1.402v5.112c0,0.686,0.556,1.24,1.24,1.24
		c0.684,0,1.241-0.556,1.241-1.24v-5.115l2.427,1.405c0.193,0.11,0.407,0.168,0.62,0.168c0.429,0,0.846-0.226,1.075-0.621
		c0.344-0.594,0.139-1.354-0.452-1.696l-3.667-2.116v-3.475l7.203,4.161c0.195,0.109,0.41,0.165,0.621,0.165
		c0.431,0,0.847-0.224,1.075-0.621c0.344-0.592,0.142-1.352-0.452-1.693l-8.444-4.874v-2.265c3.573-0.359,6.685-2.265,8.686-5.031
		l1.976,1.139v9.755c0,0.685,0.556,1.24,1.24,1.24c0.683,0,1.24-0.557,1.24-1.24v-8.32l3.008,1.739l0.002,4.229
		c0,0.686,0.558,1.241,1.24,1.241c0.686,0,1.24-0.556,1.24-1.241v-2.795l4.428,2.559c0.196,0.113,0.409,0.17,0.621,0.17
		c0.43,0,0.846-0.224,1.076-0.621C282.339,44.426,282.134,43.668,281.542,43.325z M257.239,39.701
		c-0.407,0.051-0.82,0.087-1.241,0.087c-0.422,0-0.833-0.033-1.24-0.087c-2.654-0.34-4.972-1.746-6.522-3.775
		c-0.502-0.655-0.927-1.369-1.251-2.143c-0.489-1.159-0.759-2.436-0.759-3.77c0-1.34,0.271-2.613,0.761-3.772
		c0.324-0.772,0.751-1.485,1.253-2.144c1.55-2.029,3.869-3.432,6.521-3.771c0.408-0.051,0.821-0.089,1.24-0.089
		c0.419,0,0.832,0.035,1.24,0.089c2.652,0.338,4.973,1.745,6.522,3.77c0.5,0.656,0.931,1.372,1.253,2.143
		c0.487,1.161,0.76,2.441,0.76,3.775c0,1.337-0.272,2.611-0.758,3.773c-0.324,0.769-0.751,1.483-1.253,2.143
		C262.215,37.956,259.895,39.361,257.239,39.701z"/>
</g>
<g>
	<path fill="#FFFFFF" d="M281.542,103.325l-4.43-2.556l2.422-1.402c0.593-0.343,0.796-1.101,0.453-1.693
		c-0.345-0.593-1.103-0.793-1.695-0.45l-3.66,2.112l-3.011-1.741l7.203-4.158c0.591-0.343,0.794-1.097,0.453-1.693
		c-0.345-0.589-1.104-0.795-1.693-0.449l-8.445,4.871l-1.966-1.139c0.69-1.531,1.086-3.227,1.086-5.014
		c0-1.792-0.396-3.484-1.088-5.02l1.966-1.137l8.445,4.875c0.195,0.113,0.408,0.168,0.621,0.168c0.431,0,0.847-0.224,1.075-0.621
		c0.342-0.592,0.139-1.351-0.452-1.693l-7.207-4.164l3.015-1.739l3.663,2.117c0.195,0.113,0.41,0.168,0.621,0.168
		c0.429,0,0.845-0.224,1.075-0.621c0.343-0.592,0.14-1.353-0.452-1.694l-2.424-1.401l4.428-2.558
		c0.592-0.343,0.796-1.102,0.452-1.693c-0.343-0.591-1.104-0.794-1.692-0.451l-4.426,2.557v-2.795c0-0.685-0.558-1.24-1.241-1.24
		c-0.686,0-1.24,0.556-1.24,1.24l0.002,4.229l-3.011,1.739l0.001-8.314c0-0.686-0.554-1.24-1.24-1.24c-0.685,0-1.24,0.556-1.24,1.24
		l-0.001,9.75l-1.98,1.135c-2-2.762-5.112-4.667-8.683-5.029v-2.265l8.442-4.875c0.593-0.341,0.796-1.101,0.453-1.693
		c-0.344-0.594-1.103-0.796-1.693-0.453l-7.202,4.163v-3.477l3.662-2.114c0.594-0.343,0.794-1.102,0.453-1.693
		c-0.345-0.591-1.104-0.797-1.693-0.453l-2.422,1.396v-5.12c-0.002-0.685-0.558-1.24-1.242-1.24c-0.685,0-1.24,0.556-1.24,1.24
		v5.115l-2.42-1.399c-0.594-0.343-1.352-0.14-1.694,0.451c-0.343,0.59-0.14,1.35,0.453,1.693l3.662,2.117v3.475l-7.204-4.159
		c-0.591-0.341-1.352-0.14-1.693,0.455c-0.343,0.592-0.138,1.351,0.453,1.693l8.444,4.874v2.267c-3.57,0.36-6.683,2.268-8.682,5.029
		l-1.979-1.14v-9.752c0-0.685-0.556-1.241-1.24-1.241s-1.24,0.556-1.24,1.241v8.317l-3.008-1.739l-0.001-4.232
		c0-0.684-0.556-1.24-1.241-1.24c-0.684,0-1.24,0.556-1.24,1.24v2.795l-4.429-2.554c-0.592-0.343-1.352-0.14-1.694,0.451
		c-0.343,0.591-0.138,1.352,0.453,1.691l4.429,2.56l-2.422,1.397c-0.594,0.343-0.796,1.103-0.454,1.695
		c0.23,0.397,0.648,0.621,1.075,0.621c0.209,0,0.424-0.052,0.621-0.168l3.661-2.112l3.011,1.739l-7.206,4.159
		c-0.594,0.343-0.795,1.103-0.452,1.695c0.23,0.397,0.646,0.621,1.075,0.621c0.21,0,0.423-0.054,0.621-0.168l8.442-4.875
		l1.974,1.139c-0.692,1.534-1.085,3.23-1.085,5.018c0,1.792,0.394,3.478,1.085,5.014l-1.971,1.139l-8.449-4.868
		c-0.593-0.343-1.352-0.139-1.693,0.451c-0.343,0.594-0.137,1.353,0.456,1.695l7.204,4.156l-3.013,1.742l-3.659-2.117
		c-0.592-0.338-1.351-0.138-1.694,0.453c-0.343,0.592-0.14,1.353,0.453,1.694l2.422,1.4l-4.426,2.554
		c-0.594,0.343-0.796,1.1-0.453,1.691c0.23,0.397,0.646,0.621,1.075,0.621c0.209,0,0.422-0.051,0.621-0.17l4.429-2.555l0.002,2.798
		c0,0.686,0.556,1.24,1.24,1.24l0,0c0.684,0,1.24-0.556,1.24-1.24l-0.003-4.232l3.014-1.739l-0.001,8.32
		c0,0.685,0.554,1.24,1.24,1.24s1.24-0.557,1.24-1.24l0.003-9.756l1.974-1.139c1.998,2.764,5.112,4.672,8.684,5.031v2.265
		l-8.441,4.874c-0.594,0.343-0.795,1.101-0.454,1.693c0.343,0.594,1.102,0.797,1.694,0.454l7.201-4.161v3.476l-3.662,2.112
		c-0.594,0.343-0.796,1.102-0.453,1.696c0.345,0.589,1.102,0.795,1.693,0.451l2.422-1.402v5.112c0,0.686,0.556,1.24,1.24,1.24
		c0.684,0,1.241-0.556,1.241-1.24v-5.115l2.427,1.405c0.193,0.11,0.407,0.168,0.62,0.168c0.429,0,0.846-0.226,1.075-0.621
		c0.344-0.594,0.139-1.354-0.452-1.696l-3.667-2.116v-3.475l7.203,4.161c0.195,0.109,0.41,0.165,0.621,0.165
		c0.431,0,0.847-0.224,1.075-0.621c0.344-0.592,0.142-1.352-0.452-1.693l-8.444-4.874v-2.265c3.573-0.359,6.685-2.265,8.686-5.031
		l1.976,1.139v9.755c0,0.685,0.556,1.24,1.24,1.24c0.683,0,1.24-0.557,1.24-1.24v-8.32l3.008,1.739l0.002,4.229
		c0,0.686,0.558,1.241,1.24,1.241c0.686,0,1.24-0.556,1.24-1.241v-2.795l4.428,2.559c0.196,0.113,0.409,0.17,0.621,0.17
		c0.43,0,0.846-0.224,1.076-0.621C282.339,104.426,282.134,103.668,281.542,103.325z M257.239,99.701
		c-0.407,0.051-0.82,0.087-1.241,0.087c-0.422,0-0.833-0.033-1.24-0.087c-2.654-0.34-4.972-1.746-6.522-3.775
		c-0.502-0.655-0.927-1.369-1.251-2.143c-0.489-1.159-0.759-2.436-0.759-3.77c0-1.34,0.271-2.613,0.761-3.772
		c0.324-0.772,0.751-1.485,1.253-2.144c1.55-2.029,3.869-3.432,6.521-3.771c0.408-0.051,0.821-0.089,1.24-0.089
		c0.419,0,0.832,0.035,1.24,0.089c2.652,0.338,4.973,1.745,6.522,3.77c0.5,0.656,0.931,1.372,1.253,2.143
		c0.487,1.161,0.76,2.441,0.76,3.775c0,1.337-0.272,2.611-0.758,3.773c-0.324,0.769-0.751,1.483-1.253,2.143
		C262.215,97.956,259.895,99.361,257.239,99.701z"/>
</g>
</svg>
