<?xml version="1.0" encoding="utf-8"?>
<!-- Generator: Adobe Illustrator 16.0.2, SVG Export Plug-In . SVG Version: 6.00 Build 0)  -->
<!DOCTYPE svg PUBLIC "-//W3C//DTD SVG 1.1//EN" "http://www.w3.org/Graphics/SVG/1.1/DTD/svg11.dtd">
<svg version="1.1" id="Layer_1" xmlns="http://www.w3.org/2000/svg" xmlns:xlink="http://www.w3.org/1999/xlink" x="0px" y="0px"
	 width="60px" height="120px" viewBox="-20 -20 60 120" enable-background="new -20 -20 60 120" xml:space="preserve">
<path fill="#D33131" d="M-14.76,20.348l-4.891,4.142l1.238,1.513l5.487-4.648c1.395,0.604,2.928,0.941,4.54,0.941
	c2.186,0,4.939-0.923,6.253-2.058C0.706,23.882,5.084,26.229,10,26.229c4.992,0,9.428-2.424,12.264-6.164l-0.205,0.318
	c1.881,1.251,4.072,1.912,6.334,1.912c1.605,0,3.141-0.337,4.535-0.938l5.484,4.646l1.239-1.513l-4.89-4.142
	C37.914,18.236,40,14.609,40,10.491c0-6.508-5.209-11.803-11.607-11.803c-2.262,0-4.453,0.661-6.34,1.913l0.164,0.254
	C19.381-2.849,14.963-5.246,10-5.246c-4.916,0-9.294,2.348-12.133,5.99c-1.315-1.132-4.068-2.056-6.255-2.056
	C-14.791-1.311-20,3.983-20,10.491C-20,14.609-17.913,18.236-14.76,20.348z M28.393,0.656c5.332,0,9.674,4.413,9.674,9.835
	c0,5.423-4.342,9.835-9.674,9.835c-1.869,0-3.68-0.542-5.241-1.569c1.468-2.405,2.332-5.231,2.332-8.266
	c0-1.609-0.243-3.164-0.688-4.629c0.768-0.618,1.658-1.021,2.625-1.185v1.88h1.934V4.679c2.906,0.471,4.84,2.895,4.84,5.813
	c0,1.433-0.516,2.874-1.395,3.934H31.29v1.968h2.341l0.287-0.294c1.406-1.463,2.215-3.505,2.215-5.607
	c0-4.338-3.472-7.868-7.74-7.868c-1.564,0-3.056,0.469-4.324,1.338c-0.27-0.6-0.577-1.178-0.917-1.736
	C24.713,1.201,26.523,0.656,28.393,0.656z M10-3.279c7.471,0,13.547,6.177,13.547,13.77S17.471,24.263,10,24.263
	S-3.548,18.084-3.548,10.491S2.529-3.279,10-3.279z M-8.387,0.656c1.922,0,4.374,0.918,5.123,1.679l0.123-0.126
	C-3.484,2.77-3.796,3.354-4.068,3.96c-1.267-0.87-2.754-1.337-4.318-1.337c-4.269,0-7.742,3.53-7.742,7.868
	c0,2.069,0.785,4.026,2.21,5.506l1.383-1.376c-0.839-0.872-1.377-1.965-1.572-3.146h1.849V9.509h-1.849
	c0.41-2.467,2.326-4.413,4.752-4.83v1.879h1.935v-1.88c0.961,0.163,1.856,0.566,2.622,1.182c-0.444,1.465-0.686,3.02-0.686,4.632
	c0,3.04,0.867,5.875,2.342,8.284l-0.123-0.128c-0.749,0.762-3.201,1.679-5.123,1.679c-5.336,0-9.678-4.412-9.678-9.835
	C-18.065,5.067-13.723,0.656-8.387,0.656z M0.479,16.932l0.472,0.732l2.708-1.375l-0.867-1.757l-1.14,0.577
	c-0.69-1.235-1.104-2.453-1.257-3.635h1.863V9.509H0.372C0.48,8.399,0.779,7.35,1.22,6.381l1.469,0.994l1.074-1.636L2.207,4.685
	c0.584-0.809,1.285-1.521,2.079-2.114l1.039,1.581l1.61-1.09l-0.98-1.493c0.955-0.448,1.988-0.752,3.078-0.864v1.918h1.937V0.705
	c1.088,0.11,2.122,0.416,3.077,0.864l-0.981,1.493l1.611,1.09l1.037-1.581c0.797,0.594,1.494,1.306,2.08,2.114l-1.556,1.054
	l1.075,1.636l1.468-0.994c0.442,0.969,0.738,2.019,0.847,3.128H17.74v1.966h1.863c-0.152,1.182-0.568,2.399-1.257,3.635l-1.14-0.577
	l-0.867,1.757l2.707,1.375l0.475-0.732c1.389-2.167,2.092-4.332,2.092-6.44c0-6.508-5.209-11.802-11.613-11.802
	S-1.613,3.983-1.613,10.491C-1.613,12.6-0.909,14.765,0.479,16.932z M5.162,18.361h9.678v1.965H5.162V18.361z M8.065,21.31h3.869
	v1.971H8.065V21.31z M11.934,14.425V12.46h-1.481L5.904,6.912L4.417,8.17l3.647,4.45v1.805H11.934z M-7.42,16.393h1.937v1.969H-7.42
	V16.393z M-11.29,16.393h1.935v1.969h-1.935V16.393z M27.42,16.393h1.934v1.969H27.42V16.393z M31.677,8.721l1.163,1.574
	l-3.873,2.951l-1.16-1.572L31.677,8.721z M-9.355,7.541h1.935v3.934h-1.935V7.541z M38.066,38.032H40V40h-1.934V38.032z M-20,38.032
	h56.127V40H-20V38.032z M9.032-20h1.937v7.869H9.032V-20z M9.032-10.163h1.937v1.967H9.032V-10.163z M-2.864-17.745l8.71,8.853
	l-1.368,1.39l-8.71-8.853L-2.864-17.745z M22.864-17.745l1.368,1.391l-8.71,8.853l-1.368-1.39L22.864-17.745z M-0.645,32.13h21.292
	c2.133,0,3.87,1.766,3.87,3.937h1.937c0-3.258-2.607-5.901-5.807-5.901H-0.645c-3.202,0-5.807,2.644-5.807,5.901h1.935
	C-4.517,33.896-2.779,32.13-0.645,32.13z M-3.548,24.263h1.935v1.966h-1.935V24.263z M-7.42,24.263h1.937v1.966H-7.42V24.263z
	 M21.613,24.263h1.934v1.966h-1.934V24.263z"/>
<path fill="#FFFFFF" d="M-14.76,80.348l-4.891,4.142l1.238,1.513l5.487-4.648c1.395,0.604,2.928,0.941,4.54,0.941
	c2.186,0,4.939-0.923,6.253-2.058C0.706,83.882,5.084,86.229,10,86.229c4.992,0,9.428-2.424,12.264-6.164l-0.205,0.318
	c1.881,1.251,4.072,1.912,6.334,1.912c1.605,0,3.141-0.337,4.535-0.938l5.484,4.646l1.239-1.513l-4.89-4.142
	C37.914,78.236,40,74.609,40,70.491c0-6.508-5.209-11.804-11.607-11.804c-2.262,0-4.453,0.662-6.34,1.914l0.164,0.254
	c-2.836-3.704-7.254-6.102-12.217-6.102c-4.916,0-9.294,2.348-12.133,5.99c-1.315-1.132-4.068-2.057-6.255-2.057
	C-14.791,58.689-20,63.983-20,70.491C-20,74.609-17.913,78.236-14.76,80.348z M28.393,60.656c5.332,0,9.674,4.412,9.674,9.835
	s-4.342,9.835-9.674,9.835c-1.869,0-3.68-0.542-5.241-1.569c1.468-2.405,2.332-5.231,2.332-8.266c0-1.609-0.243-3.163-0.688-4.629
	c0.768-0.618,1.658-1.021,2.625-1.185v1.88h1.934v-1.879c2.906,0.471,4.84,2.895,4.84,5.813c0,1.433-0.516,2.874-1.395,3.934H31.29
	v1.968h2.341l0.287-0.294c1.406-1.463,2.215-3.505,2.215-5.607c0-4.339-3.472-7.868-7.74-7.868c-1.564,0-3.056,0.469-4.324,1.338
	c-0.27-0.6-0.577-1.178-0.917-1.736C24.713,61.201,26.523,60.656,28.393,60.656z M10,56.721c7.471,0,13.547,6.178,13.547,13.771
	S17.471,84.263,10,84.263S-3.548,78.084-3.548,70.491S2.529,56.721,10,56.721z M-8.387,60.656c1.922,0,4.374,0.918,5.123,1.68
	l0.123-0.127c-0.343,0.561-0.655,1.145-0.927,1.751c-1.267-0.87-2.754-1.337-4.318-1.337c-4.269,0-7.742,3.529-7.742,7.868
	c0,2.069,0.785,4.026,2.21,5.506l1.383-1.376c-0.839-0.872-1.377-1.965-1.572-3.146h1.849v-1.966h-1.849
	c0.41-2.468,2.326-4.413,4.752-4.83v1.879h1.935v-1.88c0.961,0.162,1.856,0.565,2.622,1.182c-0.444,1.465-0.686,3.02-0.686,4.632
	c0,3.04,0.867,5.875,2.342,8.284l-0.123-0.128c-0.749,0.762-3.201,1.679-5.123,1.679c-5.336,0-9.678-4.412-9.678-9.835
	C-18.065,65.067-13.723,60.656-8.387,60.656z M0.479,76.932l0.472,0.732l2.708-1.375l-0.867-1.757l-1.14,0.577
	c-0.69-1.235-1.104-2.453-1.257-3.635h1.863v-1.966H0.372c0.108-1.109,0.407-2.159,0.848-3.128l1.469,0.994l1.074-1.637
	l-1.556-1.053c0.584-0.809,1.285-1.521,2.079-2.115l1.039,1.582l1.61-1.09l-0.98-1.494c0.955-0.447,1.988-0.752,3.078-0.863v1.918
	h1.937v-1.918c1.088,0.11,2.122,0.416,3.077,0.863l-0.981,1.494l1.611,1.09l1.037-1.582c0.797,0.594,1.494,1.307,2.08,2.115
	l-1.556,1.053l1.075,1.637l1.468-0.994c0.442,0.969,0.738,2.019,0.847,3.128H17.74v1.966h1.863
	c-0.152,1.182-0.568,2.399-1.257,3.635l-1.14-0.577l-0.867,1.757l2.707,1.375l0.475-0.732c1.389-2.167,2.092-4.332,2.092-6.44
	c0-6.508-5.209-11.802-11.613-11.802S-1.613,63.983-1.613,70.491C-1.613,72.6-0.909,74.765,0.479,76.932z M5.162,78.361h9.678v1.965
	H5.162V78.361z M8.065,81.31h3.869v1.971H8.065V81.31z M11.934,74.425V72.46h-1.481l-4.548-5.548L4.417,68.17l3.647,4.45v1.805
	H11.934z M-7.42,76.393h1.937v1.969H-7.42V76.393z M-11.29,76.393h1.935v1.969h-1.935V76.393z M27.42,76.393h1.934v1.969H27.42
	V76.393z M31.677,68.721l1.163,1.574l-3.873,2.951l-1.16-1.572L31.677,68.721z M-9.355,67.541h1.935v3.934h-1.935V67.541z
	 M38.066,98.032H40V100h-1.934V98.032z M-20,98.032h56.127V100H-20V98.032z M9.032,40h1.937v7.869H9.032V40z M9.032,49.837h1.937
	v1.967H9.032V49.837z M-2.864,42.256l8.71,8.853l-1.368,1.39l-8.71-8.852L-2.864,42.256z M22.864,42.256l1.368,1.391l-8.71,8.852
	l-1.368-1.39L22.864,42.256z M-0.645,92.13h21.292c2.133,0,3.87,1.766,3.87,3.937h1.937c0-3.258-2.607-5.901-5.807-5.901H-0.645
	c-3.202,0-5.807,2.644-5.807,5.901h1.935C-4.517,93.896-2.779,92.13-0.645,92.13z M-3.548,84.263h1.935v1.966h-1.935V84.263z
	 M-7.42,84.263h1.937v1.966H-7.42V84.263z M21.613,84.263h1.934v1.966h-1.934V84.263z"/>
</svg>
