<?xml version="1.0" encoding="utf-8"?>
<!-- Generator: Adobe Illustrator 16.0.2, SVG Export Plug-In . SVG Version: 6.00 Build 0)  -->
<!DOCTYPE svg PUBLIC "-//W3C//DTD SVG 1.1//EN" "http://www.w3.org/Graphics/SVG/1.1/DTD/svg11.dtd">
<svg version="1.1" id="Layer_1" xmlns="http://www.w3.org/2000/svg" xmlns:xlink="http://www.w3.org/1999/xlink" x="0px" y="0px"
	 width="60.001px" height="120px" viewBox="225.999 226 60.001 120" enable-background="new 225.999 226 60.001 120"
	 xml:space="preserve">
<path fill="#D33131" d="M247.759,229.871l-5.308,7.432v2.246h14.516v-9.678l0,0H247.759L247.759,229.871z M255.032,237.613
	L255.032,237.613h-10.423l4.146-5.807h6.276V237.613z M257.936,229.871v9.677h14.517v-2.245l-5.308-7.432H257.936L257.936,229.871z
	 M259.871,237.613v-5.807h6.275l4.147,5.807H259.871z M254.064,240.518h2.902v1.936h-2.902V240.518L254.064,240.518z M239.548,256
	c1.601,0,2.903-1.303,2.903-2.902c0-1.601-1.303-2.904-2.903-2.904c-1.6,0-2.903,1.304-2.903,2.904S237.948,256,239.548,256z
	 M239.548,252.129c0.534,0,0.968,0.434,0.968,0.969c0,0.533-0.434,0.967-0.968,0.967s-0.968-0.434-0.968-0.967
	C238.58,252.563,239.014,252.129,239.548,252.129z M283.098,254.064c2.398,0,2.902-1.58,2.902-2.903v-8.709
	c0-2.399-1.957-4.526-3.637-4.81l-3.868-0.969c-0.974-0.247-1.536-0.627-2.354-1.559l-4.863-6.809
	c-1.248-1.596-2.678-2.307-4.633-2.307h-18.388c-1.957,0-3.387,0.711-4.657,2.341l-4.781,6.701c-0.869,1-1.532,1.456-2.332,1.616
	l-5.846,0.974c-2.775,0.578-4.642,2.904-4.642,5.787v6.774c0,2.098,1.772,3.871,3.871,3.871h2.979
	c0.217,1.506,0.926,2.854,1.965,3.871H226v7.741h17.273l9.436,2.902l-9.574,2.946l0.033,1.858l9.109,2.453l-8.986,2.419H226V286h60
	v-7.742h-17.291l-8.986-2.419l9.109-2.453l0.033-1.858l-9.574-2.946l9.436-2.902H286v-7.741h-8.816
	c1.039-1.019,1.748-2.365,1.965-3.871h3.949V254.064z M234.709,253.098c0-2.668,2.171-4.84,4.839-4.84s4.839,2.172,4.839,4.84
	s-2.17,4.838-4.839,4.838C236.88,257.936,234.709,255.766,234.709,253.098z M246.245,254.064h19.51
	c0.218,1.506,0.927,2.854,1.966,3.871h-23.441C245.32,256.919,246.027,255.57,246.245,254.064z M284.064,280.193v3.871h-56.129
	v-3.871H284.064z M261.264,278.258h-10.527l5.265-1.416L261.264,278.258z M265.089,272.391L256,274.836l-9.089-2.447l9.089-2.796
	L265.089,272.391z M256,267.566l-6.145-1.89h12.289L256,267.566z M284.064,259.871v3.871h-56.129v-3.871H284.064z M272.451,257.936
	c-2.668,0-4.838-2.17-4.838-4.838s2.17-4.84,4.838-4.84c2.669,0,4.839,2.172,4.839,4.84S275.12,257.936,272.451,257.936z
	 M272.451,246.323c-3.405,0-6.225,2.53-6.696,5.806h-19.51c-0.472-3.275-3.291-5.806-6.697-5.806c-3.405,0-6.226,2.53-6.696,5.806
	h-2.98c-1.031,0-1.936-0.904-1.936-1.936v-4.838h1.936v1.936h1.936v-1.936c0-1.25-0.687-1.937-1.936-1.937h-1.936
	c0-2.394,1.602-3.58,3.062-3.884l5.837-0.975c1.264-0.252,2.292-0.926,3.5-2.322l4.814-6.74c0.89-1.139,1.732-1.563,3.107-1.563
	h18.389c1.373,0,2.217,0.424,3.084,1.529l4.896,6.848c0.948,1.092,1.849,1.847,3.399,2.237l3.941,0.983
	c0.825,0.142,2.098,1.458,2.098,2.918v8.709c0,0.831-0.137,0.968-0.968,0.968h-3.948
	C278.676,248.854,275.857,246.323,272.451,246.323z M272.451,250.193c-1.602,0-2.903,1.303-2.903,2.902s1.304,2.903,2.903,2.903
	s2.902-1.304,2.902-2.903S274.052,250.193,272.451,250.193z M272.451,254.064c-0.534,0-0.969-0.435-0.969-0.969
	c0-0.533,0.435-0.968,0.969-0.968c0.533,0,0.968,0.435,0.968,0.968C273.419,253.63,272.984,254.064,272.451,254.064z
	 M233.742,267.613h1.936v4.838h-1.936V267.613z M229.871,269.549h1.936v6.773h-1.936V269.549z M279.227,267.613h1.936v3.869h-1.936
	V267.613z M275.354,267.613h1.937v8.709h-1.937V267.613z M261.807,248.258h1.937v1.936h-1.937V248.258z M257.936,248.258h1.937
	v1.936h-1.937V248.258z M280.193,248.258h1.936v1.936h-1.936V248.258z M229.871,281.161h1.936v1.937h-1.936V281.161z
	 M233.742,281.161h1.936v1.937h-1.936V281.161z"/>
<path fill="#FFFFFF" d="M247.759,289.871l-5.308,7.432v2.246h14.516v-9.678l0,0H247.759z M255.032,297.613L255.032,297.613h-10.423
	l4.146-5.807h6.276V297.613z M257.936,289.871v9.678h14.517v-2.246l-5.308-7.432H257.936L257.936,289.871z M259.871,297.613v-5.807
	h6.275l4.147,5.807H259.871z M254.064,300.518h2.902v1.936h-2.902V300.518L254.064,300.518z M239.548,316
	c1.601,0,2.903-1.303,2.903-2.902c0-1.601-1.303-2.904-2.903-2.904c-1.6,0-2.903,1.304-2.903,2.904
	C236.645,314.697,237.948,316,239.548,316z M239.548,312.129c0.534,0,0.968,0.434,0.968,0.969c0,0.533-0.434,0.967-0.968,0.967
	s-0.968-0.434-0.968-0.967C238.58,312.563,239.014,312.129,239.548,312.129z M283.098,314.064c2.398,0,2.902-1.58,2.902-2.903v-8.71
	c0-2.398-1.957-4.525-3.637-4.809l-3.868-0.97c-0.974-0.246-1.536-0.627-2.354-1.559l-4.863-6.81
	c-1.248-1.596-2.678-2.307-4.633-2.307h-18.388c-1.957,0-3.387,0.711-4.657,2.342l-4.781,6.701c-0.869,1-1.532,1.455-2.332,1.615
	l-5.846,0.975c-2.775,0.578-4.642,2.904-4.642,5.787v6.773c0,2.098,1.772,3.871,3.871,3.871h2.979
	c0.217,1.506,0.926,2.854,1.965,3.871H226v7.741h17.273l9.436,2.902l-9.574,2.946l0.033,1.858l9.109,2.453l-8.986,2.419H226V346h60
	v-7.742h-17.291l-8.986-2.419l9.109-2.453l0.033-1.858l-9.574-2.946l9.436-2.902H286v-7.741h-8.816
	c1.039-1.019,1.748-2.365,1.965-3.871h3.949V314.064z M234.709,313.098c0-2.668,2.171-4.84,4.839-4.84s4.839,2.172,4.839,4.84
	s-2.17,4.838-4.839,4.838C236.88,317.936,234.709,315.766,234.709,313.098z M246.245,314.064h19.51
	c0.218,1.506,0.927,2.854,1.966,3.871h-23.441C245.32,316.919,246.027,315.57,246.245,314.064z M284.064,340.193v3.871h-56.129
	v-3.871H284.064z M261.264,338.258h-10.527l5.265-1.416L261.264,338.258z M265.089,332.391L256,334.836l-9.089-2.447l9.089-2.796
	L265.089,332.391z M256,327.566l-6.145-1.89h12.289L256,327.566z M284.064,319.871v3.871h-56.129v-3.871H284.064z M272.451,317.936
	c-2.668,0-4.838-2.17-4.838-4.838s2.17-4.84,4.838-4.84c2.669,0,4.839,2.172,4.839,4.84S275.12,317.936,272.451,317.936z
	 M272.451,306.322c-3.405,0-6.225,2.529-6.696,5.807h-19.51c-0.472-3.275-3.291-5.807-6.697-5.807c-3.405,0-6.226,2.529-6.696,5.807
	h-2.98c-1.031,0-1.936-0.904-1.936-1.936v-4.838h1.936v1.936h1.936v-1.936c0-1.25-0.687-1.937-1.936-1.937h-1.936
	c0-2.396,1.602-3.58,3.062-3.885l5.837-0.974c1.264-0.254,2.292-0.928,3.5-2.322l4.814-6.741c0.89-1.14,1.732-1.563,3.107-1.563
	h18.389c1.373,0,2.217,0.424,3.084,1.53l4.896,6.847c0.948,1.092,1.849,1.848,3.399,2.238l3.941,0.983
	c0.825,0.142,2.098,1.458,2.098,2.918v8.71c0,0.83-0.137,0.967-0.968,0.967h-3.948C278.676,308.854,275.857,306.322,272.451,306.322
	z M272.451,310.193c-1.602,0-2.903,1.303-2.903,2.902s1.304,2.903,2.903,2.903s2.902-1.304,2.902-2.903
	S274.052,310.193,272.451,310.193z M272.451,314.064c-0.534,0-0.969-0.435-0.969-0.969c0-0.533,0.435-0.968,0.969-0.968
	c0.533,0,0.968,0.435,0.968,0.968C273.419,313.63,272.984,314.064,272.451,314.064z M233.742,327.613h1.936v4.838h-1.936V327.613z
	 M229.871,329.549h1.936v6.773h-1.936V329.549z M279.227,327.613h1.936v3.869h-1.936V327.613z M275.354,327.613h1.937v8.709h-1.937
	V327.613z M261.807,308.258h1.937v1.936h-1.937V308.258z M257.936,308.258h1.937v1.936h-1.937V308.258z M280.193,308.258h1.936
	v1.936h-1.936V308.258z M229.871,341.161h1.936v1.937h-1.936V341.161z M233.742,341.161h1.936v1.937h-1.936V341.161z"/>
</svg>
