<?xml version="1.0" encoding="utf-8"?>
<!-- Generator: Adobe Illustrator 16.0.2, SVG Export Plug-In . SVG Version: 6.00 Build 0)  -->
<!DOCTYPE svg PUBLIC "-//W3C//DTD SVG 1.1//EN" "http://www.w3.org/Graphics/SVG/1.1/DTD/svg11.dtd">
<svg version="1.1" id="Capa_1" xmlns="http://www.w3.org/2000/svg" xmlns:xlink="http://www.w3.org/1999/xlink" x="0px" y="0px"
	 width="60px" height="120px" viewBox="226 0 60 120" enable-background="new 226 0 60 120" xml:space="preserve">
<path fill="#D33131" d="M263.828,38.623c0.645,0,1.167-0.522,1.167-1.167c0-0.644-0.522-1.167-1.167-1.167h-1.105v-1.441
	c0-0.644-0.522-1.167-1.167-1.167h-6.812c-0.645,0-1.167,0.522-1.167,1.167v0.27h-1.026l-2.178-6.257l4.571-5.813
	c0.24-0.305,0.313-0.71,0.193-1.08l-6.831-21.159c-0.095-0.294-0.303-0.539-0.579-0.68s-0.596-0.167-0.89-0.072l-17.114,5.525
	c-0.294,0.095-0.539,0.303-0.68,0.579s-0.167,0.596-0.072,0.89l6.831,21.159c0.119,0.37,0.415,0.655,0.788,0.763l7.155,2.057
	l1.424,4.089h-3.768c-1.186,0-2.276,0.51-3.032,1.353h-3.87c-0.644,0-1.167,0.522-1.167,1.167c0,0.645,0.522,1.167,1.167,1.167
	h2.738l-6.48,19.666c-0.117,0.355-0.057,0.746,0.163,1.049S231.493,60,231.868,60c5.289,0,9.966-3.372,11.638-8.389l2.32-6.962
	c0.286-0.858,0.993-1.484,1.846-1.684c0.283,3.186,1.659,6.143,3.948,8.432l0.705,0.705c0.228,0.228,0.526,0.341,0.825,0.341
	s0.597-0.114,0.825-0.341c0.456-0.456,0.456-1.194,0-1.65l-0.705-0.705c-1.864-1.864-2.998-4.263-3.261-6.85h3.569v0.27
	c0,0.644,0.522,1.166,1.167,1.166h6.812c0.645,0,1.167-0.522,1.167-1.166v-1.441h1.105c0.645,0,1.167-0.522,1.167-1.167
	c0-0.645-0.522-1.167-1.167-1.167h-1.105v-0.77H263.828L263.828,38.623z M246.446,2.635l0.533,1.65l-14.894,4.808l-0.533-1.65
	L246.446,2.635z M237.833,26.901l-5.033-15.588l14.894-4.809l5.033,15.588l-4.363,5.548l-3.736,1.213L237.833,26.901z
	 M246.143,30.816l2.193-0.712l1.746,5.014h-2.441L246.143,30.816z M241.292,50.874c-1.176,3.53-4.188,6.054-7.767,6.656
	l4.821-14.632h5.738c-0.192,0.314-0.352,0.653-0.473,1.014L241.292,50.874z M239.116,40.565l0.631-1.917
	c0.236-0.717,0.901-1.198,1.656-1.198h12.175v3.114H239.116z M260.39,42h-4.479v-5.986h4.479V42z"/>
<path fill="#D33131" d="M282.571,47.952l-13.167-8.944l13.167-8.944c0.533-0.362,0.672-1.087,0.31-1.621
	c-0.362-0.533-1.088-0.671-1.62-0.31l-14.588,9.909c-0.319,0.217-0.511,0.579-0.511,0.965c0,0.386,0.191,0.748,0.511,0.965
	l14.588,9.909c0.2,0.136,0.429,0.202,0.654,0.202c0.373,0,0.74-0.179,0.966-0.511C283.243,49.039,283.104,48.313,282.571,47.952z"/>
<path fill="#FFFFFF" d="M263.828,98.623c0.645,0,1.167-0.522,1.167-1.167c0-0.644-0.522-1.167-1.167-1.167h-1.105v-1.441
	c0-0.644-0.522-1.167-1.167-1.167h-6.812c-0.645,0-1.167,0.522-1.167,1.167v0.27h-1.026l-2.178-6.257l4.571-5.813
	c0.24-0.305,0.313-0.71,0.193-1.08l-6.831-21.159c-0.095-0.294-0.303-0.539-0.579-0.68s-0.596-0.167-0.89-0.072l-17.114,5.525
	c-0.294,0.095-0.539,0.303-0.68,0.579s-0.167,0.596-0.072,0.89l6.831,21.159c0.119,0.37,0.415,0.655,0.788,0.763l7.155,2.057
	l1.424,4.089h-3.768c-1.186,0-2.276,0.51-3.032,1.353h-3.87c-0.644,0-1.167,0.522-1.167,1.167c0,0.645,0.522,1.167,1.167,1.167
	h2.738l-6.48,19.666c-0.117,0.355-0.057,0.746,0.163,1.049s0.571,0.483,0.945,0.483c5.289,0,9.966-3.372,11.638-8.389l2.32-6.962
	c0.286-0.858,0.993-1.484,1.846-1.684c0.283,3.186,1.659,6.143,3.948,8.432l0.705,0.705c0.228,0.228,0.526,0.341,0.825,0.341
	s0.597-0.114,0.825-0.341c0.456-0.456,0.456-1.194,0-1.65l-0.705-0.705c-1.864-1.864-2.998-4.263-3.261-6.85h3.569v0.27
	c0,0.644,0.522,1.166,1.167,1.166h6.812c0.645,0,1.167-0.522,1.167-1.166v-1.441h1.105c0.645,0,1.167-0.522,1.167-1.167
	c0-0.645-0.522-1.167-1.167-1.167h-1.105v-0.77H263.828L263.828,98.623z M246.446,62.635l0.533,1.65l-14.894,4.808l-0.533-1.65
	L246.446,62.635z M237.833,86.901l-5.033-15.588l14.894-4.809l5.033,15.588l-4.363,5.548l-3.736,1.213L237.833,86.901z
	 M246.143,90.816l2.193-0.712l1.746,5.014h-2.441L246.143,90.816z M241.292,110.874c-1.176,3.53-4.188,6.054-7.767,6.656
	l4.821-14.632h5.738c-0.192,0.314-0.352,0.653-0.473,1.014L241.292,110.874z M239.116,100.565l0.631-1.917
	c0.236-0.717,0.901-1.198,1.656-1.198h12.175v3.114H239.116z M260.39,102h-4.479v-5.986h4.479V102z"/>
<path fill="#FFFFFF" d="M282.571,107.952l-13.167-8.944l13.167-8.944c0.533-0.362,0.672-1.087,0.31-1.621
	c-0.362-0.533-1.088-0.671-1.62-0.31l-14.588,9.909c-0.319,0.217-0.511,0.579-0.511,0.965c0,0.386,0.191,0.748,0.511,0.965
	l14.588,9.909c0.2,0.136,0.429,0.202,0.654,0.202c0.373,0,0.74-0.179,0.966-0.511C283.243,109.039,283.104,108.313,282.571,107.952z
	"/>
</svg>
