<?xml version="1.0" encoding="utf-8"?>
<!-- Generator: Adobe Illustrator 16.0.2, SVG Export Plug-In . SVG Version: 6.00 Build 0)  -->
<!DOCTYPE svg PUBLIC "-//W3C//DTD SVG 1.1//EN" "http://www.w3.org/Graphics/SVG/1.1/DTD/svg11.dtd">
<svg version="1.1" id="Слой_1" xmlns="http://www.w3.org/2000/svg" xmlns:xlink="http://www.w3.org/1999/xlink" x="0px" y="0px"
	 width="1920px" height="229.007px" viewBox="0 0 1920 229.007" enable-background="new 0 0 1920 229.007" xml:space="preserve">
<path fill-rule="evenodd" clip-rule="evenodd" fill="#EEF2F6" d="M0,147.653c8.534,0.674,17.438,0.078,25.473,2.459
	c5.532,1.639,10.159,1.167,15.635,0.515c0.304-3.778,0.594-7.382,0.931-11.568c9.529-0.594,18.875-1.177,28.71-1.789
	c0,7.105,0,13.207,0,19.549c3.68,0.405,6.962,0.768,10.772,1.188c0.107,2.312,0.22,4.729,0.35,7.504c1.532,0,3.04,0,5.808,0
	c0-7.887-0.513-15.58,0.107-23.18c1.277-15.639,3.146-31.229,4.802-46.834c0.37-3.481,2.453-6.183,3.896-9.201
	c2.714-5.678,3.528-12.27,5.216-18.459c0.268-0.98,0.976-1.84,1.48-2.756l0.012-0.016c-0.836,3.759-1.082,7.23,0.945,10.991
	c1.787,3.315,2.272,7.345,3.481,11.581c3.913,1.65,3.9,5.907,4.13,9.955c0.784,13.77,1.49,27.545,2.234,41.457
	c6.388,1.28,7.145,0.999,9.783-3.865c3.479-1.842,9.235,1.902,10.745-5.846c1.757,6.303,6.017,6.063,10.779,6.029
	c0-15.132,0-30.113,0-45.574c5.631-0.702,10.819-1.351,16.577-2.069c0-7.897,0-15.843,0-24.08
	c11.707-1.284,22.865-3.308,34.046-3.438c6.95-0.082,13.934,2.699,20.901,4.199c7.618,1.639,15.25,3.217,22.847,4.954
	c2.87,0.656,5.656,1.685,8.825,2.647c0,15.887,0,31.385,0,47.195c5.036,0.472,9.598,0.898,14.801,1.386c0-6.752,0-13.183,0-20.411
	c7.131,0,13.673,0,20.27,0c0.257-2.271,0.424-3.744,0.661-5.842c4.756-0.26,9.635-0.525,14.935-0.814c0-11.309,0-22.293,0-33.442
	c1.998-0.747,3.658-1.367,5.548-2.073c0.113-2.467,0.226-4.934,0.324-7.1c12.789-6.451,25.605-4.352,38.89-1.163
	c0,28.571,0,57.301,0,86.27c1.586,0.372,2.809,0.659,4.378,1.028c0.147,3.187,0.298,6.472,0.464,10.104
	c3.466-0.271,6.775-1.087,9.905-0.639c4.492,0.644,3.846,4.968,4.553,8.713c1.278,0.167,2.638,0.345,4.512,0.589
	c0-28.822,0-57.214,0-86.079c8.359,0,16.268,0,24.374,0c0.39-1.963,0.697-3.505,0.987-4.963c7.098-1.91,14.77,1.941,21.541-2.557
	c1.447,0.793,3.301,1.809,5.701,3.123c0.115,0.701,0.349,2.125,0.638,3.883c7.923,0,15.695,0,24.15,0c0,2.313,0,4.262,0,6.212
	c0,30.296,0.133,60.593-0.143,90.886c-0.041,4.549,2.687,6.251,5.169,9.752c0.993-2.044,1.515-3.119,2.195-4.52
	c1.103,0.771,2.193,1.53,3.593,2.507c0.281-0.722,0.677-1.265,0.68-1.811c0.053-10.209-0.079-20.423,0.139-30.628
	c0.096-4.52,0.883-9.023,1.42-14.141c18.732-2.537,36.745-1.599,55.112-1.94c0,7.338,0,14.145,0,21.098
	c1.674,0.49,3.035,0.889,3.77,1.104c1.195,9.956,2.337,19.462,3.479,28.967c0.576-0.018,1.152-0.035,1.728-0.053
	c0-4.122,0-8.246,0-12.236c8.233-1.739,15.696-3.317,23.336-4.934c0.261-2.661,0.5-5.094,0.738-7.526
	c0.209-0.003,0.419-0.007,0.63-0.01c0.202,1.904,0.405,3.811,0.645,6.064c1.921,0.245,3.865,0.492,5.568,0.709
	c1.896,2.148,3.672,4.161,6.127,6.941c0,6.432,0,13.935,0,21.636c4.209,0.528,8.099,1.017,12.613,1.582
	c0.072,1.371,0.214,4.079,0.357,6.807c3.2,0.691,7.412-2.146,8.653,3.338c2.027-0.147,3.966-0.289,6.463-0.473
	c0-3.578-0.228-7.051,0.07-10.479c0.249-2.865-2.144-7.174,4.071-7.562c-0.43-5.664-0.862-11.132-1.254-16.603
	c-0.18-2.518-0.639-4.52,2.728-6.248c1.959-1.005,2.288-5.56,2.997-8.601c0.487-2.088,0.369-4.319,0.521-6.487
	c0.666,0.071,1.331,0.144,1.997,0.215c-0.146,1.473-0.241,2.952-0.449,4.416c-0.632,4.424,0.481,8.107,3.916,11.176
	c0.851,0.76,1.111,2.585,1.064,3.9c-0.165,4.655-0.8,9.297-0.847,13.949c-0.062,6.018,4.503,10.471,10.448,10.558
	c3.814,0.055,7.628,0.01,12.008,0.01c0,5.657,0,11.093,0,16.787c1.915,0,3.257,0,4.689,0c0-14.996,0-29.662,0-45.16
	c13.022,0,25.871,0,39.289,0c0-5.731,0-11.646,0-18.204c12.866-1.938,25.131,0.491,38.306,0.397c0,5.522,0.042,10.621-0.016,15.717
	c-0.036,3.161-0.26,6.146,3.467,7.835c0.941,0.426,1.293,2.926,1.331,4.486c0.147,6.182,0.061,12.368,0.061,18.614
	c3.381,2.897,9.712,2.076,10.462,8.014c2.29,0.833,4.453,1.62,6.648,2.419c0-2.614-0.185-6.087,0.044-9.532
	c0.337-5.074,3.127-6.536,7.731-3.831c0-10.138,0-20.051,0-30.249c1.674-0.396,3.036-0.719,4.707-1.114c0-10.002,0-19.827,0-29.653
	c0.465,0.093,0.931,0.185,1.396,0.276c0.671-1.857,1.857-3.696,1.919-5.572c0.23-7.022,0.809-14.156-0.129-21.058
	c-0.777-5.713,3.019-8.904,4.8-13.191c0.288-0.691,1.609-1.117,2.531-1.344c8.407-2.083,16.746-1.975,25.544,1.188
	c0,18.278,0,36.746,0,55.522c2.653,0.173,4.75,0.309,7.637,0.496c0,12.396,0,24.661,0,36.875c6.152,1.175,11.516,2.199,17.28,3.3
	c0.204,1.031,0.485,2.454,0.824,4.167c1.257,0.338,2.637,0.708,4.406,1.183c0,6.895,0,13.881,0,21.271c2.595,0,4.824,0,7.646,0
	c1.143-1.219,2.713-2.894,4.476-4.774c0.893,0.586,1.862,1.223,3.69,2.422c0-10.334,0-19.901,0-29.661
	c1.871-0.576,3.199-0.985,4.98-1.534c0-1.731,0-3.535,0-5.339c0-29.627-0.141-59.255,0.153-88.88
	c0.043-4.407,1.807-8.928,3.462-13.12c0.584-1.476,3.231-2.122,5.471-3.47c0-3.568,0-7.864,0-11.852
	c4.041-0.291,7.388-0.529,11.043-0.791c-0.086,3.123,9.192-2.695,5.596,5.713c5.253,0,9.682,0,13.688,0
	c0.653,4.48,0.925,7.923,1.751,11.225c0.332,1.326,1.976,2.274,2.854,3.518c1.069,1.514,2.257,3.044,2.881,4.758
	c6.46,17.723,1.58,36.098,2.873,54.134c0.607,8.475,0.104,17.032,0.104,25.77c1.657,0.325,3.049,0.598,4.848,0.95
	c0,12.488,0,24.813,0,37.067c5.991,1.859,2.477-4.269,5.631-5.506c0.231,2.919,0.443,5.591,0.659,8.309
	c4.253,3.109,5.236-3.313,9.343-2.198c0-14.248,0-27.715,0-41.391c2.234-0.199,3.668-0.327,5.519-0.493
	c0.266-2.9,0.516-5.644,0.822-8.98c5.943,0.368,11.696,0.724,17.833,1.104c0-20.427,0-40.915,0-62.144
	c4.37-1.158,8.606-2.282,13.656-3.621c0-9.334,0-19.033,0-28.731c0.447,0.003,0.894,0.006,1.341,0.009c0,8.834,0,17.668,0,26.545
	c3.555,2.072,6.917,3.652,9.775,5.889c1.11,0.867,1.495,3.213,1.503,4.889c0.055,11.715-0.102,23.432-0.142,35.147
	c-0.036,10.346-0.008,20.69-0.008,30.647c5.679-1.297,11.05-2.524,16.238-3.71c-0.935-4.14-1.884-8.341-2.98-13.2
	c3.533,0,5.917,0,8.344,0c1.061,1.616,2.145,3.269,3.158,4.811c4.344-0.594,8.395-1.148,12.762-1.745
	c0.225-1.004,0.494-2.21,0.789-3.532c5.039,0,9.824,0,15.186,0c0-16.829,0-33.49,0-50.712c11.957-0.513,23.367-1.138,34.785-1.362
	c1.941-0.038,3.965,1.548,5.867,2.545c4.994,2.623,9.943,5.335,15.611,8.388c0,19.871,0,40.391,0,61.462
	c2.889-0.493,5.141-0.878,7.83-1.339c0-3.184,0-6.293,0-9.768c2.008-0.171,3.6-0.306,5.539-0.471
	c0.826-5.733,5.684-2.845,9.199-3.995c0.158-2.013,0.322-4.114,0.516-6.59c8.529-0.896,16.363-0.611,22.971,6.367
	c2.158,2.28,6.254,2.7,9.734,4.08c0,5.727,0,11.381,0,17.626c5.371,0,10.418,0,15.566,0c0.496,1.77,0.846,3.01,1.279,4.559
	c1.371,0.339,2.93,0.723,4.924,1.215c0,8.323,0,16.616,0,24.082c2.762,1.72,4.762,3.086,6.871,4.253
	c3.996,2.212,8.73-0.556,8.861-5.183c0.461-16.301,1.145-32.603,1.252-48.906c0.201-30.464,0.059-60.929,0.059-91.393
	c0-1.814,0-3.63,0-5.673c1.932-0.368,3.508-0.668,5.246-1.001c0.215-1.813,0.426-3.6,0.668-5.658
	c1.637-0.274,3.217-0.54,5.049-0.848c0.324-3.563,0.639-7.034,0.975-10.728c1.883-0.219,3.648-0.422,5.732-0.664
	c0.15-1.604,0.303-3.216,0.492-5.223c4.375-0.491,5.002-3.434,5.18-7.566c0.168-3.915,1.912-7.763,3.104-12.156
	c6.465,5.113,5.52,11.756,6.795,18.023c1.23,0.154,2.598,0.326,3.773,0.475c3.834,9.438,10.402,17.294,15.328,27.265
	c3.695,0.463,3.494,4.478,3.494,8.226c-0.002,19.248-0.074,38.497-0.123,57.746c-0.004,1.794,0,3.587,0,5.016
	c11.201,0,21.773,0,33.01,0c0,3.68,0,7.641,0,11.602c0,8.202,0,16.404,0,24.605c0,7.045,1.613,9.362,8.234,11.796
	c1.395,0.513,2.805,0.991,4.84,1.71c0,1.985,0,4.11,0,6.233c0,2.15,0,4.3,0,6.709c1.953,0.243,3.533,0.439,5.664,0.704
	c0,4.68,0,9.286,0,14.207c3.633,0.16,6.719,0.298,10.502,0.466c0.883,7.13,1.74,14.042,2.598,20.954
	c0.564-0.016,1.129-0.03,1.693-0.046c0.73-9.731-0.029-19.553,0.418-29.703c2.494-0.455,4.879-0.891,7.574-1.382
	c0.229-1.213,0.49-2.613,0.826-4.411c7.26,0,14.385-0.147,21.494,0.126c1.389,0.054,2.715,1.742,4.51,2.979c0-4.698,0-9.513,0-14.44
	c4.334-0.53,7.977-5.014,11.982,1.022c1.086-2.424,1.838-4.104,2.756-6.156c5.438,0,11.041,0,17.221,0c0-6.634,0-12.914,0-19.519
	c13.828-1.705,27.08-3.279,40.994-0.253c0,9.06,0,18.008,0,27.258c2.494,0,4.389,0,6.816,0c0-14.637,0-29.126,0-44.136
	c8.16,0,15.787,0,24.186,0c0,23.059,0,45.479,0,67.899c0.508,0.031,1.018,0.062,1.525,0.092c1.834-3.671,0.682-7.794,0.873-11.687
	c0.197-3.984,0.043-7.986,0.043-12.55c4.078,0,7.801,0,11.932,0c0.27-2.793,0.488-5.058,0.738-7.652c1.785,0,3.512,0,5.814,0
	c0,5.345,0,10.608,0,15.874c0.393-0.002,0.787-0.003,1.18-0.004c0-20.048,0-40.095,0-59.939c12.379-3.943,34.764-4.817,53.443-2.163
	c0,11.378,0,22.848,0,34.709c4.729,0,8.939,0,13.754,0c0.088-1.744,0.254-3.502,0.256-5.259c0.021-16.068,0.346-32.147-0.086-48.205
	c-0.387-14.418,4.537-27.58,8.379-41.021c0.373-1.302,2.441-2.11,4.162-3.503c0.096-0.828,0.266-2.302,0.492-4.293
	c4.014-0.491,8.055-0.985,12.156-1.486c0.273-1.816,0.533-3.548,0.891-5.926c8.367,9.932,18.996,3.877,28.879,5.699
	c0,42.355,0,84.941,0,128.173c12.756,2.121,25.063,0.681,38.035,0.607c0-2.315,0-4.087,0-5.858c0-12.89-0.018-25.778,0.008-38.666
	c0.014-6.298,3.533-9.898,9.635-10.842c5.203-0.803,10.311-2.249,15.879-3.504c0-18.174,0-36.061,0-53.949
	c0.48-0.088,0.961-0.178,1.441-0.268c0.318,1.478,0.902,2.953,0.91,4.433c0.072,13.223,0.043,26.446,0.043,39.67
	c0,1.815,0,3.63,0,5.892c3.406,0,6.49,0,9.678,0c0.512,1.566,0.904,2.766,1.309,4.011c7.396,0.504,14.639,0.998,22.266,1.52
	c0.352,2.07,0.709,4.179,1.117,6.586c4.451,0.324,3.559,3.854,3.748,6.84c0.193,3.077,0.475,6.148,0.779,10.014
	c8.08-4.634,15.99-4.896,24.004-4.821c3.164,0.029,5.348,1.528,7.994,3.022c8.893,5.016,11.01,12.437,10.334,22.029
	c-0.514,7.255,0.422,14.612,0.713,21.925c0.408,0.14,0.818,0.279,1.227,0.419c0.564-1.066,1.57-2.112,1.621-3.204
	c0.342-7.169,0.543-14.347,0.66-21.524c0.1-5.955,0.02-11.913,0.02-18.25c3.186-0.182,5.611-0.319,8.258-0.471
	c0.564-4.28,3.674-4.998,7.631-4.885c0.205-2.921,0.396-5.647,0.59-8.374c0.424-0.046,0.848-0.091,1.271-0.137
	c0.35,2.621,0.699,5.243,1.045,7.834c0.883-0.272,1.984-0.612,3.301-1.02c0.119,1.734,0.227,3.327,0.334,4.92
	c0.268,0.038,0.535,0.077,0.801,0.116c0.383-1.6,0.764-3.199,0.971-4.071c3.227,0,6.207,0,9.186,0
	c0.129-0.387,0.258-0.773,0.387-1.161c1.588,1.833,3.176,3.667,5.037,5.817c1.205,0.069,2.846,0.164,5.021,0.288
	c4.436,14.274,0.711,28.991,1.471,44.188c5.369-1.445,11.551,2.108,15.742-4.708c2.719,0.536,5.75,1.136,9.275,1.831
	c0-8.723-0.037-17.228,0.029-25.729c0.016-1.99-0.813-4.313,2.188-5.405c0.682-0.248,0.793-2.691,0.799-4.126
	c0.059-12.55,0.035-25.101,0.035-37.942c1.314-0.573,2.602-1.133,4.014-1.747c0.73-3.334,1.479-6.738,2.209-10.072
	c10.852-3.984,22.385,6.646,21.984,18.537c-0.904,26.754-0.617,53.548-0.811,80.326c-0.014,1.968-0.002,3.938-0.002,5.502
	c4.504,2.508,10.668-1.159,12.908,5.469c1.301-0.225,2.564-0.443,4.277-0.74c0-6.936,0-13.721,0-20.769
	c2.516-0.271,4.592-0.496,6.813-0.736c0.951-3.919,1.863-7.685,3.006-12.391c6.059-0.601,12.725-1.263,19.408-1.927
	c1.703,3.265,3.16,6.06,4.928,9.446c3.299,0,7.363,0,11.936,0c0.324-4.574,0.635-8.978,0.945-13.382
	c0.533-0.04,1.066-0.08,1.598-0.119c0.338,4.235,0.678,8.469,1.049,13.13c1.104,0.148,2.324,0.313,4.164,0.56
	c0-6.39,0-12.475,0-18.56c0.467-0.108,0.932-0.218,1.398-0.327c0.438,1.149,1.133,2.271,1.262,3.454
	c0.375,3.489,0.576,7.002,0.748,10.512c0.225,4.553,3.021,6.319,7.057,6.693c13.727,1.27,13.729,1.252,13.73,14.919
	c0,2.305,0,4.608,0,7.239c4.922,0,9.326,0,13.729,0c0,8.369,0,16.74,0,25.109c-640,0-1280,0-1920,0C0,201.889,0,174.771,0,147.653z"
	/>
</svg>
