<?xml version="1.0" encoding="utf-8"?>
<!-- Generator: Adobe Illustrator 16.0.2, SVG Export Plug-In . SVG Version: 6.00 Build 0)  -->
<!DOCTYPE svg PUBLIC "-//W3C//DTD SVG 1.1//EN" "http://www.w3.org/Graphics/SVG/1.1/DTD/svg11.dtd">
<svg version="1.1" id="Слой_1" xmlns="http://www.w3.org/2000/svg" xmlns:xlink="http://www.w3.org/1999/xlink" x="0px" y="0px"
	 width="130px" height="650px" viewBox="0 0 130 650" enable-background="new 0 0 130 650" xml:space="preserve">
<path fill="#CBCACA" d="M117.687,625.679c-2.049,0-3.978,0.518-5.667,1.427c-26.104-33.627-48.052-70.622-65.136-110.19
	c1.088-1.086,1.761-2.587,1.761-4.247c0-3.314-2.686-6-6-6c-0.022,0-0.042,0.003-0.064,0.003
	c-14.537-35.812-25.121-73.635-31.169-112.938c1.829-1.028,3.067-2.984,3.067-5.231c0-2.848-1.986-5.227-4.647-5.841
	c-2.859-21.767-4.353-43.958-4.353-66.492c0-15.9,0.747-31.628,2.186-47.159c2.661-0.614,4.648-2.993,4.648-5.841
	c0-2.409-1.423-4.48-3.471-5.435c4.561-39.573,13.676-77.779,26.826-114.072c0.048,0.001,0.096,0.007,0.144,0.007
	c3.314,0,6-2.686,6-6c0-1.848-0.837-3.5-2.151-4.6C54.811,94.016,74.626,57.271,98.467,23.557c1.303,0.486,2.706,0.765,4.176,0.765
	c6.617,0,12-5.383,12-12s-5.383-12-12-12s-12,5.383-12,12c0,3.605,1.606,6.836,4.131,9.038
	c-20.996,29.752-38.745,61.675-53.058,95.516c-2.075,4.907-4.053,9.844-5.968,14.797c-3.283,0.035-5.935,2.705-5.935,5.997
	c0,1.78,0.779,3.373,2.01,4.472C18.329,179.427,9.309,217.958,4.817,257.365c-2.588,0.666-4.504,3.008-4.504,5.805
	c0,2.36,1.366,4.396,3.348,5.376c-1.447,15.749-2.182,31.63-2.182,47.624c0,22.564,1.462,44.905,4.335,66.964
	c-1.975,0.981-3.335,3.014-3.335,5.37c0,2.949,2.129,5.396,4.933,5.9c5.962,38.968,16.426,77,31.302,113.741
	c-1.265,1.1-2.069,2.717-2.069,4.526c0,3.314,2.686,6,6,6c0.153,0,0.302-0.012,0.452-0.022
	c17.179,39.868,39.135,77.052,65.595,111.115c-1.864,2.115-3.005,4.882-3.005,7.917c0,6.617,5.383,12,12,12s12-5.383,12-12
	S124.304,625.679,117.687,625.679z M94.643,12.321c0-4.411,3.589-8,8-8s8,3.589,8,8s-3.589,8-8,8S94.643,16.732,94.643,12.321z
	 M35.813,135.669c1.103,0,2,0.897,2,2s-0.897,2-2,2s-2-0.897-2-2S34.71,135.669,35.813,135.669z M4.313,263.169c0-1.103,0.897-2,2-2
	s2,0.897,2,2s-0.897,2-2,2S4.313,264.272,4.313,263.169z M8.479,390.503c-1.103,0-2-0.897-2-2s0.897-2,2-2s2,0.897,2,2
	S9.582,390.503,8.479,390.503z M42.646,514.669c-1.103,0-2-0.897-2-2s0.897-2,2-2s2,0.897,2,2S43.749,514.669,42.646,514.669z
	 M117.687,645.679c-4.411,0-8-3.589-8-8c0-3.176,1.865-5.917,4.554-7.208c0.147,0.018,0.298,0.025,0.445,0.045
	c-0.049-0.063-0.098-0.126-0.147-0.188c0.967-0.416,2.031-0.648,3.149-0.648c4.411,0,8,3.589,8,8S122.098,645.679,117.687,645.679z"
	/>
</svg>
