<?xml version="1.0" encoding="utf-8"?>
<!-- Generator: Adobe Illustrator 16.0.2, SVG Export Plug-In . SVG Version: 6.00 Build 0)  -->
<!DOCTYPE svg PUBLIC "-//W3C//DTD SVG 1.1//EN" "http://www.w3.org/Graphics/SVG/1.1/DTD/svg11.dtd">
<svg version="1.1" id="Слой_1" xmlns="http://www.w3.org/2000/svg" xmlns:xlink="http://www.w3.org/1999/xlink" x="0px" y="0px"
	 width="59.999px" height="60px" viewBox="0.5 20.5 59.999 60" enable-background="new 0.5 20.5 59.999 60" xml:space="preserve">
<path fill="#D32F2F" d="M15.017,78.564h1.935V80.5h-1.935V78.564z M36.307,28.242h1.937v1.936h-1.937V28.242z M30.5,61.146
	c-4.268,0-7.742,3.474-7.742,7.74c0,4.27,3.475,7.742,7.742,7.742c4.268,0,7.742-3.475,7.742-7.742S34.768,61.146,30.5,61.146z
	 M30.5,74.693c-3.202,0-5.807-2.604-5.807-5.808c0-3.2,2.604-5.806,5.807-5.806s5.807,2.604,5.807,5.806
	C36.307,72.089,33.702,74.693,30.5,74.693z M36.307,51.468v-5.807h4.182l1.936,4.839h6.465V23.7l-0.628-0.236
	C47.936,23.343,40.238,20.5,30.5,20.5c-9.74,0-17.437,2.843-17.76,2.964L12.113,23.7v26.8h6.462l1.936-4.839h4.183v5.807
	c0,2.762,0,4.455-3.423,9.679h-6.254v15.482h7.286c2.17,2.533,4.993,3.871,8.197,3.871c3.206,0,6.025-1.338,8.195-3.871h7.287
	V61.146H39.73C36.307,55.923,36.307,54.229,36.307,51.468z M30.5,22.436c7.829,0,14.439,1.962,16.451,2.625v3.182h-6.773v1.936
	h6.773v1.936H14.049v-1.936h20.322v-1.936H14.049v-3.182C16.062,24.397,22.671,22.436,30.5,22.436z M19.199,43.726l-1.936,4.839
	h-3.215V34.049H46.95v14.516h-3.214l-1.936-4.839H19.199z M44.049,67.919h-3.871v1.937h3.871v4.838h-6.271l-0.291,0.363
	c-1.853,2.328-4.203,3.508-6.985,3.508s-5.132-1.18-6.986-3.508l-0.291-0.363h-6.271v-4.838h3.871v-1.937h-3.871v-4.838h5.357
	l0.287-0.433c4.033-6.049,4.033-8.203,4.033-11.182V45.66h7.742v5.807c0,2.979,0,5.132,4.033,11.182l0.286,0.433h5.357V67.919z
	 M8.926,72.074c-2.253-2.254-3.595-5.251-3.587-8.025c0.007-2.74,1.381-5.818,3.587-8.026l-1.369-1.368
	C4.962,57.251,3.41,60.76,3.403,64.05c-0.008,3.273,1.546,6.785,4.154,9.394L8.926,72.074z M2.436,67.919H0.5
	C0.5,74.855,6.144,80.5,13.081,80.5v-1.936C7.212,78.564,2.436,73.786,2.436,67.919z M53.441,73.441
	c2.608-2.607,4.162-6.119,4.154-9.394c-0.008-3.289-1.558-6.799-4.154-9.395l-1.367,1.368c2.203,2.208,3.578,5.286,3.587,8.026
	c0.008,2.773-1.334,5.771-3.587,8.025L53.441,73.441z M58.564,67.919c0,5.867-4.778,10.646-10.646,10.646V80.5
	c6.938,0,12.581-5.645,12.581-12.581H58.564z M28.564,47.597H30.5v1.936h-1.936V47.597z M28.564,51.468H30.5v1.936h-1.936V51.468z"
	/>
</svg>
