<?xml version="1.0" encoding="utf-8"?>
<!-- Generator: Adobe Illustrator 16.0.2, SVG Export Plug-In . SVG Version: 6.00 Build 0)  -->
<!DOCTYPE svg PUBLIC "-//W3C//DTD SVG 1.1//EN" "http://www.w3.org/Graphics/SVG/1.1/DTD/svg11.dtd">
<svg version="1.1" id="Слой_1" xmlns="http://www.w3.org/2000/svg" xmlns:xlink="http://www.w3.org/1999/xlink" x="0px" y="0px"
	 width="60px" height="60px" viewBox="38.313 0 60 60" enable-background="new 38.313 0 60 60" xml:space="preserve">
<path fill="#D32F2F" d="M93.154,53.41L85.21,34.233c-0.202-0.489-0.762-0.721-1.251-0.519c-0.488,0.203-0.72,0.763-0.518,1.251
	l7.181,17.336l-6.55-1.898c-0.43-0.125-0.889,0.065-1.105,0.458l-3.29,5.974l-7.704-18.603c8.893-1.715,15.631-9.556,15.631-18.941
	C87.604,8.654,78.95,0,68.313,0S49.021,8.654,49.021,19.292c0,4.309,1.42,8.292,3.815,11.506L43.471,53.41
	c-0.141,0.34-0.074,0.73,0.172,1.005c0.244,0.274,0.625,0.383,0.979,0.281l7.728-2.239l3.881,7.048C56.4,59.812,56.723,60,57.068,60
	c0.019,0,0.035,0,0.054-0.001c0.367-0.021,0.69-0.25,0.832-0.59l7.421-17.918c0.203-0.488-0.029-1.048-0.518-1.25
	c-0.489-0.202-1.049,0.029-1.252,0.518l-6.658,16.077l-3.29-5.974c-0.216-0.393-0.677-0.583-1.105-0.458l-6.55,1.898l8.221-19.847
	c3.523,3.769,8.535,6.128,14.09,6.128c0.572,0,1.141-0.027,1.701-0.076l8.657,20.901c0.142,0.34,0.464,0.569,0.832,0.59
	C79.521,60,79.539,60,79.557,60c0.348,0,0.668-0.188,0.838-0.496l3.881-7.048l7.728,2.239c0.354,0.103,0.733-0.007,0.979-0.281
	C93.229,54.141,93.295,53.75,93.154,53.41L93.154,53.41z M50.936,19.292c0-9.582,7.795-17.377,17.377-17.377
	S85.689,9.71,85.689,19.292s-7.795,17.376-17.377,17.376S50.936,28.874,50.936,19.292z M79.375,15.697
	c-0.109-0.339-0.4-0.589-0.752-0.648l-6.441-1.081l-3.02-5.793c-0.165-0.317-0.492-0.515-0.85-0.515
	c-0.356,0-0.684,0.198-0.849,0.515l-3.019,5.793l-6.442,1.081c-0.353,0.059-0.642,0.309-0.752,0.648
	c-0.11,0.339-0.022,0.712,0.228,0.967l4.576,4.661l-0.963,6.461c-0.052,0.353,0.096,0.706,0.385,0.916
	c0.289,0.209,0.67,0.241,0.989,0.082l5.849-2.912l5.848,2.912c0.135,0.067,0.281,0.101,0.427,0.101c0.199,0,0.396-0.062,0.563-0.183
	c0.289-0.21,0.438-0.563,0.385-0.916l-0.963-6.461l4.576-4.662C79.398,16.409,79.486,16.037,79.375,15.697L79.375,15.697z
	 M72.871,20.324c-0.21,0.214-0.309,0.515-0.264,0.812l0.763,5.116l-4.63-2.306c-0.135-0.067-0.281-0.101-0.428-0.101
	c-0.146,0-0.291,0.034-0.427,0.101l-4.63,2.306l0.762-5.116c0.045-0.297-0.054-0.598-0.264-0.812l-3.624-3.691l5.101-0.856
	c0.297-0.049,0.553-0.235,0.69-0.501l2.392-4.586l2.39,4.586c0.139,0.267,0.396,0.452,0.69,0.501l5.102,0.856L72.871,20.324z
	 M82.816,20.257c-0.524-0.07-1.006,0.299-1.075,0.824c-0.888,6.703-6.662,11.758-13.429,11.758c-7.471,0-13.547-6.077-13.547-13.547
	S60.842,5.745,68.313,5.745c6.768,0,12.541,5.055,13.429,11.758c0.069,0.524,0.551,0.894,1.075,0.824
	c0.523-0.069,0.893-0.551,0.822-1.075C82.626,9.6,76.037,3.83,68.313,3.83c-8.525,0-15.461,6.936-15.461,15.462
	s6.936,15.461,15.461,15.461c7.725,0,14.313-5.77,15.328-13.421C83.709,20.808,83.34,20.327,82.816,20.257z"/>
</svg>
